<svg xmlns="http://www.w3.org/2000/svg" width="792" height="612" viewBox="0 0 792 612"><g id="Layer_1"><text transform="translate(100.262 328.192)" fill="#4E2F1B" font-family="'SourceSansPro-Black'" font-size="72">FREED</text><text transform="translate(481.5 328.192)" fill="#4E2F1B" font-family="'SourceSansPro-Black'" font-size="72">M</text><path fill="#395B88" d="M598.5 417.5c.2-3.1-.6-6.5-2.9-10.4-.8-1.4-3-1.1-3.4.4-1.5 5.7-1.8 12.7-4.2 18.2-8.1 3.9-21.5 2.8-27.7-3.1-2.3-2.2-3.9-4.7-4.9-7.5.8-1.5 1.9-2.9 3-4.1 4.5-4.9 11.9-7.4 17.4-2.8 1.1.9 3 .4 3-1.2 0-4.2 0-8.3.2-12.5.7-2.1 2-4 2.9-6 .6-1.2-1-2.1-1.7-1-.3.4-.5.8-.8 1.2.1-.8.2-1.6.2-2.3.2.1.3.1.5.2 2.2.9 4.1-2.2 1.9-3.2-10.1-4.6-20.3-3.2-26.9 6.2-3.5 4.9-5.1 11.1-5.3 17.2-1.2 3.3-1.4 6.5-.8 9.6-.6 2.6-.5 5.1 0 7.3-2.8-1-6.1-1-8.9-.1-2.7.9-4.8 2.8-6.1 5.2-2.3.9-4.1 2.7-3.7 5.5v.2c-3.7.4-7.1 1.6-9.9 3.9l-1.2-.6c-4.8-4.1-12-5.1-16.1 1.2-.5.8-1 1.8-1.4 2.8-4-1.1-8.2-1.4-12-.4-.2-.7-.6-1.4-1.1-2.2-1-1.4-2.5-2.9-4.1-4.1-1-.9-2.2-1.6-3.4-2.1-.4-.2-.9-.3-1.4-.3-2.5-.7-5-.3-6.9 1.9-.6.7-1.1 1.5-1.5 2.3-.1.1-.1.2-.2.3-3.1-2.5-6.9-4.4-10.8-5.8 1.2-2.2 1.8-4.5.9-6.7-1.3-3.1-4.9-3.3-8.7-2.5-1.7-1.4-3.8-1.9-6.1-.7-.3.2-.7.4-1 .6-.8-1.3-1.7-2.6-2.7-3.8-.8-1.2-1.7-2.4-2.7-3.4.5-1 .8-2.1.9-3.4.1-1-.1-1.9-.4-2.8.5-2.6-.3-5.2-1.5-7.6-2-3.8-5.2-5.7-8.4-4.9-.7-1.7-1.7-3.3-2.9-4.8-.2-2.6-.9-5.1-2.3-7.3-.6-1.8-1.6-3.5-3-4.9 0-.1-.1-.2-.1-.2-2.5-6.3-9.4-7.2-14.4-3.3-1.2.9-2 2-2.6 3.1-.3.5-.6 1.1-.9 1.8-.1.3-.2.5-.2.8-.1.5-.1.9.1 1.2-.1 2 .4 4 1.3 5.9 2 4.2 6.5 7.4 11.2 7.6 1.6 2 3.7 3.5 6.1 4.8.1.2.2.4.4.6-1.4.9-2.5 2.4-3.1 4.5-1.2 4.4.2 10 1.5 14.2.9 2.7 2.3 5.4 5.1 6.4 2.2.8 4.2.1 5.9-1.4 1.6 2.7 3.6 5.1 5.8 7.3.1 1.2.6 2.5 1.6 3.6 0 1.8.2 3.5 1.2 4.9 1.4 1.9 3.2 2.3 5.2 1.8 2.2.3 4.6-.1 6.5-1 1.4.1 2.8-.1 4.1-.5.4-.1.7-.2 1-.4.6.3 1.2.5 1.8.7 3.1 1.7 6.3 3.2 9.6 4.3.5.9 1.1 1.6 1.9 2.2.3.6.6 1.1.9 1.6 3.6 5.6 10.4 4.6 14.9 1 4.3 2.9 9.8 3.3 15.2 3.2.3.3.6.7.9.9 2.5 2.1 5.8 2.3 9 1.8 2.9.5 6.1-.3 8.4-2.1 3-.7 5.8-1.9 8.1-3.2 1.4-.8 1-2.3 0-2.9 2.9-.9 5.5-2.6 7.7-4.8 1 .4 2 .6 3.1.7 1.5.5 3.1.6 4.6.5.8 0 1.7 0 2.5-.3 4.1-1.1 7.5-5.4 8.7-9.8 2.2 3.5 5.8 5.9 10 7.4 6.5 4.7 14.4 6.5 22.1 2.5.5-.2.9-.5 1.3-.8 3.9-1.4 7.1-4.7 8.9-10.5 0-.2.1-.3.1-.4.2-.3.3-.7.5-1 1.7-4.5 1.2-9.5.2-14.4zm-186.6-27.8c-1.9-1.6-3.2-3.9-3.4-6.4 0-.3 0-.6.1-.9.7 3.4 2.7 6.6 5.6 8.2 0 .2.1.5.1.7-.8-.5-1.7-1-2.4-1.6zm5.6-3.7l-.3.6c-.1-.1-.2-.1-.3-.2-.8-.5-1.7-.3-2.2.3-1.8-1.4-2.8-4.5-3.1-6.9 1.4.2 2.8.2 4.3.6.1 0 .3 0 .4-.1.7.4 1.3.9 1.9 1.4-.5 1.5-.7 2.9-.7 4.3zm7.7 31.7c1.3.5 2.7.6 4.1.4.1.4.2.8.3 1.1-1.9.6-3.6.3-4.4-1.5zm3.7 5.4c-.6.2-1.1.1-1.5-.2.8 0 1.7-.1 2.5-.3-.4.2-.7.4-1 .5zm6.7-11.3c-1.1-.6-2.3-1-3.4-1.3l-.6-.3c-1.1-.4-2.3.6-2.3 1.7v1.2c-.1.8-.1 1.5-.1 2.2-.6.1-1.2.2-1.8.1-1.2 0-2.1-.5-2.6-1.1-.1-2.6.5-5.5 1.5-8.1.1.2.2.4.3.5.9 1.6 2.9.9 3.3-.6 1 .3 1.9-1 1.4-1.9 2.2 1 4.2 2.8 5.3 4.8v.3c-.1.6-.2 1.2-.4 1.9-.3.3-.5.4-.6.6zm5.8 15.2c-.6-.3-1.1-.6-1.6-1-1.3-1.6-2.4-3.4-3.4-5.3.2-.3.3-.6.5-1 1.9 2.2 3.5 4.6 4.5 7.1-.1.1 0 .1 0 .2zm10.1 2.1c-.9.3-1.5 1.3-1.3 2.4.3 1.6.8 3 1.5 4.2-.6.6-1.3 1.1-2 1.6-.1 0-.1.1-.2.1-1.3-.4-2.7-.9-4-1.5 0-.1.1-.1.1-.2.9.2 1.9-.3 2.1-1.3.4-2.3.3-4.5-.2-6.7.9-.3 1.7-.6 2.3-.8.5-.2 1-.3 1.6-.5.3.3.6.7.8 1.2-.4.4-.8 1-.7 1.5zm6-1.1c-.1.5-.4.9-.6 1.4-.4-1.2-.9-2.4-1.5-3.5h.2c.9 0 1.9.2 2.1.5.1.2 0 .8-.2 1.6zm4.8 10.3c-.7-.4-1.4-.9-2-1.4 0-.1 0-.2-.1-.3 1.5.6 3 1.3 4.4 2.1-.7-.2-1.5-.3-2.3-.4zm20.2 4.9c-1.4.4-1.6 2-1 2.9-.3 0-.5.1-.7.1-1.4.1-2.8.1-4.2-.2.4-.5.5-1.2.1-2-.6-1.2-1.4-2.2-2.2-3.2.2-.9.6-1.8 1.1-2.6.8-.7 1.6-1.2 2.6-1.4 1.2.2 2.4 1 3.4 1.7.7.5 1.4 1 2 1.6.5.8.8 1.7.8 2.6-.7.1-1.3.3-1.9.5zm18 4.6c-2.6 0-5.2 0-7.7-.4-1-.4-1.9-1-2.7-1.6 1.7-.1 3.4-.1 5.1.1 1.8.3 3.5.7 5.2 1.2.1.2.1.5.1.7zm16 3.6c-1.3 0-2.6-.2-3.7-.6 1.4-.8 1.6-2.5.2-3.5-1.4-.9-2.9-1.8-4.5-2.7.2-1.9 1.4-3.7 3.7-4 1.3-.2 3.4.1 5.2.9-.1.2-.3.4-.4.7-.4 0-.7.2-.8.6-.4 1.4-1.1 2.5-1.4 3.9-.2.8.4 1.7 1.2 1.6.8 0 1.7-.1 2.5-.2.2.3.6.6 1 .7.2.1.4.1.7.1-1 1.1-2.3 1.9-3.7 2.5zm30.6-12.9c-.9.8-2.1 1.5-3.3 1.9h-.1c-.9 0-2-.2-3.1-.6.8-.4 1.5-.8 2.3-1.2 1.4-.8 1.1-3-.4-3.4-1.5-.4-3.1-.6-4.7-.8 0-.2 0-.5.1-.7.3-1.4 1-2.6 2.1-3.3 1.1-.2 2.2-.2 3.2.1 3.2.9 4.3 5 3.9 8zm7.6-37.3c2.4-10.1 10.7-18.5 21.9-15.8v.2c0 .1 0 .3-.1.4-.8 5.9-1.1 11.8-1.1 17.7-6.3-3.2-13.4-1-18.9 3.9-.7.7-1.5 1.6-2.2 2.6-.1-.5-.1-1-.2-1.4.4-1.6.9-3.2 1.7-4.9.5-1.2-.2-2.3-1.1-2.7zM563.4 351.6c-.3-1.8-3.2-1-2.7.8 1.2 3.9 1.1 8.3.3 12.3-.3 1.4 1.9 2.1 2.2.6 1-4.6.9-9.1.2-13.7z"/><path fill="#395B88" d="M540.9 387.5c-3.7-5.3-7.9-10.3-13-14.4-1.2-1-2.9.7-1.7 1.7 4.9 4.1 8.8 9.1 13.2 13.8.7.9 2.1-.2 1.5-1.1zM534.3 415.4c-5.9-4-13.2-5.9-20.3-5.5-1.4.1-1.4 2.1 0 2.2 7 .5 13.5.9 19.7 4.5.7.4 1.3-.7.6-1.2zM557.8 460c0-1-1.5-1-1.5 0 0 4.2-.2 8.6-1.1 12.8-.3 1.2 1.5 1.7 1.8.5 1-4.5.8-8.8.8-13.3zM589.9 461c-.1-1.1-1.6-1.1-1.8 0-.5 5.6.7 11.4.9 17 0 1.2 1.9 1.2 1.9 0 .1-5.7-.3-11.4-1-17zM630.7 441.9c-2.9-1.4-5.9-2.6-8.9-3.8-1.8-.7-3.6-1.4-5.4-2-.5-.2-2.5-.7-2.7-.8-.2-.2-.4-.3-.7-.3h-.1c-.8.1-1.2.8-.8 1.5.9 1.7 4.5 2.5 6.1 3.2 3.7 1.5 7.5 2.7 11.1 4.4 1.5.7 2.9-1.5 1.4-2.2z"/></g></svg>