<svg xmlns="http://www.w3.org/2000/svg" width="792" height="612" viewBox="0 0 792 612"><g id="Layer_1"><path d="M491.9 295.4c-3.1-2.6-6.3-5-9.8-7.2-2.5-1.5-5.4-2.1-7.9-3.4-.4-1-.8-2-1.3-3l-.9-1.8c-.4-1.7-.8-3.3-1.1-5-1.5-6.8-5.2-12.5-9.2-18.1-3.4-6.8-9.4-12.6-15.3-17-7.1-5.3-16-9.9-25-11.5-.4-.1-.8-.3-1.2-.4-7.1-2.3-14.5-3.5-21.9-4.3-6.5-.7-12.1-.9-18.2 1.6-5.8 2.4-11.9 4.3-17.6 6.8-5.7 2.5-10.1 6.8-15.4 9.8-5.8 3.3-9.4 8-13.6 13-6.7 8-12.4 17.8-14.2 28.2-3.6 1.1-5.9 4.4-9.3 6.2-3.8 2-7.9 2.7-10.5 6.4-.6.8-.2 2 .6 2.5.5.3 1 .5 1.4.6 1.4 1.4 3.5 2.3 5.2 3.1 2.1 1.1 4.3 2.1 6.5 3-.5 2-.3 4.5-.3 5.9 0 6.4 0 12.9.5 19.3.6 6.8 1.9 14.4 4.9 20.6 3.1 6.4 9.3 11.4 14.2 16.4 9.8 10 22.1 15.6 35.9 17.3 10.6 1.4 24.3 6.9 35.6 4.3 5.5-.2 11.1-3 16.1-4.9 1.1-.4 2.1-.9 3.1-1.3 3.8-1.1 7.6-2.8 10.9-4.1 6.5-2.6 12.8-6.3 18.5-10.2 9.8-6.7 18.7-15.9 23.2-27.1 4.8-12.2 5.6-25.1 3.4-37.8 4.9-1.2 10.6-4 12.2-4.8 1.2-.6 1.4-2.3.5-3.1zM464.8 328c-.1.2 0 .5.1.7-.4 3.5-.9 6.9-1.7 10.3-1 4.2-2.6 8.2-4.8 11.9-2.6 4.5-6.4 7.1-10.1 10.5-.3.3-.4.6-.4.9-2 1.5-4 3-5.9 4.5-1.4 1-2.7 2.1-4.1 3.1-8.4 3.8-16.6 8.1-25.1 11.5-6.2 2.5-12.3 2-18.8 1.3-1.2-.2-2.5-.2-3.8-.2-1.9-.5-3.9-.9-6-1-.7 0-1.2.3-1.4.7-1.3-.2-2.6-.5-3.8-1-.5-.2-.9 0-1.2.3-1.8-.5-3.7-1-5.6-1.6-7.3-2-14.1-3.7-20.7-7.6-4.4-2.6-8.4-5.7-11.8-9.3-1.5-2.4-2.8-4.9-4.1-7.4-2-3.7-3.5-7.5-4.6-11.5-1.3-4.6-3.4-9.1-4-13.8 0-.2-.1-.4-.2-.6-.2-4.7-.2-9.4-.3-14.1-.2-7.8-.7-15.5.5-23.3 2.2-14.7 11.5-26.4 21.9-36.5 5.6-5.5 13.1-11.9 21.5-10.7 7.2 1 10.8 6.3 16.5 9.8 9.6 5.9 18.7-9.6 26.4-12.5 7.2-2.7 14.8 2.9 20.7 6.6 7 4.4 11.9 11.5 16.2 18.4 7.9 12.5 10.7 27.1 13.7 41.3.5 2.2 1 4.4 1.6 6.7-.3 4.2.4 8.4-.7 12.6z"/><path fill="#FED800" d="M379.1 373.4c-2.2-4.4-5.6-7.6-9.1-10.9-5.1-4.7-8.5-10.1-12.4-15.7-3.3-4.7-7.2-12.1-13.8-12.2-3.2-.1-5.7 3.6-7.4 5.8-1.2 1.5-2.3 3.2-3.2 4.9-1.7 3.1-3.7 2.8-6.9 2.8-3.1-.1-5.8 1.4-7.4 3.6-.3 0-.5.1-.7.4-.5 1-.8 2-1 3-.4 1.5-.4 3.1.1 4.6.2 1.8.6 3.6.6 5.6.1 4-2.3 9.3-.1 13.2 3.8 6.8 14.1 7.9 21 9.7 6.2 1.6 12.5 3.1 18.6 4.9 4.4 1.3 9.3 1.8 13.6-.1 7.8-3.6 12.2-11.4 8.1-19.6zM473.1 359.9c.9-3.3 2.1-6.5-.8-9.1-2.6-2.3-7.8-2.4-11-3.9-2.2-1-4.2-2.4-6.1-3.9-1.3-3.5-4.8-8.5-9-8.6-4.2-.1-8.4 3.5-10 7.2-.1.2-.1.4-.1.6-.6.8-1.2 1.7-1.8 2.5-3.3 4.8-7.1 9.3-9.8 14.6-1.1 2.2-1.9 4.6-3.1 6.8-1.5 2.6-4.6 4.7-6.5 7-2.1 2.5-4.3 6.4-3.6 9.8 1.5 6.6 8.8 11.2 15.2 11.9 5 .6 10-3.8 14.9-4.4 5.5-.7 9.6-1.4 14.6-4 5.8-3 17-.8 17.8-10.1.6-5.5-2.2-10.9-.7-16.4zM411.2 277c-1-4.4-6.9-7.2-10.5-8.7-3.8-1.6-7-1.8-10.9-.9-4.2 1-9.9 3.7-12.1 7.7-.4.1-.8.5-.8 1.1v.1c-.3.2-.4.5-.5.9-.4 8.7 9.3 20.4 18.5 18.7 2.2-.4 4.4-1.9 6.5-3.6 1.7-.7 3.3-1.9 4.3-3.4.2-.1.4-.3.5-.5.1-.3.3-.6.4-.8l.3-.3c3-2.8 5.2-6.1 4.3-10.3zM397 291c-5.7 4.4-13.8-2.1-16.9-8.7.1-.2.3-.3.3-.5 1.5-4.6 10.5-4 14.2-3.8 2.5.1 4.8.5 7.2 1.1 1.2.3 2.9 1 3.5 2.1 0 .7-.1 1.4-.3 2.1-.5.7-.9 1.4-1.2 2.2-2.3 2.3-5.3 4.3-6.8 5.5z"/><path d="M421.6 256.4c-1 .3-1.8 1.2-2.3 2.3-.7 1.7-.2 3.7.6 5.2 2.3 4.2 8.9 2.3 9.5-2.1.7-4.2-4.1-8.3-7.8-5.4zM368.8 258.2c-1-2.2-3.5-3.7-6-2.7s-3.6 3.7-2.8 6.3c.3 2.3 2.2 4.1 4.6 4.2h.3c.5 0 1.1 0 1.7-.1 3.8-.9 3.9-5 2.2-7.7z"/></g></svg>