<svg xmlns="http://www.w3.org/2000/svg" width="792" height="612" viewBox="0 0 792 612"><g id="Layer_1"><path d="M480.9 375.8h-11.5c-.3 0-.4.2-.4.5v2.4c0 .7.1 1.3.4 1.9.2.6.6 1.1 1 1.5.4.4.9.8 1.5 1 .6.3 1.2.4 1.9.4 1.1 0 2.1-.4 2.9-1.2.5-.5.8-.8 1-1.1.2-.3.4-.4.6-.4h.2l1.8 1c.2.1.3.2.3.4 0 .4-.2.8-.5 1.2-.3.5-.8.9-1.4 1.3-.6.4-1.3.7-2.2 1-.8.3-1.8.4-2.8.4-2.4 0-4.2-.7-5.6-2-1.4-1.3-2-3.1-2-5.4v-6.1c0-.8.2-1.7.5-2.6.4-.9.9-1.7 1.5-2.4 1.5-1.6 3.3-2.4 5.5-2.4 1.1 0 2 .2 3 .6.9.4 1.8 1 2.5 1.6.7.7 1.3 1.5 1.6 2.4.4.9.6 1.8.6 2.8v2.8c0 .3-.1.4-.4.4zm-2.5-3.2c0-.6-.1-1.2-.4-1.8-.2-.6-.6-1.1-1-1.5-.4-.4-.9-.8-1.5-1-.6-.3-1.2-.4-1.9-.4s-1.3.1-1.9.4c-.6.3-1.1.6-1.5 1-.4.4-.7.9-1 1.5-.2.6-.4 1.2-.4 1.9v.6c0 .3.1.5.4.5h8.5c.3 0 .4-.2.4-.5v-.7zm-16-2.2h-.2c-.1 0-.2-.1-.4-.2l-.9-.9c-.3-.3-.6-.6-.9-.8-.3-.2-.7-.4-1-.6-.4-.1-.8-.2-1.3-.2-.7 0-1.3.1-1.9.4-.6.3-1.1.6-1.5 1-.4.4-.7.9-1 1.5-.2.6-.4 1.2-.4 1.9v6.1c0 .7.1 1.3.4 1.9.2.6.6 1.1 1 1.5.4.4.9.8 1.5 1 .6.3 1.2.4 1.8.4 1.1 0 2-.4 2.9-1.2.5-.5.8-.8 1-1.1.2-.3.4-.4.5-.4h.2l1.8 1c.2.1.3.2.3.4 0 .4-.2.8-.5 1.2-.3.5-.8.9-1.4 1.3-.6.4-1.3.7-2.2 1-.8.3-1.8.4-2.8.4-2.3 0-4.2-.7-5.6-2-1.4-1.3-2-3.1-2-5.4v-6.1c0-2.3.7-4.1 2-5.4 1.4-1.3 3.2-2 5.6-2 1 0 2 .1 2.8.4.8.3 1.6.6 2.2 1 .6.4 1.1.8 1.4 1.3.3.5.5.9.5 1.2 0 .2-.1.3-.3.4l-1.6 1zm-12.7-1.5c-.2 0-.4 0-.7-.1-.3 0-.6-.1-1-.1-.7 0-1.3.1-1.9.4-.6.2-1.1.6-1.5 1-.4.4-.7.9-1 1.5-.2.6-.4 1.2-.4 1.9v11.7c0 .3-.1.5-.4.5h-2.1c-.3 0-.4-.2-.4-.5v-19.1c0-.3.1-.5.4-.5h1.6c.3 0 .4.2.4.5v2.3c0 .3.1.5.3.5.2 0 .6-.2 1-.7.4-.5 1-1.1 1.8-1.7.2-.2.5-.4.9-.5.4-.2.8-.2 1.1-.2h1.6c.3 0 .4.2.4.5v2.3c.3.1.1.3-.1.3zm-13.2 16.8h-1.6c-.3 0-.4-.2-.4-.5v-1.9c0-.3-.1-.5-.4-.5-.2 0-.4.2-.7.5-.2.3-.6.7-1 1.1-.9.9-2.2 1.4-3.6 1.4-1 0-1.9-.2-2.8-.5-.9-.4-1.6-.9-2.3-1.5-.6-.6-1.2-1.4-1.5-2.4-.4-.9-.5-1.9-.5-3v-12.1c0-.3.1-.5.4-.5h2.1c.3 0 .4.2.4.5v12.1c0 .7.1 1.3.4 1.9.2.6.6 1.1 1 1.5.4.4.9.8 1.5 1 .6.3 1.2.4 1.8.4.7 0 1.3-.1 1.9-.4.6-.3 1.1-.6 1.5-1 .4-.4.8-1 1-1.5.2-.6.4-1.2.4-1.9v-12.1c0-.3.1-.5.4-.5h2.1c.3 0 .4.2.4.5v19.1c-.1.1-.2.3-.5.3zm-24.9.4c-2.3 0-4.2-.7-5.6-2-1.4-1.3-2-3.1-2-5.4v-6.1c0-2.3.7-4.1 2-5.4 1.4-1.3 3.2-2 5.6-2 1.2 0 2.2.2 3.2.5s1.7.9 2.4 1.5 1.2 1.4 1.6 2.3c.4.9.5 1.9.5 3v6.1c0 2.2-.7 4-2.1 5.4-1.4 1.5-3.2 2.1-5.6 2.1zm4.8-13.5c0-.6-.1-1.2-.4-1.8-.2-.6-.6-1.1-1-1.5-.4-.4-.9-.8-1.5-1-.6-.3-1.2-.4-1.9-.4s-1.3.1-1.9.4c-.6.3-1.1.6-1.5 1-.4.4-.7.9-1 1.5-.2.6-.4 1.2-.4 1.9v6.1c0 .7.1 1.3.4 1.9.2.6.6 1.1 1 1.5.4.4.9.8 1.5 1 .6.3 1.2.4 1.9.4.6 0 1.3-.1 1.9-.4.6-.3 1.1-.6 1.5-1 .4-.4.7-1 1-1.5.2-.6.4-1.2.4-1.9v-6.2zm-22.1 1.4c1.3.3 2.4.5 3.4.8 1 .3 1.8.6 2.5 1s1.2.9 1.5 1.5c.4.6.5 1.4.5 2.3 0 1.9-.6 3.5-1.9 4.7-1.3 1.2-3 1.8-5.1 1.8h-1.4c-1 0-2-.1-2.8-.4-.8-.3-1.5-.6-2.1-1-.6-.4-1-.8-1.4-1.3-.3-.5-.5-.9-.5-1.2 0-.1.1-.2.3-.3l1.7-.9h.2c.1 0 .2.1.4.2.3.3.6.6.8 1 .3.3.6.6.9.8.3.2.7.4 1.1.6.4.1.9.2 1.4.2h1.4c1.2 0 2.2-.3 2.9-1 .7-.6 1.1-1.4 1.1-2.4 0-1.6-1.4-2.7-4.3-3.3-1.3-.3-2.4-.5-3.4-.8-1-.2-1.8-.6-2.5-1s-1.2-.9-1.5-1.5c-.3-.6-.5-1.4-.5-2.4 0-1.9.6-3.4 1.8-4.6 1.2-1.2 2.9-1.7 4.9-1.7h1.4c1 0 1.9.1 2.7.4.8.3 1.5.6 2.1 1 .6.4 1.1.8 1.4 1.3.3.5.5.8.5 1.2 0 .1-.1.2-.3.3l-1.7.9h-.2c-.1 0-.2-.1-.4-.2-.6-.7-1.2-1.3-1.8-1.7-.6-.5-1.4-.7-2.4-.7h-1.4c-1.3 0-2.3.3-2.9.8-.7.5-1 1.3-1 2.2 0 .9.4 1.7 1.1 2.2.9.5 2 .9 3.5 1.2zm-15.5 12.4h-3.1c-.3 0-.4-.2-.4-.5v-12.2c0-.5-.1-1.1-.3-1.6-.2-.5-.5-.9-.8-1.3-.4-.4-.8-.7-1.3-.9-.5-.2-1-.3-1.6-.3-1.1 0-2.1.4-2.8 1.2-.8.8-1.1 1.8-1.1 2.9V386c0 .3-.1.5-.4.5h-3.1c-.3 0-.4-.2-.4-.5v-19.5c0-.3.1-.5.4-.5h2.6c.3 0 .4.2.4.5v.5c0 .3.1.5.3.5.1 0 .3-.1.6-.2.2-.2.5-.3.9-.5s.8-.4 1.3-.5c.5-.2 1-.2 1.7-.2 1.1 0 2.1.2 3.1.6.9.4 1.7.9 2.4 1.6.7.7 1.2 1.5 1.6 2.4.4.9.6 2 .6 3.1V386c-.2.3-.3.4-.6.4zm-17.8-9.5h-11c-.3 0-.4.2-.4.5v1.8c0 .5.1 1.1.3 1.6.2.5.5.9.8 1.3.4.4.8.7 1.3.9.5.2 1 .3 1.6.3.5 0 1-.1 1.4-.3.4-.2.8-.4 1-.7.5-.6.9-1.1 1.1-1.4.2-.3.4-.5.5-.5.1 0 .1 0 .3.1l2.8 1.5c.2.1.3.2.3.3 0 .2-.1.5-.4 1-.3.5-.8 1.1-1.4 1.7-1.3 1.3-3.1 1.9-5.5 1.9-1.2 0-2.3-.2-3.3-.5-1-.4-1.8-.9-2.5-1.6-.7-.7-1.2-1.5-1.6-2.4-.4-1-.6-2-.6-3.1v-5.9c0-1 .2-2 .6-2.9.4-.9 1-1.8 1.7-2.4.7-.7 1.6-1.3 2.5-1.7 1-.4 2-.6 3.1-.6s2.1.2 3.1.6c1 .4 1.8 1 2.5 1.7s1.3 1.5 1.7 2.4c.4.9.6 1.9.6 2.9v3.2c-.1.1-.2.3-.5.3zm-3.9-5.3c-.2-.5-.5-.9-.9-1.2-.4-.3-.8-.6-1.3-.8-.5-.2-1-.3-1.5-.3s-1 .1-1.5.3c-.5.2-.9.5-1.3.9s-.6.8-.9 1.2c-.2.5-.3.9-.3 1.4 0 .2 0 .4.1.5 0 .1.2.2.4.2h7c.2 0 .3-.1.4-.2 0-.1.1-.3.1-.6.1-.5-.1-1-.3-1.4zm-14.9 12.6c-.7.7-1.4 1.2-2.3 1.6-.9.4-1.8.6-2.9.6-.6 0-1.2-.1-1.7-.2-.5-.2-.9-.3-1.3-.5s-.6-.4-.9-.5c-.2-.2-.4-.2-.5-.2-.2 0-.4.2-.4.5v10.7c0 .3-.1.5-.4.5h-3.1c-.3 0-.4-.2-.4-.5v-29.7c0-.3.1-.5.4-.5h2.6c.3 0 .4.2.4.5v.5c0 .3.1.5.3.5.1 0 .3-.1.6-.2.2-.2.5-.3.9-.5s.8-.4 1.3-.5c.5-.2 1-.2 1.7-.2 1.1 0 2.1.2 3.1.6.9.4 1.7.9 2.4 1.6.7.7 1.2 1.5 1.6 2.4.4.9.6 2 .6 3.1v5c0 1.1-.2 2.1-.5 3.1-.3.8-.9 1.6-1.5 2.3zm-1.9-10.5c0-.5-.1-1.1-.3-1.6-.2-.5-.5-.9-.8-1.3-.4-.4-.8-.7-1.3-.9-.5-.2-1-.3-1.6-.3-1.1 0-2.1.4-2.8 1.2-.8.8-1.1 1.8-1.1 2.9v5c0 1.1.4 2.1 1.1 2.9.8.8 1.7 1.2 2.8 1.2.6 0 1.1-.1 1.6-.3.5-.2.9-.5 1.3-.9s.6-.8.8-1.3c.2-.5.3-1 .3-1.6v-5zm-16 11.1c-.7.7-1.5 1.2-2.5 1.6-1 .4-2.1.5-3.3.5-1.2 0-2.3-.2-3.3-.5-1-.4-1.8-.9-2.5-1.6-.7-.7-1.2-1.5-1.6-2.4-.4-1-.6-2-.6-3.1v-5.9c0-1.1.2-2.2.6-3.1.4-1 .9-1.8 1.6-2.4.7-.7 1.5-1.2 2.5-1.6 1-.4 2-.5 3.3-.5 1.2 0 2.3.2 3.3.6 1 .4 1.8.9 2.5 1.6.7.7 1.2 1.5 1.6 2.4.4.9.6 2 .6 3.1v5.9c0 1.1-.2 2.2-.6 3.1-.4.8-.9 1.6-1.6 2.3zm-1.8-11.5c0-1.1-.4-2.1-1.1-2.9-.8-.8-1.7-1.2-2.8-1.2-1.1 0-2.1.4-2.8 1.2-.8.8-1.1 1.8-1.1 2.9v5.9c0 .5.1 1.1.3 1.6.2.5.5.9.8 1.3.4.4.8.7 1.3.9.5.2 1 .3 1.6.3 1.1 0 2.1-.4 2.8-1.2.8-.8 1.1-1.8 1.1-2.9v-5.9z"/><path fill="#1E532B" d="M386 250.5c12-2 24.6.1 35.3 6.1 10.6 5.9 19.2 15.4 23.8 26.7 4.7 11.2 5.4 24.1 1.9 35.8-4.6 16.2-17.3 29.8-33.1 35.5-1.3.6-2.3-.7-2.6-1.8-3.9-10.4-7.9-20.9-11.7-31.3-.9-1.9 1.4-2.6 2.7-3.2 6.9-3.3 10.5-11.8 8.1-19-1.7-5.9-7.1-10.5-13.2-11.3-7-1.1-14.3 3-17.1 9.4-2.7 5.8-1.4 13.1 3.1 17.7 1.8 2 4.2 3.1 6.5 4.3 1 .6.7 1.9.3 2.8-3.9 10.3-7.7 20.7-11.7 31-.3.9-1.2 1.9-2.2 1.5-19.1-6.7-33.3-25-35.1-45.1-1.4-13.2 2.3-26.9 10.2-37.6 8.2-11.4 21-19.3 34.8-21.5z"/><path fill="#3AAA54" d="M383.4 254.9c10-2.4 20.7-1.6 30.2 2.2 10.9 4.3 20.2 12.6 25.8 22.9 5 9.2 7 19.9 5.7 30.3-1.3 10.6-6.1 20.7-13.5 28.5-4.8 5.1-10.8 9.1-17.2 11.9-3.6-9.6-7.3-19.1-10.7-28.8 5.8-3 10.1-8.7 10.9-15.2 1.4-8.8-4.2-18.1-12.6-21.1-7.7-3.1-17.2-.6-22.4 5.9-5 5.9-6 14.9-2.3 21.7 1.9 3.8 5.2 6.7 8.9 8.8-3.6 9.6-7.2 19.1-10.8 28.7-9.9-4.1-18.4-11.5-23.9-20.7-4.7-7.7-7.2-16.8-7.2-25.8-.1-11.2 3.7-22.4 10.7-31.2 7.1-9 17.2-15.5 28.4-18.1z"/><g fill="#1E532B"><path d="M463.5 349.6c-.8-2.2-1.3-4.5-1.6-6.7-1.2 2.5-2.6 4.9-3.9 7.3-1.3-2.4-2.7-4.8-3.9-7.3-.4 2.3-1 4.6-1.5 6.9h-1.9c.9-4 2.1-7.9 2.9-11.9 1.5 2.8 3 5.6 4.4 8.4 1.6-2.7 2.9-5.6 4.4-8.4.9 4 2.1 7.9 3 11.9-.5 0-1.4-.1-1.9-.2zM446.2 340v9.8h-2V340h-3.4v-1.5h8.8v1.6c-1.2-.1-2.3-.1-3.4-.1z"/></g></g></svg>