<svg xmlns="http://www.w3.org/2000/svg" width="792" height="612" viewBox="0 0 792 612"><g id="Layer_1"><g fill="#FAA41A"><path d="M329 179.7zM425.5 231.6c-.4.8-.8 1.5-1.2 2.3.4-.7.8-1.5 1.2-2.3zM469.6 429c-4.5-4.5-8.5-9.6-11.8-15.1-6-9.9-9.9-21.2-11.2-33.3-.3-2.7-.4-5.4-.4-8.2 0-1.3 0-2.5.1-3.8v-.4-.1l.3-3.6c0-.2 0-.4.1-.6.1-1.2.3-2.3.4-3.4 0-.2.1-.4.1-.6.1-.4.1-.9.2-1.3.1-.7.3-1.4.4-2.2 0-.1.1-.3.1-.4.2-1.1.5-2.2.8-3.3 0-.1.1-.2.1-.3l.9-3.3c.1-.2.1-.4.2-.6.2-.7.4-1.3.7-2-12.2-7.6-26.7-12-42.1-12-14.1 0-27.3 3.7-38.8 10-3.5-10.4-9.1-19.8-16.3-27.8-2-2.3-4.2-4.4-6.5-6.4-1.4-1.2-2.8-2.4-4.3-3.5-2.4-1.8-4.8-3.5-7.4-5.1-4.6-2.8-9.5-5.1-14.6-6.9l-3.6-1.2v-.1c.1-.8.3-1.7.4-2.5-1.3-1.6-2.5-3.3-3.7-5-8.6-12.8-13.7-28.2-13.7-44.7 0-1.3 0-2.5.1-3.8v-.5l.3-3.6c0-.2 0-.4.1-.6.1-1.2.3-2.3.4-3.4 0-.2.1-.4.1-.6.2-1.2.4-2.3.6-3.5 0-.1.1-.3.1-.4.2-1.1.5-2.2.8-3.3 0-.1.1-.2.1-.3l.9-3.3c.1-.2.1-.4.2-.6.3-1 .7-2.1 1.1-3.1.1-.2.2-.5.3-.7l1.2-3c.1-.2.2-.5.3-.7.4-1 .9-2 1.3-3 .1-.2.2-.3.2-.5.4-.9.9-1.8 1.3-2.6l.3-.6 1.5-2.7c.2-.3.3-.5.5-.8.5-.9 1.1-1.7 1.6-2.5.2-.3.4-.6.6-.8.6-.8 1.1-1.6 1.7-2.4.2-.3.4-.5.6-.8.5-.7 1.1-1.4 1.6-2.1.2-.3.5-.6.7-.9.6-.7 1.1-1.3 1.7-2 .2-.3.5-.5.7-.8.6-.7 1.3-1.4 2-2.1l.8-.8 1.5-1.5c-10.8-5.4-22.9-8.5-35.8-8.5-19.4 0-37.3 6.9-51.1 18.5-4 9.1-6 19.1-7.8 28.9-1.4 7.5-2.6 15.1-3.1 22.7.4 1.1.7 2.4.9 3.5.7 3.8.7 7.8 1.7 11.5 2.7 10 7.2 19.5 14.1 27.4 4 4.6 8.4 8.6 13.2 12-5.3 2.7-10.3 6-14.8 9.8-1.2 2.7-2.2 5.5-3 8.3-2.1 6.7-3.5 13.7-4.8 20.6-1.4 7.5-2.6 15.1-3.1 22.7.4 1.1.7 2.4.9 3.5.7 3.8.7 7.8 1.7 11.5 2.7 10 7.2 19.5 14.1 27.4 7.1 8.2 15.4 14.3 25.2 18.7 2.4.2 4.7.3 7.1.5 7.5.6 14.9 1.5 22.4 2 8.6.6 17.2.7 25.8.3-.4-3.2-.6-6.5-.6-9.8 0-1.3 0-2.5.1-3.8v-.5l.3-3.6c0-.2 0-.4.1-.6.1-1.2.3-2.3.4-3.4 0-.2.1-.4.1-.6.2-1.2.4-2.3.6-3.5 0-.1.1-.3.1-.4.2-1.1.5-2.2.8-3.3 0-.1 0-.2.1-.3l.9-3.3c.1-.2.1-.4.2-.6.3-1 .7-2.1 1.1-3.1.1-.2.2-.5.3-.7l1.2-3c.1-.2.2-.5.3-.7.4-1 .9-2 1.3-3 .1-.2.2-.3.2-.5.4-.9.9-1.8 1.3-2.6l.3-.6 1.5-2.7c.2-.3.3-.5.5-.8.5-.9 1.1-1.7 1.6-2.5.2-.3.4-.6.6-.8.6-.8 1.1-1.6 1.7-2.4.2-.3.4-.5.6-.8.5-.7 1.1-1.4 1.6-2.1.2-.3.5-.6.7-.9.6-.7 1.1-1.3 1.7-2 .2-.3.5-.5.7-.8.6-.7 1.3-1.4 2-2.1l.8-.8c.7-.7 1.4-1.3 2-1.9.3-.3.6-.5.9-.8.7-.6 1.4-1.3 2.2-1.9-2.7 6.2-4.5 12.8-5.9 19.5-.7 3.1-1.3 6.3-1.9 9.4-1.4 7.5-2.6 15.1-3.1 22.7.4 1.1.7 2.4.9 3.5.7 3.8.7 7.8 1.7 11.5.2.8.5 1.7.7 2.5.4 1.3.9 2.7 1.3 4 2.8 7.6 6.7 14.7 12 20.9 7.1 8.2 15.4 14.3 25.2 18.7 2.4.2 4.7.3 7.1.5 7.5.6 14.9 1.5 22.4 2 14.9 1 30 .8 44.7-1.5 2.6-.4 5.1-.9 7.7-1.4 6-7.3 10.7-15.7 13.9-24.8-4.9-3.5-9.8-7.3-14.1-11.6zM470.2 465.1l-.4.4c.1-.1.3-.2.4-.4z"/><path d="M568.1 304.2c5.2-10.6 8.2-22.6 8.2-35.2 0-44.2-35.8-80-80-80-17 0-32.7 5.3-45.7 14.3-13.5-25.1-40-42.1-70.5-42.1-19.4 0-37.3 6.9-51.1 18.5-.6 1.4-1.1 2.7-1.6 4.1-2.9 8-4.6 16.5-6.2 24.7-1.4 7.5-2.6 15.1-3.1 22.7.4 1.1.7 2.4.9 3.5.7 3.8.7 7.8 1.7 11.5 1.7 6.2 4.1 12.1 7.2 17.7.5-.8 1-1.6 1.5-2.3.2-.3.4-.6.6-.8.6-.8 1.1-1.6 1.7-2.4.2-.3.4-.5.6-.8.5-.7 1.1-1.4 1.6-2.1.2-.3.5-.6.7-.9.6-.7 1.1-1.3 1.7-2 .2-.3.5-.5.7-.8.6-.7 1.3-1.4 2-2.1l.8-.8c.7-.7 1.4-1.3 2-1.9.3-.3.6-.5.9-.8.7-.6 1.4-1.3 2.2-1.9 6.4-5.3 13.6-9.6 21.4-12.8 9.2-3.7 19.2-5.7 29.7-5.7 10.4 0 20.4 2 29.5 5.6.1-.1.1-.2.2-.3l.3-.6 1.5-2.7c.2-.3.3-.5.5-.8.5-.9 1.1-1.7 1.6-2.5.2-.3.4-.6.6-.8.6-.8 1.1-1.6 1.7-2.4.2-.3.4-.5.6-.8.5-.7 1.1-1.4 1.6-2.1.2-.3.5-.6.7-.9.6-.7 1.1-1.3 1.7-2 .2-.3.5-.5.7-.8.6-.7 1.3-1.4 2-2.1l.8-.8c.7-.7 1.4-1.3 2-1.9.3-.3.6-.5.9-.8.7-.6 1.4-1.3 2.2-1.9-4 9.1-6 19.1-7.8 28.9-.1.3-.1.7-.2 1 8.3 5 15.6 11.4 21.6 18.9 10.9 13.7 17.4 30.9 17.4 49.7 0 1.4 0 2.8-.1 4.2-.3.2-.6.4-.8.7-1.1 2.4-2 4.9-2.8 7.5-2.2 7-3.7 14.2-5 21.4-.2 1.2-.4 2.4-.7 3.6 0 .2-.1.4-.1.6-.8 4.5-1.4 9-1.9 13.5-.2 1.7-.3 3.3-.4 5 .4 1.1.7 2.4.9 3.5.7 3.8.7 7.8 1.7 11.5 2.7 10 7.2 19.5 14.1 27.4 2.3 2.7 4.8 5.2 7.4 7.4 5.3 4.6 11.2 8.4 17.8 11.3 2.4.2 4.7.3 7.1.5 7.5.6 14.9 1.5 22.4 2 14.9 1 30 .8 44.7-1.5 2.6-.4 5.1-.9 7.7-1.4 11.4-13.8 18.2-31.5 18.2-50.8-.1-28.5-15.4-53.8-38.2-67.9zM587.6 423.6c.1-.1.2-.3.4-.4l-.4.4z"/></g><g fill="#4E2F1B"><path d="M315.5 288.5c.6.8 1.2 1.6 1.9 2.5-.2.8-.3 1.7-.4 2.5v.1l3.6 1.2c5.1 1.8 10 4.1 14.6 6.9-.1-.7-.2-1.4-.3-2-.2-1.2-.5-2.4-.9-3.5.4-6.8 1.4-13.6 2.6-20.3.1-.8.3-1.6.4-2.4 1.9-9.7 3.8-19.7 7.8-28.9-.7.6-1.4 1.2-2.2 1.9-.3.3-.6.5-.9.8-.7.6-1.4 1.3-2 1.9l-.8.8c-.7.7-1.3 1.4-2 2.1-.2.3-.5.5-.7.8-.6.6-1.1 1.3-1.7 2-.2.3-.5.6-.7.9-.6.7-1.1 1.4-1.6 2.1-.2.3-.4.5-.6.8-.6.8-1.2 1.6-1.7 2.4-.2.3-.4.6-.6.8-.5.8-1 1.6-1.5 2.3-3.2-5.5-5.5-11.5-7.2-17.7-1-3.7-1-7.7-1.7-11.5-.2-1.2-.5-2.4-.9-3.5.5-7.6 1.6-15.2 3.1-22.7 1.6-8.3 3.3-16.8 6.2-24.7.5-1.4 1-2.8 1.6-4.1-.7.6-1.5 1.2-2.2 1.9-.3.3-.6.5-.9.8-.2.2-.4.3-.5.5l-1.5 1.5-.8.8c-.7.7-1.3 1.4-2 2.1-.2.3-.5.5-.7.8-.6.6-1.1 1.3-1.7 2-.2.3-.5.6-.7.9-.6.7-1.1 1.4-1.6 2.1-.2.3-.4.5-.6.8-.6.8-1.2 1.6-1.7 2.4-.2.3-.4.6-.6.8-.6.8-1.1 1.7-1.6 2.5-.2.3-.3.5-.5.8-.5.9-1.1 1.8-1.5 2.7l-.3.6c-.5.9-.9 1.7-1.3 2.6-.1.2-.2.3-.2.5-.5 1-.9 2-1.3 3-.1.2-.2.5-.3.7l-1.2 3c-.1.2-.2.5-.3.7-.4 1-.7 2.1-1.1 3.1-.1.2-.1.4-.2.6-.3 1.1-.7 2.2-.9 3.3 0 .1-.1.2-.1.3-.3 1.1-.5 2.2-.8 3.3 0 .1-.1.3-.1.4-.2 1.1-.4 2.3-.6 3.5 0 .2-.1.4-.1.6-.2 1.1-.3 2.3-.4 3.4 0 .2 0 .4-.1.6l-.3 3.6v.5c-.1 1.3-.1 2.5-.1 3.8 0 16.6 5 32 13.7 44.7.5.6 1.1 1.5 1.7 2.3zM437.1 237.4c.1-.3.1-.7.2-1 1.9-9.7 3.8-19.7 7.8-28.9-.7.6-1.5 1.2-2.2 1.9-.3.3-.6.5-.9.8-.7.6-1.4 1.3-2 1.9l-.8.8c-.7.7-1.3 1.4-2 2.1-.2.3-.5.5-.7.8-.6.6-1.1 1.3-1.7 2-.2.3-.5.6-.7.9-.6.7-1.1 1.4-1.6 2.1-.2.3-.4.5-.6.8-.6.8-1.2 1.6-1.7 2.4-.2.3-.4.6-.6.8-.6.8-1.1 1.7-1.6 2.5-.2.3-.3.5-.5.8-.5.9-1.1 1.8-1.5 2.7l-.3.6c-.1.1-.1.2-.2.3 4 1.5 7.9 3.4 11.6 5.7zM417.8 468.1c-7.5-.5-14.9-1.4-22.4-2-2.4-.2-4.7-.3-7.1-.5-9.9-4.4-18.1-10.5-25.2-18.7-5.3-6.2-9.2-13.3-12-20.9-.5-1.3-.9-2.6-1.3-4-.3-.8-.5-1.7-.7-2.5-1-3.7-1-7.7-1.7-11.5-.2-1.2-.5-2.4-.9-3.5.5-7.6 1.6-15.2 3.1-22.7.6-3.1 1.2-6.2 1.9-9.4 1.5-6.7 3.2-13.3 5.9-19.5-.7.6-1.5 1.2-2.2 1.9-.3.3-.6.5-.9.8-.7.6-1.4 1.3-2 1.9l-.8.8c-.7.7-1.3 1.4-2 2.1-.2.3-.5.5-.7.8-.6.6-1.1 1.3-1.7 2-.2.3-.5.6-.7.9-.6.7-1.1 1.4-1.6 2.1-.2.3-.4.5-.6.8-.6.8-1.1 1.6-1.7 2.4-.2.3-.4.6-.6.8-.6.8-1.1 1.7-1.6 2.5-.2.3-.3.5-.5.8l-1.5 2.7-.3.6c-.5.9-.9 1.7-1.3 2.6-.1.2-.2.3-.2.5-.5 1-.9 2-1.3 3-.1.2-.2.5-.3.7l-1.2 3c-.1.2-.2.5-.3.7-.4 1-.7 2.1-1.1 3.1-.1.2-.1.4-.2.6-.3 1.1-.7 2.2-.9 3.3 0 .1-.1.2-.1.3-.3 1.1-.5 2.2-.8 3.3 0 .1-.1.3-.1.4-.2 1.1-.4 2.3-.6 3.5 0 .2-.1.4-.1.6-.2 1.1-.3 2.3-.4 3.4 0 .2 0 .4-.1.6l-.3 3.6v.5c-.1 1.3-.1 2.5-.1 3.8 0 3.3.2 6.6.6 9.8-8.6.4-17.2.2-25.8-.3-7.5-.5-14.9-1.4-22.4-2-2.4-.2-4.7-.3-7.1-.5-9.9-4.4-18.1-10.5-25.2-18.7-6.8-7.9-11.4-17.3-14.1-27.4-1-3.7-1-7.7-1.7-11.5-.2-1.2-.5-2.4-.9-3.5.5-7.6 1.6-15.2 3.1-22.7 1.3-6.9 2.7-13.9 4.8-20.6.9-2.8 1.9-5.6 3-8.3 4.5-3.8 9.5-7 14.8-9.8-4.8-3.4-9.2-7.3-13.2-12-6.8-7.9-11.4-17.3-14.1-27.4-1-3.7-1-7.7-1.7-11.5-.2-1.2-.5-2.4-.9-3.5.5-7.6 1.6-15.2 3.1-22.7 1.9-9.7 3.8-19.7 7.8-28.9-.7.6-1.5 1.2-2.2 1.9-.3.3-.6.5-.9.8-.7.6-1.4 1.3-2 1.9l-.8.8c-.7.7-1.3 1.4-2 2.1-.2.3-.5.5-.7.8-.6.6-1.1 1.3-1.7 2-.2.3-.5.6-.7.9-.6.7-1.1 1.4-1.6 2.1-.2.3-.4.5-.6.8-.6.8-1.2 1.6-1.7 2.4-.2.3-.4.6-.6.8-.6.8-1.1 1.7-1.6 2.5-.2.3-.3.5-.5.8-.5.9-1.1 1.8-1.5 2.7l-.3.6c-.5.9-.9 1.7-1.3 2.6-.1.2-.2.3-.2.5-.5 1-.9 2-1.3 3-.1.2-.2.5-.3.7l-1.2 3c-.1.2-.2.5-.3.7-.4 1-.7 2.1-1.1 3.1-.1.2-.1.4-.2.6-.3 1.1-.7 2.2-.9 3.3 0 .1-.1.2-.1.3-.3 1.1-.5 2.2-.8 3.3 0 .1-.1.3-.1.4-.2 1.1-.4 2.3-.6 3.5 0 .2-.1.4-.1.6-.2 1.1-.3 2.3-.4 3.4 0 .2 0 .4-.1.6l-.3 3.6v.5c-.1 1.3-.1 2.5-.1 3.8 0 2.8.1 5.5.4 8.2 1.2 12.1 5.2 23.4 11.2 33.3 3.3 5.5 7.3 10.6 11.8 15.1 1.1 1.1 2.3 2.2 3.5 3.3-.6.6-1.2 1.2-1.7 1.8-.2.3-.5.5-.7.8-.6.6-1.1 1.3-1.7 2-.2.3-.5.6-.7.9-.6.7-1.1 1.4-1.6 2.1-.2.3-.4.5-.6.8-.6.8-1.2 1.6-1.7 2.4-.2.3-.4.6-.6.8-.6.8-1.1 1.7-1.6 2.5-.2.3-.3.5-.5.8-.5.9-1.1 1.8-1.5 2.7l-.3.6c-.5.9-.9 1.7-1.3 2.6-.1.2-.2.3-.2.5-.5 1-.9 2-1.3 3-.1.2-.2.5-.3.7l-1.2 3c-.1.2-.2.5-.3.7-.4 1-.7 2.1-1.1 3.1-.1.2-.1.4-.2.6-.3 1.1-.7 2.2-.9 3.3 0 .1-.1.2-.1.3-.3 1.1-.5 2.2-.8 3.3 0 .1-.1.3-.1.4-.2 1.1-.4 2.3-.6 3.5 0 .2-.1.4-.1.6-.2 1.1-.3 2.3-.4 3.4 0 .2 0 .4-.1.6l-.3 3.6v.5c-.1 1.3-.1 2.5-.1 3.8 0 16.6 5 32 13.7 44.7 2.2 3.2 4.5 6.2 7.1 9.1 3.4 3.8 7.2 7.2 11.4 10.3 5.1 3.8 10.7 7.1 16.7 9.6 1.2.5 2.4 1 3.6 1.4 3.7 1.3 7.5 2.4 11.4 3.2 5.2 1.1 10.6 1.6 16.1 1.6 1.3 0 2.5 0 3.8-.1h.5c1.2-.1 2.4-.2 3.5-.3.2 0 .4 0 .6-.1 1.2-.1 2.3-.3 3.5-.4.2 0 .4-.1.6-.1 1.2-.2 2.3-.4 3.5-.6.1 0 .2 0 .3-.1 1.1-.2 2.3-.5 3.4-.8.1 0 .3-.1.4-.1l3.3-.9c.2-.1.4-.1.6-.2 1.1-.3 2.1-.7 3.2-1.1.2-.1.4-.2.7-.2 1-.4 2.1-.8 3.1-1.2.2-.1.3-.1.5-.2 1-.4 2-.9 3-1.4.1 0 .2-.1.3-.1l3-1.5.6-.3c.2-.1.3-.2.5-.3 2.3 6.8 5.5 13.2 9.4 19 2.2 3.2 4.5 6.2 7.1 9.1 3.4 3.8 7.2 7.2 11.4 10.3 5.1 3.8 10.7 7.1 16.7 9.6 1.2.5 2.4 1 3.6 1.4 3.7 1.3 7.5 2.4 11.4 3.2 5.2 1.1 10.6 1.6 16.1 1.6 1.3 0 2.5 0 3.8-.1h.5c1.2-.1 2.4-.2 3.5-.3.2 0 .4 0 .6-.1 1.2-.1 2.3-.3 3.5-.4.2 0 .4-.1.6-.1 1.2-.2 2.3-.4 3.5-.6.1 0 .2 0 .3-.1 1.1-.2 2.3-.5 3.4-.8.1 0 .3-.1.4-.1l3.3-.9c.2-.1.4-.1.6-.2 1.1-.3 2.1-.7 3.2-1.1.2-.1.4-.2.6-.2 1-.4 2.1-.8 3.1-1.2.2-.1.3-.1.5-.2 1-.4 2-.9 3-1.4.1 0 .2-.1.3-.1l3-1.5.6-.3c.9-.5 1.9-1.1 2.8-1.6.2-.1.5-.3.7-.4.9-.6 1.8-1.1 2.7-1.7.2-.1.4-.3.6-.4.9-.6 1.8-1.2 2.7-1.9.1-.1.3-.2.4-.3.8-.6 1.6-1.2 2.4-1.9.2-.1.3-.3.5-.4l2.4-2.1.6-.6c.8-.7 1.5-1.4 2.2-2.1l.6-.6c.7-.7 1.5-1.5 2.2-2.3.2-.2.3-.4.5-.5.7-.7 1.3-1.5 1.9-2.2.1-.1.2-.3.4-.4-2.6.6-5.1 1-7.7 1.4-15.3 2.7-30.4 2.8-45.2 1.9zM580.3 424.6c-14.8 2.3-29.9 2.5-44.7 1.5-7.5-.5-14.9-1.4-22.4-2-2.4-.2-4.7-.3-7.1-.5-6.6-3-12.5-6.7-17.8-11.3-2.6-2.3-5.1-4.7-7.4-7.4-6.8-7.9-11.4-17.3-14.1-27.4-1-3.7-1-7.7-1.7-11.5-.2-1.2-.5-2.4-.9-3.5.1-1.7.3-3.4.4-5 .5-4.5 1.1-9.1 1.9-13.5 0-.2.1-.4.1-.6.2-1.2.4-2.4.7-3.6 1.4-7.1 2.8-14.4 5-21.4.8-2.5 1.7-5 2.8-7.5-.7.6-1.5 1.2-2.2 1.9-.3.3-.6.5-.9.8-.7.6-1.4 1.3-2 1.9l-.8.8-.3.3c-.6.6-1.2 1.2-1.7 1.8-.2.3-.5.5-.7.8-.6.6-1.1 1.3-1.7 2-.2.3-.5.6-.7.9-.6.7-1.1 1.4-1.6 2.1-.2.3-.4.5-.6.8-.6.8-1.2 1.6-1.7 2.4-.2.3-.4.6-.6.8-.6.8-1.1 1.7-1.6 2.5-.2.3-.3.5-.5.8-.5.9-1.1 1.8-1.5 2.7l-.3.6c-.4.8-.9 1.6-1.3 2.5 0 .1-.1.1-.1.2-.1.2-.2.3-.2.5-.5 1-.9 2-1.3 3-.1.2-.2.5-.3.7l-1.2 3c-.1.2-.2.5-.3.7-.1.4-.3.7-.4 1.1-.2.7-.4 1.3-.7 2-.1.2-.1.4-.2.6-.3 1.1-.7 2.2-.9 3.3 0 .1-.1.2-.1.3-.3 1.1-.5 2.2-.8 3.3 0 .1-.1.3-.1.4-.1.7-.3 1.4-.4 2.2-.1.4-.1.9-.2 1.3 0 .2-.1.4-.1.6-.2 1.1-.3 2.3-.4 3.4 0 .2 0 .4-.1.6l-.3 3.6v.5c-.1 1.3-.1 2.5-.1 3.8 0 2.8.1 5.5.4 8.2 1.2 12.1 5.2 23.4 11.2 33.3 2.5 4.1 5.4 8 8.6 11.6 1.1 1.2 2.2 2.4 3.3 3.5 4.3 4.3 9.2 8.2 14.4 11.4 5.9 3.7 12.3 6.6 19.1 8.6 2.3.7 4.6 1.3 6.9 1.7 1.3.3 2.6.5 3.9.7 4 .6 8 .9 12.2.9 1.3 0 2.5 0 3.8-.1h.5c1.2-.1 2.4-.2 3.5-.3.2 0 .4 0 .6-.1 1.2-.1 2.3-.3 3.5-.4.2 0 .4-.1.6-.1 1.2-.2 2.3-.4 3.5-.6.1 0 .2 0 .3-.1 1.1-.2 2.3-.5 3.4-.8.1 0 .3-.1.4-.1l3.3-.9c.2-.1.4-.1.6-.2 1.1-.3 2.1-.7 3.2-1.1.2-.1.4-.2.7-.2 1-.4 2.1-.8 3.1-1.2.2-.1.3-.1.5-.2 1-.4 2-.9 3-1.4.1 0 .2-.1.3-.1l3-1.5.6-.3c.9-.5 1.9-1.1 2.8-1.6.2-.1.5-.3.7-.4.9-.6 1.8-1.1 2.7-1.7.2-.1.4-.3.6-.4.9-.6 1.8-1.2 2.7-1.9.1-.1.3-.2.4-.3.8-.6 1.6-1.2 2.4-1.9.2-.1.4-.3.5-.4l2.4-2.1.6-.6c.8-.7 1.5-1.4 2.2-2.1l.6-.6c.7-.7 1.5-1.5 2.2-2.3.2-.2.3-.4.5-.5.6-.7 1.3-1.5 1.9-2.2.1-.1.2-.3.4-.4-2.8.5-5.3 1-7.9 1.4z"/></g></g></svg>