<svg xmlns="http://www.w3.org/2000/svg" width="792" height="612" viewBox="0 0 792 612"><g id="Layer_1"><path fill="#FAA41A" d="M502 226c-44.2 0-80 35.8-80 80 0 9.2 1.6 18.1 4.4 26.3l-87 30.3L449 472.1l109.6-109.6C573 348.1 582 328.1 582 306c0-44.2-35.8-80-80-80z"/><path fill="none" d="M23 255h484v333H23z"/><text transform="translate(23 280.416)"><tspan x="0" y="0" fill="#4E2F1B" font-family="'SourceSansPro-Semibold'" font-size="36">“Software built on </tspan><tspan x="0" y="43.2" fill="#4E2F1B" font-family="'SourceSansPro-Semibold'" font-size="36">pride and love of </tspan><tspan x="0" y="86.4" fill="#4E2F1B" font-family="'SourceSansPro-Semibold'" font-size="36">subject is superior </tspan><tspan x="0" y="129.6" fill="#4E2F1B" font-family="'SourceSansPro-Semibold'" font-size="36">to software built for </tspan><tspan x="0" y="172.8" fill="#4E2F1B" font-family="'SourceSansPro-Semibold'" font-size="36">profit.” </tspan><tspan x="0" y="259.2" fill="#4E2F1B" font-family="'SourceSansPro-Semibold'" font-size="36">Ravi Simhambhatla, CIO, </tspan><tspan x="0" y="302.4" fill="#4E2F1B" font-family="'SourceSansPro-Semibold'" font-size="36">Virgin America</tspan></text><path fill="none" d="M502 226c-20.3 0-38.9 7.6-53 20.1-14.1-12.5-32.7-20.1-53-20.1-44.2 0-80 35.8-80 80 0 22.1 9 42.1 23.4 56.6L449 472.1l109.6-109.6C573 348.1 582 328.1 582 306c0-44.2-35.8-80-80-80z"/></g></svg>