<svg xmlns="http://www.w3.org/2000/svg" width="792" height="612" viewBox="0 0 792 612"><g id="Layer_1"><path fill="#6A9AD1" d="M426.1 427.7v-9.9L396 420l-30.1-2.2v9.9c0 1.3.7 2.5 1.8 3.1-1.1.7-1.8 1.8-1.8 3.1s.7 2.5 1.8 3.1c-1.1.7-1.8 1.8-1.8 3.1s.7 2.5 1.8 3.1c-1.1.7-1.8 1.8-1.8 3.1s.7 2.5 1.8 3.1c-1.1.7-1.8 1.8-1.8 3.1s.7 2.5 1.8 3.1c-1.1.6-1.8 1.8-1.8 3.1s.7 2.5 1.8 3.1c-1.1.7-1.8 1.8-1.8 3.1 0 .8.3 1.6.7 2.2 6.2 10.1 29.4 8.4 29.4 8.4s23.2 1.7 29.4-8.4c.5-.6.7-1.4.7-2.2 0-1.3-.7-2.5-1.8-3.1 1.1-.7 1.8-1.8 1.8-3.1s-.7-2.5-1.8-3.1c1.1-.7 1.8-1.8 1.8-3.1s-.7-2.5-1.8-3.1c1.1-.7 1.8-1.8 1.8-3.1s-.7-2.5-1.8-3.1c1.1-.6 1.8-1.8 1.8-3.1s-.7-2.5-1.8-3.1c1.1-.7 1.8-1.8 1.8-3.1s-.7-2.5-1.8-3.1c1.1-.6 1.8-1.7 1.8-3.1z"/><path fill="#395B88" d="M396 476.1s-9.4.7-17.8-1.4c2.4 4.3 9.5 7.4 17.8 7.4s15.4-3.1 17.8-7.4c-8.4 2-17.8 1.4-17.8 1.4z"/><path fill="#FAA41A" d="M339.4 362.6s17 17.7 17 35.5 5.5 21.6 23.1 21.9h33c17.5-.3 23.1-4.1 23.1-21.9 0-17.8 17-35.5 17-35.5H339.4z"/><path fill="#4E2F1B" d="M433.2 295.4c-2 3.7-2.9 7.9-5.8 11.1-2.7 2.9-4.1-.7-4.5-3.2 1-2.8 1.4-6.1 1.3-8.8 0-1.3-2.1-2.1-2.7-.7-1.2 2.5-2 6.2-1.7 9.6-1.3 2.5-3.6 4-7.6 3-2.8-.6-4.8-2.8-6-5.4 1.6-4 1.5-8.7-.9-11.8-.8-1-2.2-.9-2.7.3-1.3 3.6-1.1 7.8.4 11.4-1.5 2.6-4 4.5-7 4.6-2.6.1-4.5-1.4-5.8-3.5-.2-4.1-1.5-8.6-2.2-10.8-.4-1.2-2.6-1.6-2.8 0-.5 4 .3 8.4 2.4 11.8-.1 2-.6 3.7-1.9 4.7-3.7 2.7-9-3.9-10.5-6.5-.5-.8-.8-1.7-1.1-2.5 1.4-3.6 1.5-7.9-.1-10.9-.6-1.1-2.1-.7-2.5.3-1.2 3.1-1.3 6.9-.3 10.5-2.1 3.7-5.8 5.5-8.4 1 0-.3 0-.5-.2-.8l-.3-.3c-.2-.3-.6-.3-.9-.2h-.1c-.4.1-.8.6-.7 1.1-.6.4-.9 1.1-.6 1.8 8.6 17.8 16.2 35.5 20.1 55 2 9.8 3.5 19.5 4.1 29.5.6 10.1.3 20.3 1.1 30.4 0 .2.1.3.2.4 0 .3 0 .6.1.9.1 1.2-.1 2.4.1 3.5.2 1 1.5.8 1.8 0 .4-1.1.2-2.4.1-3.5-.1-1.3-.4-2.5-.6-3.7.4-19.5-.9-38.9-4.6-58.1-1.9-9.5-4.2-18.9-7.7-28-3.1-7.9-6.7-15.7-10.2-23.5 1.9 1.1 4.1 1.1 6.5-.6.6-.4 1.2-1 1.7-1.6 2.4 5.3 7 9.5 12.9 9 3-.2 4.4-2.2 4.9-4.9 1.9 1.6 4.3 2.6 7.3 2.5 3.1-.1 5.7-1.9 7.5-4.4 1.9 2.7 4.5 4.8 7.9 5.6 3.8.9 6.5-.3 8.3-2.4.7 1.3 1.7 2.4 3.2 3.1 1.1.5 2 .5 2.9.3-2 4.9-3.9 9.8-5.1 15-2.8 11.4-5.4 22.9-7.7 34.5-2.1 10.7-4.4 21.4-5.8 32.3-1.2 8.9-2.7 19.7-.6 28.5.4 1.6 2.9.9 2.5-.7-2.1-8.6-.4-19.2.5-27.8 1.2-11.3 3.5-22.5 5.9-33.6 2.4-10.9 4.8-21.7 7.7-32.5 2.7-10.1 7.5-19.4 11.5-29.1 0-.1.1-.2.1-.3-.1-2-2.7-3.1-3.4-1.6z"/><path fill="none" d="M23 255h443.6v347.8H23z"/><text transform="translate(23 280.416)"><tspan x="0" y="0" fill="#4E2F1B" font-family="'SourceSansPro-Semibold'" font-size="36">“That’s the real </tspan><tspan x="0" y="43.2" fill="#4E2F1B" font-family="'SourceSansPro-Semibold'" font-size="36">lesson of where </tspan><tspan x="0" y="86.4" fill="#4E2F1B" font-family="'SourceSansPro-Semibold'" font-size="36">good ideas come </tspan><tspan x="0" y="129.6" fill="#4E2F1B" font-family="'SourceSansPro-Semibold'" font-size="36">from: that chance </tspan><tspan x="0" y="172.8" fill="#4E2F1B" font-family="'SourceSansPro-Semibold'" font-size="36">favors the connected </tspan><tspan x="0" y="216" fill="#4E2F1B" font-family="'SourceSansPro-Semibold'" font-size="36">mind.”</tspan><tspan x="0" y="302.4" fill="#4E2F1B" font-family="'SourceSansPro-Semibold'" font-size="36">Steven Johnson</tspan></text><path fill="none" d="M396 226c-44.2 0-80 35.8-80 80 0 22.1 9 42.1 23.4 56.6 0 0 17 17.7 17 35.5 0 11.9 2.5 17.6 9.4 20.1v9.6c0 1.3.7 2.5 1.8 3.1-1.1.7-1.8 1.8-1.8 3.1s.7 2.5 1.8 3.1c-1.1.7-1.8 1.8-1.8 3.1s.7 2.5 1.8 3.1c-1.1.7-1.8 1.8-1.8 3.1s.7 2.5 1.8 3.1c-1.1.7-1.8 1.8-1.8 3.1s.7 2.5 1.8 3.1c-1.1.6-1.8 1.8-1.8 3.1s.7 2.5 1.8 3.1c-1.1.7-1.8 1.8-1.8 3.1 0 .8.3 1.6.7 2.2 2.2 3.7 6.8 5.8 11.6 7 2.4 4.3 9.5 7.4 17.8 7.4s15.4-3.1 17.8-7.4c4.8-1.2 9.3-3.3 11.6-7 .5-.6.7-1.4.7-2.2 0-1.3-.7-2.5-1.8-3.1 1.1-.7 1.8-1.8 1.8-3.1s-.7-2.5-1.8-3.1c1.1-.7 1.8-1.8 1.8-3.1s-.7-2.5-1.8-3.1c1.1-.7 1.8-1.8 1.8-3.1s-.7-2.5-1.8-3.1c1.1-.6 1.8-1.8 1.8-3.1s-.7-2.5-1.8-3.1c1.1-.7 1.8-1.8 1.8-3.1s-.7-2.5-1.8-3.1c1.1-.7 1.8-1.8 1.8-3.1v-9.6c6.9-2.5 9.4-8.2 9.4-20.1 0-17.8 17-35.5 17-35.5C467 348.1 476 328.1 476 306c0-44.2-35.8-80-80-80zm.4 250.1zm-.3 0zm-.5 0zm.3 0z"/></g></svg>