<svg xmlns="http://www.w3.org/2000/svg" width="792" height="612" viewBox="0 0 792 612"><path fill="#4E2F1B" d="M488.7 362.9L431.8 306l26.6-26.6c1.5.2 3.1-.2 4.3-1.4l11.2-11.2c1.2-1.2 1.7-2.8 1.4-4.4l6.3-6.3c5.3-5.3 5.3-13.9 0-19.3l-16.5-16.5c-5.3-5.3-14-5.3-19.3 0l-6.2 6.2c-1.6-.3-3.3.1-4.6 1.4l-11.2 11.2c-1.2 1.2-1.7 3-1.4 4.6l-26.5 26.5-57-57c-1.4-1.4-3.7-1.4-5.2 0L303.3 244c-1.4 1.4-1.4 3.7 0 5.1l7.2 7.2 12.8-12.8c.6-.6 1.6-.6 2.3 0 .6.6.6 1.6 0 2.3l-12.8 12.8 7.3 7.2 12.8-12.8c.6-.6 1.6-.6 2.3 0 .6.6.6 1.6 0 2.3l-12.8 12.8 7.2 7.2 12.8-12.8c.6-.6 1.6-.6 2.3 0 .6.6.6 1.6 0 2.3l-12.8 12.8 7.2 7.2 12.8-12.8c.6-.6 1.6-.6 2.3 0 .6.6.6 1.6 0 2.3l-13 12.7 7.2 7.2 21-21c.6-.6 1.6-.6 2.2 0 .6.6.6 1.6 0 2.3l-21 21 7.2 7.2 12.8-12.8c.6-.6 1.6-.6 2.3 0 .6.6.6 1.6 0 2.2L319.1 347c-1.6 1.6-2.5 3.8-2.5 6l.1 26.5c.2 1.4.8 2.7 1.9 3.8 1.1 1.1 2.4 1.7 3.8 1.9l26.5.1c2.2 0 4.3-.8 6-2.5l62.4-62.4c.6-.3 1.3-.2 1.8.3.6.6.6 1.6 0 2.3l-21 21 7.2 7.2 12.8-12.8c.6-.6 1.6-.6 2.2 0 .6.6.6 1.6 0 2.3l-12.8 12.8 7.2 7.3 12.8-12.8c.6-.6 1.6-.6 2.3 0 .6.6.6 1.6 0 2.3L417.2 363l7.2 7.2 12.8-12.8c.6-.6 1.6-.6 2.3 0 .6.6.6 1.6 0 2.3l-12.8 12.8 7.2 7.2 12.8-12.8c.6-.6 1.6-.6 2.3 0 .6.6.6 1.6 0 2.3L436.2 382l7.2 7.2 21-21c.6-.6 1.6-.6 2.3 0 .6.6.6 1.6 0 2.3l-21 21 7.2 7.2c1.4 1.4 3.7 1.4 5.1 0l30.6-30.6c1.5-1.5 1.5-3.8.1-5.2zM450.5 226c2.4-2.4 6.4-2.4 8.8 0l8.3 8.3-9.6 9.6-12.8-12.8 5.3-5.1zm-10.4 8.4c.8-.8 2-.8 2.8 0l12.3 12.3c.8.8.8 2 0 2.8-.8.8-2 .8-2.8 0l-12.3-12.3-.1-.1c-.7-.7-.7-1.9.1-2.7zm-10 10c.8-.8 2-.8 2.8 0l.1.1 12.2 12.2c.8.8.8 2.1 0 2.8-.8.8-2 .8-2.8 0L430 247.2c-.7-.8-.7-2 .1-2.8zM328.7 373.7l-5.3-5.3v-13.5c2.4 2 5.3 2.9 8.3 2.9 0 3.3 1.2 6.6 3.7 9.1l-6.7 6.8zm10.6-11c-2.9-2.6-2.6-7.2.4-10.2l80.7-80.8c.8-.8.8-2.1 0-2.8-.8-.8-2-.8-2.8 0l-80.7 80.7c-3.1 3-7.8 3.3-10.3.3l100.2-100.3 12.8 12.8-100.3 100.3z" id="Layer_1"/></svg>