<svg xmlns="http://www.w3.org/2000/svg" width="792" height="612" viewBox="0 0 792 612"><g id="Layer_1"><path fill="#6A9AD1" d="M393.1 265.9c0-1-.6-2-.6-2v-.1s-.8-1.5-2.1-2c-1.3-.4-2.4.5-2.4.5s-.2.2-.7.8c-.5.6-.8 1.1-1.9 1.5-1.1.4-2.2.3-2.8.1-.6-.3-.7-.9-.7-.9s-.4-1.2-.5-1.7c-.1-.5-.5-2.7-.5-2.7s-.8-4.4-.9-5.3c0 0 2.4-.2 5.9-1.2 3.7-1.1 4.9-1.9 4.9-1.9s-.7-.3-.8-1.1c-.1-.8-.1-1.9-.1-1.9s-.1-.8.8-1.8 2.2-1.4 2.8-1.5c.7-.1 2.1-.3 3.4-.2 1.3.1 2 .2 2.6.5.5.3.6 1 .6 1v1.8s-.1.6.4.8c0 0 .8.5 3.5.2 0 0 1.2-.2 3-.7 1.8-.5 6.6-2 7.3-2.1.7-.2 1.5-.5 2.6-.8 1.1-.3 3.3-1 3.7-1.2.4-.2 2.9-1 4.7-1.3 1.8-.3 3.6-.3 4.5.2 0 0 .6.5.8 1.1.3.6.8 1.4 1.5 1.7.7.4 1.2.6 3 .4 0 0 0-.2-.6-.6-.7-.4-1.6-1.1-1.6-1.1s-.5-.4-.7-.7c-.1-.3-.1-.5-.1-.5l1.4-2.3s0-.3.8-.4c.8-.1 1.7-.2 2.8-.5 1.1-.3 1.3-.5 1.3-.5l.9.3s5.7 4.6 7.5 5.7l.3-.4s.7 0 1.3.3c.6.2 1.6.9 1.6.9s2.6 2.1 3.3 3.5l.4 1.1-.2.3s1.5 2.1 3.4 4.2c0 0 2 2.7 2.7 3.4 0 0-.2-.6-.3-1.4l.5-.4.3-.2 1 .4c5.7 7.7 10.3 16.7 13.1 26.2l-.2.8.6.8c1.8 6.8 2.8 13.9 2.8 21.2 0 1.8-.1 3.6-.2 5.4l-.5.8.4.9c-3.6 41.8-38.7 74.7-81.4 74.7-29.7 0-55.6-15.8-70-39.4l-.2-.6-.3-.2c-5.4-9.2-9.1-19.6-10.6-30.6l.3-.8-.5-.8c-.3-3-.5-6.1-.5-9.2 0-4.8.4-9.5 1.2-14l.4-.9-.1-.5c1.9-9.7 5.4-18.8 10.4-26.9l1.1-.6.1.1s.4-.3.6-.3h.1s1.9-3.2 2.6-4.2c0 0 .9-.6 1.2-.7 0 0 .2 0 .3.1 0 0 .8-.7 2.7-3.3 0 0-.2-.1-.2-.3 0-.2.2-.9.3-1.1.1-.2.2-.3.2-.3s2.8-3.3 5.1-5.2c0 0 .4-.3 1.1-.4 0 0 2.4-1 5.2-3.5 0 0 .1-.5.8-1.4.7-.9 2.3-1.9 3.6-2.1 1.2-.3 1.4-.1 1.4-.1l.1.1.8 1.2s.9-.5 2.3-1 1.6-.4 1.6-.4l1.3 2.1-1.6 3.2s-1 2.3-2.7 3.5c0 0-.8.5-1.8.2s-1.7.5-1.7.5l-.3.2s.2 0 .6-.2c0 0 .3.1.4.4.2.3 1.5 1.9 1.5 1.9s0 1.3-.7 3.1-2.4 4.6-2.4 4.6-1.2 2.3-1.7 3.6c-.5 1.3-.8 2.8-.8 3.6 0 0 .3.1 1.1-.3 1.1-.5 1.7 0 1.7 0s1.2.8 1.7 1.4c.4.5 1.3 2.8.3 5.2 0 0-.6 1.6-2.2 2.8 0 0-.3.5-2.5.3-.6-.1-.9-.4-2.2-.3-1.3.1-2 1.3-2 1.3-1.1 1.6-1.9 3.9-1.9 3.9l-.1.3s-.4.8-.5 2.8c-.1 2.1.5 5 .5 5s12.6-2.2 15.8-.1l.9.9s.1.3 0 .6-.6 1.1-1.6 1.8-2 2.5-.5 3.7c1.7 1.3 2.7 1.2 5.5.8 2.8-.5 4.6-2 4.6-2s1.6-1.2 1.3-2.6c-.3-1.5-1.6-1.9-1.6-1.9s-1.1-.7-.2-2c0 0 .2-1.1 4.1-2.1 3.9-1 10.9-2.4 16.9-3.2 0 0-4.1-13.2-1.2-14.9 0 0 .7-.5 2-.7l1.2-.1c.2 0 .5 0 1.3.1.7.1 1.6.1 2.7-.7 1.1-1.2 1.1-1.6 1.1-1.5"/><g fill="#395B88"><path d="M346.4 243.2c-.3.5-.4.8-.4.8s.2-.2.3-.4c.2-.1.1-.4.1-.4zM339.7 247.9s.6-.1 1.1-.4c-.7.1-1.1.4-1.1.4zM447 245.3c0 .1-.1.3 0 .5 0 0 .8.6.9.7h.6c.2.1.1-.3.1-.3s-.5-.7-.5-.9c-.3-.1-.7-.1-.8-.1h0c-.2 0-.2 0-.3.1.1-.1.1-.1 0 0zM453.5 251.2l.2-.2-.4-1.1v-.1c0 .1-.1.2-.3.2 0 0-.2 0 0 .3 0 .3.3.6.5.9zM351.4 365.3l.3.3-.3-.3zM348.6 243.8c.1 0 .2-.1.4-.1.1 0 .2-.1.3-.1.7-.3 1.9-.9 3.5-1.7l-.8-1.2-.1-.1s-.2-.2-1.4.1h-.1.2v.1s0 .1-.1.1c0 .1-.1.1-.1.2-.3.4-.9.8-1.7 1.7-.5.5-.7.8-.6 1-.1.1.1.1.5 0z"/><path d="M447.1 245.8l-.1-.1v-.6l-.3.4c0 .1.2.2.4.3zM389.9 248.1v-.2.2zM413.1 376.7zM412.3 376.9s-1.9.5-5.2 1.7c-3.2 1.3-9.6 2.3-9.6 2.3s-2.1.2-3.4.6c.1 0 .3-.1.3-.1s1.5-.3 3.1-.5c0 0-4.1.5-4.5 1-.1.2-.1.4 0 .5.1.2.4.3.4.3s.6.4 2.7.5c0 0 .7 0 .8.1 0 0-.1.1-.4.1-.5.1-1.4.5-4.5.9-2.1.3-2.7.1-2.9 0l-.1-.1v-.1c0-.1 0-.1.1-.3 0-.1.1-.1.1-.2 0-.2-.2-.5-.5-.7 0 0-.1-.1-.4-.2h.1c-.4-.1-1.2-.3-2.6-.3-2.3 0-6.8 0-11-.2h-.3.2c-.1-.1-.3-.2-.4-.3-.1 0-.1-.1-.2-.1s-.1-.1-.2-.1c0 0 .1 0 .1.1-.1-.1-.2-.1-.3-.2-1.1-.6-6-3.8-7.5-4.8-1-.7-2.5-1.7-3.7-2.1-.1 0-.2-.1-.2-.1-.5-.2-1-.2-1.3-.1-.9.3-.8.6-1.3.9-.4.2-.8.1-1.5-.2 0 0-.1 0-.1-.1-.2-.1-.5-.2-.8-.4-.1-.1-.2-.1-.3-.2-.2-.1-.3-.2-.5-.2-.8-.4-1.6-1-2.9-2.1-.1-.1-.2-.2-.4-.3-.3-.2-.5-.5-.8-.8-2-1.9 2.6-.2 2.6-.2s1 .4.6-.6c-.1-.1-.1-.3-.2-.4 0-.1-.1-.2-.2-.3-.1-.1-.1-.2-.2-.3-.1-.1-.2-.2-.3-.4-.1-.1-.1-.2-.2-.3-.1-.1-.2-.3-.3-.4-.1-.1-.2-.2-.2-.3-.1-.1-.2-.3-.3-.4-.1-.1-.2-.3-.3-.4-.1-.1-.2-.2-.3-.4-.2-.2-.4-.4-.5-.6l-.1-.1-.6-.6c-.3-.4-.7-.7-1-1.1-.7-.7-1.2-1.3-1.8-1.9l.2.2c-.8-1-1.5-1.9-2.3-3l-.9-1-.3.9c.8 1.2 1.7 2.4 2.7 3.4 0 0 4 4.4 6.2 7.1 0 0 .1.3-.3 0-.4-.2-2-1-2.9-.9-.9.1-.7.6-.7.6s.4 2 6.4 5.4c0 0 2.2 1.2 3.6 1.2 0 0 .4.1 1-.6.6-.6.7-.5 1.1-.4.4.1.9.4 2.8 1.8s5.6 3.5 6.9 4.4c.4.3.7.5.9.7-3.5-.3-7.6-.8-8.3-1 0 0-.2 0-.3-.2-.1-.1-1-.7-1.9-1.2-.8-.5-3.3-1.5-3.3-1.5s-1.5-.6-2.4-.8c-.3-.1-.6-.1-.7-.1v.1c0 .1.2.2.4.4.6.3 1.1.6 1.7.9 0 0-.7-.4-.9-.5v-.1h.1c.3 0 .7.2.7.2s1.9.5 3.2 1.1c1.2.6 2.3 1.3 2.3 1.3s1.5.9 3.7 1.2c2.2.3 5.1.6 6.1.7 0 .1-.1.3-.2.5-.3.6 1 1 1 1s3 1.4 4.7 1.4c1.6 0 2.3-.2 3.4 0 1 .2 2.1.5 2.2.6.1.1-.5.1-.5.1h-.2c-.8-.1-3.6-.4-3.8-.3-.2.1 0 .3 1.6.7 1.8.3 3.6.5 5.4.7H388.1h-.2.2c-.2 0-.5-.1-.9-.1h.1c-1.3-.2-3.6-.5-5.3-1 0 0-.2-.1.3 0s3.2.4 4 .3c.5-.1.2-.3 0-.4-.1 0-.1-.1-.1-.1s-.1-.1-.4-.2h-.1c-.2-.1-.4-.1-.6-.2-.2 0-.4-.1-.6-.1-.5-.1-1.1-.2-1.7-.3h.1c-.4 0-.8-.1-1.2-.1 0 0-1.3-.1-2.4 0h-.1c-.8 0-1.6-.2-2-.3-.1 0-.2-.1-.2-.1s-.1 0-.3-.1h.1c-.4-.2-1.3-.6-1-1 .2-.3.2-.5.1-.8 1.8.1 4.1.2 4.1.2s4.8.2 7.4 0c1.2-.1.8.5.8.5s-.3.6.3.8c0 0 1.2.7 5.4.3 4.1-.5 5-1.4 5-1.4s.5-.4-.6-.6h-.2H397.8h-.1-.1c-.2 0-.4-.1-.6-.1h-.3c-.4-.1-.5-.2 0-.4.7-.2 1.9-.3 1.9-.3s3.6-.5 6.5-1.3c0 0 3.1-.7 6.2-1.8 1.2-.4 2.2-.7 3-1l.7-1c-.2 0-.3.1-.4.1h-2.3zM334.3 254.6c0 .1.2.2.2.2s.5-.8.3-.7c.1-.2.3-.6.3-.8 0-.4-.5 0-.5 0-.2.4-.3.8-.3 1.1-.1.1-.1.2 0 .2zM357 377.7s.1 0 0 0c.1 0 0 0 0 0zM325.2 347.6s-.1 0 0 0c-.1 0-.1 0 0 0-.1 0-.1 0 0 0l.2.2c-.1-.1-.2-.1-.2-.2zM401.5 355.1z"/><path d="M476.8 312.8l-.2-.4v-.1l.5-.8s-.2.3-1.1 1.6c-.1.1-.1.2-.2.3-.3.4-.6 1-1 1.6-2 3.3-2.4 6-2.4 6s-.2 1-.1 1.7c0 .1 0 .2.1.3 0 .1.1.2.1.2 0 .1.1.2.1.2v.1c0 .1 0 .7-.2 1.4 0 .1-.1.3-.1.4v.1c0 .1 0 .1-.1.2-.1.2-.2.5-.3.7v.1c-.7 1.3-1.3 1.7-1.3 1.7s-1.2.9-1.4.3c-.2-.6-.1-1.2-.1-1.5.1-.4.5-2.5.4-3.3-.1-.8-.8-.2-.8-.2s-.2.2-.5.6-2.1 2.6-2.7 3.4c-1.6 1.9-3 3.2-6.9 6.3-.3-.6-.7-.9-.9-1.2-.5-.6-1.3-.3-2.3-2.8-.9-2.1-1.2-3.9-1.2-5.3v-1.2c.1-1.4.4-2 1.1-2.6.7-.6 3.6-.3 3.6-.3s1.4.3 2.7-1.8c1-1.6 1.1-3.9 1-5.7 0-.6-.1-1.1-.2-1.6-.4-1.7-1-3.2-3.4-3.5-2.4-.2-3.4 2.7-3.4 2.7s-.5 1.1-1 1.8c-.5.6-1.9.5-1.9.5-.6-.1-1.3.2-2-1.3s-2.3-5.3-2.3-5.3c-.5-1.3-.9-2.4-1.1-3.3l-1.2-.5 1.2.5c1.6-.9 4.4-2.5 6.4-4.2 3-2.5 5.9-5.2 6.7-5.8.7-.7 1.4-1.2 2.1-1.2.7 0 1.2.5 1.6 2.3.4 1.8.5 3.3.7 4.1.2.9.5 1.9 1.5 2.1 1 .2 2.4-.7 2.9-1.1.2-.2.5-.5.7-.9.4-.7.8-1.7.7-2.9 0 0 .1-2.6-1.2-5 0 0-.6-1-.8-1.3-.1-.2-.2-.4 0-.8.1-.1.2-.3.3-.5.3-.4.7-.9 1.4-1.3s1.4-.5 1.8-.6c0 0 .4-.1 1-.4l-.2-.5v-.1l.5.5c.8 2.4 1.6 6.2 1.8 6.8 0-.2-.1-.5-.1-.7-.5-2.3-1.1-4.6-1.6-6.1l-.5-.5.4.5c.7-.4 1 .1 1 .1l-.6-.8.2-.8s-.5-.3-1.1-.1h-.1s-.5-1.5-1.7-4.4c-1.2-2.9-1.4-3.9-1.4-3.9s-.1-.3.1-.4c.2-.1.1-.3.1-.3s0-.4-.4-1.6c-.3-.8-.5-1.5-1.1-2.6.5.9.7 1.7.8 2v.1s.2.2.1.9c0 .6-.2.7-.2.7v.2c.2.9.7 1.9.7 1.9s1.7 4.3 2.8 7.3c-.5.1-.6.6-1.6.7-1 .2-2 .5-3.1 2.1-.3.5-.4 1-.5 1.5v.8c0 .1.1.3.1.4v.2c.1.4.3.7.3.7s.6.9.9 1.4c.3.5 1.7 3.6.1 5.8 0 0-.9 1-2.4 1.4-1.4.3-1-1.3-1.2-2.2 0 0-.2-3.7-2-5.8-1.6-1.8-4.4 1.4-5.8 2.5-1.3 1-5.2 5-10.7 7.9l-.2-2.7s-.1-1.4-.9-3.7c-1.6-4.5-3.1-6.6-3.1-6.6s-.7-1.6-2.4-2c-.2-.1-.5-.1-.8-.1-2.1 0-2.3 2-2.3 2s-.5 1.5-1.3 2c-.8.4-2.9 1.7-4.2.7l-.1-.1c-.1 0-.1-.1-.2-.1l-.1-.1c-.5-.6-1-1.2-1.3-1.9-.6-1.1-1-2.3-1.1-3.4-.2-1.8.6-2.6.6-2.6s.2-.5 2.6-.5c2.7 0 3.2-.8 3.2-.8s.5-.5.5-1.5c0-1.1-.5-3.4-1.2-4.8-.1-.1-.1-.2-.2-.4-.6-.9-1.6-2.2-2.5-3.2l-1.5-.3.1-.3.2-.8c-.2-.1-.4-.4-.8-.8-.9-1-2.4-2.7-3.6-4.2-.9-1.1-1.7-2.1-2.1-2.6-.6-.8-.8-1.2-1-1.5-.1-.2-.1-.3-.2-.4v-.1c-.2-.4.3-1.4.7-1.9.4-.5.8-.5 1.8-.3.9.2 1.5.6 3 .1s1.6-1.6 1.7-2.7c.1-.9-.7-2.4-1.5-3.6-.3-.4-.6-.8-.8-1.1-1.1-1.2-2.6-1.3-3.7-1.3-1.1.1-1.7.8-2.3 1.2-.6.3-1.8.7-2.3.5-.3-.1-.6-.2-1-.5s-.8-.7-1.2-1.5c-.7-1.2-1.3-2.3-1.6-2.9l-1.1-.1 1.1.1c.4-.1.7-.2 1.1-.3 1.8-.5 3.2-.9 3.2-.9s2-.7 3-1c.7-.3 1.3-.4 2-.5h.2c.2 0 .3-.1.5-.1.9-.2 2.1-.2 2.7-.2.6 0 .8.2.8.2s.3.2.4.4c.1.2 1.2 3 4.8 3.2h.6c3-.1 3-1.8 2.7-2.4-.4-.7-1.4-1.4-1.4-1.4s-1.4-.9-1.8-1.4c-.3-.4.1-.6.2-.6s2.4-.5 3.7-.8c.3-.1.6-.1.7-.2l-.8-.2h-.1s-.2.2-1.3.5-2 .4-2.8.5c-.8.1-.8.4-.8.4l-1.4 2.3s0 .2.1.5.7.7.7.7.9.7 1.6 1.1c.7.4.6.6.6.6-.6.1-1.1.1-1.5 0h-.4c-.1 0-.2 0-.3-.1-.1 0-.1 0-.2-.1h-.1c-.2-.1-.3-.1-.5-.2s-.4-.2-.5-.4c-.4-.4-.7-.9-.9-1.3-.2-.4-.6-.8-.7-1l-.1-.1c-.9-.5-2.7-.5-4.5-.2-1.8.3-4.3 1.1-4.7 1.3-.4.2-2.6.9-3.7 1.2-.8.2-1.5.4-2.1.6-.2.1-.4.1-.5.2-.7.2-5.5 1.6-7.3 2.1-1.8.5-3 .7-3 .7-2.7.3-3.5-.2-3.5-.2-.1 0-.1-.1-.2-.1-.3-.3-.3-.7-.3-.7v-1.8s0-.5-.4-.9c-.1 0-.1-.1-.2-.1-.5-.3-1.2-.4-2.6-.5-1.3-.1-2.7.1-3.4.2-.7.1-1.9.5-2.8 1.5-.9 1-.8 1.8-.8 1.8v.1c0 .3.1 1.1.1 1.7 0 .1 0 .2.1.3.2.6.7.8.7.8s-.8.6-3 1.3c-.1 0-.1 0-.2.1l-.9.3c-.1 0-.1 0-.2.1-.2.1-.4.1-.6.2-3.5 1-5.8 1.2-5.9 1.2.1.9.9 5.3.9 5.3s.3 2 .5 2.6v.1c.1.5.5 1.7.5 1.7s.1.6.7.9c.6.3 1.7.4 2.8-.1 1.1-.4 1.4-.9 1.9-1.5s.7-.8.7-.8 1.1-1 2.4-.5c1.3.4 2.1 2 2.1 2v.1s.6 1 .6 2c0 .1-.1.3-.5.7l-.2.2-.2.2c-.1 0-.1.1-.2.1-1.1.8-2 .8-2.7.7-.7-.1-1.1-.1-1.3-.1l-1.2.1c-1.3.2-2 .7-2 .7-1.4.8-1.2 4.4-.5 7.9.6 3.5 1.7 6.9 1.7 7-6 .8-13.1 2.2-16.9 3.2-3.9 1-4.1 2.1-4.1 2.1-.1.2-.2.3-.2.5-.4 1 .5 1.5.5 1.5s1.3.5 1.6 1.9c.1.4 0 .7-.1 1-.3.9-1.2 1.6-1.2 1.6s-1.9 1.5-4.6 2c-.4.1-1.8.3-1.8.3-.3 0-.6 0-.9.1-1.1 0-1.8-.3-2.8-1.1-1.5-1.2-.5-3 .5-3.7 1-.7 1.5-1.5 1.6-1.8.1-.3.1-.6.1-.6l-.9-.9c-.3-.2-.8-.4-1.4-.5h-.1-.1-.1c-.1 0-.2 0-.4-.1h-.1c-.1 0-.3 0-.4-.1h-.5-4.5c-1.3.1-2.7.2-3.9.3-.2 0-.4 0-.5.1-.2 0-.4 0-.5.1-.2 0-.3 0-.5.1-.7.1-1.2.2-1.7.2h-.2H341.3h-.1-.1-.1-.1-.1s0-.2-.1-.3v-.1-.1-.1-.1-.1-.1-.1-.1-.1-.1-.1-.1-.1-.1-.2-.2-.2-.2-.2-.2-.2-.2-.2-.2-.2-.2-.2-.2-.2c.1-2 .5-2.8.5-2.8l.1-.3s.7-2.3 1.8-3.9c0 0 .4-.7 1.1-1 .2-.1.5-.2.8-.3 1.3-.1 1.6.3 2.2.3H349.6c.5-.4.9-.8 1.3-1.2 0 0 0-.1.1-.1 0 0 0-.1.1-.1 0 0 0-.1.1-.1.1-.1.1-.2.2-.3v-.1-.1-.1l.1-.1c.1-.2.2-.3.2-.3 1-2.3.1-4.7-.3-5.2-.5-.6-1.7-1.4-1.7-1.4l-.4-.2H348.7h-.1.1c-.2 0-.4.1-.6.2-.6.3-.9.3-1 .3h-.1c0-.8.2-2.3.8-3.6.5-1.3 1.7-3.6 1.7-3.6s1.7-2.9 2.4-4.6c.7-1.8.7-3.1.7-3.1s-.5-.6-.9-1.2c-.2-.3-.5-.6-.5-.7l-.3-.3c-.1-.1-.2-.1-.2-.1-.1 0-.2.1-.2.1-.2.1-.3.1-.3.1l.3-.2s.7-.8 1.7-.5c1 .3 1.8-.2 1.8-.2 1.6-1.2 2.7-3.5 2.7-3.5l1.6-3.2-1.3-2.1c-.1 0-.4 0-1.6.4 0 0-1.2 3.1-2.8 4.9 0 0-.6.9-1.1.7-.5-.2-1-.2-1.5-.1s-1.9.6-3.1 2.3c-1.3 1.7-1.4 3-.7 3.4.7.4 1.7-.1 2.3-.7.6-.5 1-.8 1.2-.8.2 0 .1.5.1.7 0 .2-.2 2.2-2.6 6.3-.6 1-1.4 2.5-1.7 3.3l1 .7-1.6.8c-.4 1.2-1 3.1-.8 4.2.3 1.6 1.9 1.6 1.9 1.6s1 0 2.2-.6c1.2-.6 1.4 2 1.4 2.4 0 .4 0 2.8-1.6 3.9 0 0-.7.5-1.6.5-.9 0-1.5-.3-1.5-.3s-1.6-.4-2.5.1c-1 .6-2.1 1.8-3 3.5-.9 1.7-1.7 4.8-1.6 7 0 1.8.3 3.5.5 4.6l1.1.7-1.1-.7s-3.7 1-7.8.9c-2.9 0-2.8-1.5-2.5-2.6.1-.1.1-.3.2-.4v-.1c0-.1.1-.2.1-.2 0-.1.1-.1.1-.1s1-1.8 1.2-2.8c0 0 .4-2.8-2.3-2.6-2.6.2-3.2 2.5-3.2 2.5s-.2 1.3-.1 2.2c0 1 0 3-1.2 4.1-1.2 1.1-2.5.8-2.5.8s-2.1-.9-2.6-1.2c-.4-.2-.8-.2-1.2-.1h-.1c1.3-5.3 2-6.8 2-6.8s0-.1.1-.2v-.1c.1-.1.1-.1.1.2 0 .5.3.6.3.6.2 0 .4-.3.7-.7.1-.2.2-.3.3-.6 0-.1.1-.1.1-.2.1-.2.1-.3.2-.5 0-.1.1-.2.1-.3.1-.2.1-.4.2-.6 0-.1.1-.2.1-.3.1-.2.1-.4.2-.5 0-.1.1-.2.1-.4.5-1.5.8-3 1-3.7.1-.3.1-.5.1-.6 0-.2-.1-.3-.2-.2-.2.1-.2 0-.2 0v-.2c.1-.5.6-1.6.6-1.6 1.3-3.3 2.9-6.1 4-7.7.1 0 .1 0 .4-.1 0 0 .6-.1 1.8.2 1.5.4 3.3-.8 3.3-.8h.1s.1-.1.2-.1h.1c.1 0 .1-.1.2-.2 0 0 .1 0 .1-.1.1-.1.2-.1.2-.2l.1-.1c.4-.4.8-.9 1.1-1.5l.4-1.1v-.1l.2-.4s.5-1.6 1.8-2.1c0 0 .5-.3 1.3-.3.5 0 .6.2.6.4v.2s-.1.4-.9 1.5-1.1 1.9-1.1 1.9-.3.7-.1 1.1c.1.2.2.3.4.4 0 0 .4.2 1.5-.1 1.1-.4 4.8-1.4 7.1-1.7l1.6-.8c-.5-.4-1-.7-1-.7-3.8.7-6.7 1.6-7.7 2-1 .4-1 .1-1 .1-.3-.4.7-1.6.7-1.6s1.1-1.4 1.5-2.7c.4-1.3-1.4-1.1-1.4-1.1-1.2.2-2.1.8-3.1 2-.8.9-1.3 2.2-1.4 2.9-.1.4-.3.8-.3.8s-.1.3-.7.5c-.7.3-2 .6-2 .6s-.9.1-1.5-.2c-.4-.2-1.4.1-1.4.1l.1-.8h-.1l-1.1.6c-.2.3-.4.6-.5.9-.1.2-.2.5-.1.7 0 .1.1.1.2.1h.3c-.5.9-1 1.7-1.4 2.5-2.2 4-3 6.4-3.3 7.4-.1.4-.1.6-.1.6v.2c0 .2.1.3.2.3s.2-.2.2-.1 0 .3-.1.7c-.1.7-.8 2.7-1.1 3.5-.3.8-.6 1.4-.8 1.3-.1 0-.2-.1-.2-.2v-.2s0-.1-.1-.2-.2-.2-.6.6c-.6 1.3-1.1 3-2.3 7.5 0 .2-.1.4-.1.6v1-1c-.3.3-.4.7-.4.7l.1.5-.4.9v.1s.1-.3.3-.6c-.8 4-1 8.2-1 8.5 0 .3-.1.3-.1.3v-.2h-.1s-.1 0-.1.1c-.1.1-.1.3-.1.3 0 .2-.1 1.2-.1 1.4.1-.2.2-.1.2-.1v.1s.1.1.2 0c.2-.1.3-2.2.3-2.2s0-3.7 1-8.3c.1-.1.2-.1.3-.1.5 0 1 .3 1 .3s1.8 1 2.6 1.1c.8.2 1.4-.1 1.9-.5.2-.1.4-.3.6-.5.2-.2.4-.4.5-.6l.1-.1c.3-.4.6-.8.8-1.2.1-.2.2-.4.2-.5 0-.1.1-.2.1-.3v-.1c0-.1.1-.3.1-.4.1-.5.1-1 .2-1.5.1-.8.1-1.4.1-1.5v-.8-.1c0-.2-.1-.9.3-1.2.4-.4.7-.6 1.8-.6s1.4.6 1.4.6.4.5.4.9c0 .3-.1.5-.1.5s-.6 1-.8 1.5c-.2.5-1 2.1-.8 3.5.2 1.4 2.4 2 2.4 2s1.7.4 4.1 0l5-.8.9-1-.9 1c.1 1.8.3 5.4.2 6.6 0 1.5-.2 4.6-1.8 5.3 0 0-.5.3-1.4-.4-.9-.7-1.8-.7-2.2-.7-.4 0-2.1.3-2.7 2.1-.7 1.8-.6 4.3-.5 5.8.1 1.5 1.4 3.9 3 3.9 0 0 .8.1 1.7-.9.9-.9 1.4-1 1.9-1 .4 0 1.2.4 1.7 4.6.5 3.9.7 7.1.7 10.7l.9.6-1-.6c-.5.1-1.1.1-1.8.2-1.6.1-4-.1-6.9-1-2.8-.8-4.6-2.3-5-3.3v-.1c0-.2-.1-.3-.1-.5v-.2c0-.5.1-.9.1-.9s.5-2.1.2-3.8c0-.2-.1-.4-.1-.6v-.2-.1-.1c-.4-1.3-1-2.3-2.4-3.1-1.7-1-2.6-.8-2.6-.8s-1.5-.2-1.4 2.3c.1 2.5.4 3.6.4 3.6s.3.9-.2 1c-.5.1-1.2-.6-1.2-.6s-.3-.3-.8-.7l-.2-.2c-.4-.4-.9-.9-1.3-1.4-.1-.8-.2-1.7-.3-2.6-.4-2.9-.4-6-.3-6.9v-.6c0-.5-.1-.7-.2-.7s-.2.1-.2.5c-.1.4 0 .6-.1.6v-.1-.3-.3 1l.1.6c0 .5.1.6.1.6s.1-.1.1-.2v-.5l.1-.6v.6c0 1.4.4 7.3.4 7.3 0 .4.1.8.1 1.2l.1.1-.1-.1.1.1-.3.8s.1.2.4.6c.4 3.5 1.1 6.9 1.1 6.9.8 3.9 1.8 6.2 2.1 6.8.1.2.2.3.3.3.1 0 .1-.4 0-.7v-.1c.1 0 .9 1.4 1.4 2.8.5 1.6.9 2.9.9 2.9s.4 1.3.2 1.3h-.1s-.1 0-.1-.1l-.1-.1c-.1-.1-.1-.2-.1-.2s-.3-.5-.4-.7c-.1-.1-.1-.1 0 .3.6 2 2.6 6.1 2.6 6.1l2.2 4v-.1.1c-.3-.5-.6-1.1-.9-1.7-1.4-2.7-2.8-5.9-3-6.4-.1-.2-.1-.3-.2-.5-.1-.3-.2-.5-.2-.5.1.2.3.7.7 1.2l.1.1h.2v-.1-.1-.1-.1-.2-.1-.3c-.1-.8-.5-2.1-1.3-4.1-.8-2.3-1.4-3.5-1.7-4.1 0-.1-.1-.1-.1-.2-.3-.5-.4-.6-.4-.7-.1-.1-.3-.4-.3.3 0 .3 0 .6-.1.4-.1-.2-.3-.9-.7-2.2-.8-2.9-1.6-7.8-1.6-8.2 0-.2-.1-.7-.2-1.6.1.2.3.4.5.6.3.4.7.8 1.2 1.3 1.7 1.8 2.3.7 2.3.7s0-.1.1-.2v-.2-.1-.3-.8-.5-.3c0-.2-.1-.4-.1-.6v-.2c-.3-1.3-.4-2.2-.2-2.7 0-.1.1-.2.1-.2.1-.1.1-.1.2-.1h.3c.9 0 3.6.6 4.5 2.8 0 0 .3 1 0 2.4-.3 1.3-.3 2.5 0 3.7.2 1.2 1.2 2.3 2.3 3.2 1.1.9 4.4 2.5 7.6 2.7 3.2.2 4.2 0 4.2 0l1.2-1.2-1.2 1.2c-.1.3-.1.7-.2 1-.3 1.1-.3 2.2 0 4.1.3 1.9 1.3 6 2.8 7 2 1.4 3.3 1.4 4.7 1.3 1.3-.1 2.3-1.1 2.3-1.1s.5-.5 1.1-.4c.6.2 2.2 1.1 3.3 3.3 1.1 2.3 1.4 4.8-.5 5.2-1.9.4-5.2-1.4-5.2-1.4s-1.9-1-3.4.1-1.6 2.9-.8 5.1c.4 1.2 1.3 3.1 2.4 5.1l1.1.5-1.1-.5c-1.8-.4-5.2-1.1-6.5-1.7-.6-.3-1-.4-1.3-.6 0 0-.1 0-.1-.1l-.1-.1-.1-.1c-.1-.2-.2-.5-.1-.9.2-1.2-1.2-2.9-1.2-2.9s-1.9-2.1-3.6-3.3c-1.7-1.3-2.4-.9-2.4-.9s-.8.4-.1 2.1c.7 1.7 1.4 2.2 1.4 2.2s.3.4.1.4c-.2.1-.8-.4-1.3-.8-.4-.3-3-2.8-3.9-3.6l.2.6.1.1c.3.5 1.4 2 3.5 3.7 1.7 1.4 2.3 1.4 2.4 1.3.1 0 .1-.1.1-.1s.1-.6-.5-1.3c-.1-.2-.3-.4-.4-.6-.1-.2-.2-.3-.3-.5-.2-.4-.4-.7-.5-1.1v-.1-.3-.2c.2-.5.5-.5.5-.5s.2-.1 1 .5c.7.6 2.4 1.7 3.2 2.7.7.9.8 1.7.8 1.9v.2c0 .3.1 1 .7 1.7.9 1 2.8 2.7 9.4 3.8h.1l.3-.9.9 1c5.8.8 8.9.9 8.9.9s7.5.3 9.6.3c1.8 0 1.7.8 1.7 1s-.1.6-.4 1c-.2.3-.4 1.1-.5 1.8 0 .5 0 .9.3 1.3 0 0 .9 2.3 7 2.4 0 0 5.3.4 9-1.1 1.2-.5 1.6-1 1.7-1.5.2-1.1-1.4-2.1-1.4-2.1s-1.3-.8-1.8-1.2c-.3-.2-.3-.5-.3-.7 0-.1.1-.2.1-.3.1-.3.5-.6.9-.8.4-.2 2-1 8.6-2.8 6.6-1.7 10.6-1.9 10.6-1.9h.1c.6 1.5 1.1 2.4 2.1 3.4 1 1.1 2.7 2 4.6 2.7 1.9.7 1.1 2.1 1.1 2.1-1.1 2.4-4.4 2.5-5.4 2.6-1 .1-3 .3-4.9.7-1.9.4-3.7.7-4.7 1.9-1.1 1.2-.6 2.5 0 3.8.6 1.3 2.3 2.1 4.6 2 2.3-.1 3.8-.8 5.2-1.4 1.4-.6 3.8-1.3 4.5-1.5.7-.2 1.7-.6 2.4.4.8 1.1 1.6 2.7 2 3.9l.9-.2-.7 1c.2 1.1-.2 1.4-.4 1.8-.2.4-.9.9-.6 1.9.3.9 2.7.6 4.1.2 1.4-.4 2.5-.8 3.4-1.1.9-.3 1.2.1 1.2.1s.4.3-.9 1c-.3.1-.6.2-.9.4-.1 0-.2.1-.3.1-.1 0-.2 0-.2.1-.1 0-.2.1-.3.1-.1 0-.2 0-.3.1-.1 0-.2.1-.4.1h-.2c-.4.1-.8.1-1.2.2h-.5c-.2 0-.4.1-.6.1-.6.1-.8.1-1.1.1h-.2-.1-.1c-.1 0-.2.1-.3.1-.2.1-.4.1-.7.2-1.7.6-.1 1.1-.1 1.1 1 .2 1.8.4 2.6.5-.1 0-.2.1-.2.1-1.9.5-6 1.3-6.9 1.4-.9.2-.7.1-.7.1s.8-.3-.7-.4h-1.4c-.7 0-1.6 0-2.4.1-.5.1-1.1.2-1.6.3-.2 0-.3 0-.5.1-2 .3-1.9.5-1.9.5s-.1.2 1.1.2h.8c-.2.1-.5.1-1 .2-2.4.2-5.8.3-5.8.3h5.1c.4 0 2.4-.2 3.1-.4.4-.1.3-.1.2-.1-.1-.1-1.3-.1-1.3-.1v.1h-.2s-1.2 0-.1-.3c1.2-.2 2.9-.3 3.8-.4.5-.1.7 0 .8 0v.2s0 .2.8.1c.7 0 5.8-1 9.6-1.9 1.9 0 3.1-.3 3.1-.3l.4-.1h.1l.9-.3c.1 0 .3-.1.4-.1-.4.1-.8.2-1.2.2-.8.1-1.4.2-2 .2 3.8-1.1 6.6-2 6.6-2s.3-.1.1 0c-.2.1-.7.3-.7.3s-1 .5 1.4-.2c.1 0 .2-.1.3-.1 2-.8 3.9-1.6 5.8-2.5 0 0 .2-.2 0-.2-.3.1 0-.1.3-.2s3-1.6 4.9-2.4c-.2.1-.3.2-.3.2l.6-.3c.1 0 .1-.1.1-.1.6-.4 1.3-.7 1.9-1.1 0 0-.3.1-.8.4 1.5-1.1 2.7-2.3 2.7-2.3s1.1-1 .9-1.2c-.2-.2-1 .4-1 .4s-.1.1-.3.2c-.2.2-.5.4-.8.5-.1.1-.2.1-.3.1-.1 0-.1 0-.1.1-.1 0-.2.1-.3.1-.5-.1.8-1.4.8-1.4s.8-.9 1.8-1.5c.3-.2.7-.3 1-.4.3-.1.6-.1.9-.2.4-.1.6-.3.9-.5.2-.1.4-.3.6-.4.3-.2.5-.5.8-1 .3-.5.7-1.3 1.4-2.6.1-.1.1-.2.2-.3 1.8-1 2.4-1.3 2.8-1.5 1.9-1.1 4.2-2.5 4.8-3 0 0 1.2-.8.2.3s-1.6 1.6-1.6 1.6l-.4.4c-.2.3-.5.7-.4.8 0 0 .3.4 1.9-1.1 1.6-1.5 3.4-3.6 3.6-3.9.2-.3.2-.5.2-.5l.4-.6c.2-.2 2.2-2.4 3.2-3.4.4-.6.9-1.2 1.3-1.8-.6.6-2.8 2.9-4 4.3 0 0-1.1 1.2-1.5 1.7-.4.5-.4.8-.4.8s-.2.3-.6.8-2 1.9-2 1.9c-.1.1-.2.1-.3.2.1-.1.2-.1.2-.2-.2.1-.6.4-.9.6-.1.1-.2.1-.3.1-.2 0 .4-.6.6-.8.1 0 .1-.1.1-.1s.2-.2.4-.5c.3-.4.8-.9 1.1-1.3.1-.1.1-.1.1-.2.4-.6.1-.5.1-.5s-.1 0-.4.1c0 0-.1 0-.1.1h-.1c-.2.1-.5.3-1 .5-1.3.8-2.2 1.4-2.2 1.4s-2.8 1.6-4.5 2.6h-.1c1.3-2 2.8-3.7 3.9-5 1.4-1.5 3-4 3-4s1-1.8 1.1-2.6v-.3c-.2-.4-1.1 0-2.7 1.2-1.1.8-2.1 1.4-2.8 1.8-.1 0-.1.1-.2.1.1 0 .1-.1.2-.1-.4.2-.9.4-1.3.4-1 .1-1.4-.5-1.5-1.2-.1-.4 0-.8 0-1.1.1-.8.5-2.5 1.7-3.2 1.2-.7 2.9-.7 4.1-.8 1.2-.2 1.7-.5 1.7-.5s1.9-1.2 3.2-3.3c1.3-2.1 2.4-5.4 2.5-8.7v-1.2c-.1-.7-.2-1.3-.3-1.8 3-2.4 5.8-5.3 6.2-5.7s2-2 3-3.8c.1-.1.1-.2.1-.2l.1-.1.1-.1v.2s-.8 2.3-.5 3.4c0 .2 0 .4.1.6V330.4c0 .1.1.2.1.3v.1c.1.1.1.2.2.3.6.7 2.5-1.3 2.5-1.3s1.1-1.3 1.5-3.3c.4-1.9.4-2.8.4-3.3 0-.3-.1-.4-.1-.4s-.4-.6-.1-1.4c.3-.7 1.9-4.9 3.2-6.4l.4-.4c-.7 8.2-1.4 11-1.4 11v-.2c.3-1.2.5-2.5.8-3.8v.1c0-.1 0-.2.1-.3s0 0 0-.1v-.1.1c.1-.6.6-5.2.7-7l.2-.3-.7-1.2zm-3.7-28.4zm-146.9-19.6l-.3.4c.1-.2.2-.3.3-.4zM315.7 291zm130.6 11.3l-.1 1.1c1 3.3 2.9 7.5 3.8 9.3.8 1.7 2.7 1.9 4.1 1.6 1.4-.3 1.8-1.1 2.6-2.7s1.2-1.7 1.2-1.7.3-.4 1.7-.3c1.4.2 1.7 1.1 1.7 1.1s.8 1.9.6 3.9c-.2 2-.6 2.9-1 3.6-.5.7-2.8.5-2.8.5s-4.1-.5-4.4 4.4c-.4 4.9 1.3 8.3 1.3 8.3.6 1.3 1.2 2 1.7 2.3l1 .8.2.2c-2.9 2.3-3.8 3.1-6.1 4.7 0 0-2.6 2-5.5 3.5-2.9 1.6-6.3 1.4-6.3 1.4s-.9-.1-.5-.8c.4-.7 1-2.3 1.2-3.1.2-.8.7-2.9-1-3.6s-4.8.3-4.8.3-7.3 1.9-10.2 5.2c-2.9 3.2-.5 4.6-.5 4.6s1.1.8 2.2 1.2c1 .4.8.7.6.9 0 0-3.2 2.1-7.1 3.2 0 0-5.2 1.6-10.3 1.9-4.9.3-7.1.4-7.2.5-.5-1.1-1.1-2-1.1-2s-.4-.6-.7-1.5c-.4-1.2-.6-2.8.3-4.5 1.7-2.9 4.4-3.8 4.4-3.8s2.4-.5 4.8 0c2.3.5 3.4-.4 3.4-.4s1.4-.6 1.8-3.4v-.3-.3-.1c0-.4.1-.7.1-1.1v-.6-.6c-.2-2.5-1.2-5.1-3.8-5.9-3.7-1-5.7.9-5.7.9s-2 2.2-2.6 2.5c-.6.3-1.6.9-1.6.9s-1.4.8-2.3 1c-.6.1-2.6-2.5-3-4.7 0-.1-.1-.3-.1-.4-.2-1.8-.5-3.4-.5-6.7v-1.5c.7 0 1.3-.1 2-.1 5.7-.2 8.6-.9 11.6-1.6 3-.7 7.3-3.2 8-3.6.6-.4 1.7-.9 2.1-2.4 0-.2.1-.3.1-.5v-.2c.3-2.1-2.2-3.5-2.2-3.5s-2-1-2.4-1.5c-.2-.2-.2-.5-.2-.6 0-.2.1-.3.1-.3s1.1-2.4 4.6-3.8c3.5-1.4 5.9-1.8 7.4-1.9 1.5-.2 2 .4 2.2.6.2.3.2.8 0 1.3s-.7 1.7-1 2.2c-.3.6-.8 1.9-.5 2.6.3.6 1.4 1 2.7.7 1.3-.2 4.8-1.2 7.8-2.5s8.1-3.8 8.1-3.8l.1-.9zm-15.6-30.9c3.2 3.1 3.8 6.9 3.8 6.9s.4 1.5-.5 1.6c-.8.1-2.6.1-2.6.1s-.7.1-1.8.3c-1.1.2-1.8 1.4-2 2.2-.2.8-.6 3.1 1.3 6.6 1.9 3.5 4.3 3.4 4.3 3.4 2.1-.2 2.7-.5 3.9-1.4 1.2-.8 1.7-2.6 1.8-2.9.1-.3.2-.7.5-.7s.2 0 .8-.1c.6-.1 1.1.4 1.6 1.4.3.7 2.2 3.7 2.7 5.4.5 1.8 1 3.5 1 5.1 0 .6.1 1.3.2 2l.5.7-.5-.8c-2.7 1.3-8.7 4.3-12.6 5.6 0 0-3 1.2-4.2 1.3 0 0-.3 0-.1-.3.2-.3.4-.5.8-1.2s1-2.2 1-3.7c0-1.6-1.8-3.1-4.3-2.8-2.5.3-4.9 1-7.8 2.1-2.9 1.1-5.4 3.5-5.7 5.4-.3 1.9 1.8 3.1 1.8 3.1s2.4 1.2 2.7 1.9c.3.7.1 1.3.1 1.3s-.2.7-1.3 1.3c-1 .6-3.9 2.1-3.9 2.1s-3.5 2-8.9 2.4c0 0-4.9.4-7.7.6h-.1c.1-3.6-.3-6.4-1.1-8.5-.2-.7-.5-1.3-.8-1.9-1.3-2.3-3.4-3.5-4.4-4-1-.5-3.4-.7-5.1-.1-1.6.6-2 1.1-2.6 2.1-.6 1-1.3 1-1.3 1s-2.1.1-2.9-3.1c0-.1-.1-.2-.1-.4-.1-.6-.2-1.1-.3-1.6v-.1-.4-.3-.3-.3c0-2.5.9-3.4.9-3.4s.5-.8 2.2-1c1.7-.2 2.8.2 4.1.5 1.3.3 2.3.2 3.9-.6.9-.4 1.5-1.1 1.8-1.9.2-.7.3-1.5.2-2.5-.3-2.2-.4-2.8-2.4-9.6 2.3-.3 4.2-.6 6.3-1 1.8-.3 3.8-.8 6.2-1.3 0 0 4.9-.9 5.9-2.7.6-1 1.7-2.5-.1-3.9 0 0-.3-.3-1.1-.5h-.1c-.5-.1-1-.2-1.4-.4-.5-.2-.9-.4-1.4-.7-.9-.6-.9-1.4-.9-1.4s-.1-.7 1.4-1.5c0 0 .6-.4 1.6-.9.6-.3 1.4-.6 2.4-.9 2.7-.9 5.8-.5 5.8-.5s1.3.1 1.1 1c-.2.9-1 2.4-1 3.1 0 .5 0 1 .3 1.4l.4.4c.2.1.4.3.7.4.9.4 2.1.5 2.9.5h.8s2.2-.1 5.9-1.3c2.3-.7 4.6-1.5 6-2 .7 0 1.2-.2 1.4-.3zm-45.7-.2c-.2-1.6.1-2.1 1-2.5.9-.4 1.8-.3 3.1-.2 1.3.1 2.3-.1 3-.5.7-.4 2.5-1.4 2.4-3.5-.1-2.1-1.8-4.5-3.1-5.4-.3-.2-.7-.3-1.1-.4-1.1-.2-2.3.1-3 .6-1 .7-1.4 1.6-1.9 1.9-.6.3-1.3.9-2.1.8h-.2c-.9-.2-.9-2.2-1.3-4.4-.2-.9-.3-1.6-.4-2.2-.1-.4-.1-.7-.2-.9 0 0 8.8-1.6 11.5-4.2 0 0 1-.5 0-1.4-1-.9-1.4-1.2-1.4-1.2s-.2-.1-.2-.3c-.1-.2-.1-.5.3-.9.7-.9 1.5-1.3 2.2-1.5.7-.2 2.8-.4 4.7-.1 0 0 .3 0 .5.2.1.1.2.2.2.5-.1.6-.1 1.4-.1 1.6 0 .3 0 .8.6 1.4.6.5 1.8.7 1.8.7h.1c.4.1 2.2.3 4.5-.4.3-.1.5-.1.8-.2 2.4-.7 5.3-1.7 7.9-2.4.2.4.6 1.2 1.4 2.6 1.4 2.5 4 3.5 5.1 3.3 1-.1 2.6-.5 3.2-1.2.6-.7 1.3-.6 1.3-.6 1.4-.1 1.7 1.1 2.9 2.7 1.1 1.6.4 2.9.4 2.9-.8 1-1.6.8-2.4.6-.6-.1-.6-.2-1.3-.3-2.1-.3-2.8 1.3-2.8 1.3-1.5 2.3.3 4 .3 4s4 5.3 7 8.6c-2.3.8-5.2 1.8-5.2 1.8s-4 1.5-6.7 1.8c-2.6.4-3.2 0-3.6-.4-.4-.4.1-1.6.1-1.6s1.1-2.2.6-3.4c-.5-1.1-3.9-1.4-4-1.4-.1 0-3.7-.4-7.1 1.5-3 1.7-3.4 2.6-3.4 2.6s-1 1.5.2 3c1.3 1.7 3 1.8 3 1.8s1.6.1 2 .6c.4.5.1 1 .1 1s-.5 1.5-3.6 2.1c0 0-5.1 1.5-14.6 2.8-2.3-6.9-2.5-11.2-2.5-11.2zm1.1 12.1zm0 0l-.3.6.3-.6zm-47 33c-.4-2.4-1-6.1-3.2-6.2 0 0-1.1-.1-2.6 1.4-1.4 1.4-2.7-1.1-2.8-2.7-.1-1.8.2-3.6.7-4.5.1-.2.3-.4.4-.5.5-.4 1.3-.4 1.4-.4.2 0 .9.3 1.7.8.7.4 1.6.5 2.2.1.1-.1.2-.1.3-.2.6-.6 1.5-1.4 1.9-4.2.4-2.8.4-5.7 0-9.2.6-.1 1.4-.3 2.4-.4 1-.2 2.2-.3 3.4-.4 3.7-.4 7.7-.4 9.3-.2 0 0 .6.1.7.3v.1c-.1.2-.7.7-.7.7s-.2.1-1 1.1c-.8.9-1.1 1.9-1.1 2.7v.4c.2 1 1.2 2.9 3.8 3.5 3 .6 6.5-.5 6.5-.5s2.3-.5 4.5-2.7c1-1 1.1-2.1.9-3-.2-1.2-.9-2-.9-2s-.4-.5-1-.7c0 0-.2 0-.2-.1 0 0 0-.1.1-.1.2-.2.6-1 2.2-1.5 1.6-.4 6.4-1.9 17.7-3.4 0 0 .8 3.3 1.4 5.4.6 2.1.9 4.2 1 4.7.1.4.1 1.2-.5 1.7s-2 .9-2.3.9c-.3 0-.9-.1-1.6-.3-.7-.3-1.5-.3-1.5-.3s-1.8-.3-3.7.3c-1.9.6-3.3 2.5-3.4 4.9-.1 2.4-.1 3.7.9 5.8.9 2.1 2.7 3.4 3.9 3.4 1.3 0 2.4-.6 3.1-1.7.7-1 .9-1.2.9-1.2.9-.5 3.1-.7 4.2-.3 1.1.4 3.2 1.7 4.4 4.3.9 2.1 1.2 4.4 1.2 8.6l.9.7-.9-.7c-2.6.2-5.7.6-5.7.6s-6.9 1-13.2 2.9c-5.3 1.6-6.4 2.6-6.4 2.6s-1.1 1-.2 2.3c0 0 .5.9 1.7 1.7 1.1.9 2 1.7 1.9 2.1-.1.4-.5.6-.5.6s-1.5 1.4-7.8 2.4c0 0-4.1.8-5.3-.4-1.2-1.2-.7-2.1-.7-2.1s.1-.3 1-.8c0 0 1.5-1 1-2.8-.5-1.8-3.4-4.1-6.6-4.1 0 0-3.7 0-13.1 1.2v-1.3c-.2-2.8-.3-6.9-.7-9.3zm.4 11.3zm6.4 31.1v-.2.2zm55.6-3.6l-1.2-.4c-2.1.2-5.5.7-9 1.6-4.2 1-8.2 1.8-11.1 3.7 0 0-2.1 1.4-.9 2.8 1.2 1.4 2.5 2 2.5 2s.8.3.7.5c0 .3 0 .5-.6.8 0 0-2.2 1.3-6.6 1.4s-6.3 0-7.5-1.1c-1.1-.9.3-3 .3-3s.5-1 0-2.3c-.5-1.3-3.6-1.4-3.6-1.4l-4.2-.2c-5-.1-11.5-.7-14.4-1h-.1l-.1-.1s-3-5.4-2.7-7.4c0 0 .1-.7.9-1.4.3-.2.6-.4 1.1-.5 1.3-.4 1.1.9 5 1.6 0 0 2.5.7 3.8-.8.2-.2.3-.5.4-.8.9-2.4-.9-5.4-.9-5.4s-2.3-4.3-5.2-4.4c-1.5-.1-1.1.9-3.4 1.5 0 0-3.1.3-4-1.5-1.2-2.2-1.6-4.8-1.6-6.4v-.2c0-1.1.1-1.4.1-1.7 0-.1.1-.2.1-.4s.1-.4.2-.7c.1-.3.2-.6.2-1.1 1.3-.1 3.4-.4 5.8-.6 4.1-.4 6.8-.9 9.3-.5 2.5.4 3.3 2.3 3.3 2.3s.1.2 0 .4c-.1.1-.2.3-.4.4-.6.4-1.2.9-1.5 1.4-.3.6-.7 1.7.3 3.3.9 1.5 3.4 2.6 5.6 2.3 2.1-.2 5.3-1.1 7.2-1.6 1.6-.4 3-1.1 3.7-2.1.2-.3.4-.7.5-1.1.2-1.6-2.5-3.7-2.5-3.7s-1.3-1-1.5-1.2v-.1c0-.1.2-.2.2-.2s1.5-.4 2.2-.7c.6-.3 2.4-1 5.4-2 2.9-.9 9-2 9-2s3.3-.5 7.5-.9l.5-.5.1-.2-.6.7v1.2c-.2 6.2 1.2 9.4 1.2 9.4.8 1.7 1.6 2.9 2.8 3.7 1.2.8 2.7.3 3.2 0s1.9-.9 3.1-1.7c1.2-.8 1.2-1.1 2.6-2.4 1.5-1.3 3.3-1 3.3-1s1.8 0 2.8 2.1c1 2.1.8 5 .6 6-.3 1.1-.7 1.8-1.7 1.6-1-.2-2.6-.3-3.2-.4-.6 0-2.3-.1-3.8.3s-3.5 1.5-5.5 4.6c-1.5 2.4-.8 4.8-.4 5.8.3.7 1 1.8 1.7 3l1 .7zm0 0zm43.9 10.7c-.1.1-.1.2-.2.3-.8 1.4-1.2 2.2-1.2 2.2s-.5.9-.5 1.4c0 .5-.4.4-.4.4s-.8 0-1.9.4h-.1l-.1.1c-.3.2-.7.4-1.1.6-.1.1-.2.1-.3.2l-.1.1c-1.2 1-2 1.8-2.5 2.3 0 0 0 .1-.1.1-.2.3-.4.4-.4.4s-.7.9 0 .9 2.2-.8 2.8-1.3c.6-.5.3-.1.3-.1l-.6.6c-.9.9-2 1.8-2.8 2.4-1 .5-2.4 1.1-3.8 1.8l-3.6 1.8s-.1.1 0 .1 0 .1 0 .1c-1.4.7-4.3 1.7-4.3 1.7s-.3.1-.3 0 .3-.2.3-.2.6-.2.5-.3c-.2-.1-1.9.5-1.9.5s-3.1 1-4.6 1.4c-.7.2-1.6.4-2.5.7-.8 0-1.4-.1-1.7-.2h-.1c-.7-.1-1.2-.2-1.4-.6v-.1c.1-.2.8-.2.8-.2s2.1-.2 4.4-.9c.3-.1.6-.2.8-.3 2.5-.8 3.1-1.6 3-2.1 0-.1-.1-.2-.1-.2l-.1-.1c-.1 0-.1-.1-.2-.1h-.4-.6-.1c-.4.1-.9.2-1.5.3-1.5.5-3.7 1.2-4.3 1.3-.1 0-.3 0-.4.1h-.2-.4-.1c-.1 0-.1-.1-.2-.2-.2-.3-.3-.8.2-1.5.6-.6.6-1.1.6-1.1v-.1c0-.2 0-.3.1-.5v-.2-.4-.1h.2s3.7-.9 5.2-1.1c1.5-.3 5.1-1 6.6-1.7s2.2-1.3 2.4-1.7c.2-.4-.6-.7-.6-.7s-.9-.2-.8-.5c.1-.3.5-.6 1.9-1.3 1.5-.7 3.3-1.4 5.2-1.8 1.9-.5 1.2.3 1.2.3s-1.1 1.1-1.3 1.6c-.1.4 0 .5.2.5.1.1 1 0 1.6-.1.6-.2 5.6-2 8.6-3.8.1 0 .2-.1.2-.1l.7-1zm13-25.5c-.5 2.8-1.1 4.5-1.6 5.3-.1.2-.2.3-.3.5-.1.1-.2.2-.3.4-.1.1-.2.3-.4.5l-.3.3-.1.1c-.1.1-.2.2-.4.3 0 0 0 .1-.1.1-.6.5-1.4 1-2.2 1.1-1.8.2-3.7.2-5.5 1.9 0 0-.1 0-.1.1l-.2.2-.1.1c-2.1 2.3-1.7 5.4-1.7 5.4s.2 1.8 2.2 1.3 4-2 5.5-3.2c1.5-1.2.6.4.6.4-1.3 2.6-3.9 5.2-3.9 5.2s-.9.8-2.8 3.5c-.5.7-.9 1.4-1.3 1.9-2 1.1-4.9 2.5-6.7 3.2.1 0 .1-.1.2-.1-.1 0-.1.1-.2.1-.9.4-1.7.6-2.2.8-.4.1-.7.2-.9.2h-.1v-.1c.2-.3.7-.7.7-.7s.6-.6.6-1.3c0 0 0-.2-.1-.3-.2-.2-.9-.4-2.4 0-.1 0-.2 0-.3.1-.2.1-.5.1-.7.2-.2 0-.4.1-.5.2-.2 0-.3.1-.5.2-.8.3-1.6.6-2.2.8h.1c-.8.3-1.2.6-1.2.6s-1.4.6-2.4 1.4c-.2.1-.4.3-.5.4l-.1.1c0 .1-.1.1-.1.2l-.1.1s0 .1-.1.1c0 0 0 .1-.1.1v.2c0 .1 0 .2.1.4 0 0 .2.3 1 .6h.2c.1.1-.1.2-.3.3-.5.3-1.4.5-1.4.5-2.2.7-3.9 1-6 1.5-2.2.5-4.1.9-5.4 1.1v-.1c0-.1-.1-.2-.1-.3 0-.1-.1-.2-.1-.4 0-.1-.1-.3-.1-.4 0-.1-.1-.2-.1-.3-.1-.1-.1-.2-.2-.3 0-.1-.1-.1-.1-.2-.1-.2-.2-.3-.2-.5 0-.1-.1-.1-.1-.2-.1-.1-.1-.2-.2-.3 0 0 0-.1-.1-.1-.3-.5-.5-.8-.7-1.1-.5-.8-1.3-1.3-3.8-.9s-5.4 1.7-5.4 1.7-3 1.6-5.3 1.3c-.6-.1-1-.3-1.4-.5-1.1-.8-1.3-2.2-1.3-2.8 0-.7.5-1.3 1.7-1.8s4-1.1 8-1.3c4-.2 5.5-2.8 5.5-2.8.5-.7 1.2-2.1-.1-3.3-.2-.2-.4-.3-.7-.5-1.4-.8-2-1-2.4-1.2l-.6-.3-.1-.1c-.1-.1-.2-.1-.2-.2-.3-.2-.5-.4-.8-.7-.8-.7-1.6-1.5-1.9-2.6 0-.1-.1-.3-.2-.5l-1-.7-.3-.2.1-.1-.1.1 1.3.9c1.2-.1 2.7-.2 4.1-.3 2.7-.1 7-.8 9.4-1.3 2.5-.5 6.2-1.7 9-3.1 2.8-1.4 2.9-2.4 2.9-2.4s.2-.3.1-.7c-.1-.3-.3-.6-.7-.9-1.2-.8-1.7-.6-2.7-1.6-.1-.1-.2-.3-.3-.4-.3-1 1.1-2.2 1.1-2.2s1-1.4 6.4-3.5c5.5-2.1 6.4-1.4 6.7-1.2.1.1.1.1.2.3.1.3.1.8 0 1.2-.1.5-.8 2.3-1.2 3.3-.2.6-.4 1.3-.1 1.9.2.3.5.6 1.1.7 1.5.3 3.6 0 5.5-.7 4.6-1.7 6-3.7 13.7-9.2v-1 1c.5.9.7 2.3.4 4.5zM430.6 270.7l1.5.3c1-.4 2.3-.9 3.7-1.5 2.9-1.3 4.3-2.4 5.6-3.1 0 0 2.9-1.8 4.6-1.7 0 0 .4 0 .4.5s.2 1.3.3 1.8c.2.5 1.2 2.9 4.4 3.3.4 0 .8.1 1.1 0h.5c.1 0 .2 0 .3-.1h.1c1.7-.5 2.5-1.7 2.5-1.7s1.1-1.7-.8-3.7c0 0-1.5-1.6-1.6-1.8 0 0-.1-.1 0-.3 0 0 .1-.1.2-.1.3-.1 2.6-.7 4.6-1.4.3-.1.7-.2 1-.3.1-.1.3-.1.4-.2h.1c.1 0 .1 0 .2-.1.1 0 .2-.1.2-.1.1 0 .2-.1.3-.1h.1l-.4-.8.6.6c1.6 2.6 4.6 6.9 4.6 6.9l.8 1c0-.6-.1-.9-.1-1l-.1-.4c0-.6.7.2 1 .5-.8-1.2-1.1-1.3-1.1-1.3s-.7-.4-.2.9c.5 1.3-.1.4-.1.4-1.5-1.9-4.5-6.9-4.5-6.9l-.4-.2.3.2c.2-.1.4-.2.6-.4l.3-.3c.3-.4-.1-1.3-.1-1.3l-.6-.9-1-.4-.1.1-.8.6.3 1.4s-.9.5-2.7 1c-1.8.5-3.5 1.3-3.5 1.3s-1.4.5-.9 1.6c.5 1.2 1.3 1.7 1.3 1.7l.6.6c.1.1.1.2.2.2 0 0 0 .1.1.1.2.3.3.6.3.9 0 .8-.3 1.2-1.2 1.7-.9.5-1.7.6-1.7.6s-2.1.4-3.2-.6-1.3-2.7-1.3-2.7-.1-1.4-1.8-2c-1.8-.6-3.9.7-3.9.7s-1.7.9-3.5 2.1c-1.8 1.2-5.3 2.6-7.4 3.4l-.1 1zM330.2 259.5l1.3-1.3c-.1-.1-.1-.1-.3-.2 0 0-.8.4-1.1.7.1-.1-.5.7.1.8z"/></g></g></svg>