<svg xmlns="http://www.w3.org/2000/svg" width="792" height="612" viewBox="0 0 792 612"><g id="Layer_1"><path fill="#6A9AD1" d="M358.9 249.6c-12.6 4.5-23.9 17.4-26.6 30.6-.2.9.5 1.6 1.2 1.8 0 0 0 .1.1.1.7 1.1 2.2 1.1 2.9 0 1-1.7 1.1-3.8 2-5.6 1.4-2.7 3.5-5 5.6-7.2 4.2-4.4 9.8-8.5 15.8-9.8.9-.2 1.4-1.1 1.4-1.9v-6.1c.2-1.2-1.1-2.3-2.4-1.9z"/><path fill="#FAA41A" d="M405.4 394.1c-4-2.4-6.9-5.9-8.8-10.1-1.2-2.7-4.8-1.4-5.6.7-.7 1.8-1.2 3.7-1.5 5.6l-.3.9c-1.3 2.9-2.8 5.8-4.1 8.7-1 2.3 1 4.4 3.3 3.3 4.9-2.3 10.3-3.7 15.7-4.3 2.5-.3 3.7-3.4 1.3-4.8z"/><g fill="#6A9AD1"><path d="M369 238.2c-12.4-42.4-56.8-66.8-99.2-54.4S203 240.6 215.4 283c11.9 40.7 53.2 64.7 94 55.7 0 1.5 0 3.1.2 4.6 0 .3-.1.6-.1.9-.4 3.2-1.1 6.3-1.5 9.5-.3 2.5 2.2 4 4.2 2.3 4.1-3.6 8.8-6.4 13.9-8.5 2.3-.9 2.6-4.3-.1-5-3.8-1-7-2.9-9.8-5.6 41.4-13 65-56.8 52.8-98.7z"/><path d="M257.6 203.9c-12.6 4.5-23.9 17.4-26.6 30.6-.2.9.5 1.6 1.2 1.8 0 0 0 .1.1.1.7 1.1 2.2 1.1 2.9 0 1-1.7 1.1-3.8 2-5.6 1.4-2.7 3.5-5 5.6-7.2 4.2-4.4 9.8-8.5 15.8-9.8.9-.2 1.4-1.1 1.4-1.9v-6.1c.1-1.2-1.2-2.4-2.4-1.9z"/></g><path fill="#EC3B24" d="M476 185.5c0-44.2-35.8-80-80-80s-80 35.8-80 80c0 42.4 33 77 74.7 79.8-.5 1.5-.8 2.9-1.1 4.5l-.3.9c-1.3 2.9-2.8 5.8-4.1 8.7-1 2.3 1 4.4 3.3 3.3 4.9-2.3 10.3-3.7 15.7-4.3 2.4-.3 3.7-3.4 1.3-4.8-3.4-2-5.9-4.8-7.8-8.1 43.4-.9 78.3-36.3 78.3-80z"/><path fill="#E1817E" d="M358.9 129.1c-12.6 4.5-23.9 17.4-26.6 30.6-.2.9.5 1.6 1.2 1.8 0 0 0 .1.1.1.7 1.1 2.2 1.1 2.9 0 1-1.7 1.1-3.8 2-5.6 1.4-2.7 3.5-5 5.6-7.2 4.2-4.4 9.8-8.5 15.8-9.8.9-.2 1.4-1.1 1.4-1.9V131c.2-1.2-1.1-2.3-2.4-1.9z"/><path fill="#FAA41A" d="M516.8 146.7c-41.6-15-87.4 6.5-102.4 48.1-14.4 39.9 4.9 83.7 43.1 100.4-.9 1.2-1.8 2.5-2.5 3.8-.2.2-.4.5-.6.7-2.2 2.3-4.6 4.5-6.8 6.8-1.7 1.8-.5 4.5 2 4.3 5.4-.5 10.9 0 16.2 1.3 2.4.6 4.6-2 2.9-4.1-2.5-3-3.9-6.5-4.6-10.3 41.1 13.9 86-7.6 100.8-48.6 15-41.6-6.5-87.4-48.1-102.4z"/><path fill="#F7D09A" d="M449.7 165c-12.6 4.5-23.9 17.4-26.6 30.6-.2.9.5 1.6 1.2 1.8 0 0 0 .1.1.1.7 1.1 2.2 1.1 2.9 0 1-1.7 1.1-3.8 2-5.6 1.4-2.7 3.5-5 5.6-7.2 4.2-4.4 9.8-8.5 15.8-9.8.9-.2 1.4-1.1 1.4-1.9v-6.1c.1-1.2-1.2-2.3-2.4-1.9z"/><path fill="#395B88" d="M551.4 224.2c-41.9-14-87.2 8.6-101.2 50.5-13.4 40.2 6.8 83.5 45.5 99.4-.9 1.2-1.7 2.5-2.4 3.9-.2.2-.4.5-.6.7-2.2 2.4-4.5 4.6-6.7 6.9-1.7 1.8-.4 4.5 2.1 4.2 5.4-.6 10.9-.3 16.2.9 2.4.5 4.6-2.1 2.8-4.1-2.6-3-4.1-6.4-4.8-10.2 41.5 12.9 85.8-9.6 99.7-51 13.9-41.9-8.7-87.2-50.6-101.2z"/><path fill="#6A9AD1" d="M486.2 243.2c-12.6 4.5-23.9 17.4-26.6 30.6-.2.9.5 1.6 1.2 1.8 0 0 0 .1.1.1.7 1.1 2.2 1.1 2.9 0 1-1.7 1.1-3.8 2-5.6 1.4-2.7 3.5-5 5.6-7.2 4.2-4.4 9.8-8.5 15.8-9.8.9-.2 1.4-1.1 1.4-1.9v-6.1c.1-1.2-1.2-2.3-2.4-1.9z"/><path fill="#395B88" d="M361.8 146.3c-5.5-43.8-45.5-74.9-89.4-69.4-43.8 5.5-74.9 45.5-69.4 89.4 5.3 42.1 42.3 72.3 84 69.9-.3 1.5-.5 3-.5 4.6-.1.3-.2.6-.2.9-.9 3.1-2.1 6.1-3 9.1-.7 2.4 1.6 4.3 3.7 2.9 4.6-2.9 9.7-5 15-6.2 2.4-.6 3.2-3.8.7-4.9-3.6-1.5-6.5-4-8.7-7.1 43-6.4 73.2-46 67.8-89.2z"/><path fill="#6A9AD1" d="M246.4 99.8c-12.6 4.5-23.9 17.4-26.6 30.6-.2.9.5 1.6 1.2 1.8 0 0 0 .1.1.1.7 1.1 2.2 1.1 2.9 0 1-1.7 1.1-3.8 2-5.6 1.4-2.7 3.5-5 5.6-7.2 4.2-4.4 9.8-8.5 15.8-9.8.9-.2 1.4-1.1 1.4-1.9v-6.1c.2-1.2-1.1-2.4-2.4-1.9z"/><g><path fill="#4E2F1B" d="M288.7 305.1c-12.8-42.3-57.5-66.2-99.8-53.3-42.3 12.8-66.2 57.5-53.3 99.8 12.3 40.6 53.9 64.2 94.6 54.7 0 1.5.1 3.1.3 4.6 0 .3 0 .6-.1.9-.4 3.2-1 6.3-1.4 9.5-.3 2.5 2.3 3.9 4.2 2.2 4-3.6 8.8-6.5 13.8-8.6 2.2-.9 2.5-4.3-.1-5-3.8-.9-7.1-2.9-9.8-5.5 41.1-13.4 64.2-57.5 51.6-99.3z"/><path fill="#6A9AD1" d="M177.6 271.6c-12.6 4.5-23.9 17.4-26.6 30.6-.2.9.5 1.6 1.2 1.8 0 0 0 .1.1.1.7 1.1 2.2 1.1 2.9 0 1-1.7 1.1-3.8 2-5.6 1.4-2.7 3.5-5 5.6-7.2 4.2-4.4 9.8-8.5 15.8-9.8.9-.2 1.4-1.1 1.4-1.9v-6.1c.1-1.2-1.2-2.4-2.4-1.9z"/></g><g><path fill="#EC3B24" d="M570.7 439.2c18.7-40 1.4-87.6-38.6-106.3-40-18.7-87.6-1.4-106.3 38.6-17.9 38.4-2.8 83.8 33.8 103.9-1 1.1-2 2.3-2.9 3.6-.2.2-.4.4-.7.6-2.4 2.1-5 4-7.4 6.1-1.9 1.6-.9 4.5 1.6 4.4 5.4 0 10.9 1 16 2.8 2.3.8 4.8-1.5 3.2-3.8-2.2-3.2-3.3-6.8-3.6-10.7 39.7 17.7 86.4.4 104.9-39.2z"/><path fill="#E1817E" d="M488.5 338.6c-13.4-1.3-29 5.7-37 16.5-.5.7-.2 1.7.3 2.2v.1c.2 1.3 1.5 2 2.7 1.2 1.7-1.1 2.6-3 4.2-4.2 2.4-1.9 5.3-3.1 8.1-4.1 5.7-2.2 12.4-3.5 18.5-2.2.9.2 1.7-.3 2.1-1.1.9-1.8 1.7-3.7 2.6-5.5.5-1.2-.2-2.8-1.5-2.9z"/></g><g fill="#395B88"><path opacity=".5" d="M453.6 334.2l-3.7-9.3c-1.4 6.7-2.7 13.4-4.2 20l6.6-5.2c.5-1.8.9-3.7 1.3-5.5zM347.5 575.7c3.6 4.7 6.8 8.9 8.7 14.6.8 2.4 1.6 4.9 2.5 7.2-1.3 4.8-2.3 9.6-2.7 14.5h14.2c.2-4.8.7-9.6 1.1-14.3 6.1-8.8 14-16.5 21.6-24.2 11.3-11.4 22.4-23 32-35.9 7.8-10.5 15-21.6 22.2-32.5 3.4-5.1 6.6-10.2 9.4-15.7 1.6-3.2 3.1-6.6 3.2-10.2.9.7 1.9 1.4 2.5 1.8 1.9 1.6 4.2 4.1 6.7 4.4 2.1.2 3.1-2.4 2.3-3.9-.7-1.4-2.9-2.4-4.1-3.3-1.6-1.1-3.3-2.1-4.9-3.1-.7-.4-1.5-1-2.4-1-.6 0-1 .2-1.4.5-.2.1-.3.1-.4.3-.5.5-.5.9-.3 1.3v.1c-.4.2-.7.6-.8 1.3-.3 4.2-3.7 9-5.7 12.6-3.1 5.4-6.7 10.5-10.2 15.7-7.8 11.3-15.3 22.9-23.8 33.7-9.7 12.4-20.8 23.5-32 34.6-4.2 4.1-8.7 8.6-12.9 13.4.3-3.9.5-7.8.6-11.6 12.9-26.7 37.3-49.2 54.4-72.4 8.1-11 15.4-22.7 22.1-34.7l-4.4-3.7c-7.9 14-16.6 27.6-26.4 40.3-10.9 14.1-23.3 26.9-34.1 41.1.6-1.7 1.3-3.3 1.9-5 10.5-28.5 18.3-57.9 27.9-86.7 2.6-8 5.4-15.9 8.2-23.8l-2.2-8c-3.7 10.1-7.4 20.2-10.9 30.4-8.7 24.9-15.9 50.3-24.6 75.2 1.6-12.3 2.2-24.8 3-36.8 1.3-19.5 2-39.1 4.1-58.6.9-8.7 1.9-17.5 2.6-26.2.5-5.9 1.5-12.9 0-18.8 2.5-.1 5.1-.2 7.5-.9 1.6-.5 1.6-2.8 0-3.3-5-1.5-11-.4-15.8 1.2-1.2.4-1.6 1.6-1.1 2.7.2.6.3 1.2.3 1.8 0 1.6 2 1.7 2.6.3.2-.6.4-1 .5-1.5.9-.1 1.8-.2 2.7-.2-.6 6.2-.5 12.4-1.1 18.6-.7 8.8-1.8 17.5-2.8 26.2-2.3 20.1-3.2 40.2-4.5 60.4-1.4 21.6-2.5 45.1-9.8 65.7 0-4.7-.1-9.4-.1-14.1 0-15.6.4-31.2.2-46.8-.3-15.9-1.8-31.7-2.3-47.6-.9-30.4 4.9-60.8 10.9-90.5 3-14.9 5.6-29.9 8.5-44.8 3.1-15.9 6.8-31.8 9.3-47.7v-.1c1.8-.3 3.5-.5 5.3-.5 1.4 0 2.7.4 4-.2 1.3-.6 1.9-2 .8-3.2-2.2-2.5-7-1.2-9.8-.7-5.2 1-9.4 2.9-13.7 5.8-.9.7-.4 2.4.8 2 2.5-1 5.3-1.7 8-2.3-7.6 29.7-12.2 60.3-18.4 90.3-6.1 29.7-12 59.7-11.9 90.1 0 15.8 1.7 31.6 2.1 47.4.2 8.2.2 16.4.1 24.6-1.1-6.1-2.5-12.1-3.9-17.9-7.1-29.9-18.5-58.7-29.3-87.4-5.2-13.7-10.1-27.5-14-41.7-1.9-12.1-2.5-24.4-1-37 2.2-.3 4.5-.6 6-1.9 1-.9.8-3-.5-3.6-2.5-1.2-5.9 0-8.5.7-1.7.5-3.5 1.1-5.1 2-.5-2.8-1.1-5.5-1.6-8.3-4.5-24-9.8-47.6-15.3-71.3-.7-3.2-1.4-6.5-1.8-9.8-.2-1.4-.9-5.3.3-6.4.2-.2.3-.4.4-.6.3-.1.5-.2.8-.2 1.7-.5 3.4-1 5-1.7 2.5-1.2.3-4.8-2.1-3.7.7-.3-.1 0-.2.1l-.9.3c-.9.3-1.9.6-2.8.9-1.8.6-3.7.9-5.4 1.8-.6.3-1 1.1-1 1.7 0 .2 0 .3.1.5.1.4.4.8.8 1.1-1.3 4.7.6 11.6 1.2 15.3 1.5 8.1 3.8 16.1 5.7 24.1 7.1 30.2 11 61.1 18.5 91.3 2.3 9.3 5.1 18.5 8.2 27.7 5.4 21.1 13.5 41.8 20.6 62.2 7.7 21.9 12.3 43.9 15.5 66.9 1.8 13.2 3.3 26.5 4.3 39.8.3 3.2.4 6.5.5 9.7-.3 2.4-.5 4.8-.8 7.2-1.8-3.5-4.3-6.5-6.8-9.6-7.5-9.5-14.9-19.2-21.4-29.4-10.8-16.8-18.7-35.3-27.3-53.2-15.2-31.4-33.2-66.5-64.2-85.1 1.2-.4 2.4-.9 3.5-1.6 1.7-1 1.5-3.9-.6-4.3-6.1-1.3-12.1.4-16.9 4.3-1.1.9-.6 2.5.5 3.1-.1.1-.1.2-.2.3-.4.6-.3 1.4 0 1.9s.6.9 1.1 1.3c.8.6 1.6 0 1.8-.7 2-.8 4-2 6-2.7l.9-.3c31.5 21.6 49.2 55 64.9 89 8.2 17.8 15.9 35.9 26.3 52.6 5.9 9.4 12.6 18.4 19.4 27.3zm-33.1-222.6c-1-4.6-1.9-9.2-2.8-13.7.2-.1.4-.2.6-.4 1-.6 2.2-1 3.3-1.3-.7 5.1-1.1 10.2-1.1 15.4zm46.2 166.5c.6 3.5 1.2 7.1 1.6 10.6-.5-3.5-1-7-1.6-10.6z"/></g></g></svg>