<svg xmlns="http://www.w3.org/2000/svg" width="792" height="612" viewBox="0 0 792 612"><g id="Layer_1"><path fill="#6A9AD1" d="M426.1 427.7v-9.9L396 420l-30.1-2.2v9.9c0 1.3.7 2.5 1.8 3.1-1.1.7-1.8 1.8-1.8 3.1s.7 2.5 1.8 3.1c-1.1.7-1.8 1.8-1.8 3.1s.7 2.5 1.8 3.1c-1.1.7-1.8 1.8-1.8 3.1s.7 2.5 1.8 3.1c-1.1.7-1.8 1.8-1.8 3.1s.7 2.5 1.8 3.1c-1.1.6-1.8 1.8-1.8 3.1s.7 2.5 1.8 3.1c-1.1.7-1.8 1.8-1.8 3.1 0 .8.3 1.6.7 2.2 6.2 10.1 29.4 8.4 29.4 8.4s23.2 1.7 29.4-8.4c.5-.6.7-1.4.7-2.2 0-1.3-.7-2.5-1.8-3.1 1.1-.7 1.8-1.8 1.8-3.1s-.7-2.5-1.8-3.1c1.1-.7 1.8-1.8 1.8-3.1s-.7-2.5-1.8-3.1c1.1-.7 1.8-1.8 1.8-3.1s-.7-2.5-1.8-3.1c1.1-.6 1.8-1.8 1.8-3.1s-.7-2.5-1.8-3.1c1.1-.7 1.8-1.8 1.8-3.1s-.7-2.5-1.8-3.1c1.1-.6 1.8-1.7 1.8-3.1z"/><path fill="#395B88" d="M396 476.1s-9.4.7-17.8-1.4c2.4 4.3 9.5 7.4 17.8 7.4s15.4-3.1 17.8-7.4c-8.4 2-17.8 1.4-17.8 1.4z"/><path fill="#FAA41A" d="M339.4 362.6s17 17.7 17 35.5 5.5 21.6 23.1 21.9h33c17.5-.3 23.1-4.1 23.1-21.9 0-17.8 17-35.5 17-35.5H339.4z"/><path fill="#4E2F1B" d="M433.2 295.4c-2 3.7-2.9 7.9-5.8 11.1-2.7 2.9-4.1-.7-4.5-3.2 1-2.8 1.4-6.1 1.3-8.8 0-1.3-2.1-2.1-2.7-.7-1.2 2.5-2 6.2-1.7 9.6-1.3 2.5-3.6 4-7.6 3-2.8-.6-4.8-2.8-6-5.4 1.6-4 1.5-8.7-.9-11.8-.8-1-2.2-.9-2.7.3-1.3 3.6-1.1 7.8.4 11.4-1.5 2.6-4 4.5-7 4.6-2.6.1-4.5-1.4-5.8-3.5-.2-4.1-1.5-8.6-2.2-10.8-.4-1.2-2.6-1.6-2.8 0-.5 4 .3 8.4 2.4 11.8-.1 2-.6 3.7-1.9 4.7-3.7 2.7-9-3.9-10.5-6.5-.5-.8-.8-1.7-1.1-2.5 1.4-3.6 1.5-7.9-.1-10.9-.6-1.1-2.1-.7-2.5.3-1.2 3.1-1.3 6.9-.3 10.5-2.1 3.7-5.8 5.5-8.4 1 0-.3 0-.5-.2-.8l-.3-.3c-.2-.3-.6-.3-.9-.2h-.1c-.4.1-.8.6-.7 1.1-.6.4-.9 1.1-.6 1.8 8.6 17.8 16.2 35.5 20.1 55 2 9.8 3.5 19.5 4.1 29.5.6 10.1.3 20.3 1.1 30.4 0 .2.1.3.2.4 0 .3 0 .6.1.9.1 1.2-.1 2.4.1 3.5.2 1 1.5.8 1.8 0 .4-1.1.2-2.4.1-3.5-.1-1.3-.4-2.5-.6-3.7.4-19.5-.9-38.9-4.6-58.1-1.9-9.5-4.2-18.9-7.7-28-3.1-7.9-6.7-15.7-10.2-23.5 1.9 1.1 4.1 1.1 6.5-.6.6-.4 1.2-1 1.7-1.6 2.4 5.3 7 9.5 12.9 9 3-.2 4.4-2.2 4.9-4.9 1.9 1.6 4.3 2.6 7.3 2.5 3.1-.1 5.7-1.9 7.5-4.4 1.9 2.7 4.5 4.8 7.9 5.6 3.8.9 6.5-.3 8.3-2.4.7 1.3 1.7 2.4 3.2 3.1 1.1.5 2 .5 2.9.3-2 4.9-3.9 9.8-5.1 15-2.8 11.4-5.4 22.9-7.7 34.5-2.1 10.7-4.4 21.4-5.8 32.3-1.2 8.9-2.7 19.7-.6 28.5.4 1.6 2.9.9 2.5-.7-2.1-8.6-.4-19.2.5-27.8 1.2-11.3 3.5-22.5 5.9-33.6 2.4-10.9 4.8-21.7 7.7-32.5 2.7-10.1 7.5-19.4 11.5-29.1 0-.1.1-.2.1-.3-.1-2-2.7-3.1-3.4-1.6z"/><path fill="#6A9AD1" d="M129.2 343.4v-2.9l-8.8.6-8.8-.6v2.9c0 .4.2.7.5.9-.3.2-.5.5-.5.9s.2.7.5.9c-.3.2-.5.5-.5.9s.2.7.5.9c-.3.2-.5.5-.5.9s.2.7.5.9c-.3.2-.5.5-.5.9s.2.7.5.9c-.3.2-.5.5-.5.9s.2.7.5.9c-.3.2-.5.5-.5.9 0 .2.1.5.2.6 1.8 3 8.6 2.5 8.6 2.5s6.8.5 8.6-2.5c.1-.2.2-.4.2-.6 0-.4-.2-.7-.5-.9.3-.2.5-.5.5-.9s-.2-.7-.5-.9c.3-.2.5-.5.5-.9s-.2-.7-.5-.9c.3-.2.5-.5.5-.9s-.2-.7-.5-.9c.3-.2.5-.5.5-.9s-.2-.7-.5-.9c.3-.2.5-.5.5-.9s-.2-.7-.5-.9c.3-.2.5-.5.5-.9z"/><path fill="#395B88" d="M120.4 357.5s-2.8.2-5.2-.4c.7 1.3 2.8 2.2 5.2 2.2s4.5-.9 5.2-2.2c-2.4.7-5.2.4-5.2.4z"/><circle fill="#FAA41A" cx="120.4" cy="307.7" r="23.5"/><path fill="#FAA41A" d="M103.8 324.3s5 5.2 5 10.4 1.6 6.3 6.8 6.4h9.6c5.1-.1 6.8-1.2 6.8-6.4s5-10.4 5-10.4h-33.2z"/><path fill="#4E2F1B" d="M131.3 304.6c-.6 1.1-.8 2.3-1.7 3.3-.8.9-1.2-.2-1.3-1 .3-.8.4-1.8.4-2.6 0-.4-.6-.6-.8-.2-.3.7-.6 1.8-.5 2.8-.4.7-1.1 1.2-2.2.9-.8-.2-1.4-.8-1.8-1.6.5-1.2.4-2.6-.3-3.5-.2-.3-.6-.3-.8.1-.4 1.1-.3 2.3.1 3.4-.4.8-1.2 1.3-2.1 1.3-.8 0-1.3-.4-1.7-1-.1-1.2-.4-2.5-.7-3.2-.1-.4-.8-.5-.8 0-.2 1.2.1 2.5.7 3.5 0 .6-.2 1.1-.6 1.4-1.1.8-2.7-1.1-3.1-1.9-.1-.2-.2-.5-.3-.7.4-1 .4-2.3 0-3.2-.2-.3-.6-.2-.7.1-.4.9-.4 2-.1 3.1-.6 1.1-1.7 1.6-2.5.3 0-.1 0-.2-.1-.2l-.1-.1c-.1-.1-.2-.1-.3-.1-.1 0-.2.2-.2.3-.2.1-.3.3-.2.5 2.5 5.2 4.7 10.4 5.9 16.1.6 2.9 1 5.7 1.2 8.7.2 3 .1 5.9.3 8.9v1.4c.1.3.4.2.5 0 .1-.3.1-.7 0-1 0-.4-.1-.7-.2-1.1.1-5.7-.3-11.4-1.4-17-.5-2.8-1.2-5.6-2.3-8.2-.9-2.3-2-4.6-3-6.9.5.3 1.2.3 1.9-.2.2-.1.3-.3.5-.5.7 1.6 2 2.8 3.8 2.6.9-.1 1.3-.7 1.4-1.4.6.5 1.3.8 2.1.7.9 0 1.7-.6 2.2-1.3.5.8 1.3 1.4 2.3 1.6 1.1.3 1.9-.1 2.4-.7.2.4.5.7.9.9.3.1.6.1.9.1-.6 1.4-1.1 2.9-1.5 4.4-.8 3.4-1.6 6.7-2.3 10.1-.6 3.1-1.3 6.3-1.7 9.5-.3 2.6-.8 5.8-.2 8.4.1.5.8.3.7-.2-.6-2.5-.1-5.6.2-8.2.4-3.3 1-6.6 1.7-9.8.7-3.2 1.4-6.4 2.2-9.5.8-3 2.2-5.7 3.4-8.5v-.1c.8-.6 0-.9-.2-.5z"/><path fill="#6A9AD1" d="M616.5 259v-4.7l-14.2 1-14.2-1v4.7c0 .6.3 1.2.8 1.5-.5.3-.8.9-.8 1.5s.3 1.2.8 1.5c-.5.3-.8.9-.8 1.5s.3 1.2.8 1.5c-.5.3-.8.9-.8 1.5s.3 1.2.8 1.5c-.5.3-.8.9-.8 1.5s.3 1.2.8 1.5c-.5.3-.8.9-.8 1.5s.3 1.2.8 1.5c-.5.3-.8.9-.8 1.5 0 .4.1.7.4 1 2.9 4.8 13.9 4 13.9 4s11 .8 13.9-4c.2-.3.4-.6.4-1 0-.6-.3-1.2-.8-1.5.5-.3.8-.9.8-1.5s-.3-1.2-.8-1.5c.5-.3.8-.9.8-1.5s-.3-1.2-.8-1.5c.5-.3.8-.9.8-1.5s-.3-1.2-.8-1.5c.5-.3.8-.9.8-1.5s-.3-1.2-.8-1.5c.5-.3.8-.9.8-1.5s-.3-1.2-.8-1.5c.3-.4.6-.9.6-1.5z"/><path fill="#395B88" d="M602.3 281.8s-4.4.3-8.4-.7c1.1 2 4.5 3.5 8.4 3.5s7.3-1.5 8.4-3.5c-3.9 1-8.4.7-8.4.7z"/><circle fill="#FAA41A" cx="602.3" cy="201.5" r="37.7"/><path fill="#FAA41A" d="M575.6 228.2s8 8.4 8 16.8 2.6 10.2 10.9 10.3h15.6c8.3-.1 10.9-1.9 10.9-10.3s8-16.8 8-16.8h-53.4z"/><path fill="#4E2F1B" d="M619.9 196.5c-.9 1.7-1.4 3.7-2.7 5.2-1.3 1.4-1.9-.3-2.1-1.5.5-1.3.7-2.9.6-4.2 0-.6-1-1-1.3-.3-.5 1.2-1 2.9-.8 4.5-.6 1.2-1.7 1.9-3.6 1.4-1.3-.3-2.3-1.3-2.8-2.6.7-1.9.7-4.1-.4-5.6-.4-.5-1-.4-1.3.2-.6 1.7-.5 3.7.2 5.4-.7 1.2-1.9 2.1-3.3 2.2-1.2 0-2.1-.7-2.8-1.6-.1-2-.7-4.1-1.1-5.1-.2-.6-1.2-.7-1.3 0-.3 1.9.1 4 1.1 5.6 0 .9-.3 1.8-.9 2.2-1.8 1.3-4.3-1.8-5-3.1-.2-.4-.4-.8-.5-1.2.7-1.7.7-3.7-.1-5.1-.3-.5-1-.3-1.2.2-.6 1.5-.6 3.2-.2 4.9-1 1.7-2.7 2.6-4 .5 0-.1 0-.3-.1-.4 0-.1-.1-.1-.1-.2-.1-.1-.3-.2-.4-.1-.2.1-.4.3-.3.5-.3.2-.4.5-.3.9 4.1 8.4 7.6 16.7 9.5 25.9.9 4.6 1.6 9.2 1.9 13.9.3 4.8.1 9.6.5 14.3 0 .1 0 .1.1.2v.4c0 .6 0 1.1.1 1.7.1.5.7.4.8 0 .2-.5.1-1.1 0-1.7-.1-.6-.2-1.2-.3-1.7.2-9.2-.4-18.3-2.2-27.4-.9-4.5-2-8.9-3.7-13.2-1.5-3.7-3.2-7.4-4.8-11.1.9.5 2 .5 3.1-.3.3-.2.5-.5.8-.8 1.1 2.5 3.3 4.5 6.1 4.3 1.4-.1 2.1-1.1 2.3-2.3.9.8 2 1.2 3.4 1.2 1.5 0 2.7-.9 3.5-2.1.9 1.3 2.1 2.3 3.7 2.6 1.8.4 3.1-.1 3.9-1.1.3.6.8 1.1 1.5 1.4.5.2 1 .2 1.4.1-1 2.3-1.8 4.6-2.4 7.1-1.3 5.4-2.6 10.8-3.7 16.3-1 5.1-2.1 10.1-2.7 15.2-.6 4.2-1.3 9.3-.3 13.5.2.8 1.4.4 1.2-.3-1-4.1-.2-9 .3-13.1.6-5.3 1.7-10.6 2.8-15.8 1.1-5.1 2.3-10.3 3.6-15.3 1.3-4.8 3.5-9.2 5.4-13.7 0-.1 0-.1.1-.2.3-.9-.9-1.4-1.2-.7z"/><path fill="#6A9AD1" d="M247.4 150.6v-3.5l-10.5.8-10.5-.8v3.5c0 .5.2.9.6 1.1-.4.2-.6.6-.6 1.1s.2.9.6 1.1c-.4.2-.6.6-.6 1.1 0 .5.2.9.6 1.1-.4.2-.6.6-.6 1.1 0 .5.2.9.6 1.1-.4.2-.6.6-.6 1.1 0 .5.2.9.6 1.1-.4.2-.6.6-.6 1.1s.2.9.6 1.1c-.4.2-.6.6-.6 1.1 0 .3.1.6.3.8 2.1 3.5 10.2 2.9 10.2 2.9s8.1.6 10.2-2.9c.2-.2.3-.5.3-.8 0-.5-.2-.9-.6-1.1.4-.2.6-.6.6-1.1s-.2-.9-.6-1.1c.4-.2.6-.6.6-1.1 0-.5-.2-.9-.6-1.1.4-.2.6-.6.6-1.1 0-.5-.2-.9-.6-1.1.4-.2.6-.6.6-1.1 0-.5-.2-.9-.6-1.1.4-.2.6-.6.6-1.1s-.2-.9-.6-1.1c.3-.3.6-.7.6-1.1z"/><path fill="#395B88" d="M236.9 167.3s-3.3.2-6.2-.5c.8 1.5 3.3 2.6 6.2 2.6s5.3-1.1 6.2-2.6c-2.9.8-6.2.5-6.2.5z"/><circle fill="#FAA41A" cx="236.9" cy="108.3" r="27.8"/><path fill="#FAA41A" d="M217.3 128s5.9 6.1 5.9 12.3c0 6.2 1.9 7.5 8 7.6h11.4c6.1-.1 8-1.4 8-7.6 0-6.2 5.9-12.3 5.9-12.3h-39.2z"/><path fill="#4E2F1B" d="M249.8 104.6c-.7 1.3-1 2.8-2 3.9-.9 1-1.4-.2-1.6-1.1.4-1 .5-2.1.5-3.1 0-.5-.7-.7-.9-.3-.4.9-.7 2.2-.6 3.3-.5.9-1.3 1.4-2.6 1.1-1-.2-1.7-1-2.1-1.9.5-1.4.5-3-.3-4.1-.3-.4-.8-.3-.9.1-.5 1.3-.4 2.7.1 4-.5.9-1.4 1.6-2.4 1.6-.9 0-1.6-.5-2-1.2-.1-1.4-.5-3-.8-3.8-.2-.4-.9-.5-1 0-.2 1.4.1 2.9.8 4.1 0 .7-.2 1.3-.7 1.6-1.3.9-3.1-1.4-3.6-2.2-.2-.3-.3-.6-.4-.9.5-1.2.5-2.8 0-3.8-.2-.4-.7-.2-.9.1-.4 1.1-.4 2.4-.1 3.6-.7 1.3-2 1.9-2.9.3 0-.1 0-.2-.1-.3l-.1-.1c-.1-.1-.2-.1-.3-.1-.2 0-.3.2-.2.4-.2.1-.3.4-.2.6 3 6.2 5.6 12.3 7 19.1.7 3.4 1.2 6.8 1.4 10.2.2 3.5.1 7 .4 10.5 0 .1 0 .1.1.1v1.5c.1.3.5.3.6 0 .1-.4.1-.8 0-1.2 0-.4-.1-.9-.2-1.3.1-6.8-.3-13.5-1.6-20.2-.6-3.3-1.4-6.6-2.7-9.7-1.1-2.7-2.3-5.5-3.5-8.2.6.4 1.4.4 2.3-.2.2-.2.4-.3.6-.6.8 1.8 2.4 3.3 4.5 3.1 1-.1 1.5-.8 1.7-1.7.7.6 1.5.9 2.5.9 1.1 0 2-.7 2.6-1.5.6.9 1.6 1.7 2.7 1.9 1.3.3 2.2-.1 2.9-.8.2.5.6.8 1.1 1.1.4.2.7.2 1 .1-.7 1.7-1.3 3.4-1.8 5.2-1 4-1.9 8-2.7 12-.7 3.7-1.5 7.4-2 11.2-.4 3.1-1 6.8-.2 9.9.1.6 1 .3.9-.2-.7-3-.1-6.7.2-9.7.4-3.9 1.2-7.8 2.1-11.7.8-3.8 1.7-7.5 2.7-11.3.9-3.5 2.6-6.7 4-10.1 0 0 0-.1.1-.1-.2-.2-1.1-.6-1.4-.1z"/><path fill="#6A9AD1" d="M247.6 473.1v-4.6l-14 1-14-1v4.6c0 .6.3 1.2.8 1.5-.5.3-.8.8-.8 1.5s.3 1.2.8 1.5c-.5.3-.8.8-.8 1.5s.3 1.2.8 1.5c-.5.3-.8.8-.8 1.5 0 .6.3 1.2.8 1.5-.5.3-.8.8-.8 1.5s.3 1.2.8 1.5c-.5.3-.8.8-.8 1.5 0 .6.3 1.2.8 1.5-.5.3-.8.8-.8 1.5 0 .4.1.7.3 1 2.9 4.7 13.7 3.9 13.7 3.9s10.8.8 13.7-3.9c.2-.3.3-.6.3-1 0-.6-.3-1.2-.8-1.5.5-.3.8-.8.8-1.5 0-.6-.3-1.2-.8-1.5.5-.3.8-.8.8-1.5s-.3-1.2-.8-1.5c.5-.3.8-.8.8-1.5 0-.6-.3-1.2-.8-1.5.5-.3.8-.8.8-1.5s-.3-1.2-.8-1.5c.5-.3.8-.8.8-1.5s-.3-1.2-.8-1.5c.5-.3.8-.9.8-1.5z"/><path fill="#395B88" d="M233.6 495.6s-4.4.3-8.3-.7c1.1 2 4.4 3.4 8.3 3.4s7.2-1.4 8.3-3.4c-4 1-8.3.7-8.3.7z"/><circle fill="#FAA41A" cx="233.6" cy="416.4" r="37.3"/><path fill="#FAA41A" d="M207.2 442.7s7.9 8.3 7.9 16.6 2.6 10.1 10.8 10.2h15.4c8.2-.1 10.8-1.9 10.8-10.2s7.9-16.6 7.9-16.6h-52.8z"/><path fill="#4E2F1B" d="M250.9 411.4c-.9 1.7-1.3 3.7-2.7 5.2-1.2 1.4-1.9-.3-2.1-1.5.5-1.3.7-2.8.6-4.1 0-.6-1-1-1.3-.3-.5 1.1-.9 2.9-.8 4.5-.6 1.1-1.7 1.8-3.5 1.4-1.3-.3-2.2-1.3-2.8-2.5.7-1.9.7-4.1-.4-5.5-.4-.5-1-.4-1.2.2-.6 1.7-.5 3.6.2 5.3-.7 1.2-1.8 2.1-3.3 2.1-1.2 0-2.1-.7-2.7-1.6-.1-1.9-.7-4-1-5-.2-.6-1.2-.7-1.3 0-.3 1.9.1 3.9 1.1 5.5 0 .9-.3 1.7-.9 2.2-1.7 1.2-4.2-1.8-4.9-3-.2-.4-.4-.8-.5-1.2.7-1.7.7-3.7-.1-5.1-.3-.5-1-.3-1.2.2-.6 1.4-.6 3.2-.2 4.9-1 1.7-2.7 2.6-3.9.4 0-.1 0-.2-.1-.4 0-.1-.1-.1-.1-.2-.1-.1-.3-.2-.4-.1-.2.1-.4.3-.3.5-.3.2-.4.5-.3.8 4 8.3 7.5 16.5 9.4 25.6.9 4.6 1.6 9.1 1.9 13.8.3 4.7.1 9.5.5 14.2 0 .1 0 .1.1.2v.4c0 .5 0 1.1.1 1.6s.7.4.8 0c.2-.5.1-1.1 0-1.6-.1-.6-.2-1.1-.3-1.7.2-9.1-.4-18.1-2.2-27.1-.9-4.4-1.9-8.8-3.6-13-1.5-3.7-3.1-7.3-4.8-11 .9.5 1.9.5 3-.3.3-.2.5-.5.8-.8 1.1 2.5 3.2 4.4 6 4.2 1.4-.1 2.1-1 2.3-2.3.9.8 2 1.2 3.4 1.2 1.5 0 2.7-.9 3.5-2.1.9 1.3 2.1 2.2 3.7 2.6 1.8.4 3-.1 3.9-1.1.3.6.8 1.1 1.5 1.4.5.2.9.2 1.4.1-.9 2.3-1.8 4.6-2.4 7-1.3 5.3-2.5 10.7-3.6 16.1-1 5-2 10-2.7 15-.5 4.1-1.3 9.2-.3 13.3.2.8 1.3.4 1.2-.3-1-4-.2-8.9.3-13 .6-5.3 1.6-10.5 2.8-15.7 1.1-5.1 2.2-10.1 3.6-15.1 1.3-4.7 3.5-9.1 5.4-13.6 0-.1 0-.1.1-.2-.2-.7-1.4-1.2-1.7-.5z"/><path fill="#6A9AD1" d="M723.3 493.6v-6l-18.3 1.3-18.3-1.3v6c0 .8.4 1.5 1.1 1.9-.6.4-1.1 1.1-1.1 1.9 0 .8.4 1.5 1.1 1.9-.6.4-1.1 1.1-1.1 1.9s.4 1.5 1.1 1.9c-.6.4-1.1 1.1-1.1 1.9 0 .8.4 1.5 1.1 1.9-.6.4-1.1 1.1-1.1 1.9s.4 1.5 1.1 1.9c-.6.4-1.1 1.1-1.1 1.9s.4 1.5 1.1 1.9c-.6.4-1.1 1.1-1.1 1.9 0 .5.2 1 .5 1.3 3.7 6.2 17.9 5.1 17.9 5.1s14.1 1 17.9-5.1c.3-.4.5-.8.5-1.3 0-.8-.4-1.5-1.1-1.9.6-.4 1.1-1.1 1.1-1.9s-.4-1.5-1.1-1.9c.6-.4 1.1-1.1 1.1-1.9s-.4-1.5-1.1-1.9c.6-.4 1.1-1.1 1.1-1.9 0-.8-.4-1.5-1.1-1.9.6-.4 1.1-1.1 1.1-1.9s-.4-1.5-1.1-1.9c.6-.4 1.1-1.1 1.1-1.9 0-.8-.4-1.5-1.1-1.9.5-.4.9-1.1.9-1.9z"/><path fill="#395B88" d="M705 522.9s-5.7.4-10.8-.9c1.5 2.6 5.8 4.5 10.8 4.5s9.4-1.9 10.8-4.5c-5.1 1.3-10.8.9-10.8.9z"/><circle fill="#FAA41A" cx="705" cy="419.6" r="48.6"/><path fill="#FAA41A" d="M670.6 454s10.3 10.8 10.3 21.6 3.4 13.1 14 13.3h20c10.6-.2 14-2.5 14-13.3s10.3-21.6 10.3-21.6h-68.6z"/><path fill="#4E2F1B" d="M727.6 413.1c-1.2 2.2-1.8 4.8-3.5 6.8-1.6 1.8-2.5-.4-2.8-2 .6-1.7.9-3.7.8-5.4 0-.8-1.3-1.3-1.6-.4-.7 1.5-1.2 3.8-1 5.8-.8 1.5-2.2 2.4-4.6 1.8-1.7-.4-2.9-1.7-3.7-3.3.9-2.4.9-5.3-.5-7.2-.5-.6-1.3-.6-1.6.2-.8 2.2-.7 4.7.2 6.9-.9 1.6-2.4 2.7-4.3 2.8-1.6 0-2.8-.8-3.6-2.1-.1-2.5-.9-5.2-1.4-6.6-.3-.7-1.6-1-1.7 0-.3 2.4.2 5.1 1.4 7.1 0 1.2-.3 2.3-1.2 2.8-2.3 1.6-5.5-2.4-6.4-3.9-.3-.5-.5-1-.7-1.5.9-2.2.9-4.8-.1-6.6-.4-.7-1.3-.4-1.5.2-.8 1.9-.8 4.2-.2 6.4-1.2 2.2-3.5 3.4-5.1.6 0-.2 0-.3-.1-.5l-.2-.2c-.1-.2-.4-.2-.6-.2-.3.1-.5.4-.4.7-.3.2-.6.6-.3 1.1 5.3 10.8 9.8 21.6 12.2 33.4 1.2 5.9 2.1 11.9 2.5 17.9.4 6.1.2 12.3.7 18.5 0 .1 0 .2.1.2v.6c0 .7-.1 1.4.1 2.1.1.6.9.5 1.1 0 .3-.7.1-1.5 0-2.1-.1-.8-.2-1.5-.4-2.2.3-11.9-.6-23.6-2.8-35.3-1.1-5.8-2.5-11.5-4.7-17-1.9-4.8-4.1-9.5-6.2-14.3 1.1.7 2.5.7 3.9-.4.4-.3.7-.6 1-1 1.4 3.2 4.2 5.7 7.8 5.5 1.8-.1 2.7-1.4 3-3 1.2 1 2.6 1.6 4.4 1.5 1.9-.1 3.5-1.2 4.5-2.7 1.1 1.7 2.8 2.9 4.8 3.4 2.3.5 3.9-.2 5-1.5.4.8 1 1.5 2 1.9.6.3 1.2.3 1.8.2-1.2 3-2.3 6-3.1 9.1-1.7 7-3.3 13.9-4.7 21-1.3 6.5-2.6 13-3.5 19.6-.7 5.4-1.7 11.9-.4 17.3.2 1 1.8.6 1.5-.4-1.3-5.2-.2-11.6.3-16.9.8-6.9 2.1-13.7 3.6-20.4 1.4-6.6 2.9-13.2 4.7-19.7 1.6-6.2 4.5-11.8 7-17.7 0-.1.1-.1.1-.2.4-.9-1.2-1.5-1.6-.7z"/><path fill="#6A9AD1" d="M468.3 106.6v-2.9l-8.9.6-8.9-.6v2.9c0 .4.2.7.5.9-.3.2-.5.5-.5.9s.2.7.5.9c-.3.2-.5.5-.5.9s.2.7.5.9c-.3.2-.5.5-.5.9s.2.7.5.9c-.3.2-.5.5-.5.9s.2.7.5.9c-.3.2-.5.5-.5.9s.2.7.5.9c-.3.2-.5.5-.5.9 0 .2.1.5.2.6 1.8 3 8.6 2.5 8.6 2.5s6.8.5 8.6-2.5c.1-.2.2-.4.2-.6 0-.4-.2-.7-.5-.9.3-.2.5-.5.5-.9s-.2-.7-.5-.9c.3-.2.5-.5.5-.9s-.2-.7-.5-.9c.3-.2.5-.5.5-.9s-.2-.7-.5-.9c.3-.2.5-.5.5-.9s-.2-.7-.5-.9c.3-.2.5-.5.5-.9s-.2-.7-.5-.9c.5-.2.7-.6.7-.9z"/><path fill="#395B88" d="M459.4 120.7s-2.8.2-5.2-.4c.7 1.3 2.8 2.2 5.2 2.2 2.5 0 4.5-.9 5.2-2.2-2.4.6-5.2.4-5.2.4z"/><circle fill="#FAA41A" cx="459.4" cy="70.8" r="23.5"/><path fill="#FAA41A" d="M442.8 87.4s5 5.2 5 10.4 1.6 6.3 6.8 6.4h9.6c5.1-.1 6.8-1.2 6.8-6.4s5-10.4 5-10.4h-33.2z"/><path fill="#4E2F1B" d="M470.3 67.7c-.6 1.1-.8 2.3-1.7 3.3-.8.9-1.2-.2-1.3-1 .3-.8.4-1.8.4-2.6 0-.4-.6-.6-.8-.2-.3.7-.6 1.8-.5 2.8-.4.7-1.1 1.2-2.2.9-.8-.2-1.4-.8-1.8-1.6.5-1.2.4-2.6-.3-3.5-.2-.3-.6-.3-.8.1-.4 1.1-.3 2.3.1 3.4-.4.8-1.2 1.3-2.1 1.3-.8 0-1.3-.4-1.7-1-.1-1.2-.4-2.5-.7-3.2-.1-.4-.8-.5-.8 0-.2 1.2.1 2.5.7 3.5 0 .6-.2 1.1-.6 1.4-1.1.8-2.7-1.2-3.1-1.9-.1-.2-.2-.5-.3-.7.4-1 .4-2.3 0-3.2-.2-.3-.6-.2-.7.1-.4.9-.4 2-.1 3.1-.6 1.1-1.7 1.6-2.5.3 0-.1 0-.2-.1-.2l-.1-.1c-.1-.1-.2-.1-.3-.1-.1 0-.2.2-.2.3-.2.1-.3.3-.2.5 2.5 5.2 4.8 10.4 5.9 16.2.6 2.9 1 5.7 1.2 8.7.2 3 .1 6 .3 8.9v1.4c.1.3.4.2.5 0 .1-.3.1-.7 0-1 0-.4-.1-.7-.2-1.1.1-5.7-.3-11.4-1.4-17.1-.5-2.8-1.2-5.6-2.3-8.2-.9-2.3-2-4.6-3-6.9.5.3 1.2.3 1.9-.2.2-.1.3-.3.5-.5.7 1.6 2 2.8 3.8 2.6.9-.1 1.3-.7 1.5-1.5.6.5 1.3.8 2.1.7.9 0 1.7-.6 2.2-1.3.5.8 1.3 1.4 2.3 1.6 1.1.3 1.9-.1 2.4-.7.2.4.5.7.9.9.3.1.6.1.9.1-.6 1.4-1.1 2.9-1.5 4.4-.8 3.4-1.6 6.7-2.3 10.1-.6 3.1-1.3 6.3-1.7 9.5-.3 2.6-.8 5.8-.2 8.4.1.5.8.3.7-.2-.6-2.5-.1-5.6.2-8.2.4-3.3 1-6.6 1.7-9.9.7-3.2 1.4-6.4 2.2-9.5.8-3 2.2-5.7 3.4-8.5V68c.7-.4 0-.7-.3-.3z"/></g></svg>