<svg xmlns="http://www.w3.org/2000/svg" width="792" height="612" viewBox="0 0 792 612"><g id="Layer_1"><path fill="#FAA41A" d="M486.5 317.8l6.1-7.5-5.4-7.9 4.7-8.4-6.7-6.9 3.3-9.1-7.8-5.7 1.7-9.5-8.6-4.3.1-9.6-9.2-2.8-1.6-9.5-9.6-1.2-3.2-9.1-9.6.5-4.6-8.4-9.4 2.1-6-7.5-8.9 3.6-7.2-6.4-8.2 5.1-8.2-5.1-7.2 6.4-8.9-3.6-6 7.5-9.4-2.1-4.6 8.4-9.6-.5-3.2 9.1-9.6 1.2-1.6 9.5-9.2 2.8.1 9.6-8.6 4.3 1.7 9.5-7.8 5.7 3.3 9.1-6.7 6.9 4.7 8.4-5.4 7.9 6.1 7.5-4 8.8 7.3 6.3-2.5 9.3 8.2 5-.9 9.6 9 3.5.8 9.6 9.4 2 2.4 9.3 9.6.3 3.9 8.8 9.5-1.3 5.3 8 9.2-2.9 6.6 7 8.6-4.4 7.7 5.8 7.7-5.8 8.6 4.4 6.6-7 9.2 2.9 5.3-8 9.5 1.3 3.9-8.8 9.6-.3 2.4-9.3 9.4-2 .8-9.6 9-3.5-.9-9.6 8.2-5-2.5-9.3 7.3-6.3-4-8.8zM396 380c-40.9 0-74-33.1-74-74s33.1-74 74-74 74 33.1 74 74-33.1 74-74 74z"/><circle fill="none" stroke="#BC7D2B" stroke-miterlimit="10" cx="396" cy="306" r="85.2"/><text transform="matrix(.927 -.375 .375 .927 336.739 321.517)" fill="#395B88" font-family="'WisdomScriptAI'" font-size="24">Satisfaction</text><text transform="matrix(.927 -.375 .375 .927 352.235 347.591)" fill="#395B88" font-family="'WisdomScriptAI'" font-size="24">Guaranteed</text><text transform="translate(478.456 407.472)" fill="#4E2F1B" font-family="'SourceSansPro-Bold'" font-size="18">probably</text></g></svg>