<svg xmlns="http://www.w3.org/2000/svg" xmlns:xlink="http://www.w3.org/1999/xlink" width="792" height="612" viewBox="0 0 792 612"><g id="Layer_1"><defs><path id="SVGID_3_" d="M63.1 43v524.6h663.6V43H63.1zM396 386c-44.2 0-80-35.8-80-80s35.8-80 80-80 80 35.8 80 80-35.8 80-80 80z"/></defs><clipPath id="SVGID_2_"><use xlink:href="#SVGID_3_" overflow="visible"/></clipPath><path clip-path="url(#SVGID_2_)" fill="none" stroke="#6A9AD1" stroke-miterlimit="10" d="M316 50.5v511M396 50.5v511M476 50.5v511M556 50.5v511M636 50.5v511M716 50.5v511M236 50.5v511M156 50.5v511M76 50.5v511M716 226H76M716 306H76M716 386H76M716 466H76M716 546H76M716 146H76M716 66H76"/><g clip-path="url(#SVGID_2_)"><circle fill="#FAA41A" cx="636" cy="306" r="80"/><path fill="#4E2F1B" d="M717 302s0-.1 0 0c.1-.7-.2-1.2-.5-1.5v-.3c.1-.9-.4-1.5-1.1-1.8-.1-.4-.1-.8-.2-1.2-.4-2.4-4.6-1.9-4.3.6.2 1.5.3 2.9.4 4.4-.6.2-1.1.6-1.3 1.2-1.8 6-3.4 12-4.7 18-.1.3-.2.6-.2.9v.1c0 .2-.1.4 0 .6-.2 2.6-.4 5.3-.9 7.9l-.3.6c-1 2.9-1.8 6.6-2.7 10.2-2.3 5.5-5.9 10.4-11.5 13.7-8.8-.2-16.6-4-24.9-6.3-2.3-.6-4.6-.9-6.9-1-4.5-2.1-9.2-3.6-14.2-4-4.7-.4-9.7 1-14.2 2.1-8.5 2-18.9 5.2-28.8 6-5.1-.4-9.8-2-14.5-4.8-5.4-3.3-10.4-7.2-16.1-10.1-1.7-4.1-4-8-6.5-11.7.1-.2.1-.5.1-.8-.5-5.4-1.2-10.8-2.6-16.1.1-6.9.5-13.7-.5-20.5-.2-1.2-2-1.1-2.3 0-.4 1.9-.8 3.7-1.1 5.6-.4.1-.7.3-.9.7-2.7 5.7-3.6 12.2-3.4 18.6-.1.3-.2.7-.1 1.1 0 .1.1.3.1.4.1 1.9.3 3.8.6 5.7.1.9 1.1 1.3 2 1.1.5 1.3 1.1 2.6 1.7 3.9.2 9.5 3.6 20 10.1 26.8 2 4.2 6.3 7.9 9.9 10.7 4.2 4.8 9.2 9.2 14.5 12.5 6.2 6.8 15.4 10.4 24.8 13.1 2.3 1.9 5.1 3.2 8.2 4 .2.1.3.3.5.4 1.9 2.1 4.1 3.8 6.5 5.1h.1c2 1 4.1 1.7 6.3 2 .1.2.1.3.1.5.8 2.7 4.6 2.1 4.8-.6v-.1h.1c.9-.2 1.5-.9 1.7-1.8 1 0 1.9-.7 2.3-1.7 1.1-.4 2.3-.7 3.4-1.1.9.4 2 .3 2.7-.3.9.2 1.9-.1 2.4-1.2.6-1.4 1.4-2.8 2.1-4.3.1 0 .1-.1.2-.2.5 0 1-.2 1.3-.6 1-.4 2.1-.9 3.1-1.4 1.3-.6 2.4-1.4 3.6-2.2 6.3-2.4 12.2-5.6 17.8-9.3 15.5-10.2 31.1-26.1 31.1-45.7 1.5-6.8 1.9-13.7 1.7-20.6 0-.3.1-.6.1-.8.4-1.6.6-3.2.9-4.9 0-.6-.2-1.2-.5-1.6zm-92.6 51c0-.1-.1-.1-.1-.2l1.2-.3c.8-.2 1.7-.4 2.5-.7 0 .1 0 .1.1.2-1.2.3-2.5.6-3.7 1z"/><path fill="#4E2F1B" d="M631.5 291.4c-.9-4.6-6-7.7-10.1-5.9-4.1.2-7.9 3.8-8.7 7.7-.9 4.1 1.4 7.8 4.7 10 1.8 2.2 4.6 3.4 7.6 2.6.2-.1.4-.1.6-.2 4.5-.4 6-4.4 5.8-8.6.5-2 .5-4 .1-5.6zM656 296.4c.2-3.4-1.5-6.8-4.5-9-.4-.3-.8-.5-1.2-.7-2.3-1.7-5.1-2.1-7.1.9-.2.3-.4.7-.6 1.1-.2.2-.5.3-.7.6-1.5 1.4-2.1 3.5-2.2 5.6-.3 1.2-.3 2.5.1 3.8 0 .1 0 .3.1.4.6 3.5 2.4 7.4 6 8.6 4.6 1.5 9.4-1.5 10.5-6.1.2-1.7.1-3.5-.4-5.2zM639.3 323c-2.8.8-14.8 7.7-15.2 1.2-.1-2.3 1.1-4.9 2-6.8.4-1 1-1.9 1.5-2.8.2-.4.5-.7.8-1.1.9.4 1.8-.7 1.4-1.7-1.3-3.1-4.2-1.1-5.6.8-2.4 3.1-3.9 7.3-4.4 11.1-.5 3.7 2.7 7.3 6.2 7.8 5 .7 10-2.3 14.6-3.9 2.8-1 1.6-5.5-1.3-4.6zM706.5 236.1c.3-.8 0-1.5-.5-2 0-.1 0-.2-.1-.3v-1.4c0-.7-.3-1.2-.7-1.5-1.8-8-3.2-16.2-7-23.5-.4-.8-1.1-1.1-1.8-1-1.5-2.3-3.2-4.4-5.4-6.1-13.3-10.2-32.3-8.2-48.3-5.5 0-.7-.4-1.4-1.2-1.6-.8-.2-1.6-.3-2.4-.5.1-1-.4-2.1-1.7-2.2-1.4 0-2.9-.1-4.3-.2-1.5-.1-2.2 1.4-1.8 2.5-1-.1-2.1-.3-3.1-.4-1.4-.2-2.2 1-2.2 2.2-9.7-.3-19.7 1-28 4.8-14.9 6.9-17.6 27.5-16.2 42 .1.7.4 1.3.9 1.6-.8.4-1.6.9-2.3 1.4-.4-.2-.9-.3-1.4 0-10.9 4.6-25.6 11-31.4 22-.4 0-.9.3-1.1.7-.6 1.4-1 2.6-1.2 3.9-.7 0-1.5.4-1.8 1.3-1 2.6-1.4 4 .2 6.4.5.7 1.3 1.1 2.2.9.1 0 .2-.1.3-.1.1.1.3.1.5.1-.1 1.2 2 1.7 2.4.3l.3-1.2.1-.1c.1-.3.3-.7.5-1 2.1-1.5 3.8-3.5 5.6-5.7 3.8-4.7 8.3-8.3 13.8-10.8 11.3-5.2 24.1-9.4 36.5-11.9 2-.2 4-.3 6-.4 6.2-.4 12.9-.7 19.5-.5 16.7 2.7 31.4 12.4 40.2 28.2-.1.2-.2.4-.3.7-.6 1.2.9 2.5 1.9 1.5.3-.3.7-.6 1-.9 1.1.4 2.5-.8 2.3-2.1.2-.2.4-.3.5-.5.5-.5 0-1.2-.6-1.1.2-.3.4-.5.5-.8 3.2-4.1 6.8-7.8 10.7-11.2 2.3-1.4 4.6-2.8 6.6-4.7.5-.5.9-1 1.3-1.6.2-.1.4-.3.5-.4.5.5 1.3.7 2 .5.4-.1.9-.2 1.3-.2v.2c.2 1.1 2 1.2 2.3.2.7.2 1.3.4 1.9.4 2 .2 2.7-2.5 1.6-3.7.4-.3.6-.8.6-1.5v-2.9c0-.4-.1-.7-.2-1-.2-1.9-.3-3.8-.4-5.7.4-1.2.7-2.5 1.1-3.7.2-.2.5-1 .3-1.9 0 .1 0 0 0 0zM586.7 228c0-.3.1-.5.1-.7.2-1.1.3-2.2.5-3.4 1.2-6.6 3.7-12.8 8.5-17 4.9-2.1 11.9-2.2 15.9-2.8 7.1-1 14.2-2.6 21.3-4 4.1.4 8.1 1.1 11.9 2 8 1.9 16.2 4.1 23.9 7 5.5 2.1 11.2 4.3 15.9 7.9.7.5 1.3 1.1 1.9 1.7.7 1.1 1.3 2.2 1.9 3.3 1.9 6.8 3.2 13.9 3.2 21-5.1-4.3-12.2-6.6-18.3-8.9-8.6-3.2-16.8-6.9-25.9-8.1-11.4-1.5-22.7-.6-33.8 2.4-9.6 2.6-18 7.2-26.5 12.2-.1-.1-.2-.3-.3-.4-.3-.2-.5-.5-.7-1 0-3.5.1-7.4.5-11.2zm-25.5 29.7c-.3 0-.5.1-.8.1.8-.5 1.7-1 2.5-1.5-.6.4-1.2.9-1.7 1.4zm131.4-4.2c-3.4 2.5-6.8 5.3-9.9 8.2-1.1.7-2.2 1.4-3.2 2.2-2.3 1.8-3.4 4.3-4.7 6.8l-1.2 1.8c-7.7-9.1-12.6-20.1-24.7-24.4-3.3-1.2-6.9-1.6-10.5-1.9-6.3-1.9-13-2.7-20.1-2.4-8.1.4-16 2.1-23.7 4.4-9.7 1.6-19.6 4.3-28 8.9 6.1-4.5 12.7-8.3 18.7-11.8 7.6-4.4 15-8.9 23.2-11.9 9.9-3.6 20.5-5.2 31.1-4.9 9.6.3 18.3 3 27.1 6.5 6.2 2.5 12.5 4.5 18.5 7.6 2.6 1.3 4.9 3 6.4 4.9v.2c-.1 1 .5 1.6 1.2 1.8.3 1.3.3 2.6-.2 4z"/></g><path clip-path="url(#SVGID_2_)" fill="#FAA41A" d="M235.5 294.4c-2.7-13.6-8.4-27.5-16.4-38.8-11.9-16.9-31.4-27.3-51.9-29-1.6-3.4-7.1-1.6-10.1-1.9h-.4c-18.5-2.5-38.3 7.4-51.6 19.3-9.5 8.5-19.9 19.3-24.6 31.4-2.2 5.7-3.4 11.7-4.1 17.8-.1-1.4-2.2-1.4-2.2 0 .2 7.9.7 15.8 2 23.6.1.5.4.7.7.7 2.9 19 13.6 35.8 29.2 47.8 5.4 4.2 11.2 7.9 16.8 11.8 3.6 2.5 7.2 5 11.1 6.9-3.3-.8-6.5-1.7-9.7-2.8-1.9-.6-3.2 2.4-1.4 3.2 29 13 60.3 3.9 83.5-16.2 9-7.8 17.1-17.3 21.7-28.5.6-1.4 1.1-2.8 1.6-4.2.5-.1 1-.3 1.2-.9 5.4-12.8 7.4-26.3 4.6-40.2zm-9.1 43.5c-4.4 10.3-11.8 18.9-20.1 26.3-11.1 9.9-23.6 17.4-38.2 20.8-2.2.5-4.4.9-6.6 1.2 5.2-1.3 10.2-3.2 14.5-4.9 1.5-.6 1-3.1-.7-2.6-10.5 3.2-22.6 7.9-33.6 5-6.2-1.6-11.9-5.5-17.2-9-5.3-3.5-10.6-7.1-15.7-10.8-9.3-6.9-17.1-15.6-22.5-25.8-4.5-8.5-6.5-17.7-7.5-27.1.6-10.6-.1-21.1 3.2-31.5 3.8-12.3 13.8-22.6 22.9-31.3 13.7-13.1 33-22.6 52.2-20.3.2.3.5.6.9.6 1.1.3 2.1.7 3.2 1 .6.3 1.2-.1 1.4-.6 1.2.3 2.4.6 3.7 1 .7.2 1.2-.1 1.4-.6 8.4 1 16.5 2.8 24.5 6.6 10 4.7 18.3 12.1 24.7 21 7.5 10.3 12 22.9 15.2 35.1.8 3.2 1.3 6.4 1.5 9.5-.4 0-.9.3-.9.9 0 1.3.2 2.6.5 3.9 0 .1.1.2.1.4-1 10.8-2.6 21.3-6.9 31.2z"/><text transform="translate(111.963 550.666)" fill="#395B88" font-family="'SourceSansPro-Bold'" font-size="60">1. Share your process</text></g></svg>