<svg xmlns="http://www.w3.org/2000/svg" width="792" height="612" viewBox="0 0 792 612"><g id="Layer_1"><text transform="translate(63.245 550.666)" fill="#395B88" font-family="'SourceSansPro-Bold'" font-size="60">2. Share your source files</text><path fill="#6A9AD1" d="M399.5 108.7h-26.8v59.9h46.6v-40.1z"/><path fill="#395B88" d="M399.5 128.5v-19.8l19.8 19.8z"/><path fill="none" stroke="#D1D3D4" stroke-width="3" stroke-linecap="round" stroke-miterlimit="10" d="M396 212.7v-35.4"/><path fill="#6A9AD1" d="M258.9 164L240 183l42.3 42.4 33.1-33.1L287 164z"/><path fill="#395B88" d="M273 178l-14.1-14H287z"/><path fill="none" stroke="#D1D3D4" stroke-width="3" stroke-linecap="round" stroke-miterlimit="10" d="M330 240l-25-25"/><path fill="#6A9AD1" d="M198.7 302.5v26.8h59.9v-46.6h-40.1z"/><path fill="#395B88" d="M218.5 302.5h-19.8l19.8-19.8z"/><path fill="none" stroke="#D1D3D4" stroke-width="3" stroke-linecap="round" stroke-miterlimit="10" d="M302.7 306h-35.4"/><path fill="#6A9AD1" d="M254 443.1l19 18.9 42.4-42.3-33.1-33.1L254 415z"/><path fill="#395B88" d="M268 429l-14 14.1V415z"/><path fill="none" stroke="#D1D3D4" stroke-width="3" stroke-linecap="round" stroke-miterlimit="10" d="M330 372l-25 25"/><path fill="#6A9AD1" d="M392.5 503.3h26.8v-59.9h-46.6v40.1z"/><path fill="#395B88" d="M392.5 483.5v19.8l-19.8-19.8z"/><path fill="none" stroke="#D1D3D4" stroke-width="3" stroke-linecap="round" stroke-miterlimit="10" d="M396 399.3v35.4"/><path fill="#6A9AD1" d="M533.1 448l18.9-19-42.3-42.4-33.1 33.1L505 448z"/><path fill="#395B88" d="M519 434l14.1 14H505z"/><path fill="none" stroke="#D1D3D4" stroke-width="3" stroke-linecap="round" stroke-miterlimit="10" d="M462 372l25 25"/><g><path fill="#6A9AD1" d="M593.3 309.5v-26.8h-59.9v46.6h40.1z"/><path fill="#395B88" d="M573.5 309.5h19.8l-19.8 19.8z"/></g><path fill="none" stroke="#D1D3D4" stroke-width="3" stroke-linecap="round" stroke-miterlimit="10" d="M489.3 306h35.4"/><g><path fill="#6A9AD1" d="M538 168.9L519 150l-42.4 42.3 33.1 33.1L538 197z"/><path fill="#395B88" d="M524 183l14-14.1V197z"/></g><path fill="none" stroke="#D1D3D4" stroke-width="3" stroke-linecap="round" stroke-miterlimit="10" d="M462 240l25-25"/></g></svg>