<svg id="Layer_1" xmlns="http://www.w3.org/2000/svg" viewBox="-3 -6 792 612"><g id="Layer_1_1_"><path d="M393 321.2c-6 0-10.8 4.8-10.8 10.8v10.8h21.6V332c0-6-4.8-10.8-10.8-10.8zM416 268h7.6v28.8H416zM362.4 265.3h8.8v35h-8.8z"/><g><path d="M393 380c18.8 0 36.1-6.5 49.8-17.4h-99.6c13.7 10.9 31 17.4 49.8 17.4zM393 220c-22.3 0-42.4 9.1-56.9 23.8h113.8C435.4 229.1 415.3 220 393 220z"/></g></g><path d="M213 290.7c-4.6 0-8.3 3.7-8.3 8.3 0 4 2.8 7.3 6.6 8.1v44.2h3.4v-44.2c3.8-.8 6.6-4.1 6.6-8.1 0-4.6-3.7-8.3-8.3-8.3"/><path d="M265.4 299c0-28.9-23.4-52.4-52.3-52.4S160.7 270 160.7 299c0 27.2 20.7 49.5 47.2 52.1-.1-21.3-13-37.7-18.3-43.6 0 0-2.2-2.6-.9-5.8l9.7-24.6s1.8-4.5 5.8-4.5H222c4 0 5.8 4.5 5.8 4.5l9.7 24.6c1.2 3.1-.9 5.8-.9 5.8-5.3 5.9-18.1 22.3-18.3 43.6 26.3-2.6 47.1-24.9 47.1-52.1"/><g><path d="M554.6 314.3l-3.5.3v1.7c.1 4.3 2.5 5.2 4.6 5.2h.6l5.8-.6c.2-.7.2-1.2.2-1.2s-.8-36.4-1-41c0-1-.3-1.8-.7-2.5-2.1-.2-4-.3-5.5-.4h-.6c-1.4 0-2.5.4-3.1 1.1-1 1.1-.9 2.8-.9 2.8v.1c0 .1 0 1 .1 2.6 2.8.2 4.9.3 4.9.3s3.2.7 3.4 4c.2 3.6.1 23.8.1 23.8s.2 3-4.4 3.8zM543.5 315.1l-5.8.4s-4.8.7-4.9-4.6c-.1-3.9-.6-25.7-.6-25.7s-.3-4.1 4.6-3.7c1.5.1 3.7.2 6 .4-.1-3.6-.1-6.8-.2-9.2-3.1-.2-6.1-.5-8.1-.7-6.5-.7-6.1 4.7-6.1 4.7s.8 40.2.9 45.1c.2 5.9 6.5 4.9 6.5 4.9l7.8-.8c.1-3 0-6.7-.1-10.8zM613 265.2c-.3-7.5-6.9-9.1-6.9-9.1s-22.9-3.4-32.9-4.7c-10-1.2-9.4 8.5-9.4 8.5s2.3 70.9 2.5 79.7c.3 10.5 10 8.8 10 8.8l34.5-6c6.3-1.3 6.6-9.1 6.6-9.1s-4.1-59.9-4.4-68.1zm-7.7 60.3l-25.7 2.7s-7.5 1.1-7.6-7.9c-.1-6.7-1.6-45-1.6-45s-.5-7 7.2-6.4c7.8.6 26.7 2 26.7 2s5 1.2 5.3 6.9c.2 6.2 2.4 40.9 2.4 40.9s.4 5.5-6.7 6.8z"/><g><path d="M579.5 326.8l9.9-1c-.5-10.1-2.2-49.2-2.5-54.9v-.1c-3.6-.3-7-.5-9.4-.7h-.8c-1.6 0-2.9.4-3.7 1.3-1.4 1.4-1.2 3.7-1.2 3.7v.6c4 .3 7.1.6 7.1.6s4.3 1 4.5 5.7c.2 5.1 1.4 32.8 1.4 32.8s.5 4.7-5.7 5.7l-5.7.5c.4 4.7 3.1 5.7 5.5 5.7.3.1.5.1.6.1-.1 0 0 0 0 0zM564.4 321.9l-8 .8s-6.4.9-6.6-6.5c-.1-5.5-.7-36.5-.7-36.5s-.4-5.7 6.2-5.3c1.9.1 4.7.4 7.7.6-.2-5.9-.3-10.6-.4-13.1-3.9-.4-7.6-.8-10.3-1.1-8.7-1-8.2 6.7-8.2 6.7s1 57 1.2 64c.2 8.3 8.7 7 8.7 7l10.9-1.4c-.2-3.2-.3-8.7-.5-15.2z"/></g></g></svg>