<svg xmlns="http://www.w3.org/2000/svg" width="792" height="612" viewBox="0 0 792 612"><g id="Layer_1"><text transform="translate(232.167 456.111)" fill="#395B88" font-family="'SourceSansPro-Bold'" font-size="36">opensourcedesign.is</text><text transform="translate(315.559 511.728)" fill="#395B88" font-family="'SourceSansPro-Bold'" font-size="36">@garthdb</text><path d="M398.4 376.7v-59.9c5.2-1.1 9-5.7 9-11.2 0-6.3-5.1-11.4-11.4-11.4s-11.4 5.1-11.4 11.4c0 5.5 3.9 10.1 9 11.2v59.9c.8 0 1.6.1 2.4.1s1.6-.1 2.4-.1z"/><path d="M466.8 306c0-39.1-31.7-70.8-70.8-70.8s-70.8 31.7-70.8 70.8c0 36.7 27.9 66.9 63.7 70.4-.5-28.9-17.9-51.1-25.1-59.1 0 0-3-3.6-1.3-7.9l13.3-33.8s2.5-6.2 7.9-6.2h24.5c5.5 0 7.9 6.2 7.9 6.2l13.3 33.8c1.7 4.3-1.3 7.9-1.3 7.9-7.2 8-24.6 30.3-25.1 59.1 35.9-3.5 63.8-33.7 63.8-70.4z"/></g></svg>