<?xml version="1.0" encoding="utf-8"?>
<!-- Generator: Adobe Illustrator 18.0.0, SVG Export Plug-In . SVG Version: 6.00 Build 0)  -->
<!DOCTYPE svg PUBLIC "-//W3C//DTD SVG 1.1//EN" "http://www.w3.org/Graphics/SVG/1.1/DTD/svg11.dtd">
<svg version="1.1" id="Layer_1" xmlns="http://www.w3.org/2000/svg" xmlns:xlink="http://www.w3.org/1999/xlink" x="0px" y="0px"
	 width="792px" height="612px" viewBox="0 0 792 612" enable-background="new 0 0 792 612" xml:space="preserve">
<circle fill="#FAA41A" cx="396" cy="306" r="80"/>
<g>
	<path d="M35,583.5v-7.6c0.7-0.1,1.1-0.7,1.1-1.4c0-0.8-0.6-1.4-1.4-1.4s-1.4,0.6-1.4,1.4c0,0.7,0.5,1.3,1.1,1.4v7.6
		c0.1,0,0.2,0,0.3,0S34.9,583.5,35,583.5z"/>
	<path d="M43.7,574.5c0-5-4-9-9-9s-9,4-9,9c0,4.7,3.6,8.5,8.1,9c-0.1-3.7-2.3-6.5-3.2-7.5v0c0,0-0.4-0.5-0.2-1l1.7-4.3
		c0,0,0.3-0.8,1-0.8h1.6h1.6c0.7,0,1,0.8,1,0.8l1.7,4.3c0.2,0.5-0.2,1-0.2,1v0c-0.9,1-3.1,3.9-3.2,7.5
		C40.1,583,43.7,579.1,43.7,574.5z"/>
</g>
<text transform="matrix(1 0 0 1 47.0859 578.1611)" font-family="'OpenSans-Semibold'" font-size="10">DesignOpen.org</text>
<text transform="matrix(1 0 0 1 163 578.1611)" font-family="'OpenSans-Semibold'" font-size="10">Name:</text>
<text transform="matrix(1 0 0 1 336.3345 578.1611)" font-family="'OpenSans-Semibold'" font-size="10">Contact:</text>
<text transform="matrix(1 0 0 1 518.1201 578.1611)" font-family="'OpenSans-Semibold'" font-size="10">Notes:</text>
<text transform="matrix(1 0 0 1 691 578.1611)" font-family="'OpenSans-Semibold'" font-size="10">Slide #:</text>
</svg>
