<?xml version="1.0" encoding="utf-8"?>
<!-- Generator: Adobe Illustrator 18.0.0, SVG Export Plug-In . SVG Version: 6.00 Build 0)  -->
<!DOCTYPE svg PUBLIC "-//W3C//DTD SVG 1.1//EN" "http://www.w3.org/Graphics/SVG/1.1/DTD/svg11.dtd">
<svg version="1.1" xmlns="http://www.w3.org/2000/svg" xmlns:xlink="http://www.w3.org/1999/xlink" x="0px" y="0px" width="792px"
	 height="612px" viewBox="0 0 792 612" enable-background="new 0 0 792 612" xml:space="preserve">
<g id="Layer_2" display="none">
	<circle display="inline" fill="#FAA41A" cx="396" cy="306" r="80"/>
</g>
<g id="Layer_1">
	<path d="M491.9,295.4c-3.1-2.6-6.3-5-9.8-7.2c-2.5-1.5-5.4-2.1-7.9-3.4c-0.4-1-0.8-2-1.3-3c-0.3-0.6-0.6-1.2-0.9-1.8
		c-0.4-1.7-0.8-3.3-1.1-5c-1.5-6.8-5.2-12.5-9.2-18.1c-3.4-6.8-9.4-12.6-15.3-17c-7.1-5.3-16-9.9-25-11.5c-0.4-0.1-0.8-0.3-1.2-0.4
		c-7.1-2.3-14.5-3.5-21.9-4.3c-6.5-0.7-12.1-0.9-18.2,1.6c-5.8,2.4-11.9,4.3-17.6,6.8c-5.7,2.5-10.1,6.8-15.4,9.8
		c-5.8,3.3-9.4,8-13.6,13c-6.7,8-12.4,17.8-14.2,28.2c-3.6,1.1-5.9,4.4-9.3,6.2c-3.8,2-7.9,2.7-10.5,6.4c-0.6,0.8-0.2,2,0.6,2.5
		c0.5,0.3,1,0.5,1.4,0.6c1.4,1.4,3.5,2.3,5.2,3.1c2.1,1.1,4.3,2.1,6.5,3c-0.5,2-0.3,4.5-0.3,5.9c0,6.4,0,12.9,0.5,19.3
		c0.6,6.8,1.9,14.4,4.9,20.6c3.1,6.4,9.3,11.4,14.2,16.4c9.8,10,22.1,15.6,35.9,17.3c10.6,1.4,24.3,6.9,35.6,4.3
		c5.5-0.2,11.1-3,16.1-4.9c1.1-0.4,2.1-0.9,3.1-1.3c3.8-1.1,7.6-2.8,10.9-4.1c6.5-2.6,12.8-6.3,18.5-10.2
		c9.8-6.7,18.7-15.9,23.2-27.1c4.8-12.2,5.6-25.1,3.4-37.8c4.9-1.2,10.6-4,12.2-4.8C492.6,297.9,492.8,296.2,491.9,295.4z
		 M464.8,328c-0.1,0.2,0,0.5,0.1,0.7c-0.4,3.5-0.9,6.9-1.7,10.3c-1,4.2-2.6,8.2-4.8,11.9c-2.6,4.5-6.4,7.1-10.1,10.5
		c-0.3,0.3-0.4,0.6-0.4,0.9c-2,1.5-4,3-5.9,4.5c-1.4,1-2.7,2.1-4.1,3.1c-8.4,3.8-16.6,8.1-25.1,11.5c-6.2,2.5-12.3,2-18.8,1.3
		c-1.2-0.2-2.5-0.2-3.8-0.2c-1.9-0.5-3.9-0.9-6-1c-0.7,0-1.2,0.3-1.4,0.7c-1.3-0.2-2.6-0.5-3.8-1c-0.5-0.2-0.9,0-1.2,0.3
		c-1.8-0.5-3.7-1-5.6-1.6c-7.3-2-14.1-3.7-20.7-7.6c-4.4-2.6-8.4-5.7-11.8-9.3c-1.5-2.4-2.8-4.9-4.1-7.4c-2-3.7-3.5-7.5-4.6-11.5
		c-1.3-4.6-3.4-9.1-4-13.8c0-0.2-0.1-0.4-0.2-0.6c-0.2-4.7-0.2-9.4-0.3-14.1c-0.2-7.8-0.7-15.5,0.5-23.3
		c2.2-14.7,11.5-26.4,21.9-36.5c5.6-5.5,13.1-11.9,21.5-10.7c7.2,1,10.8,6.3,16.5,9.8c9.6,5.9,18.7-9.6,26.4-12.5
		c7.2-2.7,14.8,2.9,20.7,6.6c7,4.4,11.9,11.5,16.2,18.4c7.9,12.5,10.7,27.1,13.7,41.3c0.5,2.2,1,4.4,1.6,6.7
		C465.2,319.6,465.9,323.8,464.8,328z"/>
	<path fill="#FED800" d="M379.1,373.4c-2.2-4.4-5.6-7.6-9.1-10.9c-5.1-4.7-8.5-10.1-12.4-15.7c-3.3-4.7-7.2-12.1-13.8-12.2
		c-3.2-0.1-5.7,3.6-7.4,5.8c-1.2,1.5-2.3,3.2-3.2,4.9c-1.7,3.1-3.7,2.8-6.9,2.8c-3.1-0.1-5.8,1.4-7.4,3.6c-0.3,0-0.5,0.1-0.7,0.4
		c-0.5,1-0.8,2-1,3c-0.4,1.5-0.4,3.1,0.1,4.6c0.2,1.8,0.6,3.6,0.6,5.6c0.1,4-2.3,9.3-0.1,13.2c3.8,6.8,14.1,7.9,21,9.7
		c6.2,1.6,12.5,3.1,18.6,4.9c4.4,1.3,9.3,1.8,13.6-0.1C378.8,389.4,383.2,381.6,379.1,373.4z"/>
	<path fill="#FED800" d="M473.1,359.9c0.9-3.3,2.1-6.5-0.8-9.1c-2.6-2.3-7.8-2.4-11-3.9c-2.2-1-4.2-2.4-6.1-3.9
		c-1.3-3.5-4.8-8.5-9-8.6c-4.2-0.1-8.4,3.5-10,7.2c-0.1,0.2-0.1,0.4-0.1,0.6c-0.6,0.8-1.2,1.7-1.8,2.5c-3.3,4.8-7.1,9.3-9.8,14.6
		c-1.1,2.2-1.9,4.6-3.1,6.8c-1.5,2.6-4.6,4.7-6.5,7c-2.1,2.5-4.3,6.4-3.6,9.8c1.5,6.6,8.8,11.2,15.2,11.9c5,0.6,10-3.8,14.9-4.4
		c5.5-0.7,9.6-1.4,14.6-4c5.8-3,17-0.8,17.8-10.1C474.4,370.8,471.6,365.4,473.1,359.9z"/>
	<path fill="#FED800" d="M411.2,277c-1-4.4-6.9-7.2-10.5-8.7c-3.8-1.6-7-1.8-10.9-0.9c-4.2,1-9.9,3.7-12.1,7.7
		c-0.4,0.1-0.8,0.5-0.8,1.1c0,0,0,0,0,0.1c-0.3,0.2-0.4,0.5-0.5,0.9c-0.4,8.7,9.3,20.4,18.5,18.7c2.2-0.4,4.4-1.9,6.5-3.6
		c0,0,0,0,0,0c1.7-0.7,3.3-1.9,4.3-3.4c0.2-0.1,0.4-0.3,0.5-0.5c0.1-0.3,0.3-0.6,0.4-0.8c0.1-0.1,0.2-0.2,0.3-0.3
		C409.9,284.5,412.1,281.2,411.2,277z M397,291c-5.7,4.4-13.8-2.1-16.9-8.7c0.1-0.2,0.3-0.3,0.3-0.5c1.5-4.6,10.5-4,14.2-3.8
		c2.5,0.1,4.8,0.5,7.2,1.1c1.2,0.3,2.9,1,3.5,2.1c0,0.7-0.1,1.4-0.3,2.1c-0.5,0.7-0.9,1.4-1.2,2.2C401.5,287.8,398.5,289.8,397,291z
		"/>
	<path d="M421.6,256.4c-1,0.3-1.8,1.2-2.3,2.3c-0.7,1.7-0.2,3.7,0.6,5.2c2.3,4.2,8.9,2.3,9.5-2.1
		C430.1,257.6,425.3,253.5,421.6,256.4z"/>
	<path d="M368.8,258.2c-1-2.2-3.5-3.7-6-2.7c-2.5,1-3.6,3.7-2.8,6.3c0.3,2.3,2.2,4.1,4.6,4.2c0.1,0,0.2,0,0.3,0c0.5,0,1.1,0,1.7-0.1
		C370.4,265,370.5,260.9,368.8,258.2z"/>
</g>
</svg>
