<?xml version="1.0" encoding="utf-8"?>
<!-- Generator: Adobe Illustrator 18.0.0, SVG Export Plug-In . SVG Version: 6.00 Build 0)  -->
<!DOCTYPE svg PUBLIC "-//W3C//DTD SVG 1.1//EN" "http://www.w3.org/Graphics/SVG/1.1/DTD/svg11.dtd">
<svg version="1.1" xmlns="http://www.w3.org/2000/svg" xmlns:xlink="http://www.w3.org/1999/xlink" x="0px" y="0px" width="792px"
	 height="612px" viewBox="0 0 792 612" enable-background="new 0 0 792 612" xml:space="preserve">
<g id="Layer_2" display="none">
	<circle display="inline" fill="#FAA41A" cx="396" cy="306" r="80"/>
</g>
<g id="Layer_1">
	<path fill="#395B88" d="M412.3,416.8c-8.7,1.8-13.7,8.5-15.6,16.5c-5.3-7.2-14.1-11.2-23.2-10.4c-11.4,0.9-19.7,9.9-21.4,20.9
		c-1.9,12,5.1,22.9,17.1,24.9c8.6,1.4,18.4-2.1,24.5-8.6c1,10.2,13.3,17.1,23.1,18.8c15.3,2.5,29.4-3.5,36.4-17.6
		C465.1,437.4,435.2,412.1,412.3,416.8z M447.3,464.4c-4.7,6.7-11.2,10.1-19.2,11.1c-7.6,1-16.1-0.4-22.7-4.4
		c-7.3-4.5-8-10.8-6.7-18.5c0.3-2-2.5-2.4-3.3-0.8c-0.2,0.3-0.3,0.7-0.5,1c-0.2,0.1-0.4,0.3-0.6,0.5c-5.6,7.1-13.6,11.9-22.9,11.5
		c-11.2-0.4-16.3-10.3-15.3-20.5c1-9.6,8.6-16.4,17.9-17.8c9.3-1.4,16.8,3.2,22,10.3c0,0.1,0,0.3-0.1,0.4c-0.1,1,0.6,1.6,1.5,1.6
		c0.1,0.1,0.1,0.2,0.2,0.3c0.6,1,2.1,0,1.7-1c1.2-0.7,2.7-1.4,3.6-1.7c0.5-0.2,0.2-1-0.3-0.9c-1.2,0.3-2.2,0.2-3.2,0.2
		c5.6-29.1,47-12.7,52.4,9.5C453.4,451.9,451.2,458.7,447.3,464.4z"/>
	<path fill="#395B88" d="M383.7,435.5c0-0.2,0-0.4,0-0.7c-0.1-2.5-1.8-4.6-3.2-6.5c-1-1.4-3-1.4-4.3-0.4c-1.9,1.4-3.8,3.1-4.9,5.3
		c-0.3,0.6-0.5,1.2-0.7,1.9c-0.5,0.6-0.6,1.6-0.4,2.4c-0.1,0.7-0.2,1.3-0.2,2c-0.2,1.7,1.1,3.3,2.8,3.4c1.6,0.2,3.3,0.6,4.9,0.5
		c0,0,0.1,0,0.1,0c0.6,0,1-0.1,1.4-0.2c0.9-0.1,1.8-0.7,2.3-1.5c0.7-0.5,1.3-1,1.9-1.5C385,438.8,384.9,436.8,383.7,435.5z"/>
	<path fill="#395B88" d="M425,430.6c-0.9-1.6-1.9-3.1-3.2-4.4c-0.5-1.8-2.2-2.9-4.1-2.9c-0.7-0.3-1.4-0.5-2.1-0.7
		c-3.4-0.7-6.8,0.8-8.1,4.1c-0.4,1-0.5,2.2-0.4,3.5c0,0.7,0,1.3,0.1,2c0.3,2,1.3,3.9,2.9,5.2c1.6,1.8,3.7,2.7,5.9,1.6
		c3.1-0.4,6-2.5,8.2-4.8C425,433.2,425.7,431.8,425,430.6z"/>
	<path fill="#395B88" d="M556,300.8c-4.6-10.1-20.7-19.9-31.9-15.1c-0.2-0.2-0.5-0.3-0.9-0.3c-12.6,0.2-18.6,11.5-16.1,22.9
		c1.4,6.5,5.3,12.5,10.6,16.4c-6.4-0.6-11.5,4.1-13.6,10.2c-1,1.6-1.4,3.4-1.1,5.4c0,0,0,0,0,0.1c-0.2,5.3,1.8,10.7,6.9,14.2
		c10.4,7.1,27.1,3.8,35.1-5.2c3.3-3.8,5.2-9.6,3.5-14.5c-1.2-3.4-3.6-5.7-6.6-7.2C552.8,323.6,561.5,313,556,300.8z M543.8,338.1
		c0.7,4.2-2.7,8.2-5.6,10.7c-6.7,5.6-19.8,6.3-27,1.2c-1.3-1-2.3-2.2-3.1-3.5c1.2,0.4,2.4,0.5,3.7,0.3c0.7-0.1,1.3-0.2,2-0.3
		c4.2-0.6,7.1-4.9,6.4-9.1c-0.7-4.2-4.9-7.2-9.1-6.4c-0.4,0.1-0.8,0.2-1.2,0.2c3.4-3.7,8.8-3.8,13.6-1.4c0.8,0.4,1.5-0.3,1.6-1
		c1.9,0.6,3.9,0.9,5.9,1c0.4,0.5,0.9,0.8,1.7,0.9C537.5,331.3,542.9,332.6,543.8,338.1z M532.7,324.7c-8.1,0.7-15.2-4.7-19-11.5
		c0.8,0.1,1.7,0.1,2.5,0c0.3-0.1,0.7-0.1,1-0.2c1.9-0.4,3.6-1.4,4.8-3c1.1-1.6,1.6-3.6,1.2-5.5c-0.3-1.9-1.4-3.7-3-4.8
		c-1.6-1.2-3.5-1.5-5.5-1.2c-0.3,0-0.7,0.1-1,0.1c-0.9,0.1-1.8,0.5-2.6,0.9c1-4.4,4.2-7.7,9-9.6c0.3,1.1,1.2,1.9,2.5,1.7
		c5.4-1.1,9.9-1.6,15.2,0.2c5,1.8,9.6,5.4,12.4,9.9C557.9,313.7,543.9,323.7,532.7,324.7z"/>
	<path fill="#395B88" d="M396,185c-1.9,1.4-3.2,3-5.4,3.8c-0.1,0-0.2,0.1-0.3,0.1c0,0-0.1-0.1-0.1-0.1c-1-0.7-2.2-0.2-2.8,0.6
		c-1.9,0.1-3.8-0.3-5.6-0.8c-5.2-1.5-9.6-5.2-11.3-10.3c-2.4-6.9-2.1-14.7-6-21c-8.3-13.6-24.6,7.6-21.5,17.7
		c0.4,1.4,2.4,0.8,2.1-0.6c-1.4-6.5,6-21.5,14.3-17.6c5.5,2.6,5.6,14.4,6.7,19.5c1.6,7.4,5.8,12.3,12.9,15.4
		c2.7,1.2,6.2,1.9,9.7,1.7c6.7,6.9-5.2,13.6-12,16c0.7-1.3,0.9-2.4,1-3.9c0.2-2.7-1.6-5.3-3.8-6.6c-0.1,0-0.1-0.1-0.2-0.1
		c-2.2-1.3-5.2-1.3-7.4,0c-0.1,0-0.1,0.1-0.2,0.1c-2.2,1.3-4,4-3.8,6.6c0.1,1.6,0.3,2.8,1.2,4.2c0.3,0.4,0.6,0.8,0.9,1.1
		c-1.7-0.2-3.3-0.7-4.9-1.5c-6.1-3-7.1-10.5-6.6-16.6c0.1-0.9-1.5-1.2-1.7-0.2c-1.1,7.1-0.5,14.3,5.8,18.7
		c5.5,3.9,13.4,3.2,19.6,1.6c8.1-2.1,23.2-11.9,17.2-20.6c2.1-0.9,3.9-2.3,5-4.5C399.5,186.1,397.8,183.7,396,185z"/>
	<path fill="#395B88" d="M433.4,176.5c-5.8,2.2-11.2,5.3-16.7,8.2c-3.2,1.7-6.5,3.3-9.9,4.3c-2,0.6-4.4-0.1-6.2,0.9
		c-0.3,0.2-0.5,0.6-0.4,0.9c1.8,4.2,10.3,0.5,13-0.6c7.2-2.9,13.9-7.4,21.4-9.4C437.4,180.1,436.1,175.5,433.4,176.5z"/>
	<path fill="#395B88" d="M300.5,288.2c-8-10.2-27.8-9.5-31.6,2.8c-1.3,2.4-2.2,5.1-2.5,7c-0.6,4.6,1.4,8.8,4.8,11.9
		c6.9,6.3,19.1,8.8,27.9,5.3C311.5,310.4,306.8,296.3,300.5,288.2z M297.5,311.1c-5.9,2.4-13.2,1.3-18.9-1.5l0,0
		c0,0-1.3-0.2-2.6-1.5c-0.1,0-0.1-0.1-0.2-0.1c0,0,0,0,0,0c-1.4-1.4-2.8-4.1-2.9-9c0-2.2,0.3-4,0.8-5.5c0.1-0.6,0.3-1.2,0.6-1.8
		c0,0.1,0,0.1,0,0.2c0.6-1.3,1.4-2.3,2.1-3c0,0,0,0,0,0c0,0,0,0,0.1-0.1c1.4-1.3,2.6-1.8,2.6-1.8l0,0c5.4-2.7,12-1,16.4,2.9
		c1.6,1.4,3.2,3.4,4.5,5.7c-0.1,0-0.2,0-0.3-0.1c-0.4-0.9-1.1-1.8-1.9-2.4c-1-0.8-2.4-1.4-3.8-1.4s-2.8,0.5-3.8,1.4
		c-1.4,1.1-2.4,2.9-2.4,4.8c0,0.1,0,0.2,0,0.3c-0.2,0.4-0.4,0.8-0.6,1.2c-0.2,0.6-0.3,1.3-0.2,2c-0.5,2.2-0.2,4.3,2.2,5.7
		c3.5,1.9,8.4,0.5,11.7-1.1c0.4-0.2,0.8-0.4,1.3-0.7C301.8,307.9,300.4,309.9,297.5,311.1z"/>
	<path fill="#395B88" d="M287.5,260.5c-6.9,3.5-13.1,10.1-18.9,15.1c-6.9,6.1-13.6,12.3-20.2,18.8c-0.3,0.2-0.6,0.5-0.8,0.8
		c-1.3,1.3-2.6,2.6-3.9,3.9c-2.5,2.5-5,5.1-7.5,7.7c-0.3,0.1-0.6,0.2-0.8,0.5c-0.8,0.9-1.5,1.8-2.2,2.7c-3.4,3.8-6.7,7.6-9.8,11.6
		c-2,2.6-9.2,11.1-5.6,14.5c0.5,0.5,1.3,0.4,1.6-0.2c1-1.6,1.4-3.6,2.4-5.3c1.5-2.7,3.4-5.1,5.3-7.5c-0.1,0.1-0.1,0.3-0.2,0.4
		c-0.5,1.2,0.1,2.3,1,2.7c0.8,3.2,2.7,5.9,6.1,7.1c0.2,0.1,0.4,0.1,0.6,0.2c0.1,0.2,0.3,0.3,0.4,0.5c1,1,2.2,0.7,2.9-0.1
		c0.4,0,0.9-0.1,1.3-0.2c0.3,0,0.6,0,0.8,0c6.7-1,11.3-4.8,14.3-10c6.3-8.5,6.9-19.6-1.6-27.4c6.2-5.9,12.5-11.6,19-17.2
		c5.9-5.1,12.5-9.6,18.3-14.9C292,262.2,289.6,259.5,287.5,260.5z"/>
	<path fill="#395B88" d="M432,182.9c-1.5-0.9-3.6,0.6-3,2.3c1.3,4.1,4.5,6.2,3.1,10.9c-1.1,3.5-5,5.8-8.2,7
		c-0.4,0.2-0.9,0.3-1.3,0.4c0.4-0.8,0.6-1.7,0.7-2.5c0-0.1,0-0.1,0-0.2c0.1-1.3-0.3-2.4-1-3.2c-0.3-0.6-0.8-1-1.5-1.2
		c-3.1-1.6-8.1-0.1-7.9,4.4c0,0.1,0,0.1,0,0.2c0,1.1,0.4,2.2,1,3.1c-4.6-0.9-8.7-3.7-10.3-8.9c-0.6-1.9-3.3-1.1-2.9,0.8
		c2.5,11.6,15.2,14.4,25.1,10.8c4.7-1.7,8.7-4.9,10.6-9.6C438.1,192.9,436.2,185.3,432,182.9z"/>
	<path fill="#4E2F1B" d="M433.3,295.8c-7.5,2.9-15.3,4.5-23.3,5.4c-0.1-0.4-0.3-0.8-0.4-1.2c0.5-0.5,1-0.9,1.5-1.3
		c2-1.7,3.9-3.3,5.7-5.2c3.4-3.6,5.3-7.8,5.7-12.7c0.3-3-4.5-3.6-5.2-0.7c-1.1,4.7-4,7.6-7.8,10.3c-0.2,0.2-0.5,0.3-0.7,0.5
		c0.4-1.9,0.7-3.7,0.8-5c0.4-3.4,0.8-10.6-3.1-12.4c-1.5-0.7-2.8-0.5-4.1,0.5c0,0,0.1-0.1,0.1-0.1c-1.2,0.8-1.4,2-1,3.1
		c0.1,3.4,0.1,6.7-0.4,10.3c-0.1,1-0.7,2.6-1.1,4.3c-1.7-0.5-3.3-0.7-4.9-0.5c0.3-1,0.4-1.9,0.5-2.9c0-0.4,0-0.9,0-1.3
		c0-2.9-0.8-5.7-2.7-8c-1.4-1.7-3.2-2.5-5.1-2.7c0.1-1.9,0.2-3.8,0.8-5.7c1.3-4.4,5.7-3.7,7.9-7.1c1.2-1.8,0.2-4.1-1.4-5.2
		c-5.2-3.7-11.7,3.1-13.4,7.7c-1.4,3.6-1.8,7.9-1.2,11.9c-0.5,0.3-0.9,0.5-1.4,0.8c-0.3,0.1-0.6,0.2-0.9,0.4
		c-2.1-2.4-4.8-4.3-7.7-5.5c-6.2-2.4-14.4-2.5-20,1.6c-3.7,2.7-3.1,10.3,2.6,9.7c4.5-0.5,8.8-2.3,13.3-1.4c1.8,0.4,4.2,1.3,6.4,2.5
		c-0.9,3.5-0.3,7.5,1.6,10.5c1.6,2.6,3.9,3.9,6.4,4.3c-0.2,1.8,0,3.7,0.4,5.4c-1.9,0.4-3.8,0.6-5.6,0.7c-6.5,0.5-13.1-1.2-19.2-3.2
		c-2.1-0.7-3.4,2.5-1.5,3.5c6.4,3.5,13.4,4.9,20.7,4.9c0.6,0,1.2,0,1.8,0c-0.8,0.7-1.7,1.3-2.6,2c-4.2,2.8-10.7,5.8-15.8,3.8
		c-2-0.8-3.2,2.3-1.4,3.4c6,3.7,12,2.6,18.2-0.3c3-1.4,6.3-3.5,9.2-6.1c0.2,0.3,0.5,0.5,0.8,0.8c-3.5,5-6,11.6-6.1,16.6
		c-0.1,2.7,3.5,2.7,4.3,0.6c1.4-3.4,2.6-6.7,4.6-9.9c1-1.6,2.3-3,3.5-4.4c0.9,0.3,1.8,0.5,2.7,0.6c-1.1,2.7-1,6.2,0,9.5
		c2.3,7.6,7.5,14.7,14.2,18.9c5.8,3.7,14.5,5.4,19.4-0.7c4.4-5.5,3.8-13.3,1-19.3c-2.9-6.2-7.8-10.4-14-12.3
		c-2.2-1.8-4.5-3.2-6.8-4.3c0.4-0.8,0.8-1.6,1.1-2.5c0.2-0.5,0.3-0.9,0.4-1.4c3.2,0,6.4-0.3,9.6-0.7c5.4-0.7,12.9-2.1,16-7
		C436.9,297.6,435.2,295.1,433.3,295.8z"/>
	<g>
		<text transform="matrix(1 0 0 1 42.2156 568.7821)" fill="#4E2F1B" font-family="'SourceSansPro-Semibold'" font-size="36">&quot;Given enough eyeballs, all bugs are shallow&quot;</text>
	</g>
</g>
</svg>
