<?xml version="1.0" encoding="utf-8"?>
<!-- Generator: Adobe Illustrator 18.0.0, SVG Export Plug-In . SVG Version: 6.00 Build 0)  -->
<!DOCTYPE svg PUBLIC "-//W3C//DTD SVG 1.1//EN" "http://www.w3.org/Graphics/SVG/1.1/DTD/svg11.dtd">
<svg version="1.1" xmlns="http://www.w3.org/2000/svg" xmlns:xlink="http://www.w3.org/1999/xlink" x="0px" y="0px" width="792px"
	 height="612px" viewBox="0 0 792 612" enable-background="new 0 0 792 612" xml:space="preserve">
<g id="Layer_2" display="none">
	<circle display="inline" fill="#FAA41A" cx="396" cy="306" r="80"/>
</g>
<g id="Layer_1">
	<g>
		<circle fill="#6A9AD1" cx="169.6" cy="178.7" r="25.4"/>
	</g>
	<g>
		<circle fill="#6A9AD1" cx="278.1" cy="380.2" r="25.4"/>
		<circle fill="#6A9AD1" cx="61.1" cy="380.2" r="25.4"/>
		<circle fill="#6A9AD1" cx="133.4" cy="380.2" r="25.4"/>
		<circle fill="#6A9AD1" cx="205.8" cy="380.2" r="25.4"/>
	</g>
	<g>
		<circle fill="#6A9AD1" cx="90.2" cy="274.2" r="25.4"/>
		<circle fill="#6A9AD1" cx="249" cy="274.2" r="25.4"/>
		<circle fill="#6A9AD1" cx="169.6" cy="274.2" r="25.4"/>
	</g>
	<g>
		<circle fill="#6A9AD1" cx="278.1" cy="473.2" r="25.4"/>
		<circle fill="#6A9AD1" cx="61.1" cy="473.2" r="25.4"/>
		<circle fill="#6A9AD1" cx="133.4" cy="473.2" r="25.4"/>
		<circle fill="#6A9AD1" cx="205.8" cy="473.2" r="25.4"/>
	</g>
	<g>
		
			<text transform="matrix(0.9599 -0.2805 0.2805 0.9599 383.021 322.6452)" fill="#395B88" font-family="'WisdomScriptAI'" font-size="48">vs</text>
	</g>
	
		<line fill="none" stroke="#D1D3D4" stroke-width="3" stroke-linecap="round" stroke-miterlimit="10" x1="170.5" y1="210.5" x2="170.5" y2="241.1"/>
	
		<line fill="none" stroke="#D1D3D4" stroke-width="3" stroke-linecap="round" stroke-miterlimit="10" x1="148.9" y1="202.9" x2="110.6" y2="250.3"/>
	
		<line fill="none" stroke="#D1D3D4" stroke-width="3" stroke-linecap="round" stroke-miterlimit="10" x1="190.3" y1="202.9" x2="228.6" y2="250.3"/>
	
		<line fill="none" stroke="#D1D3D4" stroke-width="3" stroke-linecap="round" stroke-miterlimit="10" x1="169.6" y1="306" x2="169.6" y2="422.8"/>
	
		<line fill="none" stroke="#D1D3D4" stroke-width="3" stroke-linecap="round" stroke-miterlimit="10" x1="61.7" y1="422.8" x2="278.1" y2="422.8"/>
	
		<line fill="none" stroke="#D1D3D4" stroke-width="3" stroke-linecap="round" stroke-miterlimit="10" x1="278.1" y1="422.8" x2="278.1" y2="438.8"/>
	
		<line fill="none" stroke="#D1D3D4" stroke-width="3" stroke-linecap="round" stroke-miterlimit="10" x1="61.7" y1="422.8" x2="61.7" y2="438.8"/>
	
		<line fill="none" stroke="#D1D3D4" stroke-width="3" stroke-linecap="round" stroke-miterlimit="10" x1="133.8" y1="422.8" x2="133.8" y2="438.8"/>
	
		<line fill="none" stroke="#D1D3D4" stroke-width="3" stroke-linecap="round" stroke-miterlimit="10" x1="206" y1="422.8" x2="206" y2="438.8"/>
	
		<line fill="none" stroke="#D1D3D4" stroke-width="3" stroke-linecap="round" stroke-miterlimit="10" x1="81.3" y1="306" x2="69.4" y2="348.1"/>
	
		<line fill="none" stroke="#D1D3D4" stroke-width="3" stroke-linecap="round" stroke-miterlimit="10" x1="102.7" y1="304.8" x2="121.1" y2="349.8"/>
	
		<line fill="none" stroke="#D1D3D4" stroke-width="3" stroke-linecap="round" stroke-miterlimit="10" x1="257.9" y1="306" x2="269.8" y2="348.1"/>
	
		<line fill="none" stroke="#D1D3D4" stroke-width="3" stroke-linecap="round" stroke-miterlimit="10" x1="236.5" y1="304.8" x2="218.1" y2="349.8"/>
	<g>
		<circle fill="#6A9AD1" cx="525.8" cy="152.5" r="25.4"/>
		<g>
			<path d="M517.4,137.9c-2.4-1.3-5.8,0.4-6.8,2.8c-0.1,0.3-0.2,0.6-0.3,1c-1.2,3.2,0.3,7.9,4.1,8.2c0.5,0.1,1,0.1,1.6-0.1
				c2.1-0.5,3.2-2,3.6-3.6C520.8,143.2,520.2,139.4,517.4,137.9z"/>
			<path d="M538.3,139.2c-1.1-3.9-5.2-5.7-8.9-4.9c-0.9,0.2-1.7,0.6-2.4,1.2c-0.1,0.1-0.3,0.1-0.4,0.2c-0.3,0.2-0.6,0.5-0.8,0.8
				c-0.8,0.8-1.5,1.8-1.8,2.9c-0.7,2.3-0.1,4.8,1.4,6.6c0.7,1.9,1.9,3.6,3.7,4.3c2.1,0.8,4.2-0.4,5.8-1.7
				C537.6,146.3,539.4,142.9,538.3,139.2z"/>
			<path d="M541.1,154.7c-9-0.3-18.5,0.7-27.2,3.1c-4.4,1.2-5,4.1-1.3,6.1c3.6,5.1,10.4,7.6,16.5,6.9c6.8-0.7,11.2-9.5,12.6-15.3
				C541.7,155.1,541.5,154.7,541.1,154.7z"/>
		</g>
		<circle fill="#6A9AD1" cx="638.8" cy="152.5" r="25.4"/>
		<circle fill="#6A9AD1" cx="600.8" cy="216.6" r="25.4"/>
		<circle fill="#6A9AD1" cx="532.8" cy="226.4" r="25.4"/>
		<g>
			<path d="M535.7,211.3c-5.1-0.2-10.6,0.6-14.5,4.3c-0.5,0.5,0.2,1.4,0.7,0.9c4.2-3.2,8.6-3.5,13.7-3.8
				C536.6,212.7,536.6,211.4,535.7,211.3z"/>
			<path d="M551.1,227c-1-3.1-4.3-15.8-9.6-11.7c-0.5,0.4-0.1,1.2,0.5,0.9c3.9-2.3,6.7,9,7.7,11.3
				C550.1,228.2,551.4,227.9,551.1,227z"/>
			<path d="M537.9,232.5c-6.2-0.7-13.3-2.9-14.5-9.8c-0.1-0.3-0.3-0.4-0.6-0.4c0.1-0.2,0.2-0.4,0.3-0.5c0.4-0.8-0.7-1.4-1.1-0.7
				c-2.2,4.2-2.2,8.6,1.9,11.5c3.8,2.7,10.1,2.9,14.4,1.4C538.9,233.7,538.7,232.6,537.9,232.5z"/>
		</g>
		<circle fill="#6A9AD1" cx="541.8" cy="285.4" r="25.4"/>
		<g>
			<path d="M538,280.9c-3.3,1-5.6,4-6.7,7.4c-0.9,1.6-0.9,3.3-0.5,5.1c0.3,2.7,1.6,5.1,4.1,6.4c4.2,3.7,10.4,4.5,15,1
				C560.4,293,549.1,277.6,538,280.9z"/>
			<path d="M538.5,270.8c-1.6-4.6-8.3-3.6-9.2,0.9c-0.4,2.2,1.1,4.8,3.3,5.5c2,0.7,4.1-0.5,5-2.3c0.1-0.2,0.2-0.6,0.3-0.9
				C538.7,273.2,539,272.1,538.5,270.8z"/>
			<path d="M554.3,272.9c-0.1-2.2-1.5-4.9-3.9-5.1c-1.4-0.1-2.5,0.8-3.3,1.9c-0.9,0.4-1.7,1.1-2.1,2c-0.5,1.2-0.2,2.3,0.5,3.2
				c0.3,0.8,1.2,1.4,2.1,1.6c0.7,0.4,1.5,0.6,2.2,0.7c0.2,0,0.4,0.1,0.6,0.1c0.1,0,0.2,0.1,0.3,0.1c1,0.4,1.7-0.1,2.2-0.8
				C553.8,275.7,554.4,274.4,554.3,272.9z"/>
		</g>
		<circle fill="#6A9AD1" cx="532.8" cy="343.6" r="25.4"/>
		<g>
			<path d="M543,349.9c-1.3-1-2.8-2.1-4.3-2.9c0,0,0-0.1,0-0.1c-0.3-0.7-1.1-1-1.7-0.8c-6.7-3.2-14.8-4-19.3,2.9
				c-0.6,0.9,0.8,1.7,1.5,0.9c1.2-1.5,2.5-2.6,4.1-3.2c-0.9,5,1.7,9.8,7.1,10.5c4.1,0.5,8.3-3.1,8.8-7.2c0.8,0.6,1.5,1.2,2.2,1.8
				C542.4,352.8,544.3,350.9,543,349.9z M534.9,352.7c-1,1.3-2.6,1.8-4.2,1.8c-4.6-0.1-5.7-4.8-5.2-8.5c1.2-0.2,2.4-0.2,3.7-0.1
				c0,2.1,0,4.3-0.1,6.4c-0.1,1.6,2.5,1.6,2.5,0c-0.1-2.1-0.1-4.1-0.6-6.1c1.8,0.4,3.5,1.1,5.2,1.9C536,349.7,536,351.2,534.9,352.7
				z"/>
			<path d="M530.8,326c-1.1-1-2.4-1.4-3.9-1.2c-1.4,0-2.6,0.8-3.2,2c-0.8,1.1-1.2,2.4-1,3.7c0.3,2,2.1,3.4,4.1,3.7
				c2.1,0.3,4.7-0.7,5.5-2.8C533.1,329.5,532.3,327.4,530.8,326z"/>
			<path d="M541.5,326.3c-1.6-1.2-4.2-1.1-5.8,0c-1.3,0.9-1.9,2.4-1.8,3.9c-0.2,2.2,1.7,4.2,3.9,4.5c2.1,0.3,4.4-0.7,5.4-2.6
				C544.4,330,543.3,327.5,541.5,326.3z"/>
		</g>
		<circle fill="#6A9AD1" cx="592.6" cy="351.3" r="25.4"/>
		<circle fill="#6A9AD1" cx="651.6" cy="260" r="25.4"/>
		<circle fill="#6A9AD1" cx="716.6" cy="191.2" r="25.4"/>
		<circle fill="#6A9AD1" cx="677" cy="318.2" r="25.4"/>
		<circle fill="#6A9AD1" cx="722" cy="360.4" r="25.4"/>
		<circle fill="#6A9AD1" cx="716.6" cy="434.8" r="25.4"/>
		<g>
			<path d="M730.9,433.4c-2.9,2.1-4.3,4.4-4.8,7.1c-0.3-0.4-0.8-0.6-1.3-0.3c-2.2,1.2-4.9,1.6-7.3,1.8c-1.3,0.1-2.7,0-4-0.2
				c-0.9-0.2-1.3-0.8-1.9-1.3c-0.6-1-1.4-1.9-2-2.6c-2-2.2-5-3.7-8-3.3c-0.9,0.1-0.9,1.5,0,1.4c2.7-0.2,4.9,1.2,6.8,3.1
				c0.9,1,1.6,2.2,2.2,3.4c0.4,0.9,0.4,1.8,0.8,2.6c0.3,0.7,1.4,0.5,1.6-0.2c0.1-0.5,0.1-0.9,0-1.4c0.8,0.3,1.6,0.4,2.1,0.5
				c3.6,0.3,7.7-0.3,10.9-2c0,0,0,0,0,0c-0.2,1.5-0.1,3.1,0,4.9c0.1,0.6,0.9,0.6,1,0c0.4-4.9,0.9-8.6,5-11.8
				C732.9,434.3,731.9,432.6,730.9,433.4z"/>
			<path d="M713.8,425.1c-2,0-2,3.1,0,3.1S715.8,425.1,713.8,425.1z"/>
			<path d="M724.9,423.8c-0.6-0.5-1.2-0.8-2-1.2c-0.6-0.3-1.2-0.3-1.8,0c0,0,0,0,0,0c-0.2,0.1-0.3,0.1-0.4,0.2
				c-0.4,0.2-0.8,0.5-1.1,0.8c-0.5,0.5-1,1.3-0.9,2.1c0.1,1.7,1.6,2.4,3,2.5c1,0.1,2.1,0,3-0.5C726.3,426.8,726.2,424.8,724.9,423.8
				z"/>
		</g>
		<circle fill="#6A9AD1" cx="651.6" cy="422.8" r="25.4"/>
		<g>
			<path d="M651.8,417.7c-4.7-5.1-8.8,2-13.2,3.3c-4.8,1.4-6.8-6.7-2.3-6.7c1,0,1.2-1.5,0.2-1.8c-5.1-1.2-5.7,5.5-3.5,8.6
				c1.6,2.2,4.2,2.5,6.7,1.8c1.9-0.5,3.4-1.8,4.9-3c0.8-0.7,1.6-1.4,2.6-1.7c1.3-0.4,2.9,0.4,4.2,0.5
				C651.9,418.6,652.1,418,651.8,417.7z"/>
			<path d="M667.9,416.8c-1.2-0.2-1.7,1.5-0.5,1.8c2.5,0.7,3,2.5,1.3,4.5c-2,2.4-5.2,1.8-7.5,0.3c-2.6-1.7-4.4-7.8-8.5-5
				c-0.3,0.2-0.2,0.6,0.2,0.6c2.3,0.3,3.3,0.6,4.6,2.6c0.8,1.2,1.7,2.3,2.8,3.2c2.3,1.8,5.2,2.1,7.8,0.8
				C672,423.8,672.9,417.6,667.9,416.8z"/>
			<path d="M652.2,408.6C652.2,408.6,652.2,408.6,652.2,408.6c-0.1-0.2-0.1-0.4-0.3-0.5c-0.2-0.2-0.4-0.3-0.6-0.3c0-0.1,0-0.1,0-0.2
				c-0.1-0.4-0.3-0.6-0.6-0.6c-0.5-0.5-1.3-0.6-1.8,0.2c-0.2,0.3-0.1,0.8,0.2,1.1c-0.2,0-0.5,0.1-0.6,0.3c-0.5,0.5-0.2,1.1,0.3,1.5
				c0,0,0,0,0,0c0.1,0.2,0.3,0.3,0.5,0.3c0,0,0,0,0,0.1c-0.1,0.4,0.1,0.6,0.5,0.6l1.1,0.1c0.2,0,0.4-0.1,0.5-0.3
				c0.1-0.1,0.1-0.2,0.2-0.3c0.1,0,0.1,0,0.2-0.1c0.2-0.1,0.3-0.4,0.4-0.6c0.1-0.1,0.2-0.2,0.3-0.3
				C652.5,409.2,652.4,408.9,652.2,408.6z"/>
			<path d="M658.7,411.7L658.7,411.7c0-0.4-0.1-1.3-0.5-1.8c0-0.2-0.1-0.4-0.3-0.5c-0.4-0.5-1.1-0.3-1.5,0c-0.6,0.1-0.9,0.6-1.1,1.1
				c-0.1,0.3-0.1,0.7,0.2,1c0.3,0.3,0.7,0.5,1,0.7c0.3,0.2,0.7,0.4,1.1,0.5C658.4,413.1,658.9,412.3,658.7,411.7z"/>
		</g>
		<circle fill="#6A9AD1" cx="643.4" cy="499.2" r="25.4"/>
		<circle fill="#6A9AD1" cx="567.2" cy="506.2" r="25.4"/>
		<circle fill="#6A9AD1" cx="567.2" cy="427.2" r="25.4"/>
		
			<line fill="none" stroke="#D1D3D4" stroke-width="3" stroke-linecap="round" stroke-miterlimit="10" x1="547.4" y1="170.9" x2="579.4" y2="198"/>
		
			<line fill="none" stroke="#D1D3D4" stroke-width="3" stroke-linecap="round" stroke-miterlimit="10" x1="624.3" y1="176.9" x2="615" y2="192"/>
		
			<line fill="none" stroke="#D1D3D4" stroke-width="3" stroke-linecap="round" stroke-miterlimit="10" x1="689" y1="198" x2="628.6" y2="210.7"/>
		
			<line fill="none" stroke="#D1D3D4" stroke-width="3" stroke-linecap="round" stroke-miterlimit="10" x1="630" y1="241.6" x2="622.4" y2="235"/>
		
			<line fill="none" stroke="#D1D3D4" stroke-width="3" stroke-linecap="round" stroke-miterlimit="10" x1="560.3" y1="263.8" x2="582.5" y2="238.3"/>
		
			<line fill="none" stroke="#D1D3D4" stroke-width="3" stroke-linecap="round" stroke-miterlimit="10" x1="594.3" y1="322.9" x2="599.1" y2="245"/>
		
			<line fill="none" stroke="#D1D3D4" stroke-width="3" stroke-linecap="round" stroke-miterlimit="10" x1="644.8" y1="395.3" x2="607.6" y2="244.2"/>
		
			<line fill="none" stroke="#D1D3D4" stroke-width="3" stroke-linecap="round" stroke-miterlimit="10" x1="658.4" y1="395.3" x2="670.3" y2="345.8"/>
		
			<line fill="none" stroke="#D1D3D4" stroke-width="3" stroke-linecap="round" stroke-miterlimit="10" x1="672.8" y1="404" x2="700.8" y2="379.2"/>
		
			<line fill="none" stroke="#D1D3D4" stroke-width="3" stroke-linecap="round" stroke-miterlimit="10" x1="679.5" y1="428" x2="688.2" y2="429.6"/>
		
			<line fill="none" stroke="#D1D3D4" stroke-width="3" stroke-linecap="round" stroke-miterlimit="10" x1="648.5" y1="451.2" x2="646.4" y2="470.8"/>
		
			<line fill="none" stroke="#D1D3D4" stroke-width="3" stroke-linecap="round" stroke-miterlimit="10" x1="631.4" y1="442.8" x2="587.4" y2="486.3"/>
		
			<line fill="none" stroke="#D1D3D4" stroke-width="3" stroke-linecap="round" stroke-miterlimit="10" x1="622.4" y1="424.4" x2="595.5" y2="425.8"/>
		
			<line fill="none" stroke="#D1D3D4" stroke-width="3" stroke-linecap="round" stroke-miterlimit="10" x1="560.9" y1="222.3" x2="572.4" y2="220.7"/>
		
			<line fill="none" stroke="#D1D3D4" stroke-width="3" stroke-linecap="round" stroke-miterlimit="10" x1="560.9" y1="347.6" x2="564.4" y2="348.1"/>
	</g>
	<g>
		<path d="M556.6,485.7c-0.7,0.7,0.2,1.9,1,1.3c4.2-2.6,8.3-2.6,12.5,0.2c3.8,2.5,6.4,7.6,3.8,11.8c-3.2,5.2-10.3,4.9-14.5,1.4
			c-3.6-3-6.1-9.1-0.6-11.6c0.5-0.2,0.2-1.1-0.4-0.9c-6.5,1.6-5,8.4-1.7,12.4c4.6,5.6,12.1,5.9,17.4,1.2
			C584,492.7,565.7,476.7,556.6,485.7z"/>
		<path d="M567.4,491.6c-0.1-0.2-0.2-0.4-0.3-0.6c-0.5-0.6-1.2-0.8-1.9-0.8c-0.4-0.3-0.9-0.4-1.4-0.2c-0.4,0.1-0.7,0.3-0.9,0.6
			c-0.3,0.2-0.6,0.4-0.8,0.8c-0.7,0.6-1.2,1.4-1.3,2.2c-0.3,1.7,0.8,2.8,2.2,3.4c0.9,0.4,1.8,0.5,2.6,0.2c1.4,0.1,2.5-0.6,3-1.9
			C569.1,494,568.5,492.5,567.4,491.6z"/>
		<path d="M573.3,508.8c-0.6-0.7-1.8,0.4-1,1c1.7,1.5-3.2,2.8-3.9,2.8c-1.7,0-3.4-0.7-5-1.2c-0.8-0.3-1.7-0.5-2.6-0.7
			c-0.9-0.3-5.2-2.3-1.4-2.8c0.6-0.1,0.4-0.9,0-1c-1.9-0.7-4.1,0.4-3.5,2.8c0.6,2.3,4.1,2.9,6,3.3c3.1,0.7,6,1.7,9.1,0.4
			C573.1,512.4,574.9,510.8,573.3,508.8z"/>
		<path d="M560.5,514.3c-3-0.3-7-0.7-9.6,1.1c-2,1.4-1,3.4,0.3,4.7c3.2,10.3,22.6,13.1,27.4,2.8C581.9,515.9,564,514.6,560.5,514.3z
			"/>
	</g>
	<g>
		<path d="M561,417.5c-2.1-1-4.4-1.3-6.5-0.3c-2.5,1.1-2.8,4.1-2.3,6.4c0.3,1.2,0.8,2.1,1.6,2.7c1.5,2.4,4.3,3.8,7.3,2.1
			c2.1-1.1,4.1-3.5,3.9-5.9C564.7,420.1,562.9,418.4,561,417.5z"/>
		<path d="M567.8,419.8c-0.2,0.8-0.3,1.6-0.2,2.4c-0.1,1.2,0.1,2.4,0.5,3.5c0.7,2.2,2.2,4.1,4.3,5c2.5,1.1,5.1-0.5,7-2.2
			C588.4,420.4,570.5,410.4,567.8,419.8z"/>
		<path d="M549.6,430.3c-1.2-2.2-1.4-4.3-1.3-6.8c0-0.8-1-1-1.4-0.4c-1.5,2.5-0.1,5.9,1.5,7.9C548.9,431.8,550,431.1,549.6,430.3z"
			/>
		<path d="M585.6,420.6c-0.3,5.7-1.6,9.9-5.7,14.1c-0.3,0.4,0.2,0.8,0.5,0.5c4.6-4,6.7-8.6,6.6-14.7
			C587,419.7,585.7,419.7,585.6,420.6z"/>
		<path d="M572.7,436.9c-1.8-2.4-4.2-3.5-7-4.3c-2.4-0.7-6.3-1.5-8.7-0.3c-2.1,1.1-3.9,3-3.7,5.5c0.1,2,2,3,3.9,3
			c1,0.7,2.2,1.3,3.2,1.7c2.6,1.3,5.4,2.4,8.3,3c1.8,0.4,3.9,0.4,5.2-1.3C575.5,441.8,574.2,438.9,572.7,436.9z"/>
	</g>
	<g>
		<path d="M652.5,509.5c-0.4-1-2-0.6-1.7,0.5c0.6,1.9,1,3.8-0.4,5.5c-1.6,2-4.5,0.8-6.2-0.2c-0.5-0.3-1.2-0.1-1.4,0.4
			c-1.4,2.9-4,2-6.5,1.3c-0.7-0.2-1.2,0.9-0.5,1.2c2.9,1.6,6.3,2.1,8.3-0.7C649.8,520.2,655.1,515.9,652.5,509.5z"/>
		<path d="M647.4,499.7c-2.6,3.1-5.8,5.3-9.5,7c-2.1,1-5.7,1.4-7.4,3.1c-0.3,0.3-0.1,0.6,0.2,0.8c2.3,0.9,6.1-1.3,8.1-2.2
			c3.8-1.6,7.5-4,10-7.2C649.7,500.1,648.2,498.6,647.4,499.7z"/>
		<path d="M630.4,489.7c0-0.2-0.1-0.4-0.3-0.5c0,0,0-0.1,0-0.1c0-0.1-0.1-0.2-0.1-0.3c-0.2-0.4-0.5-0.5-0.9-0.5
			c-1-0.2-2.2,0.8-2,1.8c0,0.1,0,0.2,0,0.2c0,0.1-0.1,0.3-0.1,0.4c0,0.4,0.3,0.8,0.6,0.8c0,0,0,0,0,0c0,0,0,0,0,0c0,0,0,0,0,0
			c0.1,0.2,0.3,0.3,0.4,0.4c0.1,0.1,0.2,0.1,0.3,0.2c0.3,0.2,0.7,0.2,1,0.1c0.2-0.1,0.3-0.2,0.4-0.4c0.2-0.1,0.4-0.3,0.6-0.6
			C630.8,490.7,630.7,490.2,630.4,489.7z"/>
		<path d="M639.5,486.2c0-0.6-0.1-1.1-0.3-1.5c-0.3-0.6-0.8-0.8-1.3-0.9c-0.7-0.5-1.6-0.7-2.6-0.8c-1.1-0.1-2.3,0.5-2.2,1.7
			c-0.1,0-0.1,0.1-0.2,0.1c-1.1,1-1.1,2.9-0.5,4.2c0.1,0.8,0.6,1.6,1.7,1.9c1.1,0.4,2.2,0.3,3.1-0.1c0.4-0.1,0.9-0.3,1.3-0.5
			c0.4-0.2,0.5-0.6,0.4-0.9C639.5,488.6,639.8,487.4,639.5,486.2z"/>
		<path d="M658.5,486.8c-1-1.3-2.7-2.4-4.4-2.4c-1.4,0-2,1.1-1.4,2.3c0.3,0.6,1.2,0.2,1.1-0.4c0-0.3,1,0,1.2,0.1
			c1,0.3,1.8,1.1,2.3,1.9c0.4,0.7,0.8,1.8,0.4,2.7c-0.4,0.8-1.6,0.2-2.3,0.2c-1.1,0-1.4,1.4-0.5,1.9c1.5,1,3.6,0.3,4.5-1.2
			C660.1,490.3,659.5,488.1,658.5,486.8z"/>
	</g>
	<g>
		<path d="M587.4,343c-0.8-1.7-0.5-3.9-0.8-5.7c-0.1-0.8-1.4-0.6-1.3,0.2c0.1,1.6,0.2,3.1,0.3,4.7c-0.1,0-0.1-0.1-0.2-0.1
			c-0.6-0.8-1.1-1.5-1.8-2.2c-0.5-0.4-1.2-0.1-1.2,0.5c0,0.8,0.6,1.5,1.4,2.1c0.1,0.1,0.2,0.3,0.3,0.4c-2.2-0.1-4.4,0.4-6.1,2
			c-0.6,0.6,0.2,1.6,0.9,1.1c2.2-1.4,4.4-1.9,7-1.3c0.5,0.1,0.9-0.2,1-0.6c0.1-0.1,0.2-0.3,0.3-0.4
			C587.3,343.7,587.6,343.4,587.4,343z"/>
		<path d="M604.3,343.1c-2-0.1-4,0-5.9,0.7c0.6-1.4,1.2-2.7,2.1-3.9c0.4-0.5-0.4-1-0.8-0.6c-0.4,0.4-0.8,0.8-1.1,1.3
			c0.1-1,0.1-2,0.1-3c0-0.9-1.2-1-1.5-0.2c-0.5,1.4-0.7,3.2-0.1,4.5c0,0.5-0.1,1.1-0.2,1.6c-0.1,0.4,0.1,0.6,0.3,0.8
			c-0.1,0.1-0.1,0.2-0.2,0.4c-0.2,0.5,0.4,0.7,0.7,0.6c2.1-1,4.3-0.9,6.6-1C604.9,344.1,604.9,343.1,604.3,343.1z"/>
		<path d="M607.3,350c0-0.2-0.1-0.3-0.1-0.4c-0.1-0.8-1.3-0.8-1.4,0c-0.1,0.1-0.1,0.3-0.1,0.4c0,0.5,0,0.9,0,1.4
			c-5.3,0.2-10.6,0.1-15.9,0.4c-4.4,0.3-8.3,1.8-10.3,5.8c-0.3,0.6,0.5,1,0.9,0.5c6.2-8.4,17.1-2.3,25.3-4.9c0,0.4,0.2,0.6,0.5,0.7
			c0,0,0,0.1,0,0.1c0.1,0.9,1.3,0.5,1.4-0.2C607.6,352.7,607.3,351.4,607.3,350z"/>
	</g>
	<g>
		<path d="M595.8,207.8c-0.4-0.3-0.7-0.7-1.1-1c-0.3-1.6-2.3-3.2-3.4-4c-1.2-0.8-2.5,0.8-1.9,1.9c0.1,0.2,0.3,0.5,0.4,0.7
			c-1.4-0.6-2,1.7-0.6,2.3c0.1,0,0.2,0.1,0.3,0.1c-1.4,0.2-2.7,0.8-3.9,1.9c-1,0.9,0.5,2.4,1.5,1.5c1.8-1.7,4.5-2.1,6.9-1.5
			c0.2,0,0.3,0,0.5,0C595.6,210.2,596.9,208.7,595.8,207.8z"/>
		<path d="M610.3,209.6c-2.5-0.8-5.2-0.6-7.9-0.3c0.9-1.5,1.9-3,2.7-4.6c0.4-0.8-0.3-1.5-1-1.3c0.1-0.2,0.2-0.5,0.3-0.7
			c0.4-0.9-1.1-1.5-1.6-0.7c-1.2,2-2,4.1-2.7,6.3c-0.1,0.4,0,0.7,0.2,0.9c-0.1,0.2-0.3,0.4-0.4,0.7c-0.3,0.5,0.1,1.4,0.8,1.3
			c3.2-0.4,6.1-0.4,9.4-0.1C611,211.3,611.1,209.9,610.3,209.6z"/>
		<path d="M587.2,222.6c-0.3-0.2-0.6-0.2-1,0c-7.8,4.7,4.5,8.4,8.1,8.7c8.4,0.9,19.4,0,20.1-10.7
			C615.2,208.8,594.6,217.4,587.2,222.6z"/>
	</g>
	<path d="M638.2,165.2c0-0.8-0.6-1.5-1.4-1.6c-0.2,0-0.4,0-0.6,0.1c-0.2,0-0.4,0.1-0.5,0.2c-0.4,0.3-0.6,0.6-0.6,1
		c-0.3,0.6-0.4,1.2-0.1,1.8c0.4,0.8,1.4,1,2.1,0.8C638.3,167.3,638.5,166.2,638.2,165.2z"/>
	<path d="M647.9,160.9c-0.7-0.7-1.9-1.1-2.8-0.4c-0.2,0.2-0.4,0.5-0.5,0.8c0,0,0,0.1-0.1,0.1c-0.5,1,0.2,2.4,1.2,2.8
		c0.2,0.1,0.5,0.1,0.7,0.1c0.6,0,1.2-0.3,1.4-0.7c0.1-0.1,0.1-0.1,0.2-0.2C648.8,162.6,648.6,161.5,647.9,160.9z"/>
	<path d="M652.6,152.9c-1.2-0.6-2.2,1.1-1,1.8c3.8,2.2,1.9,8.5,0.3,11.6c-2.8,5-9.5,9-15.1,6.4c-0.4-0.2-0.8,0.4-0.4,0.6
		c5.6,3.4,13-0.5,16.4-5.4C655.5,164,657.8,155.8,652.6,152.9z"/>
	<path d="M732.3,202.4c-0.9-1-1.6-2-2-3.3c-0.1-0.4-0.5-0.6-0.9-0.5c-1.4,0.3-2.5,0.9-3.7,1.6c-0.4-0.5-0.7-1.2-0.8-1.9
		c-0.1-0.5-0.7-0.5-1-0.3c-1.1,1-2.2,2-3.3,3c0,0,0,0-0.1,0c-0.2-0.2-0.5-0.2-0.7-0.1c-0.9-1.4-1.7-2.8-2.2-4.4
		c-0.1-0.4-0.6-0.5-0.9-0.2c-0.7,0.8-1.5,1.5-2.4,2.1c-0.2,0.2-0.3,0.3-0.5,0.3c-0.1-0.2-0.4-0.3-0.6-0.2c-0.1-0.2-0.2-0.5-0.4-0.9
		c-0.4-0.7-0.8-2.1-1.6-2.6c-2.8-1.7-3.2,4.5-5.5-1.1c-0.1-0.2-0.3-0.4-0.6-0.2c-1.2,0.7-2.3,1.2-3.2,1.1c-0.1-0.2-0.4-0.3-0.6-0.2
		c-0.5-0.3-0.9-0.8-1.3-1.7c0-0.2-0.1-0.4-0.2-0.5c0,0,0-0.1,0-0.1c-0.1-0.2-0.4-0.2-0.5,0c0,0,0,0.1,0,0.1c0,0,0,0,0,0
		c-0.5,0.2-0.9,0.9-1.1,1.4c-0.1,0-0.1,0.1-0.2,0.2c-0.1,0.2-0.2,0.3-0.3,0.4c-2.4,4.1-1.8,12.6,2.3,15.5c0.1,0.2,0.3,0.3,0.4,0.5
		c0,1.3,0.1,2.6,0.3,4c-0.2,1-0.2,2.1,0,3.1c-0.3,0.8-0.6,1.5-0.8,2.3c-0.2,0.9,0.3,3.3,1.7,3c1.2-0.2,1.4-2.1,1.5-3
		c0.1-1.3-0.1-2.6-0.3-3.9c0.2-0.8,0.4-1.7,0.4-2.5c0.2-0.5,0.5-1.1,0.7-1.7c0.2,0.9,0.8,1.8,1.1,2.7c-0.2,0.3-0.3,0.5-0.4,0.8
		c-0.2,0.7,0.1,2.1,1,2.1c0.9,0,1.1-1.2,1.3-1.8c0.1-0.5,0.2-1,0.3-1.4c0.3-0.5,0.4-1,0.6-1.5c0,0,0,0,0,0c0.9-1.4,2.1-0.8,3.3-1.3
		c0.7-0.3,2.1,1.6,2.8,1.9c0.4,0.2,0.6,0.2,1,0.2c0.6,0.1,0.5,1.6,0.6,2.1c0.1,0.4,0.2,0.7,0.4,1c0.1,0.4,0.3,0.7,0.5,1
		c0.8,1.5-1.2,4.7,0.7,5.8c1.2,0.7,1.7-0.8,1.7-1.7c0.8-2.1-0.7-4.5,0.2-6.7c0.1,0,0.1-0.1,0.2-0.1c0.3-0.2,0.5-0.5,0.7-0.7
		c0,0,0,0,0,0c0.7-0.3,1.5-0.2,2.3-0.2c0.5,0.5,1.1,0.8,1.8,0.3c0,0,0,0,0,0c0.1,0,0.2-0.1,0.2-0.2c0.6-1,1.5-1.7,2.4-2.5
		c0.1-0.1,0.2-0.3,0.1-0.5c2.4-1.4,4-4.5,5.1-7C732.5,203.4,732.8,202.9,732.3,202.4z M699,200.9c-0.1-1.9,0-3.9-0.3-5.8
		c0,0,0,0,0,0c0,0,0-0.1,0-0.1c0.1-0.3,0.3-0.5,0.5-0.7c0.1-0.2,0.3-0.4,0.5-0.6c0.3,0.1,0.5,0.8,1.2,1.5
		C700.4,197.1,699.9,199.1,699,200.9z M702.8,207c-0.5,0.7-1.2,1.3-1.8,1.9c-0.6-0.7-0.9-1.7-1.2-2.6c0,0,0,0,0,0
		c0.5-0.7,1.3-1.2,2-1.7c0.4,0.5,0.8,1,1,1.5c0,0.1,0,0.2,0.1,0.3C702.9,206.6,702.9,206.8,702.8,207z M703.1,200.8
		c-0.4-1.7-0.7-3.3-1.1-5c0.3,0,0.6-0.1,0.6-0.1c2.5-0.4,2.7-0.5,3.4,1.8C705.3,198.7,704.2,199.7,703.1,200.8z M704.8,208.7
		C704.8,208.7,704.8,208.7,704.8,208.7c0-0.1,0-0.1,0-0.2c0-0.1-0.1-0.2-0.2-0.3c-0.1-0.3-0.3-0.5-0.4-0.8c0-0.1,0.1-0.2,0.1-0.3
		c0.1-0.4,0.1-0.8-0.1-1.2c0.4-0.5,0.8-1.1,1.2-1.5c0.4,0.7,0.7,1.4,1.1,2.1C706.5,207.4,705.5,208.1,704.8,208.7z M711.5,207.7
		c-0.1,0.1-0.1,0.1-0.1,0.2c0,0,0,0,0,0c0,0.1-0.1,0.1-0.2,0.2c-0.1,0.1-0.3,0.2-0.4,0.3c-0.2,0.1-0.5,0.2-0.6,0.4
		c-0.4,0.3-0.9,0.5-1.3,0.8c-0.3-0.7-0.7-1.4-1.1-2.1c0.1,0,0.1-0.1,0.2-0.2c0.8-1.3,2.5-1.1,3.8-1.6
		C711.7,206.3,711.8,207.2,711.5,207.7z M708.9,202.1c-0.5-1.3-0.9-2.6-1.2-4c0.6-0.2,1.1-0.5,1.8-1c1.6-1.3,2.5,0.3,3.1,1.7
		C711.2,199.6,709.9,200.8,708.9,202.1z M715.3,211.6c-0.9-0.8-1.5-1.7-2.2-2.6c0.8,0,1.6-0.1,2.4-0.1c0.6,0,1.3-0.1,1.8,0.4
		c0.2,0.2,0.3,0.8,0.3,1.2C716.7,210.7,716,211.1,715.3,211.6z M715.7,206.1c-0.5-2.1-1.2-4.1-1.6-6.3c0.7-0.6,2.6-2.4,2.9-1.9
		c0.7,1.5,1.5,2.8,2.3,4.2C718.1,203.5,716.9,204.8,715.7,206.1z M720,212.4c-0.2-0.2-0.3-0.5-0.5-0.7c-0.1-0.5-0.3-0.9-0.8-1.1
		c0.5-0.4,0.9-0.9,1.3-1.6c0.5,0.7,1.1,1.4,1.7,2.1C721.2,211.6,720.6,212,720,212.4z M722.2,206.4c-0.5-1.4-0.7-3-1.2-4.4
		c0,0,0-0.1,0-0.1c1-0.8,2-1.6,3-2.4c0.2,0.6,0.5,1.2,1,1.9c0.1,0.1,0.1,0.1,0.2,0.2C724.5,203.3,723.2,204.8,722.2,206.4z
		 M723.9,212.5c-0.3-0.4-0.6-0.9-0.8-1.4c0,0,0-0.1,0-0.1c0.7-0.5,1.4-1,2.2-1.5c0.2,0.4,0.3,0.7,0.5,1.1
		C725.1,211.2,724.4,211.8,723.9,212.5z M728.1,205.9c-0.6-1.4-1.2-2.8-1.7-4.2c0-0.1,0.1-0.2,0.1-0.3c0.9-0.5,1.7-0.9,2.7-1.1
		c0.3,0.9,0.8,1.7,1.3,2.4C729.5,203.5,728.8,204.7,728.1,205.9z"/>
	<path d="M716.6,188.3c0.4-1.6-1.9-3-3.3-2.1c-1.1,0.8-0.8,2.3,0,3.2c1,1.2,2.9,0.7,3.3-0.7C716.7,188.5,716.7,188.4,716.6,188.3z"
		/>
	<path d="M721.4,187c-0.3-0.2-0.7-0.3-1.1-0.3c-0.3-0.2-0.7-0.2-1-0.1c-1,0.3-1.1,1.4-1.1,2.3c0,0,0,0.1,0,0.1c0,0,0,0,0,0
		c0,0,0,0,0,0c0.1,0.7,0.7,1.3,1.4,1.6C721.6,191.2,723.2,188.2,721.4,187z"/>
	<path d="M652.8,276c-0.3,0.3-0.5,0.2-0.7-0.3c0-0.2-0.1-0.4-0.1-0.5c0.4-1.4,0.2-3.2-0.1-4.4c0.2,0,0.4-0.2,0.5-0.4
		c0.7-0.8,0.8-1.8,1-2.8c0.4-1.7,0.8-3.3,0.9-5.1c0-0.3-0.3-0.6-0.6-0.6c-1.2,0.2-2.3-0.1-3.5-0.3c-0.8-0.2-1.8-0.6-2.6-0.4
		c-0.1,0-0.2-0.1-0.4,0c-2.7,0.4,1.6,7.3,2.3,8.2c0.3,0.4,0.8,1,1.4,1.3c0,0.2,0,0.3,0,0.5c-0.3,0.7-0.3,1.5-0.3,2.3
		c0,0.5,0,1.1,0,1.6c-0.1,0.4-0.3,0.8-0.9,0.9c-0.6,0.2-0.8-0.3-1.2-0.6c-0.3-0.3-0.9-0.2-1,0.3c-0.4,1.9,2.4,2,3.5,1.2
		c0,0,0.1-0.1,0.1-0.1c0.8,1.3,2.8,1.1,2.9-0.6C654.1,275.2,652.8,275.2,652.8,276z"/>
	<path d="M673,234.5c-0.1-0.6-1-0.8-1.3-0.4c-1.7,2.2-3.7,4.2-5.8,6c-0.6,0.6,0.2,1.5,0.9,1.1c0,0,0,0,0,0c0,0,0.1-0.1,0.1-0.1
		c0,0,0,0,0,0c0,0,0,0,0.1,0c1.7-1.4,3.3-2.9,4.8-4.5c0.3,4-0.6,8.1-0.3,12.1c0.1,1,1.6,1,1.5,0C672.4,244.1,673.8,239.2,673,234.5z
		"/>
	<path d="M643.7,237.7c-0.9-0.9-1.4-2.2-1.9-3.4c-0.7-1.6-1.8-3.1-2.9-4.4c-0.4-0.5-1.2-0.2-1.4,0.4c-1.3,4.7-1.4,8.9-1.2,13.7
		c0,1.1,1.7,1.1,1.7,0c-0.2-4.1-0.1-7.8,0.7-11.7c0.9,1.2,1.7,2.5,2.4,3.9c0.5,1,1.1,2,2.1,2.4C643.7,238.7,644,238,643.7,237.7z"/>
	<path d="M647.1,252.4c0,0-0.1-0.1-0.1-0.1c-0.2-0.2-0.6-0.2-0.9,0c-0.3,0-0.6,0.3-0.6,0.6c0,0.3,0.1,0.6,0.3,0.8c0,0,0,0,0,0
		c0,0,0,0,0,0c0.1,0.1,0.2,0.2,0.3,0.3c0.3,0.3,0.9,0.3,1.1-0.1C647.5,253.3,647.6,252.9,647.1,252.4z"/>
	<path d="M657.5,253.4c-0.1-0.6-0.7-1.1-1.2-1.1c-0.1,0-0.2,0-0.3,0c0,0-0.1,0-0.1,0c-0.3,0-0.7,0.2-0.8,0.5
		c-0.3,0.6-0.4,1.1,0.1,1.6c0.3,0.4,1,0.5,1.4,0.4c0.2,0,0.4-0.1,0.5-0.3C657.4,254.3,657.6,253.8,657.5,253.4z"/>
	<path d="M640.6,262.8c-3.7-1.8-7.5-3.2-11.2-5.1c-2.5-1.3-5.3-4-8.3-4c-0.8,0-1,1.2-0.2,1.4c3.5,0.8,6.9,3.5,10.1,5
		c3,1.4,6.1,2.4,9.2,3.6C640.7,263.9,641,263,640.6,262.8z"/>
	<path d="M639.7,265.8c-2.6-0.8-5.4-0.7-8-1.2c-2.7-0.5-5.5-1.2-8.2-0.7c-0.6,0.1-0.6,1.1,0,1.2c2.5,0.5,5.2,0.6,7.8,1
		c2.7,0.4,5.5,0.1,8.1,0.8C640.2,267.2,640.5,266,639.7,265.8z"/>
	<path d="M640.6,269.1c-2.1,0.6-4.1,1-6,2c-2,1-3.8,2.3-5.7,3.3c-0.5,0.3-0.2,1.2,0.4,1c1.7-0.5,3.2-1.5,4.7-2.4
		c2.2-1.4,4.5-2.1,6.9-3C641.5,269.8,641.2,268.9,640.6,269.1z"/>
	<path d="M683.1,261.2c-3.2-0.8-6.5-0.6-9.7-0.2c-3.4,0.4-7.2,2.1-10.6,1.7c-0.7-0.1-0.8,1-0.2,1.2c0,0,0,0,0,0
		c2.2,0.5,4.8-0.3,7-0.7c4.5-0.9,8.7-0.9,13.3-0.4C683.8,262.8,683.9,261.4,683.1,261.2z"/>
	<path d="M682.3,272.1c-1.1-2.4-5.1-3.2-7.4-4.2c-3.9-1.6-8-2.3-12.1-2.9c-0.9-0.1-1.3,1.2-0.4,1.4c2.9,0.5,5.7,1.1,8.5,1.9
		c3,0.9,7.6,2.7,9.9,5C681.6,274.1,682.7,273.1,682.3,272.1z"/>
	<path d="M671.7,279.5c-1.3-2.2-2.6-4.4-4.2-6.5c-1.6-2.1-3.5-3.9-5.2-5.9c-0.4-0.5-1.1,0.2-0.7,0.7c1.6,1.9,3.4,3.7,4.8,5.8
		c1.5,2.1,2.8,4.3,4.3,6.4C671.2,280.7,672.1,280.2,671.7,279.5z"/>
	<path d="M696,297c-3.6-3.1-8.1-4.9-12.7-5.5c-8.8-4.9-20.3,2.9-26.1,9.4c-3.8,4.3-5.6,10-6.1,15.6c-0.2,2.4,0.2,4.8,0.8,7.1
		c0.2,4.5,2,11.9,6.2,13.8c0.4,0.2,0.7,0.1,0.9-0.2c4.7,3.8,9.6,7.7,15.6,8.6c6.2,1,12.8-2.4,17.5-6.2c3-1.3,7.4-6.1,8.1-7
		C708.7,321.6,706.1,305.8,696,297z M662.2,311.7c3.8,3.7,10.1,3.7,15,4.6c4.5,0.8,9.2,1.5,13.3-0.8c0,1.4-0.1,2.7-0.2,4.1
		c-9.7,5.7-25.9,2.1-33-6C659,312.7,660.4,311.7,662.2,311.7z M672,343.7c-4.6-1.1-8.8-4.4-12.6-7.2c0.1-0.2,0.1-0.3-0.1-0.5
		c-0.3-0.4-0.5-0.7-0.8-1.1c-0.5-1.5-1.2-2.9-2-4.3c-1.8-5.2-1.8-11.4,0.4-16.3c6.8,8.8,23.8,11.9,33.6,6.6c0.1,0,0.2,0.1,0.2,0.1
		c-0.8,3.9-1.2,7.8-1.5,11.8c-0.1,2-0.9,4.8,0.3,6.7C684.4,342.8,678.5,345.3,672,343.7z"/>
	<path d="M667.9,326.4c-0.8-1-2.1-1.3-3.2-0.7c-1,0.6-1.4,1.9-1.1,3c0.1,0.6,0.4,1.1,0.8,1.4c0.1,0.1,0.2,0.2,0.3,0.3
		c0.3,0.2,0.6,0.3,1,0.2c1,0.1,1.8-0.5,2.4-1.2C668.8,328.5,668.6,327.2,667.9,326.4z"/>
	<path d="M677.9,328.7c-0.1-0.3-0.2-0.6-0.4-0.8c-0.5-1.1-1.7-1.9-2.9-1.6c-1.6,0.4-2.4,3.1-1.2,4.3c0.7,0.7,1.9,0.8,2.9,0.4
		c0.3-0.1,0.5-0.2,0.7-0.3c0.1-0.1,0.2-0.2,0.3-0.3C677.7,330,678,329.4,677.9,328.7z"/>
	<path d="M680,333.4c-3.9,3.2-9.2,4.2-13.9,2.3c-0.3-0.1-0.5,0.4-0.2,0.6c4.9,2.6,10.6,1.5,15.2-1.5C682,334,681,332.6,680,333.4z"
		/>
	<path d="M675.1,320.3c-2.2-1-4.4-2-6.6-2.9c-1.3-0.5-5.5-1.5-5.7-2.9c0-0.2-0.2-0.3-0.4-0.2c-0.5,0-0.5-0.3-0.1-0.7
		c0.1-0.2-0.2-0.4-0.4-0.4c-0.6,0.1-1,0.3-1.5,0.5c-0.2,0.1-0.2,0.4,0,0.5c0,0.2,0.1,0.3,0.1,0.5c0,0.3,0.3,0.4,0.4,0.1
		c0.2-0.9,0.8-1.5,0.3-0.1c-0.1,0.3,0.2,0.5,0.4,0.4c1.1-0.2,0.4,0.2,0.8,0.6c0.6,0.6,2.3,0.9,3,1.2c3.2,1.2,6.2,2.8,9.3,4.2
		C675.1,321.2,675.5,320.5,675.1,320.3z"/>
	<path d="M730.8,329.7c-0.5,0.7-1.1,1.3-1.7,1.8c-0.4-0.8-1.2-1.3-2.3-1.1c-2.3,0.5-1.7,4,0.6,3.7c0.4,0,0.8-0.2,1.2-0.4
		c0,0.7-0.1,1.4-0.3,1.9c-0.5,1.8-3.3,1.8-4.7,1.9c-0.3,0-0.4,0.5-0.1,0.5c2.5,0.5,5.5-0.1,6.1-2.9c0.1-0.6,0.1-1.3,0-2.1
		c1-0.8,1.9-2,2.2-3C732,329.5,731.1,329.2,730.8,329.7z M727.9,332c0.1,0.1,0.2,0.2,0.3,0.4c-0.2,0.1-0.4,0.2-0.5,0.4
		C726.2,333.5,726.9,331.1,727.9,332z"/>
	<path d="M722.8,353.2c0-0.1-0.1-0.2-0.1-0.4c-0.4-1-1.4-1.7-2.5-1.5c-1.8,0.3-2,2.5-1,3.6c0.6,0.8,1.7,1,2.6,0.5c0,0,0,0,0,0
		c0.2-0.1,0.3-0.2,0.5-0.3C722.9,354.7,723,353.9,722.8,353.2z"/>
	<path d="M731.1,352.8c-0.8-1-2.1-2.2-3.4-1.5c-0.3,0.2-0.5,0.4-0.7,0.8c-0.1,0.1-0.1,0.2-0.2,0.3c-0.5,0.9-0.3,2.1,0.2,2.9
		c0.5,0.9,1.7,1.3,2.6,1.5c0.7,0.1,1.5,0.1,2-0.5C732.6,355.3,731.8,353.7,731.1,352.8z"/>
	<path d="M728.6,361.6c-0.5-0.5-1.3,0.3-0.8,0.8c0.6,0.6,0.8,1-0.1,1.4c-1.1,0.4-2.4,0.3-3.5,0.2c-0.9-0.1-2-0.2-2.8-0.7
		c-0.1-0.1-0.1,0.1,0-0.2c0.3-0.5,1.1-0.7,1.5-1.1c0.3-0.3,0.1-0.9-0.3-0.8c-1.1,0.2-3.3,1.3-2.5,2.7c0.6,1.2,2.6,1.3,3.8,1.4
		c1.5,0.1,3.2,0,4.6-0.7C730,363.9,729.5,362.5,728.6,361.6z"/>
	<path d="M728.8,373.4c-0.1-0.2-0.1-0.3-0.2-0.5c-0.1-0.3-0.2-0.6-0.3-0.9c-0.9-1.8-3.2-2.9-5.1-2c-1.1,0.5-2.1,1.4-2.5,2.5
		c-0.2,0.3-0.3,0.6-0.4,0.9c-0.1,0.2,0,0.4,0.1,0.5c0,0.2,0,0.5,0.1,0.7c0.2,0.8,0.6,1.4,1.2,2c0,0.4,0,0.8,0.1,1.2
		c-0.1,1.4,0.3,2.9,1.3,4c0.2,0.4,0.5,0.7,0.9,1.1c1.7,1.6,4.5,1.6,6-0.2C732.1,380.3,731.4,375.5,728.8,373.4z M727.6,375.2
		c-0.4,0.7-1.3,1.1-2,1.3c-0.3,0.1-0.6,0.1-0.9,0.1c-0.1,0-0.2-0.1-0.3-0.1c-0.1,0-0.2-0.1-0.4-0.2c0.2-0.2,0.4-0.4,0.6-0.5
		c0.1,0,0.2,0,0.3,0c1,0,1.7-0.6,2-1.4c0.1,0.2,0.2,0.4,0.4,0.4C727.4,375,727.5,375.1,727.6,375.2z M724.1,373.7
		c0.1,0.1,0.2,0.1,0.3,0.1c0.4,0,0.9,0.1,1.3,0.1c-0.1,0.3-0.3,0.5-0.5,0.6c-0.1-0.2-0.3-0.3-0.6-0.4c-0.2,0-0.3,0-0.4,0
		C724.1,374,724.1,373.9,724.1,373.7z M722.8,374.6c0-0.1,0-0.1-0.1-0.2c-0.2-0.7-0.3-3.1,1-2.5c0.3,0.1,0.6-0.2,0.3-0.5
		c0,0-0.1-0.1-0.1-0.1c0.9-0.2,1.8-0.1,2.7,0.7c0.2,0.1,0.3,0.3,0.4,0.5c-0.1,0-0.1,0-0.2-0.1c-0.1,0-0.3,0-0.4,0
		c-0.8-0.2-1.6-0.4-2.4,0c-0.2,0.1-0.3,0.2-0.3,0.3c-0.2,0-0.3,0.1-0.4,0.3c-0.1,0.4-0.2,0.8-0.1,1.2
		C723.1,374.4,723,374.5,722.8,374.6z M728,380.6c-2.1,1.3-4-0.5-4.6-2.3c0-0.2,0.1-0.4,0.1-0.6c1.6,0.6,3.4,0.6,4.5-0.3
		c0.2-0.2,0.4-0.3,0.5-0.5c0.3,0.7,0.5,1.3,0.5,2C728.9,379.5,728.6,380.2,728,380.6z"/>
	<path d="M196.3,173.9c-9.3,0.6-18.5,0-27.8-0.6c-0.3-0.2-0.7-0.3-0.9-0.1c-0.8-0.1-1.5-0.1-2.3-0.2c-4.1-0.3-8.3-0.4-12.4-0.3
		c-0.1-0.4-0.7-0.4-0.8,0c-0.8,0-1.6,0-2.4,0c-1.4,0-5.5-0.5-6.4,0.9c-0.2,0.4,0.2,0.7,0.6,0.6c0.2-0.1,0.5-0.2,0.7-0.2
		c0.2,0,0.2-0.3,0.1-0.4c0.4,0.2,0.8,0.3,1.1,0.5c1.3-0.1,2.6-0.2,3.9-0.2c0.8,0,1.5,0,2.3-0.1c-0.2,2.6-0.4,5.2-0.4,7.9
		c0,0.4,0.4,0.7,0.7,0.6c5.1-1.6,10.2-1.3,15.4-1.2c0.4,0,0.7-0.3,0.7-0.7c0-2-0.1-3.9,0.2-5.9c0.2,0,0.3,0,0.5,0
		c2.2,0.2,4.4,0.4,6.7,0.5c-0.8,1.7-1.3,3.4-1.6,5.2c-0.1,0.3,0.1,0.6,0.4,0.7c5,1.8,10.2,2.8,15.4,3.3c0.3,0,0.6-0.2,0.7-0.5
		c1-2.7,1.9-5.4,2.6-8.1c1,0,2.1-0.1,3.1-0.1C197.3,175.5,197.3,173.9,196.3,173.9z"/>
	<path d="M175.5,185.9c-2.4-0.5-4.9-0.2-7.3-0.3c0.5-0.8,1.1-1.7,1.4-1.7c0.4,0.1,0.5-0.4,0.2-0.5c-1.3-1-2.8,1.7-3.3,2.5
		c-0.3,0.5,0.1,0.9,0.6,1c2.7,0.3,5.6,0.3,8.3,0.3C176,187.1,176.2,186,175.5,185.9z"/>
	<path d="M181.7,195.6c-7.5-0.3-15.1-0.6-22.5-1.3c-0.6-0.1-0.5,0.8,0,0.9c7.4,1,15,0.4,22.4,1.8
		C182.5,197.2,182.7,195.7,181.7,195.6z"/>
	<path d="M55.5,478.2c-1.1-0.5-2.4-0.3-3.2,0.6c-0.7,0.8-1.3,2.2-1.2,3.3c0,0.7,0.3,1.1,0.6,1.4c0.3,0.5,0.7,0.8,1.2,1
		c1.2,0.5,2.7-0.1,3.6-0.9C58.4,482.2,57.6,479.1,55.5,478.2z"/>
	<path d="M69.2,479.5c-0.5-1-1.8-1.6-2.9-1.8c-0.4-0.1-0.8-0.1-1.2,0c-0.2,0-0.4,0-0.7,0c-0.7,0.1-1.4,0.7-1.7,1.3
		c-0.3,0.8-0.2,1.7,0.3,2.4c0.3,0.7,1,1.3,1.7,1.7c0,0,0,0,0.1,0C67.2,484.5,70.6,482.2,69.2,479.5z"/>
	<path d="M70.4,489c-6.9,0.8-14.7,1.2-21.5-0.5c-0.4-0.1-0.6,0.6-0.2,0.7c7.2,1.9,14.4,0.6,21.7,1.4C71.4,490.6,71.4,488.9,70.4,489
		z"/>
	<path d="M129.1,478.2c-1.1-0.5-2.4-0.3-3.2,0.6c-0.7,0.8-1.3,2.2-1.2,3.3c0,0.7,0.3,1.1,0.6,1.4c0.3,0.5,0.7,0.8,1.2,1
		c1.2,0.5,2.7-0.1,3.6-0.9C132,482.2,131.2,479.1,129.1,478.2z"/>
	<path d="M142.8,479.5c-0.5-1-1.8-1.6-2.9-1.8c-0.4-0.1-0.8-0.1-1.2,0c-0.2,0-0.4,0-0.7,0c-0.7,0.1-1.4,0.7-1.7,1.3
		c-0.3,0.8-0.2,1.7,0.3,2.4c0.3,0.7,1,1.3,1.7,1.7c0,0,0,0,0.1,0C140.8,484.5,144.2,482.2,142.8,479.5z"/>
	<path d="M144,489c-6.9,0.8-14.7,1.2-21.5-0.5c-0.4-0.1-0.6,0.6-0.2,0.7c7.2,1.9,14.4,0.6,21.7,1.4C145,490.6,145,488.9,144,489z"/>
	<path d="M202.7,478.2c-1.1-0.5-2.4-0.3-3.2,0.6c-0.7,0.8-1.3,2.2-1.2,3.3c0,0.7,0.3,1.1,0.6,1.4c0.3,0.5,0.7,0.8,1.2,1
		c1.2,0.5,2.7-0.1,3.6-0.9C205.6,482.2,204.8,479.1,202.7,478.2z"/>
	<path d="M216.4,479.5c-0.5-1-1.8-1.6-2.9-1.8c-0.4-0.1-0.8-0.1-1.2,0c-0.2,0-0.4,0-0.7,0c-0.7,0.1-1.4,0.7-1.7,1.3
		c-0.3,0.8-0.2,1.7,0.3,2.4c0.3,0.7,1,1.3,1.7,1.7c0,0,0,0,0.1,0C214.4,484.5,217.8,482.2,216.4,479.5z"/>
	<path d="M217.6,489c-6.9,0.8-14.7,1.2-21.5-0.5c-0.4-0.1-0.6,0.6-0.2,0.7c7.2,1.9,14.4,0.6,21.7,1.4
		C218.6,490.6,218.6,488.9,217.6,489z"/>
	<path d="M274.1,478.2c-1.1-0.5-2.4-0.3-3.2,0.6c-0.7,0.8-1.3,2.2-1.2,3.3c0,0.7,0.3,1.1,0.6,1.4c0.3,0.5,0.7,0.8,1.2,1
		c1.2,0.5,2.7-0.1,3.6-0.9C277,482.2,276.1,479.1,274.1,478.2z"/>
	<path d="M287.8,479.5c-0.5-1-1.8-1.6-2.9-1.8c-0.4-0.1-0.8-0.1-1.2,0c-0.2,0-0.4,0-0.7,0c-0.7,0.1-1.4,0.7-1.7,1.3
		c-0.3,0.8-0.2,1.7,0.3,2.4c0.3,0.7,1,1.3,1.7,1.7c0,0,0,0,0.1,0C285.7,484.5,289.2,482.2,287.8,479.5z"/>
	<path d="M289,489c-6.9,0.8-14.7,1.2-21.5-0.5c-0.4-0.1-0.6,0.6-0.2,0.7c7.2,1.9,14.4,0.6,21.7,1.4C290,490.6,290,488.9,289,489z"/>
	<path d="M55.9,377.1c-0.4-0.4-0.9-0.7-1.4-0.9c-1.1-0.4-2.3,0.2-2.8,1.2c-0.4,0.3-0.7,0.7-0.9,1.2c-0.3,0.7,0,1.3,0.4,1.9
		c0.1,0.3,0.2,0.5,0.3,0.7c0.8,1.4,2.1,2.2,3.6,1.5c1.1-0.5,1.7-1.9,1.7-3.1C57,378.5,56.6,377.6,55.9,377.1z"/>
	<path d="M66.6,378.3c-0.8-2-3.3-2.6-5-1.6c-0.9,0-1.7,0.5-2.2,1.6c-0.7,1.7-0.1,4.2,1.5,5.2c0.6,0.4,1.2,0.3,1.7,0.1
		c0.3,0,0.5-0.1,0.8-0.1c0.6-0.1,1.1-0.2,1.6-0.5C66.5,382,67.2,379.9,66.6,378.3z"/>
	<path d="M73.1,390.2c-3.1-0.7-7-0.1-10.2-0.3c-4.2-0.2-8.7-0.3-12.8-0.8c-0.3,0-0.5,0.3-0.2,0.5c2.6,1.9,8,1.4,11.1,1.7
		c4,0.4,8,0.6,11.9,1C74,392.4,74.2,390.5,73.1,390.2z"/>
	<path d="M129.8,375.3c0.1-0.5,0-1-0.1-1.4c-0.7-2.7-4.7-2.6-5.8-0.4c0,0-0.1,0.1-0.1,0.1c-0.4,0.3-0.6,0.7-0.7,1.1
		c-0.4,0.3-0.6,0.8-0.6,1.4c0.1,1.6,2.3,2.6,3.7,2.8c0.2,0,0.4,0,0.6,0c0.1,0,0.2,0,0.4,0.1c1.4,0.1,2.7-1.2,2.9-2.6
		C130,376,129.9,375.6,129.8,375.3z"/>
	<path d="M141.7,376.2c-1.3-1.2-3.2-1-4.4,0.2c-0.2,0.2-0.4,0.4-0.5,0.6c-0.2,0.2-0.3,0.4-0.5,0.6c-0.8,1.3-0.5,3.3,0.5,4.3
		c1.9,1.9,5.4,0.6,6.3-1.6C143.7,378.9,142.7,377.2,141.7,376.2z"/>
	<path d="M140.2,393.4c-7.5-4.2-15-8.4-22.8-12.3c-0.4-0.2-0.7,0.3-0.3,0.6c7.2,4.5,15.4,7.8,22.1,13
		C140.2,395.5,141.2,394,140.2,393.4z"/>
	<path d="M203,375.3c-0.7-1.3-2.3-1.7-3.7-1.4c-0.1,0-0.1,0-0.2,0c-0.3,0-0.7,0.1-0.9,0.3c-0.6-0.1-1.2,0.1-1.7,0.5
		c-1.4,1.2,0.1,3.8,1.1,4.8c0.8,0.8,1.8,0.9,2.6,0.6c0.9,0.2,1.9,0.1,2.6-0.6C203.9,378.5,203.6,376.5,203,375.3z"/>
	<path d="M215.9,376.8c-0.4-2.3-2.9-3.3-5-3.2c0,0,0,0,0,0c-0.3-0.1-0.6,0-0.9,0.2c-0.6,0.2-1.2,0.5-1.6,0.9
		c-0.2,0.1-0.4,0.2-0.6,0.4c-1.4,1.3-0.4,4.2,0.9,5.2C211.3,382.3,216.7,380.7,215.9,376.8z"/>
	<path d="M219.5,393.4c-1.5-2.7-6.7-2.9-9.3-3.3c-5.5-0.7-11.9-0.5-16.9-3.1c-0.6-0.3-1.1,0.6-0.5,0.9c3.1,1.9,6.9,2.2,10.4,2.6
		c3.9,0.5,12.4,0,14.9,3.7C218.7,395,220,394.3,219.5,393.4z"/>
	<path d="M275.3,383.8c0-0.7-0.2-1.4-0.6-2c0-0.1,0-0.3,0-0.4c-0.3-2.1-2.1-3.2-3.9-2.5c-0.3-0.1-0.6-0.1-0.9-0.2
		c-3.1-0.3-5,3.6-4.4,6.2c0.5,1.8,2.2,2.9,4,3.1c0.6,0.4,1.3,0.6,2,0.7c2.6,0.3,3.7-1.9,3.6-4.2
		C275.2,384.3,275.3,384.1,275.3,383.8z"/>
	<path d="M286.2,383.1c0-0.3-0.1-0.7-0.3-1c-0.1-0.9-0.5-1.6-1.2-2c-0.3-0.3-0.6-0.5-1-0.8c-0.2-0.1-0.5-0.2-0.7-0.1
		c-0.8-0.2-1.7-0.1-2.2,0.7c-0.1,0.1-0.2,0.3-0.2,0.5c-0.6,0.2-0.8,0.8-0.8,1.5c0,0.3,0.2,0.6,0.3,0.9c-0.3,2.2,1.9,4.5,4.2,3.7
		C285.8,386,286.4,384.5,286.2,383.1z"/>
	<path d="M85.5,270c-1.1-1.3-2.8-1.6-4.2-0.4c-1.6,1.3-2.1,3.7-1,5.5c0,0,0,0,0.1,0.1c0.7,1.2,2.2,1.8,3.4,1.9
		C87.6,277.2,87.2,272,85.5,270z"/>
	<path d="M91.2,269.1c-0.5,0.3-0.8,0.8-0.9,1.4c0,0,0,0-0.1,0c-1.2,1-0.9,2.8,0,3.9c1.9,2.3,6.5,2.5,6.4-1.2
		C96.5,270.8,93.8,267.3,91.2,269.1z"/>
	<path d="M104.9,278.9c-0.1-0.9-1.4-0.9-1.4,0c0,5.4-8.9,4.1-12.7,4.1c-4.2,0-8.4,0.2-12.4,1.6c-0.5,0.2-0.3,0.9,0.2,0.8
		c6.6-2.2,13.6-1.2,20.3-1.6C102.8,283.4,105.3,283.4,104.9,278.9z"/>
	<path d="M166.1,267.8c-0.7-0.8-1.9-1.3-2.9-1.6c-0.3-0.1-0.6,0-0.8,0.2c-1,1.1-2.5,3.1-1.4,4.6c0.1,0.1,0.2,0.2,0.3,0.3
		c0,0.1,0.1,0.2,0.1,0.3c0,0.1,0.1,0.1,0.1,0.2l0,0c0.2,0.5,0.5,0.9,0.8,1.1c0,0.1,0.1,0.2,0.1,0.2c1.7,2.6,5.5-0.2,5.6-2.6
		C168,269.5,167.2,268.5,166.1,267.8z"/>
	<path d="M177.5,269.6c-0.7-1.7-2.1-3.3-3.9-3.4c-2.4-0.2-3.8,2-3.4,4.1c0.1,0.7,0.5,1.4,0.9,2c0.2,0.4,0.5,0.9,0.8,1.2
		c0.8,1.1,2.2,1.8,3.6,1.5c0.5-0.1,1-0.4,1.4-0.8c0.7-0.2,1.3-0.4,1.8-0.9C179.6,272.2,178.9,270.7,177.5,269.6z"/>
	<path d="M180.8,280.2c-8.8,0.7-17.9-0.8-26.7-1.8c-0.5,0-0.6,0.7-0.1,0.8c8.9,1.5,17.8,1.8,26.8,2.7
		C181.8,282,181.8,280.2,180.8,280.2z"/>
	<path d="M243.9,262.1c-2.6-0.5-5.5,0.7-6.6,3.1c-0.2,0.4-0.3,0.9-0.4,1.4c-0.4,1-0.6,2.2-0.5,3.3c0.5,3.2,3.4,5.3,6.5,4.7
		c3.1-0.5,5.4-2.9,5.8-6C249.1,265.6,246.8,262.7,243.9,262.1z"/>
	<path d="M256.3,264c-0.1-0.1-0.3-0.1-0.4-0.1c-0.3-0.1-0.8,0-1,0.3c-0.2,0.2-0.4,0.4-0.5,0.7c-0.7,0.5-1.3,1.2-1.6,2.1
		c-0.2,0.8-0.1,1.6,0.2,2.3c0.1,0.5,0.3,0.9,0.9,1.2c0.1,0.2,0.3,0.3,0.4,0.4c0.3,0.4,0.7,0.7,1.2,1c1,0.7,2.5,1,3.7,0.6
		c1.5-0.5,2.1-2,2.2-3.4C261.7,265.9,259.3,263.5,256.3,264z"/>
	<path d="M257.3,278.8c-3.6,0.4-7.5-0.1-11.1-0.3c-2.9-0.2-8.7,0.1-10.9-2.2c-0.3-0.3-0.8,0-0.7,0.4c1,2.4,5,2.6,7.2,2.9
		c4.9,0.7,10.3,0.1,15.1,1.2C258.6,281.2,258.6,278.6,257.3,278.8z"/>
</g>
</svg>
