<?xml version="1.0" encoding="utf-8"?>
<!-- Generator: Adobe Illustrator 18.0.0, SVG Export Plug-In . SVG Version: 6.00 Build 0)  -->
<!DOCTYPE svg PUBLIC "-//W3C//DTD SVG 1.1//EN" "http://www.w3.org/Graphics/SVG/1.1/DTD/svg11.dtd">
<svg version="1.1" xmlns="http://www.w3.org/2000/svg" xmlns:xlink="http://www.w3.org/1999/xlink" x="0px" y="0px" width="792px"
	 height="612px" viewBox="0 0 792 612" enable-background="new 0 0 792 612" xml:space="preserve">
<g id="Layer_2" display="none">
	<circle display="inline" fill="#FAA41A" cx="396" cy="306" r="80"/>
</g>
<g id="Layer_1">
	<path d="M480.9,375.8h-11.5c-0.3,0-0.4,0.2-0.4,0.5v2.4c0,0.7,0.1,1.3,0.4,1.9c0.2,0.6,0.6,1.1,1,1.5c0.4,0.4,0.9,0.8,1.5,1
		c0.6,0.3,1.2,0.4,1.9,0.4c1.1,0,2.1-0.4,2.9-1.2c0.5-0.5,0.8-0.8,1-1.1c0.2-0.3,0.4-0.4,0.6-0.4c0.1,0,0.2,0,0.2,0l1.8,1
		c0.2,0.1,0.3,0.2,0.3,0.4c0,0.4-0.2,0.8-0.5,1.2c-0.3,0.5-0.8,0.9-1.4,1.3c-0.6,0.4-1.3,0.7-2.2,1c-0.8,0.3-1.8,0.4-2.8,0.4
		c-2.4,0-4.2-0.7-5.6-2c-1.4-1.3-2-3.1-2-5.4v-6.1c0-0.8,0.2-1.7,0.5-2.6c0.4-0.9,0.9-1.7,1.5-2.4c1.5-1.6,3.3-2.4,5.5-2.4
		c1.1,0,2,0.2,3,0.6c0.9,0.4,1.8,1,2.5,1.6c0.7,0.7,1.3,1.5,1.6,2.4c0.4,0.9,0.6,1.8,0.6,2.8v2.8
		C481.3,375.7,481.2,375.8,480.9,375.8z M478.4,372.6c0-0.6-0.1-1.2-0.4-1.8c-0.2-0.6-0.6-1.1-1-1.5c-0.4-0.4-0.9-0.8-1.5-1
		c-0.6-0.3-1.2-0.4-1.9-0.4c-0.7,0-1.3,0.1-1.9,0.4c-0.6,0.3-1.1,0.6-1.5,1c-0.4,0.4-0.7,0.9-1,1.5c-0.2,0.6-0.4,1.2-0.4,1.9v0.6
		c0,0.3,0.1,0.5,0.4,0.5h8.5c0.3,0,0.4-0.2,0.4-0.5V372.6z M462.4,370.4c-0.1,0-0.1,0-0.2,0c-0.1,0-0.2-0.1-0.4-0.2
		c-0.3-0.3-0.6-0.6-0.9-0.9c-0.3-0.3-0.6-0.6-0.9-0.8c-0.3-0.2-0.7-0.4-1-0.6c-0.4-0.1-0.8-0.2-1.3-0.2c-0.7,0-1.3,0.1-1.9,0.4
		c-0.6,0.3-1.1,0.6-1.5,1c-0.4,0.4-0.7,0.9-1,1.5c-0.2,0.6-0.4,1.2-0.4,1.9v6.1c0,0.7,0.1,1.3,0.4,1.9c0.2,0.6,0.6,1.1,1,1.5
		c0.4,0.4,0.9,0.8,1.5,1c0.6,0.3,1.2,0.4,1.8,0.4c1.1,0,2-0.4,2.9-1.2c0.5-0.5,0.8-0.8,1-1.1c0.2-0.3,0.4-0.4,0.5-0.4
		c0.1,0,0.2,0,0.2,0l1.8,1c0.2,0.1,0.3,0.2,0.3,0.4c0,0.4-0.2,0.8-0.5,1.2c-0.3,0.5-0.8,0.9-1.4,1.3c-0.6,0.4-1.3,0.7-2.2,1
		c-0.8,0.3-1.8,0.4-2.8,0.4c-2.3,0-4.2-0.7-5.6-2c-1.4-1.3-2-3.1-2-5.4v-6.1c0-2.3,0.7-4.1,2-5.4c1.4-1.3,3.2-2,5.6-2
		c1,0,2,0.1,2.8,0.4c0.8,0.3,1.6,0.6,2.2,1c0.6,0.4,1.1,0.8,1.4,1.3c0.3,0.5,0.5,0.9,0.5,1.2c0,0.2-0.1,0.3-0.3,0.4L462.4,370.4z
		 M449.7,368.9c-0.2,0-0.4,0-0.7-0.1c-0.3,0-0.6-0.1-1-0.1c-0.7,0-1.3,0.1-1.9,0.4c-0.6,0.2-1.1,0.6-1.5,1c-0.4,0.4-0.7,0.9-1,1.5
		c-0.2,0.6-0.4,1.2-0.4,1.9v11.7c0,0.3-0.1,0.5-0.4,0.5h-2.1c-0.3,0-0.4-0.2-0.4-0.5v-19.1c0-0.3,0.1-0.5,0.4-0.5h1.6
		c0.3,0,0.4,0.2,0.4,0.5v2.3c0,0.3,0.1,0.5,0.3,0.5c0.2,0,0.6-0.2,1-0.7c0.4-0.5,1-1.1,1.8-1.7c0.2-0.2,0.5-0.4,0.9-0.5
		c0.4-0.2,0.8-0.2,1.1-0.2h1.6c0.3,0,0.4,0.2,0.4,0.5v2.3C450.1,368.7,449.9,368.9,449.7,368.9z M436.5,385.7h-1.6
		c-0.3,0-0.4-0.2-0.4-0.5v-1.9c0-0.3-0.1-0.5-0.4-0.5c-0.2,0-0.4,0.2-0.7,0.5c-0.2,0.3-0.6,0.7-1,1.1c-0.9,0.9-2.2,1.4-3.6,1.4
		c-1,0-1.9-0.2-2.8-0.5c-0.9-0.4-1.6-0.9-2.3-1.5c-0.6-0.6-1.2-1.4-1.5-2.4c-0.4-0.9-0.5-1.9-0.5-3v-12.1c0-0.3,0.1-0.5,0.4-0.5h2.1
		c0.3,0,0.4,0.2,0.4,0.5v12.1c0,0.7,0.1,1.3,0.4,1.9c0.2,0.6,0.6,1.1,1,1.5c0.4,0.4,0.9,0.8,1.5,1c0.6,0.3,1.2,0.4,1.8,0.4
		c0.7,0,1.3-0.1,1.9-0.4c0.6-0.3,1.1-0.6,1.5-1c0.4-0.4,0.8-1,1-1.5c0.2-0.6,0.4-1.2,0.4-1.9v-12.1c0-0.3,0.1-0.5,0.4-0.5h2.1
		c0.3,0,0.4,0.2,0.4,0.5v19.1C436.9,385.5,436.8,385.7,436.5,385.7z M411.6,386.1c-2.3,0-4.2-0.7-5.6-2c-1.4-1.3-2-3.1-2-5.4v-6.1
		c0-2.3,0.7-4.1,2-5.4c1.4-1.3,3.2-2,5.6-2c1.2,0,2.2,0.2,3.2,0.5s1.7,0.9,2.4,1.5c0.7,0.6,1.2,1.4,1.6,2.3c0.4,0.9,0.5,1.9,0.5,3
		v6.1c0,2.2-0.7,4-2.1,5.4C415.8,385.5,414,386.1,411.6,386.1z M416.4,372.6c0-0.6-0.1-1.2-0.4-1.8c-0.2-0.6-0.6-1.1-1-1.5
		c-0.4-0.4-0.9-0.8-1.5-1c-0.6-0.3-1.2-0.4-1.9-0.4c-0.7,0-1.3,0.1-1.9,0.4c-0.6,0.3-1.1,0.6-1.5,1c-0.4,0.4-0.7,0.9-1,1.5
		c-0.2,0.6-0.4,1.2-0.4,1.9v6.1c0,0.7,0.1,1.3,0.4,1.9c0.2,0.6,0.6,1.1,1,1.5c0.4,0.4,0.9,0.8,1.5,1c0.6,0.3,1.2,0.4,1.9,0.4
		c0.6,0,1.3-0.1,1.9-0.4c0.6-0.3,1.1-0.6,1.5-1c0.4-0.4,0.7-1,1-1.5c0.2-0.6,0.4-1.2,0.4-1.9V372.6z M394.3,374
		c1.3,0.3,2.4,0.5,3.4,0.8c1,0.3,1.8,0.6,2.5,1c0.7,0.4,1.2,0.9,1.5,1.5c0.4,0.6,0.5,1.4,0.5,2.3c0,1.9-0.6,3.5-1.9,4.7
		c-1.3,1.2-3,1.8-5.1,1.8h-1.4c-1,0-2-0.1-2.8-0.4c-0.8-0.3-1.5-0.6-2.1-1c-0.6-0.4-1-0.8-1.4-1.3c-0.3-0.5-0.5-0.9-0.5-1.2
		c0-0.1,0.1-0.2,0.3-0.3l1.7-0.9c0.1,0,0.1,0,0.2,0c0.1,0,0.2,0.1,0.4,0.2c0.3,0.3,0.6,0.6,0.8,1c0.3,0.3,0.6,0.6,0.9,0.8
		c0.3,0.2,0.7,0.4,1.1,0.6c0.4,0.1,0.9,0.2,1.4,0.2h1.4c1.2,0,2.2-0.3,2.9-1c0.7-0.6,1.1-1.4,1.1-2.4c0-1.6-1.4-2.7-4.3-3.3
		c-1.3-0.3-2.4-0.5-3.4-0.8c-1-0.2-1.8-0.6-2.5-1c-0.7-0.4-1.2-0.9-1.5-1.5c-0.3-0.6-0.5-1.4-0.5-2.4c0-1.9,0.6-3.4,1.8-4.6
		c1.2-1.2,2.9-1.7,4.9-1.7h1.4c1,0,1.9,0.1,2.7,0.4c0.8,0.3,1.5,0.6,2.1,1c0.6,0.4,1.1,0.8,1.4,1.3c0.3,0.5,0.5,0.8,0.5,1.2
		c0,0.1-0.1,0.2-0.3,0.3l-1.7,0.9c-0.1,0-0.1,0-0.2,0c-0.1,0-0.2-0.1-0.4-0.2c-0.6-0.7-1.2-1.3-1.8-1.7c-0.6-0.5-1.4-0.7-2.4-0.7
		h-1.4c-1.3,0-2.3,0.3-2.9,0.8c-0.7,0.5-1,1.3-1,2.2c0,0.9,0.4,1.7,1.1,2.2C391.7,373.3,392.8,373.7,394.3,374z M378.8,386.4h-3.1
		c-0.3,0-0.4-0.2-0.4-0.5v-12.2c0-0.5-0.1-1.1-0.3-1.6c-0.2-0.5-0.5-0.9-0.8-1.3c-0.4-0.4-0.8-0.7-1.3-0.9c-0.5-0.2-1-0.3-1.6-0.3
		c-1.1,0-2.1,0.4-2.8,1.2c-0.8,0.8-1.1,1.8-1.1,2.9V386c0,0.3-0.1,0.5-0.4,0.5h-3.1c-0.3,0-0.4-0.2-0.4-0.5v-19.5
		c0-0.3,0.1-0.5,0.4-0.5h2.6c0.3,0,0.4,0.2,0.4,0.5v0.5c0,0.3,0.1,0.5,0.3,0.5c0.1,0,0.3-0.1,0.6-0.2c0.2-0.2,0.5-0.3,0.9-0.5
		c0.4-0.2,0.8-0.4,1.3-0.5c0.5-0.2,1-0.2,1.7-0.2c1.1,0,2.1,0.2,3.1,0.6c0.9,0.4,1.7,0.9,2.4,1.6c0.7,0.7,1.2,1.5,1.6,2.4
		c0.4,0.9,0.6,2,0.6,3.1V386C379.2,386.3,379.1,386.4,378.8,386.4z M361,376.9h-11c-0.3,0-0.4,0.2-0.4,0.5v1.8
		c0,0.5,0.1,1.1,0.3,1.6c0.2,0.5,0.5,0.9,0.8,1.3c0.4,0.4,0.8,0.7,1.3,0.9c0.5,0.2,1,0.3,1.6,0.3c0.5,0,1-0.1,1.4-0.3
		c0.4-0.2,0.8-0.4,1-0.7c0.5-0.6,0.9-1.1,1.1-1.4c0.2-0.3,0.4-0.5,0.5-0.5c0.1,0,0.1,0,0.3,0.1l2.8,1.5c0.2,0.1,0.3,0.2,0.3,0.3
		c0,0.2-0.1,0.5-0.4,1c-0.3,0.5-0.8,1.1-1.4,1.7c-1.3,1.3-3.1,1.9-5.5,1.9c-1.2,0-2.3-0.2-3.3-0.5c-1-0.4-1.8-0.9-2.5-1.6
		c-0.7-0.7-1.2-1.5-1.6-2.4c-0.4-1-0.6-2-0.6-3.1v-5.9c0-1,0.2-2,0.6-2.9c0.4-0.9,1-1.8,1.7-2.4c0.7-0.7,1.6-1.3,2.5-1.7
		c1-0.4,2-0.6,3.1-0.6c1.1,0,2.1,0.2,3.1,0.6c1,0.4,1.8,1,2.5,1.7c0.7,0.7,1.3,1.5,1.7,2.4c0.4,0.9,0.6,1.9,0.6,2.9v3.2
		C361.4,376.7,361.3,376.9,361,376.9z M357.1,371.6c-0.2-0.5-0.5-0.9-0.9-1.2c-0.4-0.3-0.8-0.6-1.3-0.8c-0.5-0.2-1-0.3-1.5-0.3
		c-0.5,0-1,0.1-1.5,0.3c-0.5,0.2-0.9,0.5-1.3,0.9c-0.4,0.4-0.6,0.8-0.9,1.2c-0.2,0.5-0.3,0.9-0.3,1.4c0,0.2,0,0.4,0.1,0.5
		c0,0.1,0.2,0.2,0.4,0.2h7c0.2,0,0.3-0.1,0.4-0.2c0-0.1,0.1-0.3,0.1-0.6C357.5,372.5,357.3,372,357.1,371.6z M342.2,384.2
		c-0.7,0.7-1.4,1.2-2.3,1.6c-0.9,0.4-1.8,0.6-2.9,0.6c-0.6,0-1.2-0.1-1.7-0.2c-0.5-0.2-0.9-0.3-1.3-0.5c-0.4-0.2-0.6-0.4-0.9-0.5
		c-0.2-0.2-0.4-0.2-0.5-0.2c-0.2,0-0.4,0.2-0.4,0.5v10.7c0,0.3-0.1,0.5-0.4,0.5h-3.1c-0.3,0-0.4-0.2-0.4-0.5v-29.7
		c0-0.3,0.1-0.5,0.4-0.5h2.6c0.3,0,0.4,0.2,0.4,0.5v0.5c0,0.3,0.1,0.5,0.3,0.5c0.1,0,0.3-0.1,0.6-0.2c0.2-0.2,0.5-0.3,0.9-0.5
		c0.4-0.2,0.8-0.4,1.3-0.5c0.5-0.2,1-0.2,1.7-0.2c1.1,0,2.1,0.2,3.1,0.6c0.9,0.4,1.7,0.9,2.4,1.6c0.7,0.7,1.2,1.5,1.6,2.4
		c0.4,0.9,0.6,2,0.6,3.1v5c0,1.1-0.2,2.1-0.5,3.1C343.4,382.7,342.8,383.5,342.2,384.2z M340.3,373.7c0-0.5-0.1-1.1-0.3-1.6
		c-0.2-0.5-0.5-0.9-0.8-1.3c-0.4-0.4-0.8-0.7-1.3-0.9c-0.5-0.2-1-0.3-1.6-0.3c-1.1,0-2.1,0.4-2.8,1.2c-0.8,0.8-1.1,1.8-1.1,2.9v5
		c0,1.1,0.4,2.1,1.1,2.9c0.8,0.8,1.7,1.2,2.8,1.2c0.6,0,1.1-0.1,1.6-0.3c0.5-0.2,0.9-0.5,1.3-0.9c0.4-0.4,0.6-0.8,0.8-1.3
		c0.2-0.5,0.3-1,0.3-1.6V373.7z M324.3,384.8c-0.7,0.7-1.5,1.2-2.5,1.6c-1,0.4-2.1,0.5-3.3,0.5c-1.2,0-2.3-0.2-3.3-0.5
		c-1-0.4-1.8-0.9-2.5-1.6c-0.7-0.7-1.2-1.5-1.6-2.4c-0.4-1-0.6-2-0.6-3.1v-5.9c0-1.1,0.2-2.2,0.6-3.1c0.4-1,0.9-1.8,1.6-2.4
		c0.7-0.7,1.5-1.2,2.5-1.6c1-0.4,2-0.5,3.3-0.5c1.2,0,2.3,0.2,3.3,0.6c1,0.4,1.8,0.9,2.5,1.6c0.7,0.7,1.2,1.5,1.6,2.4
		c0.4,0.9,0.6,2,0.6,3.1v5.9c0,1.1-0.2,2.2-0.6,3.1C325.5,383.3,325,384.1,324.3,384.8z M322.5,373.3c0-1.1-0.4-2.1-1.1-2.9
		c-0.8-0.8-1.7-1.2-2.8-1.2c-1.1,0-2.1,0.4-2.8,1.2c-0.8,0.8-1.1,1.8-1.1,2.9v5.9c0,0.5,0.1,1.1,0.3,1.6c0.2,0.5,0.5,0.9,0.8,1.3
		c0.4,0.4,0.8,0.7,1.3,0.9c0.5,0.2,1,0.3,1.6,0.3c1.1,0,2.1-0.4,2.8-1.2c0.8-0.8,1.1-1.8,1.1-2.9V373.3z"/>
	<path fill="#1E532B" d="M386,250.5c12-2,24.6,0.1,35.3,6.1c10.6,5.9,19.2,15.4,23.8,26.7c4.7,11.2,5.4,24.1,1.9,35.8
		c-4.6,16.2-17.3,29.8-33.1,35.5c-1.3,0.6-2.3-0.7-2.6-1.8c-3.9-10.4-7.9-20.9-11.7-31.3c-0.9-1.9,1.4-2.6,2.7-3.2
		c6.9-3.3,10.5-11.8,8.1-19c-1.7-5.9-7.1-10.5-13.2-11.3c-7-1.1-14.3,3-17.1,9.4c-2.7,5.8-1.4,13.1,3.1,17.7c1.8,2,4.2,3.1,6.5,4.3
		c1,0.6,0.7,1.9,0.3,2.8c-3.9,10.3-7.7,20.7-11.7,31c-0.3,0.9-1.2,1.9-2.2,1.5c-19.1-6.7-33.3-25-35.1-45.1
		c-1.4-13.2,2.3-26.9,10.2-37.6C359.4,260.6,372.2,252.7,386,250.5L386,250.5z"/>
	<path fill="#3AAA54" d="M383.4,254.9c10-2.4,20.7-1.6,30.2,2.2c10.9,4.3,20.2,12.6,25.8,22.9c5,9.2,7,19.9,5.7,30.3
		c-1.3,10.6-6.1,20.7-13.5,28.5c-4.8,5.1-10.8,9.1-17.2,11.9c-3.6-9.6-7.3-19.1-10.7-28.8c5.8-3,10.1-8.7,10.9-15.2
		c1.4-8.8-4.2-18.1-12.6-21.1c-7.7-3.1-17.2-0.6-22.4,5.9c-5,5.9-6,14.9-2.3,21.7c1.9,3.8,5.2,6.7,8.9,8.8
		c-3.6,9.6-7.2,19.1-10.8,28.7c-9.9-4.1-18.4-11.5-23.9-20.7c-4.7-7.7-7.2-16.8-7.2-25.8c-0.1-11.2,3.7-22.4,10.7-31.2
		C362.1,264,372.2,257.5,383.4,254.9L383.4,254.9z"/>
	<g>
		<path fill="#1E532B" d="M463.5,349.6c-0.8-2.2-1.3-4.5-1.6-6.7c-1.2,2.5-2.6,4.9-3.9,7.3c-1.3-2.4-2.7-4.8-3.9-7.3
			c-0.4,2.3-1,4.6-1.5,6.9c-0.6,0-1.3,0-1.9,0c0.9-4,2.1-7.9,2.9-11.9c1.5,2.8,3,5.6,4.4,8.4c1.6-2.7,2.9-5.6,4.4-8.4
			c0.9,4,2.1,7.9,3,11.9C464.9,349.8,464,349.7,463.5,349.6z"/>
		<path fill="#1E532B" d="M446.2,340c0,3.3,0,6.5,0,9.8c-0.7,0-1.4,0-2,0c0-3.3,0-6.5,0-9.8c-1.1,0-2.2,0-3.4,0c0-0.5,0-1,0-1.5
			c2.9,0,5.8,0,8.8,0c0,0.5,0,1,0,1.6C448.4,340,447.3,340,446.2,340z"/>
	</g>
</g>
</svg>
