<?xml version="1.0" encoding="utf-8"?>
<!-- Generator: Adobe Illustrator 18.0.0, SVG Export Plug-In . SVG Version: 6.00 Build 0)  -->
<!DOCTYPE svg PUBLIC "-//W3C//DTD SVG 1.1//EN" "http://www.w3.org/Graphics/SVG/1.1/DTD/svg11.dtd">
<svg version="1.1" xmlns="http://www.w3.org/2000/svg" xmlns:xlink="http://www.w3.org/1999/xlink" x="0px" y="0px" width="792px"
	 height="612px" viewBox="0 0 792 612" enable-background="new 0 0 792 612" xml:space="preserve">
<g id="Layer_2" display="none">
	<circle display="inline" fill="#FAA41A" cx="396" cy="306" r="80"/>
</g>
<g id="Layer_1">
	<path fill="#4E2F1B" d="M436.8,231.9c-2.5-4.7-9.8-9-14.8-10.3c-0.3-0.1-0.6-0.1-0.8-0.2c-2.8-3.1-6.3-4.5-10.9-4.1
		c-1.3,0.1-2.4,0.5-3.5,1c-3.7-4.5-14.7,0.3-13.8,6.1c-0.2-0.1-0.3-0.1-0.5-0.2c-0.6-6-8.9-7.1-14.1-6.9c-10,0.4-18.5,7.5-23.3,15.7
		c-0.7,1.2,0.9,2.6,1.9,1.6c0.3,0.1,0.5,0,0.8-0.2c3.1-2.8,6.1-4.2,9.3-4.9c-2.5,3.1-4,7.2-4.5,11.2c0,0.1-0.1,0.3-0.1,0.4
		c-0.1,0.3-0.1,0.6,0,0.9c0,0.6-0.1,1.2-0.1,1.8c0,0.5-0.1,0.9-0.1,1.4c-0.3,1.3,1.7,1.8,2,0.5c0.1-0.3,0.1-0.5,0.2-0.7
		c0.1-0.2,0.2-0.4,0.2-0.6c0-0.2,0-0.3,0-0.5c0.2-0.3,0.3-0.5,0.5-0.7c0.2-0.1,0.4-0.3,0.6-0.5c0-0.1,0.1-0.1,0.1-0.2
		c0.1,0,0.1-0.1,0.2-0.1c0.1-0.1,0.2-0.2,0.2-0.3c0.2-0.3,0.4-0.7,0.7-1c1.8-2.4,4.3-4.4,7.2-5.2c-1.4,2.9-1.9,6.2-1,9.3
		c0.1,0.5,0.5,0.7,0.9,0.7c0,0,0,0,0.1,0c0.1,0,0.1,0,0.2-0.1c0.3-0.1,0.6-0.3,0.7-0.7c0.4-1.1,0.7-2.1,1-3.2c0.9-1.6,2.1-3,3.4-4.2
		c0.1-0.1,0.2-0.2,0.3-0.3c6.7-5.7,17.5-6.5,24.4-0.3c0.7,0.6,1.6,0.4,2-0.2c0.5,0.2,1.1,0.2,1.6-0.4c0.3,0,0.6-0.2,0.9-0.5
		c2.9-3.3,8-5.1,13.1-5.3c2.3,1.7,4.4,3.7,6.2,5.9c0.7,0.8,2.1-0.1,1.7-1c-0.4-1.2-0.7-2.5-1-3.7c0,0,0-0.1,0.1-0.1
		c0-0.1,0-0.1,0-0.2c1.8,0.6,3.4,1.4,4.7,2.6C435.3,236.1,437.9,234,436.8,231.9z"/>
	<path fill="#4E2F1B" d="M339.5,290.4c-3.3,0.9-5.3,4.6-5.7,7.8c-0.3,3.1,1.1,6.7,3.5,8.7c2.9,2.5,5.6-0.1,5.7-3.3
		c0.1-1.6-2.3-1.8-2.7-0.4c-0.1,0.4-0.2,0.9-0.4,1.3c-0.1,0.3-0.2,0.3-0.2,0.4c-0.6-0.2-1-1-1.3-1.4c-1-1.5-1.7-3.5-1.4-5.3
		c0.3-1.7,1.3-3.6,2.8-4.6c2.1-1.5,3.4,0.4,4,2.3c0.3,0.9,1.5,0.5,1.3-0.4C344.8,292.5,343,289.4,339.5,290.4z"/>
	<path fill="#385C89" d="M416.5,287.5c0.9,5.3,4.5,10.2,11.5,10c0.1,0,0.2,0,0.3-0.1c0.9,0.1,1.8,0.2,2.7,0
		c18.2-2.7,7-30.3-5.7-22.6c-5.1-1-8.2,3-8.9,7.9c-2.8-0.7-7.3-1-9.6,1.1c-0.9-2.2-2.3-4.2-4.1-5.9c-2.4-2.3-7.1-4.2-10.9-3.5
		c-1.5-0.1-3.1,0.6-4.3,1.3c-0.1,0-0.1,0.1-0.2,0.1c-8.7,0.7-10.9,11.6-8.2,18.7c2.9,7.7,12.9,6.7,19.3,4.9c2.8-0.5,5.5-2.1,7.3-4.6
		c2.1-2.9,2.5-6,1.7-9c1.5-1.7,5.4-1.4,7.9-0.9 M425.1,277.7c0.3,0.1,0.7,0.1,1-0.1c11.4-6.2,18,16.4,4,17.3
		c-4.5,0.3-6.9-4.6-7.7-8.3C421.7,282.9,422.6,279.8,425.1,277.7z M404.2,292.2c-3,5.7-10,6.1-14.5,2.2c-4.5-3.9-4.6-9.6-1.9-14.3
		c0.4,0.2,0.8,0.2,1.3-0.1c1.8-1,2.9-2.3,5.2-2.4c2.2-0.1,4.3,1,6.1,2.2C404.3,282.5,406.5,287.8,404.2,292.2z"/>
	<path fill="#4E2F1B" d="M438.6,322.6c-0.6-1.2-2.4-0.6-2.4,0.7c-0.2,3.9,3.7,5.7,5.7,8.6c2.8,4.1-3.5,6.9-6.3,7.6
		c-3,0.7-6.2,0.7-9.2,0.9c-7.7,0.5-15.1,2.6-22.9,2.5c-5.6-0.1-15-1.4-18.8-5.9c-0.6-0.7-1.7,0.2-1.2,0.9c3.5,5.3,12.2,6,17.9,6.9
		c1.7,0.3,3.4,0.4,5,0.4c-1.3,2.7,2.1,6,4.3,7.2c3.3,1.8,6.6,0.8,8.9-1.6c1.7,2.4,5.2,3,8.2,2.5c4.3-0.8,5-6.2,4.8-10.1
		c5.1-0.5,11-1.9,12.5-7.2C446.7,329.9,441.1,327.3,438.6,322.6z M429.6,348.4c-1.1,4.1-7.8,3.7-8.6-0.2c-0.2-1-1.6-1.1-2.1-0.3
		c-1.8,3.1-4.7,3.7-7.7,2c-2.1-1.2-2.1-2.9-2.8-4.7c7.2-0.1,14.4-1.5,21.5-1.9c0,0,0.1,0,0.1,0C430.2,345,430,346.7,429.6,348.4z"/>
	<path fill="#4E2F1B" d="M385.7,333.6c-2.1-0.5-3.7,0.3-4.7,2.2c-0.9,1.6-1.3,4.2-0.3,5.9c0.5,0.9,2,0.5,2-0.5c0-2-0.1-6,2.9-6.1
		C386.3,335,386.5,333.8,385.7,333.6z"/>
	<path fill="#6A9AD1" d="M417.9,384.1c1-3.4,4.2-10.9-1.5-12.3c-6.2-1.5-12.9,3-13.9,9.2c-1.4-0.4-3.5-0.7-5-0.5
		c0,0-0.1-0.1-0.1-0.1c-0.4-0.3-0.7-0.4-1.1-0.4c-2-3.8-6.5-8.3-10.5-9.4c-0.1,0-0.3-0.1-0.4,0c0,0-0.1,0-0.1-0.1
		c-0.5-0.2-1-0.4-1.5-0.4c-0.1,0-0.2-0.1-0.3-0.1c-5.3-0.8-5.5,6.1-4.6,10.3c1,4.6,0.4,8.3,0,12.9c-0.3,3.4,0.7,6.3,3.8,8
		c2.8,1.5,5.5,0.9,7.9-0.8c0.4,0.3,1,0.4,1.4-0.1c1.3-1.3,2.4-2.8,3.4-4.5c2.1,1.8,5.3,0.7,7.5-1.1c2.4,4.8,9,6.3,14,4.5
		C424.2,396.7,416.6,388.8,417.9,384.1z"/>
	<path fill="#395B88" d="M420,392.7c-0.4-1.3-2.5-0.8-2.1,0.6c0.5,1.6,0.1,2.6-0.8,3.2c-0.2,0.1-0.5,0.3-0.8,0.4
		c-1.7,0.6-4.2,0.4-5.8,0.3c-2.7-0.2-4.8-2.7-7.4-3.1c0.2-0.2,0.4-0.5,0.5-0.7c1.8-2.8,0.5-6.8-0.3-10c-0.1-0.5-0.2-1-0.4-1.6
		c-0.3-0.9-1.8-0.8-1.7,0.2c0.2,2.1,1.1,4.1,1.5,6.1c0.3,1.5,0.3,3-0.4,4.4c-0.2,0.4-0.5,0.8-0.8,1.1c-0.1,0-0.3,0-0.4,0
		c-1.1,0.3-2.1,0.6-3,0.5c-0.8-0.2-1.5-0.5-1.7-1.4c-0.1-0.4-0.1-0.9-0.1-1.3c0.1-0.9,0.2-1.8,0.3-2.6c0-0.9-1.3-0.9-1.4,0
		c-0.1,1.4-0.5,2.9-0.3,4.2c0,0.1-0.1,0.3-0.1,0.4c-0.2,0.1-0.3,0.2-0.4,0.4c-0.2,0-0.3,0.1-0.5,0.3c-1.8,2.2-3.8,4.4-6.5,5.5
		c-2.7,1.1-7.2-0.5-7.4-3.7c-0.1-0.8-1.2-0.8-1.2,0c-0.2,3.6,2.9,5.4,6.1,5.9c1.9,0.3,3.6-0.3,5.2-1.3c0.2,0.1,0.4,0.1,0.7,0
		c1.3-0.6,2.3-1.6,3.2-2.7c0.4-0.5,0.9-1.1,1.2-1.7c1.5,0.9,3.1,1.1,4.6,0.6c0.8-0.2,1.5-0.5,2.1-1.1c0.2-0.1,0.3-0.3,0.5-0.4
		c0.6,1.4,2.4,2.1,3.7,2.8c1.2,0.6,2.4,1.1,3.6,1.4c0.1,0.4,0.4,0.8,1,0.8c1.6,0.2,4.1-0.2,6.1-1.1C419.3,398,421.1,396.1,420,392.7
		z"/>
	<path fill="#4E2F1B" d="M415.4,284.8c-2.3,6.1,0.9,11.3,5.1,16.2c3.2,3.8,6.7,7.2,8,12.1c1.6,5.9-2.8,10.3-7.4,12.9
		c-1.6,0.3-3.2,0.3-4.8-0.2c-1.6-0.5-2.9-1.5-4.6-1.8c-1-0.2-2,1-1.1,1.9c3.1,2.8,8.1,3.3,11.7,1.5c0.1-0.1,0.2-0.2,0.3-0.3
		c6.9-3,10.3-9.9,7.5-17.3c-3-7.9-14.1-13.7-13.7-22.4"/>
</g>
</svg>
