<?xml version="1.0" encoding="utf-8"?>
<!-- Generator: Adobe Illustrator 18.1.1, SVG Export Plug-In . SVG Version: 6.00 Build 0)  -->
<!DOCTYPE svg PUBLIC "-//W3C//DTD SVG 1.1//EN" "http://www.w3.org/Graphics/SVG/1.1/DTD/svg11.dtd">
<svg version="1.1" id="Layer_1" xmlns="http://www.w3.org/2000/svg" xmlns:xlink="http://www.w3.org/1999/xlink" x="0px" y="0px"
	 viewBox="-3 -6 792 612" enable-background="new -3 -6 792 612" xml:space="preserve">
<g id="Layer_2" display="none">
	<circle display="inline" fill="#FAA41A" cx="393" cy="300" r="80"/>
</g>
<g id="Layer_1_1_">
	<circle fill="none" cx="393" cy="300" r="80"/>
	<circle fill="none" cx="393" cy="300" r="80"/>
	<path fill="#4E301B" d="M348,254c3.5-2.8,7.2-3.9,11.6-3.1c2.9,0.5,5.6,1.3,8.6,1.5c3.9,0.3,7.9-0.6,11.6-1.3
		c5.6-1.1,11-1.6,16.7-0.4c6.4,1.3,11.9,6.1,18.7,5.4c1.5-0.2,1.9,2.1,0.4,2.4c-4.7,0.8-8.6-1.1-13-2.8c-5.8-2.3-11-3.4-17.3-2.8
		c-5.3,0.4-10.4,2.4-15.8,2.3c-7.3,0-13.3-3.5-20.1,0.8C348.2,256.9,346.7,255.1,348,254z"/>
	<path fill="#4E301B" d="M350.5,261.3c3.8-2.1,8.8-1.2,13-0.8c7.3,0.7,14.8-0.6,22.2-0.7c7-0.1,12.8,2.1,19.2,4.7
		c3.6,1.4,7.3,3,11,3.9c2.7,0.6,5.1-0.1,7.5,1.6c0.8,0.6,0.1,1.8-0.8,1.5c-2.7-1-5.6-0.4-8.3-1c-2.5-0.6-4.9-1.7-7.4-2.5
		c-7.1-2.4-13.3-5.5-21-5.4c-6.3,0.1-12.6,1.1-18.9,1.1c-4.6-0.1-11.1-2.2-15.2,0.2C350.1,264.7,349,262.1,350.5,261.3z"/>
	<path fill="#4E301B" d="M392.3,270.7c7.9,2.1,15.4,4.4,22.6,8.4c1.4,0.8,0,2.3-0.9,1.8c-5.8-2.2-11.4-4.9-17.5-6.2
		c-3.2-0.7-7.6-3.4-10.3-0.3c-0.7,0.8-2.3,0.4-2-0.8C385,269.8,389.1,269.9,392.3,270.7z"/>
	<path fill="#4E301B" d="M380.5,279.4c0.6-0.7,1.3-1,2.1-1.3c0.4-0.1,0.9-0.5,1.4-0.7c0.2-0.2,0.4-0.3,0.7-0.3
		c0.3,0,0.5,0.1,0.8,0.3c0.6,0.4,0.6,1.2,0.2,1.7c-0.6,0.9-2,1.2-3,1.7c-0.7,0.3-1.3,1.7-1.7,2.3c-0.4,0.8-0.4,1.8-0.8,2.6
		c-0.4,0.9-1.6,0.9-2.1,0C377.3,283.7,379.2,280.8,380.5,279.4z"/>
	<path fill="#4E301B" d="M358.9,276.7c0.9,2,0.4,4.3,0.5,6.4c0,1.5-2.6,1.3-2.4-0.3c0.2-1.7,0.9-3.7,0.3-5.4
		C356.9,276.3,358.4,275.6,358.9,276.7z"/>
	<path fill="#4E301B" d="M337.1,273.8c2.3-3.3,5.7-5.5,9.6-6.6c2.1-0.6,4.3-0.1,6.2,0.6c2.9,1,6,2.2,8.7,3.4
		c0.7,0.3,0.5,1.7-0.4,1.5c-3.2-0.8-6.2-1.5-9.2-2.8c-5.6-2.3-9.6,2.1-13.3,5.5C337.8,276.4,336.4,274.9,337.1,273.8z"/>
	<path fill="#4E301B" d="M381.9,295.3c0.4-0.2,0.8-0.3,1.1-0.5c0.2,2.7,0.7,4.2,3.6,4.7c5.2,0.9,10.1,2.4,15.4,0.9
		c3.2-0.9,5.3-2.1,6.2-5.4c0.3-1.1,0.2-2.1-0.3-3c0.8-0.2,0.7-1.6-0.2-1.7c-8.9-0.6-19.1-2.5-26.9,3.2
		C380,294.3,380.9,295.7,381.9,295.3z M401.9,296c0.1-1.3-0.2-2.6-0.8-3.8c1.3,0,2.7,0,4,0c2.6,3.2-0.6,4.9-3.9,5.8
		C401.7,297.3,401.9,296.6,401.9,296z M384.4,294.3c1.3-0.4,2.6-0.8,3.9-1c-0.7,1.3-1,2.9-0.7,4.2
		C385.7,297.2,384.5,296.7,384.4,294.3C384.5,294.3,384.4,294.3,384.4,294.3z"/>
	<path fill="#4E301B" d="M336.8,286.3c0.5,0.4,1.1,0.7,1.8,0.9c-0.3,0.3-0.6,0.7-0.8,1c-0.4,0.2-0.7,0.5-0.7,1c0,0.2,0,0.4,0,0.6
		c-1.2,3.5-0.3,8.2,3.4,8.3c2.4,0.1,4.7-1.1,7-1.6c1.8-0.3,3.4-0.1,5.2-0.2c0.3,0,0.6-0.1,0.9-0.1c0.6,0.3,1.5,0.1,1.8-0.6
		c1.8-4.1-1.8-7.6-5.4-8.9c-3.4-1.2-9.5-3.2-13-1.8C336.4,285.2,336.4,286,336.8,286.3z M347.1,294.1c0.3-0.5,0.4-1,0.5-1.6
		c0.6-0.9,0.8-2.1,0.5-3.4c1.2,0.4,2.4,0.9,3.3,1.7c1,0.9,1.3,1.9,1.5,3c-0.9,0.2-2.3-0.1-3.1-0.1C348.9,293.8,348,294,347.1,294.1z
		 M339,293.4c0.4,0.3,0.8,0.5,1.2,0.7c0.8,0.6,1.8,1,2.8,1.2c-1.8,0.6-3.8,1-4-1C339,294.1,339,293.8,339,293.4z"/>
	<path fill="#4E301B" d="M348.9,315.4c0.9-1,2.3-1.6,3.5-2.3c3.5-2.1,4.9-5.8,5.9-9.6c0.2-1,1.5-0.8,1.5,0.2c0,4.5-1.4,8.2-5,11
		c-3.5,2.8-6.9,3.4-4.4,9.3c1.1,2.7,0.4,7.1,5.7,5.4c1.7-0.5,2.3,2.1,0.7,2.3c-2.8,0.4-4.5,0.4-6.9-1.1c-0.5-0.3-1-1.2-1.1-1.8
		c-0.5-2.7-1.2-4.9-2-7.5C345.9,319,347.4,316.9,348.9,315.4z"/>
	<path fill="#4E301B" d="M361.8,329.2c0.7-1.5,2.4-1.4,3.7-0.9c0.6,0.2,1.3,0.6,1.7,1c0.3,0.3,0.4,0.7,0.6,1l0,0
		c0.3,0.4,0.4,0.9,0,1.3l0,0c-0.3,0.4-1,0.6-1.5,0.2s-0.6-0.8-1.1-1.1c-0.3-0.2-0.7-0.4-1-0.4c-0.4-0.1-0.7,0.1-1.1,0.3
		C362.3,330.9,361.4,330.1,361.8,329.2z"/>
	<path fill="#4E301B" d="M371.4,333.4c1.6-0.6,3.3,0,4.9-1c1.5-1,2.6-3.5,2.5-5.3c0-1.1-2-1.5-2.7-1.9c-1.3-0.6-2-1.6-2.5-2.9
		c-0.3-0.7,0.7-1.3,1.2-0.7c1.2,1.7,3.5,1.5,5.1,2.5c1.7,1.1,1.9,3,1.4,4.8c-1.1,4.1-5.4,8.7-10,6.1
		C370.6,334.7,370.8,333.6,371.4,333.4z"/>
	<path fill="#4E301B" d="M344.6,347.3c2-2.2,3.8-3.2,6.8-2.8c2.1,0.3,4.2,1.2,6.1,2c3.2,1.3,6.3,0.6,9.5,0.1
		c1.7-0.3,16.2-2.7,16.3,2c0,0.6-0.6,1.1-1.2,0.7c-3.9-3.1-11.9-0.5-16.2,0.2c-2.7,0.4-5.1,0.7-7.7,0.2c-4-0.8-8-4.6-11.7-0.8
		C345.6,350.1,343.5,348.5,344.6,347.3z"/>
	<text transform="matrix(1 0 0 1 30.5881 395.8125)" fill="#395B88" font-family="'SourceSansPro-Semibold'" font-size="60">For the</text>
	<text transform="matrix(1 0 0 1 30.5881 467.8125)" fill="#395B88" font-family="'SourceSansPro-Semibold'" font-size="60">good feels</text>
	<text transform="matrix(1 0 0 1 30.5881 539.8125)" fill="#395B88" font-family="'SourceSansPro-Semibold'" font-size="60">bro.</text>
</g>
</svg>
