<?xml version="1.0" encoding="utf-8"?>
<!-- Generator: Adobe Illustrator 18.0.0, SVG Export Plug-In . SVG Version: 6.00 Build 0)  -->
<!DOCTYPE svg PUBLIC "-//W3C//DTD SVG 1.1//EN" "http://www.w3.org/Graphics/SVG/1.1/DTD/svg11.dtd">
<svg version="1.1" xmlns="http://www.w3.org/2000/svg" xmlns:xlink="http://www.w3.org/1999/xlink" x="0px" y="0px" width="792px"
	 height="612px" viewBox="0 0 792 612" enable-background="new 0 0 792 612" xml:space="preserve">
<g id="Layer_2" display="none">
	<circle display="inline" fill="#FAA41A" cx="396" cy="306" r="80"/>
</g>
<g id="Layer_1">
	<g>
		<g>
			<path fill="none" stroke="#395B88" stroke-miterlimit="10" d="M321.4,281.1"/>
		</g>
	</g>
	<g>
		<g>
			<polygon fill="#FAA41A" points="329,179.7 329,179.7 329,179.7 			"/>
			<path fill="#FAA41A" d="M425.5,231.6C425.5,231.6,425.5,231.6,425.5,231.6c-0.4,0.8-0.8,1.5-1.2,2.3
				C424.7,233.2,425.1,232.4,425.5,231.6z"/>
			<path fill="#FAA41A" d="M469.6,429c-4.5-4.5-8.5-9.6-11.8-15.1c-6-9.9-9.9-21.2-11.2-33.3c-0.3-2.7-0.4-5.4-0.4-8.2
				c0-1.3,0-2.5,0.1-3.8c0-0.1,0-0.3,0-0.4c0,0,0,0,0,0c0,0,0-0.1,0-0.1c0.1-1.2,0.2-2.4,0.3-3.6c0-0.2,0-0.4,0.1-0.6
				c0.1-1.2,0.3-2.3,0.4-3.4c0-0.2,0.1-0.4,0.1-0.6c0.1-0.4,0.1-0.9,0.2-1.3c0.1-0.7,0.3-1.4,0.4-2.2c0-0.1,0.1-0.3,0.1-0.4
				c0.2-1.1,0.5-2.2,0.8-3.3c0-0.1,0.1-0.2,0.1-0.3c0.3-1.1,0.6-2.2,0.9-3.3c0.1-0.2,0.1-0.4,0.2-0.6c0.2-0.7,0.4-1.3,0.7-2
				c-12.2-7.6-26.7-12-42.1-12c-14.1,0-27.3,3.7-38.8,10c-3.5-10.4-9.1-19.8-16.3-27.8c-2-2.3-4.2-4.4-6.5-6.4c0,0,0,0,0,0
				c-1.4-1.2-2.8-2.4-4.3-3.5c-2.4-1.8-4.8-3.5-7.4-5.1c-4.6-2.8-9.5-5.1-14.6-6.9c-1.2-0.4-2.4-0.8-3.6-1.2c0,0,0-0.1,0-0.1
				c0.1-0.8,0.3-1.7,0.4-2.5c-1.3-1.6-2.5-3.3-3.7-5c-8.6-12.8-13.7-28.2-13.7-44.7c0-1.3,0-2.5,0.1-3.8c0-0.2,0-0.3,0-0.5
				c0.1-1.2,0.2-2.4,0.3-3.6c0-0.2,0-0.4,0.1-0.6c0.1-1.2,0.3-2.3,0.4-3.4c0-0.2,0.1-0.4,0.1-0.6c0.2-1.2,0.4-2.3,0.6-3.5
				c0-0.1,0.1-0.3,0.1-0.4c0.2-1.1,0.5-2.2,0.8-3.3c0-0.1,0.1-0.2,0.1-0.3c0.3-1.1,0.6-2.2,0.9-3.3c0.1-0.2,0.1-0.4,0.2-0.6
				c0.3-1,0.7-2.1,1.1-3.1c0.1-0.2,0.2-0.5,0.3-0.7c0.4-1,0.8-2,1.2-3c0.1-0.2,0.2-0.5,0.3-0.7c0.4-1,0.9-2,1.3-3
				c0.1-0.2,0.2-0.3,0.2-0.5c0.4-0.9,0.9-1.8,1.3-2.6c0.1-0.2,0.2-0.4,0.3-0.6c0.5-0.9,1-1.8,1.5-2.7c0.2-0.3,0.3-0.5,0.5-0.8
				c0.5-0.9,1.1-1.7,1.6-2.5c0.2-0.3,0.4-0.6,0.6-0.8c0.6-0.8,1.1-1.6,1.7-2.4c0.2-0.3,0.4-0.5,0.6-0.8c0.5-0.7,1.1-1.4,1.6-2.1
				c0.2-0.3,0.5-0.6,0.7-0.9c0.6-0.7,1.1-1.3,1.7-2c0.2-0.3,0.5-0.5,0.7-0.8c0.6-0.7,1.3-1.4,2-2.1c0.3-0.3,0.5-0.5,0.8-0.8
				c0.5-0.5,1-1,1.5-1.5c-10.8-5.4-22.9-8.5-35.8-8.5c-19.4,0-37.3,6.9-51.1,18.5c-4,9.1-6,19.1-7.8,28.9
				c-1.4,7.5-2.6,15.1-3.1,22.7c0.4,1.1,0.7,2.4,0.9,3.5c0.7,3.8,0.7,7.8,1.7,11.5c2.7,10,7.2,19.5,14.1,27.4c4,4.6,8.4,8.6,13.2,12
				c-5.3,2.7-10.3,6-14.8,9.8l0,0c-1.2,2.7-2.2,5.5-3,8.3v0c-2.1,6.7-3.5,13.7-4.8,20.6c-1.4,7.5-2.6,15.1-3.1,22.7
				c0.4,1.1,0.7,2.4,0.9,3.5c0.7,3.8,0.7,7.8,1.7,11.5c2.7,10,7.2,19.5,14.1,27.4c7.1,8.2,15.4,14.3,25.2,18.7
				c2.4,0.2,4.7,0.3,7.1,0.5c7.5,0.6,14.9,1.5,22.4,2c8.6,0.6,17.2,0.7,25.8,0.3c-0.4-3.2-0.6-6.5-0.6-9.8c0-1.3,0-2.5,0.1-3.8
				c0-0.2,0-0.3,0-0.5c0.1-1.2,0.2-2.4,0.3-3.6c0-0.2,0-0.4,0.1-0.6c0.1-1.2,0.3-2.3,0.4-3.4c0-0.2,0.1-0.4,0.1-0.6
				c0.2-1.2,0.4-2.3,0.6-3.5c0-0.1,0.1-0.3,0.1-0.4c0.2-1.1,0.5-2.2,0.8-3.3c0-0.1,0-0.2,0.1-0.3c0.3-1.1,0.6-2.2,0.9-3.3
				c0.1-0.2,0.1-0.4,0.2-0.6c0.3-1,0.7-2.1,1.1-3.1c0.1-0.2,0.2-0.5,0.3-0.7c0.4-1,0.8-2,1.2-3c0.1-0.2,0.2-0.5,0.3-0.7
				c0.4-1,0.9-2,1.3-3c0.1-0.2,0.2-0.3,0.2-0.5c0.4-0.9,0.9-1.8,1.3-2.6c0.1-0.2,0.2-0.4,0.3-0.6c0.5-0.9,1-1.8,1.5-2.7
				c0.2-0.3,0.3-0.5,0.5-0.8c0.5-0.9,1.1-1.7,1.6-2.5c0.2-0.3,0.4-0.6,0.6-0.8c0.6-0.8,1.1-1.6,1.7-2.4c0,0,0,0,0,0
				c0.2-0.3,0.4-0.5,0.6-0.8c0.5-0.7,1.1-1.4,1.6-2.1c0.2-0.3,0.5-0.6,0.7-0.9c0.6-0.7,1.1-1.3,1.7-2c0.2-0.3,0.5-0.5,0.7-0.8
				c0.6-0.7,1.3-1.4,2-2.1c0.3-0.3,0.5-0.5,0.8-0.8c0.7-0.7,1.4-1.3,2-1.9c0.3-0.3,0.6-0.5,0.9-0.8c0.7-0.6,1.4-1.3,2.2-1.9
				c0,0,0,0,0,0c-2.7,6.2-4.5,12.8-5.9,19.5c-0.7,3.1-1.3,6.3-1.9,9.4c-1.4,7.5-2.6,15.1-3.1,22.7c0.4,1.1,0.7,2.4,0.9,3.5
				c0.7,3.8,0.7,7.8,1.7,11.5c0.2,0.8,0.5,1.7,0.7,2.5c0.4,1.3,0.9,2.7,1.3,4c0,0,0,0,0,0c2.8,7.6,6.7,14.7,12,20.9
				c7.1,8.2,15.4,14.3,25.2,18.7c2.4,0.2,4.7,0.3,7.1,0.5c7.5,0.6,14.9,1.5,22.4,2c14.9,1,30,0.8,44.7-1.5c2.6-0.4,5.1-0.9,7.7-1.4
				c6-7.3,10.7-15.7,13.9-24.8C478.8,437.1,473.9,433.3,469.6,429z"/>
			<path fill="#FAA41A" d="M470.2,465.1C470.2,465.1,470.2,465.1,470.2,465.1c-0.1,0.1-0.3,0.3-0.4,0.4
				C469.9,465.4,470.1,465.3,470.2,465.1z"/>
			<path fill="#FAA41A" d="M568.1,304.2c5.2-10.6,8.2-22.6,8.2-35.2c0-44.2-35.8-80-80-80c-17,0-32.7,5.3-45.7,14.3
				c-13.5-25.1-40-42.1-70.5-42.1c-19.4,0-37.3,6.9-51.1,18.5c-0.6,1.4-1.1,2.7-1.6,4.1c-2.9,8-4.6,16.5-6.2,24.7
				c-1.4,7.5-2.6,15.1-3.1,22.7c0.4,1.1,0.7,2.4,0.9,3.5c0.7,3.8,0.7,7.8,1.7,11.5c1.7,6.2,4.1,12.1,7.2,17.7c0.5-0.8,1-1.6,1.5-2.3
				c0.2-0.3,0.4-0.6,0.6-0.8c0.6-0.8,1.1-1.6,1.7-2.4c0.2-0.3,0.4-0.5,0.6-0.8c0.5-0.7,1.1-1.4,1.6-2.1c0.2-0.3,0.5-0.6,0.7-0.9
				c0.6-0.7,1.1-1.3,1.7-2c0.2-0.3,0.5-0.5,0.7-0.8c0.6-0.7,1.3-1.4,2-2.1c0.3-0.3,0.5-0.5,0.8-0.8c0.7-0.7,1.4-1.3,2-1.9
				c0.3-0.3,0.6-0.5,0.9-0.8c0.7-0.6,1.4-1.3,2.2-1.9c6.4-5.3,13.6-9.6,21.4-12.8c9.2-3.7,19.2-5.7,29.7-5.7c10.4,0,20.4,2,29.5,5.6
				c0.1-0.1,0.1-0.2,0.2-0.3c0.1-0.2,0.2-0.4,0.3-0.6c0.5-0.9,1-1.8,1.5-2.7c0.2-0.3,0.3-0.5,0.5-0.8c0.5-0.9,1.1-1.7,1.6-2.5
				c0.2-0.3,0.4-0.6,0.6-0.8c0.6-0.8,1.1-1.6,1.7-2.4c0.2-0.3,0.4-0.5,0.6-0.8c0.5-0.7,1.1-1.4,1.6-2.1c0.2-0.3,0.5-0.6,0.7-0.9
				c0.6-0.7,1.1-1.3,1.7-2c0.2-0.3,0.5-0.5,0.7-0.8c0.6-0.7,1.3-1.4,2-2.1c0.3-0.3,0.5-0.5,0.8-0.8c0.7-0.7,1.4-1.3,2-1.9
				c0.3-0.3,0.6-0.5,0.9-0.8c0.7-0.6,1.4-1.3,2.2-1.9v0c-4,9.1-6,19.1-7.8,28.9c-0.1,0.3-0.1,0.7-0.2,1c8.3,5,15.6,11.4,21.6,18.9
				c10.9,13.7,17.4,30.9,17.4,49.7c0,1.4,0,2.8-0.1,4.2c-0.3,0.2-0.6,0.4-0.8,0.7c-1.1,2.4-2,4.9-2.8,7.5c-2.2,7-3.7,14.2-5,21.4
				c-0.2,1.2-0.4,2.4-0.7,3.6v0c0,0.2-0.1,0.4-0.1,0.6c-0.8,4.5-1.4,9-1.9,13.5c-0.2,1.7-0.3,3.3-0.4,5c0.4,1.1,0.7,2.4,0.9,3.5
				c0.7,3.8,0.7,7.8,1.7,11.5c2.7,10,7.2,19.5,14.1,27.4c2.3,2.7,4.8,5.2,7.4,7.4c5.3,4.6,11.2,8.4,17.8,11.3
				c2.4,0.2,4.7,0.3,7.1,0.5c7.5,0.6,14.9,1.5,22.4,2c14.9,1,30,0.8,44.7-1.5c2.6-0.4,5.1-0.9,7.7-1.4
				c11.4-13.8,18.2-31.5,18.2-50.8C606.2,343.6,590.9,318.3,568.1,304.2z"/>
			<path fill="#FAA41A" d="M587.6,423.6c0.1-0.1,0.2-0.3,0.4-0.4c0,0,0,0,0,0C587.9,423.3,587.7,423.5,587.6,423.6z"/>
		</g>
		<g>
			<path fill="#4E2F1B" d="M315.5,288.5c0.6,0.8,1.2,1.6,1.9,2.5c-0.2,0.8-0.3,1.7-0.4,2.5c0,0,0,0.1,0,0.1c1.2,0.4,2.4,0.8,3.6,1.2
				c5.1,1.8,10,4.1,14.6,6.9c-0.1-0.7-0.2-1.4-0.3-2c-0.2-1.2-0.5-2.4-0.9-3.5c0.4-6.8,1.4-13.6,2.6-20.3c0.1-0.8,0.3-1.6,0.4-2.4
				c1.9-9.7,3.8-19.7,7.8-28.9c0,0,0,0,0,0c-0.7,0.6-1.4,1.2-2.2,1.9c-0.3,0.3-0.6,0.5-0.9,0.8c-0.7,0.6-1.4,1.3-2,1.9
				c-0.3,0.3-0.5,0.5-0.8,0.8c-0.7,0.7-1.3,1.4-2,2.1c-0.2,0.3-0.5,0.5-0.7,0.8c-0.6,0.6-1.1,1.3-1.7,2c-0.2,0.3-0.5,0.6-0.7,0.9
				c-0.6,0.7-1.1,1.4-1.6,2.1c-0.2,0.3-0.4,0.5-0.6,0.8c-0.6,0.8-1.2,1.6-1.7,2.4c-0.2,0.3-0.4,0.6-0.6,0.8c-0.5,0.8-1,1.6-1.5,2.3
				c-3.2-5.5-5.5-11.5-7.2-17.7c-1-3.7-1-7.7-1.7-11.5c-0.2-1.2-0.5-2.4-0.9-3.5c0.5-7.6,1.6-15.2,3.1-22.7
				c1.6-8.3,3.3-16.8,6.2-24.7c0.5-1.4,1-2.8,1.6-4.1l0,0c-0.7,0.6-1.5,1.2-2.2,1.9c-0.3,0.3-0.6,0.5-0.9,0.8
				c-0.2,0.2-0.4,0.3-0.5,0.5c-0.5,0.5-1,1-1.5,1.5c-0.3,0.3-0.5,0.5-0.8,0.8c-0.7,0.7-1.3,1.4-2,2.1c-0.2,0.3-0.5,0.5-0.7,0.8
				c-0.6,0.6-1.1,1.3-1.7,2c-0.2,0.3-0.5,0.6-0.7,0.9c-0.6,0.7-1.1,1.4-1.6,2.1c-0.2,0.3-0.4,0.5-0.6,0.8c-0.6,0.8-1.2,1.6-1.7,2.4
				c-0.2,0.3-0.4,0.6-0.6,0.8c-0.6,0.8-1.1,1.7-1.6,2.5c-0.2,0.3-0.3,0.5-0.5,0.8c-0.5,0.9-1.1,1.8-1.5,2.7
				c-0.1,0.2-0.2,0.4-0.3,0.6c-0.5,0.9-0.9,1.7-1.3,2.6c-0.1,0.2-0.2,0.3-0.2,0.5c-0.5,1-0.9,2-1.3,3c-0.1,0.2-0.2,0.5-0.3,0.7
				c-0.4,1-0.8,2-1.2,3c-0.1,0.2-0.2,0.5-0.3,0.7c-0.4,1-0.7,2.1-1.1,3.1c-0.1,0.2-0.1,0.4-0.2,0.6c-0.3,1.1-0.7,2.2-0.9,3.3
				c0,0.1-0.1,0.2-0.1,0.3c-0.3,1.1-0.5,2.2-0.8,3.3c0,0.1-0.1,0.3-0.1,0.4c-0.2,1.1-0.4,2.3-0.6,3.5c0,0.2-0.1,0.4-0.1,0.6
				c-0.2,1.1-0.3,2.3-0.4,3.4c0,0.2,0,0.4-0.1,0.6c-0.1,1.2-0.2,2.4-0.3,3.6c0,0.2,0,0.3,0,0.5c-0.1,1.3-0.1,2.5-0.1,3.8
				c0,16.6,5,32,13.7,44.7C314.3,286.8,314.9,287.7,315.5,288.5z"/>
			<path fill="#4E2F1B" d="M437.1,237.4c0.1-0.3,0.1-0.7,0.2-1c1.9-9.7,3.8-19.7,7.8-28.9v0c-0.7,0.6-1.5,1.2-2.2,1.9
				c-0.3,0.3-0.6,0.5-0.9,0.8c-0.7,0.6-1.4,1.3-2,1.9c-0.3,0.3-0.5,0.5-0.8,0.8c-0.7,0.7-1.3,1.4-2,2.1c-0.2,0.3-0.5,0.5-0.7,0.8
				c-0.6,0.6-1.1,1.3-1.7,2c-0.2,0.3-0.5,0.6-0.7,0.9c-0.6,0.7-1.1,1.4-1.6,2.1c-0.2,0.3-0.4,0.5-0.6,0.8c-0.6,0.8-1.2,1.6-1.7,2.4
				c-0.2,0.3-0.4,0.6-0.6,0.8c-0.6,0.8-1.1,1.7-1.6,2.5c-0.2,0.3-0.3,0.5-0.5,0.8c-0.5,0.9-1.1,1.8-1.5,2.7
				c-0.1,0.2-0.2,0.4-0.3,0.6c-0.1,0.1-0.1,0.2-0.2,0.3c0,0,0,0,0,0C429.5,233.2,433.4,235.1,437.1,237.4z"/>
			<path fill="#4E2F1B" d="M417.8,468.1c-7.5-0.5-14.9-1.4-22.4-2c-2.4-0.2-4.7-0.3-7.1-0.5c-9.9-4.4-18.1-10.5-25.2-18.7
				c-5.3-6.2-9.2-13.3-12-20.9c0,0,0,0,0,0c-0.5-1.3-0.9-2.6-1.3-4c-0.3-0.8-0.5-1.7-0.7-2.5c-1-3.7-1-7.7-1.7-11.5
				c-0.2-1.2-0.5-2.4-0.9-3.5c0.5-7.6,1.6-15.2,3.1-22.7c0.6-3.1,1.2-6.2,1.9-9.4c1.5-6.7,3.2-13.3,5.9-19.5c0,0,0,0,0,0
				c-0.7,0.6-1.5,1.2-2.2,1.9c-0.3,0.3-0.6,0.5-0.9,0.8c-0.7,0.6-1.4,1.3-2,1.9c-0.3,0.3-0.5,0.5-0.8,0.8c-0.7,0.7-1.3,1.4-2,2.1
				c-0.2,0.3-0.5,0.5-0.7,0.8c-0.6,0.6-1.1,1.3-1.7,2c-0.2,0.3-0.5,0.6-0.7,0.9c-0.6,0.7-1.1,1.4-1.6,2.1c-0.2,0.3-0.4,0.5-0.6,0.8
				c0,0,0,0,0,0c-0.6,0.8-1.1,1.6-1.7,2.4c-0.2,0.3-0.4,0.6-0.6,0.8c-0.6,0.8-1.1,1.7-1.6,2.5c-0.2,0.3-0.3,0.5-0.5,0.8
				c-0.5,0.9-1,1.8-1.5,2.7c-0.1,0.2-0.2,0.4-0.3,0.6c-0.5,0.9-0.9,1.7-1.3,2.6c-0.1,0.2-0.2,0.3-0.2,0.5c-0.5,1-0.9,2-1.3,3
				c-0.1,0.2-0.2,0.5-0.3,0.7c-0.4,1-0.8,2-1.2,3c-0.1,0.2-0.2,0.5-0.3,0.7c-0.4,1-0.7,2.1-1.1,3.1c-0.1,0.2-0.1,0.4-0.2,0.6
				c-0.3,1.1-0.7,2.2-0.9,3.3c0,0.1-0.1,0.2-0.1,0.3c-0.3,1.1-0.5,2.2-0.8,3.3c0,0.1-0.1,0.3-0.1,0.4c-0.2,1.1-0.4,2.3-0.6,3.5
				c0,0.2-0.1,0.4-0.1,0.6c-0.2,1.1-0.3,2.3-0.4,3.4c0,0.2,0,0.4-0.1,0.6c-0.1,1.2-0.2,2.4-0.3,3.6c0,0.2,0,0.3,0,0.5
				c-0.1,1.3-0.1,2.5-0.1,3.8c0,3.3,0.2,6.6,0.6,9.8c-8.6,0.4-17.2,0.2-25.8-0.3c-7.5-0.5-14.9-1.4-22.4-2c-2.4-0.2-4.7-0.3-7.1-0.5
				c-9.9-4.4-18.1-10.5-25.2-18.7c-6.8-7.9-11.4-17.3-14.1-27.4c-1-3.7-1-7.7-1.7-11.5c-0.2-1.2-0.5-2.4-0.9-3.5
				c0.5-7.6,1.6-15.2,3.1-22.7c1.3-6.9,2.7-13.9,4.8-20.6v0c0.9-2.8,1.9-5.6,3-8.3l0,0c4.5-3.8,9.5-7,14.8-9.8
				c-4.8-3.4-9.2-7.3-13.2-12c-6.8-7.9-11.4-17.3-14.1-27.4c-1-3.7-1-7.7-1.7-11.5c-0.2-1.2-0.5-2.4-0.9-3.5
				c0.5-7.6,1.6-15.2,3.1-22.7c1.9-9.7,3.8-19.7,7.8-28.9v0c-0.7,0.6-1.5,1.2-2.2,1.9c-0.3,0.3-0.6,0.5-0.9,0.8
				c-0.7,0.6-1.4,1.3-2,1.9c-0.3,0.3-0.5,0.5-0.8,0.8c-0.7,0.7-1.3,1.4-2,2.1c-0.2,0.3-0.5,0.5-0.7,0.8c-0.6,0.6-1.1,1.3-1.7,2
				c-0.2,0.3-0.5,0.6-0.7,0.9c-0.6,0.7-1.1,1.4-1.6,2.1c-0.2,0.3-0.4,0.5-0.6,0.8c-0.6,0.8-1.2,1.6-1.7,2.4
				c-0.2,0.3-0.4,0.6-0.6,0.8c-0.6,0.8-1.1,1.7-1.6,2.5c-0.2,0.3-0.3,0.5-0.5,0.8c-0.5,0.9-1.1,1.8-1.5,2.7
				c-0.1,0.2-0.2,0.4-0.3,0.6c-0.5,0.9-0.9,1.7-1.3,2.6c-0.1,0.2-0.2,0.3-0.2,0.5c-0.5,1-0.9,2-1.3,3c-0.1,0.2-0.2,0.5-0.3,0.7
				c-0.4,1-0.8,2-1.2,3c-0.1,0.2-0.2,0.5-0.3,0.7c-0.4,1-0.7,2.1-1.1,3.1c-0.1,0.2-0.1,0.4-0.2,0.6c-0.3,1.1-0.7,2.2-0.9,3.3
				c0,0.1-0.1,0.2-0.1,0.3c-0.3,1.1-0.5,2.2-0.8,3.3c0,0.1-0.1,0.3-0.1,0.4c-0.2,1.1-0.4,2.3-0.6,3.5c0,0.2-0.1,0.4-0.1,0.6
				c-0.2,1.1-0.3,2.3-0.4,3.4c0,0.2,0,0.4-0.1,0.6c-0.1,1.2-0.2,2.4-0.3,3.6c0,0.2,0,0.3,0,0.5c-0.1,1.3-0.1,2.5-0.1,3.8
				c0,2.8,0.1,5.5,0.4,8.2c1.2,12.1,5.2,23.4,11.2,33.3c3.3,5.5,7.3,10.6,11.8,15.1c1.1,1.1,2.3,2.2,3.5,3.3
				c-0.6,0.6-1.2,1.2-1.7,1.8c-0.2,0.3-0.5,0.5-0.7,0.8c-0.6,0.6-1.1,1.3-1.7,2c-0.2,0.3-0.5,0.6-0.7,0.9c-0.6,0.7-1.1,1.4-1.6,2.1
				c-0.2,0.3-0.4,0.5-0.6,0.8c-0.6,0.8-1.2,1.6-1.7,2.4c-0.2,0.3-0.4,0.6-0.6,0.8c-0.6,0.8-1.1,1.7-1.6,2.5
				c-0.2,0.3-0.3,0.5-0.5,0.8c-0.5,0.9-1.1,1.8-1.5,2.7c-0.1,0.2-0.2,0.4-0.3,0.6c-0.5,0.9-0.9,1.7-1.3,2.6
				c-0.1,0.2-0.2,0.3-0.2,0.5c-0.5,1-0.9,2-1.3,3c-0.1,0.2-0.2,0.5-0.3,0.7c-0.4,1-0.8,2-1.2,3c-0.1,0.2-0.2,0.5-0.3,0.7
				c-0.4,1-0.7,2.1-1.1,3.1c-0.1,0.2-0.1,0.4-0.2,0.6c-0.3,1.1-0.7,2.2-0.9,3.3c0,0.1-0.1,0.2-0.1,0.3c-0.3,1.1-0.5,2.2-0.8,3.3
				c0,0.1-0.1,0.3-0.1,0.4c-0.2,1.1-0.4,2.3-0.6,3.5c0,0.2-0.1,0.4-0.1,0.6c-0.2,1.1-0.3,2.3-0.4,3.4c0,0.2,0,0.4-0.1,0.6
				c-0.1,1.2-0.2,2.4-0.3,3.6c0,0.2,0,0.3,0,0.5c-0.1,1.3-0.1,2.5-0.1,3.8c0,16.6,5,32,13.7,44.7c2.2,3.2,4.5,6.2,7.1,9.1
				c3.4,3.8,7.2,7.2,11.4,10.3c5.1,3.8,10.7,7.1,16.7,9.6c1.2,0.5,2.4,1,3.6,1.4c3.7,1.3,7.5,2.4,11.4,3.2
				c5.2,1.1,10.6,1.6,16.1,1.6c1.3,0,2.5,0,3.8-0.1c0.2,0,0.3,0,0.5,0c1.2-0.1,2.4-0.2,3.5-0.3c0.2,0,0.4,0,0.6-0.1
				c1.2-0.1,2.3-0.3,3.5-0.4c0.2,0,0.4-0.1,0.6-0.1c1.2-0.2,2.3-0.4,3.5-0.6c0.1,0,0.2,0,0.3-0.1c1.1-0.2,2.3-0.5,3.4-0.8
				c0.1,0,0.3-0.1,0.4-0.1c1.1-0.3,2.2-0.6,3.3-0.9c0.2-0.1,0.4-0.1,0.6-0.2c1.1-0.3,2.1-0.7,3.2-1.1c0.2-0.1,0.4-0.2,0.7-0.2
				c1-0.4,2.1-0.8,3.1-1.2c0.2-0.1,0.3-0.1,0.5-0.2c1-0.4,2-0.9,3-1.4c0.1,0,0.2-0.1,0.3-0.1c1-0.5,2-1,3-1.5
				c0.2-0.1,0.4-0.2,0.6-0.3c0.2-0.1,0.3-0.2,0.5-0.3c2.3,6.8,5.5,13.2,9.4,19c2.2,3.2,4.5,6.2,7.1,9.1c3.4,3.8,7.2,7.2,11.4,10.3
				c5.1,3.8,10.7,7.1,16.7,9.6c1.2,0.5,2.4,1,3.6,1.4c3.7,1.3,7.5,2.4,11.4,3.2c5.2,1.1,10.6,1.6,16.1,1.6c1.3,0,2.5,0,3.8-0.1
				c0.2,0,0.3,0,0.5,0c1.2-0.1,2.4-0.2,3.5-0.3c0.2,0,0.4,0,0.6-0.1c1.2-0.1,2.3-0.3,3.5-0.4c0.2,0,0.4-0.1,0.6-0.1
				c1.2-0.2,2.3-0.4,3.5-0.6c0.1,0,0.2,0,0.3-0.1c1.1-0.2,2.3-0.5,3.4-0.8c0.1,0,0.3-0.1,0.4-0.1c1.1-0.3,2.2-0.6,3.3-0.9
				c0.2-0.1,0.4-0.1,0.6-0.2c1.1-0.3,2.1-0.7,3.2-1.1c0.2-0.1,0.4-0.2,0.6-0.2c1-0.4,2.1-0.8,3.1-1.2c0.2-0.1,0.3-0.1,0.5-0.2
				c1-0.4,2-0.9,3-1.4c0.1,0,0.2-0.1,0.3-0.1c1-0.5,2-1,3-1.5c0.2-0.1,0.4-0.2,0.6-0.3c0.9-0.5,1.9-1.1,2.8-1.6
				c0.2-0.1,0.5-0.3,0.7-0.4c0.9-0.6,1.8-1.1,2.7-1.7c0.2-0.1,0.4-0.3,0.6-0.4c0.9-0.6,1.8-1.2,2.7-1.9c0.1-0.1,0.3-0.2,0.4-0.3
				c0.8-0.6,1.6-1.2,2.4-1.9c0.2-0.1,0.3-0.3,0.5-0.4c0.8-0.7,1.6-1.4,2.4-2.1c0.2-0.2,0.4-0.4,0.6-0.6c0.8-0.7,1.5-1.4,2.2-2.1
				c0.2-0.2,0.4-0.4,0.6-0.6c0.7-0.7,1.5-1.5,2.2-2.3c0.2-0.2,0.3-0.4,0.5-0.5c0.7-0.7,1.3-1.5,1.9-2.2c0.1-0.1,0.2-0.3,0.4-0.4
				c-2.6,0.6-5.1,1-7.7,1.4C447.7,468.9,432.6,469,417.8,468.1z"/>
			<path fill="#4E2F1B" d="M580.3,424.6c-14.8,2.3-29.9,2.5-44.7,1.5c-7.5-0.5-14.9-1.4-22.4-2c-2.4-0.2-4.7-0.3-7.1-0.5
				c-6.6-3-12.5-6.7-17.8-11.3c-2.6-2.3-5.1-4.7-7.4-7.4c-6.8-7.9-11.4-17.3-14.1-27.4c-1-3.7-1-7.7-1.7-11.5
				c-0.2-1.2-0.5-2.4-0.9-3.5c0.1-1.7,0.3-3.4,0.4-5c0.5-4.5,1.1-9.1,1.9-13.5c0-0.2,0.1-0.4,0.1-0.6v0c0.2-1.2,0.4-2.4,0.7-3.6
				c1.4-7.1,2.8-14.4,5-21.4c0.8-2.5,1.7-5,2.8-7.5v0c-0.7,0.6-1.5,1.2-2.2,1.9c-0.3,0.3-0.6,0.5-0.9,0.8c-0.7,0.6-1.4,1.3-2,1.9
				c-0.3,0.3-0.5,0.5-0.8,0.8c-0.1,0.1-0.2,0.2-0.3,0.3c-0.6,0.6-1.2,1.2-1.7,1.8c-0.2,0.3-0.5,0.5-0.7,0.8c-0.6,0.6-1.1,1.3-1.7,2
				c-0.2,0.3-0.5,0.6-0.7,0.9c-0.6,0.7-1.1,1.4-1.6,2.1c-0.2,0.3-0.4,0.5-0.6,0.8c-0.6,0.8-1.2,1.6-1.7,2.4
				c-0.2,0.3-0.4,0.6-0.6,0.8c-0.6,0.8-1.1,1.7-1.6,2.5c-0.2,0.3-0.3,0.5-0.5,0.8c-0.5,0.9-1.1,1.8-1.5,2.7
				c-0.1,0.2-0.2,0.4-0.3,0.6c-0.4,0.8-0.9,1.6-1.3,2.5v0c0,0.1-0.1,0.1-0.1,0.2c-0.1,0.2-0.2,0.3-0.2,0.5c-0.5,1-0.9,2-1.3,3
				c-0.1,0.2-0.2,0.5-0.3,0.7c-0.4,1-0.8,2-1.2,3c-0.1,0.2-0.2,0.5-0.3,0.7c-0.1,0.4-0.3,0.7-0.4,1.1c-0.2,0.7-0.4,1.3-0.7,2
				c-0.1,0.2-0.1,0.4-0.2,0.6c-0.3,1.1-0.7,2.2-0.9,3.3c0,0.1-0.1,0.2-0.1,0.3c-0.3,1.1-0.5,2.2-0.8,3.3c0,0.1-0.1,0.3-0.1,0.4
				c-0.1,0.7-0.3,1.4-0.4,2.2c-0.1,0.4-0.1,0.9-0.2,1.3c0,0.2-0.1,0.4-0.1,0.6c-0.2,1.1-0.3,2.3-0.4,3.4c0,0.2,0,0.4-0.1,0.6
				c-0.1,1.2-0.2,2.4-0.3,3.6c0,0,0,0.1,0,0.1c0,0,0,0,0,0c0,0.1,0,0.3,0,0.4c-0.1,1.3-0.1,2.5-0.1,3.8c0,2.8,0.1,5.5,0.4,8.2
				c1.2,12.1,5.2,23.4,11.2,33.3c2.5,4.1,5.4,8,8.6,11.6c1.1,1.2,2.2,2.4,3.3,3.5c4.3,4.3,9.2,8.2,14.4,11.4
				c5.9,3.7,12.3,6.6,19.1,8.6c2.3,0.7,4.6,1.3,6.9,1.7c1.3,0.3,2.6,0.5,3.9,0.7c4,0.6,8,0.9,12.2,0.9c1.3,0,2.5,0,3.8-0.1
				c0.2,0,0.3,0,0.5,0c1.2-0.1,2.4-0.2,3.5-0.3c0.2,0,0.4,0,0.6-0.1c1.2-0.1,2.3-0.3,3.5-0.4c0.2,0,0.4-0.1,0.6-0.1
				c1.2-0.2,2.3-0.4,3.5-0.6c0.1,0,0.2,0,0.3-0.1c1.1-0.2,2.3-0.5,3.4-0.8c0.1,0,0.3-0.1,0.4-0.1c1.1-0.3,2.2-0.6,3.3-0.9
				c0.2-0.1,0.4-0.1,0.6-0.2c1.1-0.3,2.1-0.7,3.2-1.1c0.2-0.1,0.4-0.2,0.7-0.2c1-0.4,2.1-0.8,3.1-1.2c0.2-0.1,0.3-0.1,0.5-0.2
				c1-0.4,2-0.9,3-1.4c0.1,0,0.2-0.1,0.3-0.1c1-0.5,2-1,3-1.5c0.2-0.1,0.4-0.2,0.6-0.3c0.9-0.5,1.9-1.1,2.8-1.6
				c0.2-0.1,0.5-0.3,0.7-0.4c0.9-0.6,1.8-1.1,2.7-1.7c0.2-0.1,0.4-0.3,0.6-0.4c0.9-0.6,1.8-1.2,2.7-1.9c0.1-0.1,0.3-0.2,0.4-0.3
				c0.8-0.6,1.6-1.2,2.4-1.9c0.2-0.1,0.4-0.3,0.5-0.4c0.8-0.7,1.6-1.4,2.4-2.1c0.2-0.2,0.4-0.4,0.6-0.6c0.8-0.7,1.5-1.4,2.2-2.1
				c0.2-0.2,0.4-0.4,0.6-0.6c0.7-0.7,1.5-1.5,2.2-2.3c0.2-0.2,0.3-0.4,0.5-0.5c0.6-0.7,1.3-1.5,1.9-2.2c0.1-0.1,0.2-0.3,0.4-0.4
				C585.4,423.7,582.9,424.2,580.3,424.6z"/>
		</g>
	</g>
</g>
</svg>
