<?xml version="1.0" encoding="utf-8"?>
<!-- Generator: Adobe Illustrator 18.0.0, SVG Export Plug-In . SVG Version: 6.00 Build 0)  -->
<!DOCTYPE svg PUBLIC "-//W3C//DTD SVG 1.1//EN" "http://www.w3.org/Graphics/SVG/1.1/DTD/svg11.dtd">
<svg version="1.1" xmlns="http://www.w3.org/2000/svg" xmlns:xlink="http://www.w3.org/1999/xlink" x="0px" y="0px" width="792px"
	 height="612px" viewBox="0 0 792 612" enable-background="new 0 0 792 612" xml:space="preserve">
<g id="Layer_2" display="none">
	<circle display="inline" fill="#FAA41A" cx="396" cy="306" r="80"/>
</g>
<g id="Layer_1">
	<g>
		<g>
			<path fill="none" stroke="#FAA51C" stroke-miterlimit="10" d="M705,228"/>
		</g>
	</g>
	<path fill="#6A9AD1" d="M426.1,427.7v-9.9L396,420l-30.1-2.2v9.9c0,1.3,0.7,2.5,1.8,3.1c-1.1,0.7-1.8,1.8-1.8,3.1s0.7,2.5,1.8,3.1
		c-1.1,0.7-1.8,1.8-1.8,3.1s0.7,2.5,1.8,3.1c-1.1,0.7-1.8,1.8-1.8,3.1s0.7,2.5,1.8,3.1c-1.1,0.7-1.8,1.8-1.8,3.1s0.7,2.5,1.8,3.1
		c-1.1,0.6-1.8,1.8-1.8,3.1s0.7,2.5,1.8,3.1c-1.1,0.7-1.8,1.8-1.8,3.1c0,0.8,0.3,1.6,0.7,2.2c6.2,10.1,29.4,8.4,29.4,8.4
		s23.2,1.7,29.4-8.4c0.5-0.6,0.7-1.4,0.7-2.2c0-1.3-0.7-2.5-1.8-3.1c1.1-0.7,1.8-1.8,1.8-3.1s-0.7-2.5-1.8-3.1
		c1.1-0.7,1.8-1.8,1.8-3.1s-0.7-2.5-1.8-3.1c1.1-0.7,1.8-1.8,1.8-3.1s-0.7-2.5-1.8-3.1c1.1-0.6,1.8-1.8,1.8-3.1s-0.7-2.5-1.8-3.1
		c1.1-0.7,1.8-1.8,1.8-3.1s-0.7-2.5-1.8-3.1C425.4,430.2,426.1,429.1,426.1,427.7z"/>
	<path fill="#395B88" d="M396,476.1c0,0-9.4,0.7-17.8-1.4c2.4,4.3,9.5,7.4,17.8,7.4s15.4-3.1,17.8-7.4
		C405.4,476.7,396,476.1,396,476.1z"/>
	<path fill="#FAA41A" d="M339.4,362.6c0,0,17,17.7,17,35.5c0,17.8,5.5,21.6,23.1,21.9H396h16.5c17.5-0.3,23.1-4.1,23.1-21.9
		c0-17.8,17-35.5,17-35.5H339.4z"/>
	<path fill="#4E2F1B" d="M433.2,295.4c-2,3.7-2.9,7.9-5.8,11.1c-2.7,2.9-4.1-0.7-4.5-3.2c1-2.8,1.4-6.1,1.3-8.8
		c0-1.3-2.1-2.1-2.7-0.7c-1.2,2.5-2,6.2-1.7,9.6c-1.3,2.5-3.6,4-7.6,3c-2.8-0.6-4.8-2.8-6-5.4c1.6-4,1.5-8.7-0.9-11.8
		c-0.8-1-2.2-0.9-2.7,0.3c-1.3,3.6-1.1,7.8,0.4,11.4c-1.5,2.6-4,4.5-7,4.6c-2.6,0.1-4.5-1.4-5.8-3.5c-0.2-4.1-1.5-8.6-2.2-10.8
		c-0.4-1.2-2.6-1.6-2.8,0c-0.5,4,0.3,8.4,2.4,11.8c-0.1,2-0.6,3.7-1.9,4.7c-3.7,2.7-9-3.9-10.5-6.5c-0.5-0.8-0.8-1.7-1.1-2.5
		c1.4-3.6,1.5-7.9-0.1-10.9c-0.6-1.1-2.1-0.7-2.5,0.3c-1.2,3.1-1.3,6.9-0.3,10.5c-2.1,3.7-5.8,5.5-8.4,1c0-0.3,0-0.5-0.2-0.8
		c-0.1-0.1-0.2-0.2-0.3-0.3c-0.2-0.3-0.6-0.3-0.9-0.2c0,0,0,0-0.1,0c-0.4,0.1-0.8,0.6-0.7,1.1c-0.6,0.4-0.9,1.1-0.6,1.8
		c8.6,17.8,16.2,35.5,20.1,55c2,9.8,3.5,19.5,4.1,29.5c0.6,10.1,0.3,20.3,1.1,30.4c0,0.2,0.1,0.3,0.2,0.4c0,0.3,0,0.6,0.1,0.9
		c0.1,1.2-0.1,2.4,0.1,3.5c0.2,1,1.5,0.8,1.8,0c0.4-1.1,0.2-2.4,0.1-3.5c-0.1-1.3-0.4-2.5-0.6-3.7c0,0,0,0,0,0
		c0.4-19.5-0.9-38.9-4.6-58.1c-1.9-9.5-4.2-18.9-7.7-28c-3.1-7.9-6.7-15.7-10.2-23.5c1.9,1.1,4.1,1.1,6.5-0.6c0.6-0.4,1.2-1,1.7-1.6
		c2.4,5.3,7,9.5,12.9,9c3-0.2,4.4-2.2,4.9-4.9c1.9,1.6,4.3,2.6,7.3,2.5c3.1-0.1,5.7-1.9,7.5-4.4c1.9,2.7,4.5,4.8,7.9,5.6
		c3.8,0.9,6.5-0.3,8.3-2.4c0.7,1.3,1.7,2.4,3.2,3.1c1.1,0.5,2,0.5,2.9,0.3c-2,4.9-3.9,9.8-5.1,15c-2.8,11.4-5.4,22.9-7.7,34.5
		c-2.1,10.7-4.4,21.4-5.8,32.3c-1.2,8.9-2.7,19.7-0.6,28.5c0.4,1.6,2.9,0.9,2.5-0.7c-2.1-8.6-0.4-19.2,0.5-27.8
		c1.2-11.3,3.5-22.5,5.9-33.6c2.4-10.9,4.8-21.7,7.7-32.5c2.7-10.1,7.5-19.4,11.5-29.1c0,0,0,0,0,0c0,0,0,0,0,0
		c0-0.1,0.1-0.2,0.1-0.3C436.5,295,433.9,293.9,433.2,295.4z"/>
	<g>
		<rect x="23" y="255" fill="none" width="443.6" height="347.8"/>
		<text transform="matrix(1 0 0 1 23.0002 280.4158)"><tspan x="0" y="0" fill="#4E2F1B" font-family="'SourceSansPro-Semibold'" font-size="36">“That’s the real </tspan><tspan x="0" y="43.2" fill="#4E2F1B" font-family="'SourceSansPro-Semibold'" font-size="36">lesson of where </tspan><tspan x="0" y="86.4" fill="#4E2F1B" font-family="'SourceSansPro-Semibold'" font-size="36">good ideas come </tspan><tspan x="0" y="129.6" fill="#4E2F1B" font-family="'SourceSansPro-Semibold'" font-size="36">from: that chance </tspan><tspan x="0" y="172.8" fill="#4E2F1B" font-family="'SourceSansPro-Semibold'" font-size="36">favors the connected </tspan><tspan x="0" y="216" fill="#4E2F1B" font-family="'SourceSansPro-Semibold'" font-size="36">mind.”</tspan><tspan x="0" y="302.4" fill="#4E2F1B" font-family="'SourceSansPro-Semibold'" font-size="36">Steven Johnson </tspan></text>
	</g>
	<path fill="none" d="M396,226c-44.2,0-80,35.8-80,80c0,22.1,9,42.1,23.4,56.6c0,0,17,17.7,17,35.5c0,11.9,2.5,17.6,9.4,20.1v9.6
		c0,1.3,0.7,2.5,1.8,3.1c-1.1,0.7-1.8,1.8-1.8,3.1s0.7,2.5,1.8,3.1c-1.1,0.7-1.8,1.8-1.8,3.1s0.7,2.5,1.8,3.1
		c-1.1,0.7-1.8,1.8-1.8,3.1s0.7,2.5,1.8,3.1c-1.1,0.7-1.8,1.8-1.8,3.1s0.7,2.5,1.8,3.1c-1.1,0.6-1.8,1.8-1.8,3.1s0.7,2.5,1.8,3.1
		c-1.1,0.7-1.8,1.8-1.8,3.1c0,0.8,0.3,1.6,0.7,2.2c2.2,3.7,6.8,5.8,11.6,7c2.4,4.3,9.5,7.4,17.8,7.4s15.4-3.1,17.8-7.4
		c4.8-1.2,9.3-3.3,11.6-7c0.5-0.6,0.7-1.4,0.7-2.2c0-1.3-0.7-2.5-1.8-3.1c1.1-0.7,1.8-1.8,1.8-3.1s-0.7-2.5-1.8-3.1
		c1.1-0.7,1.8-1.8,1.8-3.1s-0.7-2.5-1.8-3.1c1.1-0.7,1.8-1.8,1.8-3.1s-0.7-2.5-1.8-3.1c1.1-0.6,1.8-1.8,1.8-3.1s-0.7-2.5-1.8-3.1
		c1.1-0.7,1.8-1.8,1.8-3.1s-0.7-2.5-1.8-3.1c1.1-0.7,1.8-1.8,1.8-3.1v-9.6c6.9-2.5,9.4-8.2,9.4-20.1c0-17.8,17-35.5,17-35.5
		C467,348.1,476,328.1,476,306C476,261.8,440.2,226,396,226z M396.4,476.1C396.4,476.1,396.4,476.1,396.4,476.1
		C396.4,476.1,396.4,476.1,396.4,476.1z M396.1,476.1C396.1,476.1,396.1,476.1,396.1,476.1C396.1,476.1,396.1,476.1,396.1,476.1z
		 M395.6,476.1C395.6,476.1,395.6,476.1,395.6,476.1C395.6,476.1,395.6,476.1,395.6,476.1z M395.9,476.1
		C395.9,476.1,395.9,476.1,395.9,476.1C395.9,476.1,395.9,476.1,395.9,476.1z"/>
</g>
</svg>
