<?xml version="1.0" encoding="utf-8"?>
<!-- Generator: Adobe Illustrator 18.0.0, SVG Export Plug-In . SVG Version: 6.00 Build 0)  -->
<!DOCTYPE svg PUBLIC "-//W3C//DTD SVG 1.1//EN" "http://www.w3.org/Graphics/SVG/1.1/DTD/svg11.dtd">
<svg version="1.1" xmlns="http://www.w3.org/2000/svg" xmlns:xlink="http://www.w3.org/1999/xlink" x="0px" y="0px" width="792px"
	 height="612px" viewBox="0 0 792 612" enable-background="new 0 0 792 612" xml:space="preserve">
<g id="Layer_2" display="none">
	<circle display="inline" fill="#FAA41A" cx="396" cy="306" r="80"/>
</g>
<g id="Layer_1">
	<path fill="#4E2F1B" d="M488.7,362.9L431.8,306l26.6-26.6c1.5,0.2,3.1-0.2,4.3-1.4l11.2-11.2c1.2-1.2,1.7-2.8,1.4-4.4l6.3-6.3
		c5.3-5.3,5.3-13.9,0-19.3l-16.5-16.5c-5.3-5.3-14-5.3-19.3,0l-6.2,6.2c-1.6-0.3-3.3,0.1-4.6,1.4l-11.2,11.2c-1.2,1.2-1.7,3-1.4,4.6
		l-26.5,26.5l-57-57c-1.4-1.4-3.7-1.4-5.2,0L303.3,244c-1.4,1.4-1.4,3.7,0,5.1l7.2,7.2l12.8-12.8c0.6-0.6,1.6-0.6,2.3,0
		c0.6,0.6,0.6,1.6,0,2.3l-12.8,12.8l7.3,7.2l12.8-12.8c0.6-0.6,1.6-0.6,2.3,0c0.6,0.6,0.6,1.6,0,2.3l-12.8,12.8l7.2,7.2l12.8-12.8
		c0.6-0.6,1.6-0.6,2.3,0c0.6,0.6,0.6,1.6,0,2.3l-12.8,12.8l7.2,7.2l12.8-12.8c0.6-0.6,1.6-0.6,2.3,0c0.6,0.6,0.6,1.6,0,2.3
		L341.2,287l7.2,7.2l21-21c0.6-0.6,1.6-0.6,2.2,0c0.6,0.6,0.6,1.6,0,2.3l-21,21l7.2,7.2l12.8-12.8c0.6-0.6,1.6-0.6,2.3,0
		c0.6,0.6,0.6,1.6,0,2.2l-53.8,53.9h0c-1.6,1.6-2.5,3.8-2.5,6l0.1,26.5c0.2,1.4,0.8,2.7,1.9,3.8c1.1,1.1,2.4,1.7,3.8,1.9l26.5,0.1
		c2.2,0,4.3-0.8,6-2.5l62.4-62.4c0.6-0.3,1.3-0.2,1.8,0.3c0.6,0.6,0.6,1.6,0,2.3l-21,21l7.2,7.2l12.8-12.8c0.6-0.6,1.6-0.6,2.2,0
		c0.6,0.6,0.6,1.6,0,2.3l-12.8,12.8l7.2,7.3l12.8-12.8c0.6-0.6,1.6-0.6,2.3,0c0.6,0.6,0.6,1.6,0,2.3L417.2,363l7.2,7.2l12.8-12.8
		c0.6-0.6,1.6-0.6,2.3,0c0.6,0.6,0.6,1.6,0,2.3l-12.8,12.8l7.2,7.2l12.8-12.8c0.6-0.6,1.6-0.6,2.3,0c0.6,0.6,0.6,1.6,0,2.3
		L436.2,382l7.2,7.2l21-21c0.6-0.6,1.6-0.6,2.3,0c0.6,0.6,0.6,1.6,0,2.3l-21,21l7.2,7.2c1.4,1.4,3.7,1.4,5.1,0l30.6-30.6
		C490.1,366.6,490.1,364.3,488.7,362.9z M450.5,226c2.4-2.4,6.4-2.4,8.8,0l8.3,8.3l-9.6,9.6l-12.8-12.8L450.5,226z M440.1,234.4
		c0.8-0.8,2-0.8,2.8,0l12.3,12.3c0.8,0.8,0.8,2,0,2.8c-0.8,0.8-2,0.8-2.8,0l0,0l-12.3-12.3h0c0,0-0.1-0.1-0.1-0.1
		C439.3,236.4,439.3,235.2,440.1,234.4z M430.1,244.4c0.8-0.8,2-0.8,2.8,0c0,0,0.1,0.1,0.1,0.1l0,0l12.2,12.2c0.8,0.8,0.8,2.1,0,2.8
		c-0.8,0.8-2,0.8-2.8,0l0,0L430,247.2c0,0,0,0,0,0C429.3,246.4,429.3,245.2,430.1,244.4z M328.7,373.7l-5.3-5.3l0-13.5
		c2.4,2,5.3,2.9,8.3,2.9c0,3.3,1.2,6.6,3.7,9.1L328.7,373.7z M339.3,362.7c-2.9-2.6-2.6-7.2,0.4-10.2l80.7-80.8
		c0.8-0.8,0.8-2.1,0-2.8c-0.8-0.8-2-0.8-2.8,0l-80.7,80.7c-3.1,3-7.8,3.3-10.3,0.3l100.2-100.3l12.8,12.8L339.3,362.7z"/>
</g>
</svg>
