<?xml version="1.0" encoding="utf-8"?>
<!-- Generator: Adobe Illustrator 18.0.0, SVG Export Plug-In . SVG Version: 6.00 Build 0)  -->
<!DOCTYPE svg PUBLIC "-//W3C//DTD SVG 1.1//EN" "http://www.w3.org/Graphics/SVG/1.1/DTD/svg11.dtd">
<svg version="1.1" xmlns="http://www.w3.org/2000/svg" xmlns:xlink="http://www.w3.org/1999/xlink" x="0px" y="0px" width="792px"
	 height="612px" viewBox="0 0 792 612" enable-background="new 0 0 792 612" xml:space="preserve">
<g id="Layer_2" display="none">
	<circle display="inline" fill="#FAA41A" cx="396" cy="306" r="80"/>
</g>
<g id="Layer_1">
	<path fill="#6A9AD1" d="M358.9,249.6c-12.6,4.5-23.9,17.4-26.6,30.6c-0.2,0.9,0.5,1.6,1.2,1.8c0,0,0,0.1,0.1,0.1
		c0.7,1.1,2.2,1.1,2.9,0c1-1.7,1.1-3.8,2-5.6c1.4-2.7,3.5-5,5.6-7.2c4.2-4.4,9.8-8.5,15.8-9.8c0.9-0.2,1.4-1.1,1.4-1.9
		c0-2,0-4.1,0-6.1C361.5,250.3,360.2,249.2,358.9,249.6z"/>
	<path fill="#FAA41A" d="M405.4,394.1c-4-2.4-6.9-5.9-8.8-10.1c-1.2-2.7-4.8-1.4-5.6,0.7c-0.7,1.8-1.2,3.7-1.5,5.6
		c-0.1,0.3-0.2,0.6-0.3,0.9c-1.3,2.9-2.8,5.8-4.1,8.7c-1,2.3,1,4.4,3.3,3.3c4.9-2.3,10.3-3.7,15.7-4.3
		C406.6,398.6,407.8,395.5,405.4,394.1z"/>
	<g>
		<path fill="#6A9AD1" d="M369,238.2c-12.4-42.4-56.8-66.8-99.2-54.4S203,240.6,215.4,283c11.9,40.7,53.2,64.7,94,55.7
			c0,1.5,0,3.1,0.2,4.6c0,0.3-0.1,0.6-0.1,0.9c-0.4,3.2-1.1,6.3-1.5,9.5c-0.3,2.5,2.2,4,4.2,2.3c4.1-3.6,8.8-6.4,13.9-8.5
			c2.3-0.9,2.6-4.3-0.1-5c-3.8-1-7-2.9-9.8-5.6C357.6,323.9,381.2,280.1,369,238.2z"/>
		<path fill="#6A9AD1" d="M257.6,203.9c-12.6,4.5-23.9,17.4-26.6,30.6c-0.2,0.9,0.5,1.6,1.2,1.8c0,0,0,0.1,0.1,0.1
			c0.7,1.1,2.2,1.1,2.9,0c1-1.7,1.1-3.8,2-5.6c1.4-2.7,3.5-5,5.6-7.2c4.2-4.4,9.8-8.5,15.8-9.8c0.9-0.2,1.4-1.1,1.4-1.9
			c0-2,0-4.1,0-6.1C260.1,204.6,258.8,203.4,257.6,203.9z"/>
	</g>
	<g>
		<path fill="#EC3B24" d="M476,185.5c0-44.2-35.8-80-80-80s-80,35.8-80,80c0,42.4,33,77,74.7,79.8c-0.5,1.5-0.8,2.9-1.1,4.5
			c-0.1,0.3-0.2,0.6-0.3,0.9c-1.3,2.9-2.8,5.8-4.1,8.7c-1,2.3,1,4.4,3.3,3.3c4.9-2.3,10.3-3.7,15.7-4.3c2.4-0.3,3.7-3.4,1.3-4.8
			c-3.4-2-5.9-4.8-7.8-8.1C441.1,264.6,476,229.2,476,185.5z"/>
		<path fill="#E1817E" d="M358.9,129.1c-12.6,4.5-23.9,17.4-26.6,30.6c-0.2,0.9,0.5,1.6,1.2,1.8c0,0,0,0.1,0.1,0.1
			c0.7,1.1,2.2,1.1,2.9,0c1-1.7,1.1-3.8,2-5.6c1.4-2.7,3.5-5,5.6-7.2c4.2-4.4,9.8-8.5,15.8-9.8c0.9-0.2,1.4-1.1,1.4-1.9
			c0-2,0-4.1,0-6.1C361.5,129.8,360.2,128.7,358.9,129.1z"/>
	</g>
	<g>
		<path fill="#FAA41A" d="M516.8,146.7c-41.6-15-87.4,6.5-102.4,48.1c-14.4,39.9,4.9,83.7,43.1,100.4c-0.9,1.2-1.8,2.5-2.5,3.8
			c-0.2,0.2-0.4,0.5-0.6,0.7c-2.2,2.3-4.6,4.5-6.8,6.8c-1.7,1.8-0.5,4.5,2,4.3c5.4-0.5,10.9,0,16.2,1.3c2.4,0.6,4.6-2,2.9-4.1
			c-2.5-3-3.9-6.5-4.6-10.3c41.1,13.9,86-7.6,100.8-48.6C579.9,207.5,558.4,161.7,516.8,146.7z"/>
		<path fill="#F7D09A" d="M449.7,165c-12.6,4.5-23.9,17.4-26.6,30.6c-0.2,0.9,0.5,1.6,1.2,1.8c0,0,0,0.1,0.1,0.1
			c0.7,1.1,2.2,1.1,2.9,0c1-1.7,1.1-3.8,2-5.6c1.4-2.7,3.5-5,5.6-7.2c4.2-4.4,9.8-8.5,15.8-9.8c0.9-0.2,1.4-1.1,1.4-1.9
			c0-2,0-4.1,0-6.1C452.2,165.7,450.9,164.6,449.7,165z"/>
	</g>
	<g>
		<path fill="#395B88" d="M551.4,224.2c-41.9-14-87.2,8.6-101.2,50.5c-13.4,40.2,6.8,83.5,45.5,99.4c-0.9,1.2-1.7,2.5-2.4,3.9
			c-0.2,0.2-0.4,0.5-0.6,0.7c-2.2,2.4-4.5,4.6-6.7,6.9c-1.7,1.8-0.4,4.5,2.1,4.2c5.4-0.6,10.9-0.3,16.2,0.9c2.4,0.5,4.6-2.1,2.8-4.1
			c-2.6-3-4.1-6.4-4.8-10.2c41.5,12.9,85.8-9.6,99.7-51C615.9,283.5,593.3,238.2,551.4,224.2z"/>
		<path fill="#6A9AD1" d="M486.2,243.2c-12.6,4.5-23.9,17.4-26.6,30.6c-0.2,0.9,0.5,1.6,1.2,1.8c0,0,0,0.1,0.1,0.1
			c0.7,1.1,2.2,1.1,2.9,0c1-1.7,1.1-3.8,2-5.6c1.4-2.7,3.5-5,5.6-7.2c4.2-4.4,9.8-8.5,15.8-9.8c0.9-0.2,1.4-1.1,1.4-1.9
			c0-2,0-4.1,0-6.1C488.7,243.9,487.4,242.8,486.2,243.2z"/>
	</g>
	<g>
		<path fill="#395B88" d="M361.8,146.3c-5.5-43.8-45.5-74.9-89.4-69.4c-43.8,5.5-74.9,45.5-69.4,89.4c5.3,42.1,42.3,72.3,84,69.9
			c-0.3,1.5-0.5,3-0.5,4.6c-0.1,0.3-0.2,0.6-0.2,0.9c-0.9,3.1-2.1,6.1-3,9.1c-0.7,2.4,1.6,4.3,3.7,2.9c4.6-2.9,9.7-5,15-6.2
			c2.4-0.6,3.2-3.8,0.7-4.9c-3.6-1.5-6.5-4-8.7-7.1C337,229.1,367.2,189.5,361.8,146.3z"/>
		<path fill="#6A9AD1" d="M246.4,99.8c-12.6,4.5-23.9,17.4-26.6,30.6c-0.2,0.9,0.5,1.6,1.2,1.8c0,0,0,0.1,0.1,0.1
			c0.7,1.1,2.2,1.1,2.9,0c1-1.7,1.1-3.8,2-5.6c1.4-2.7,3.5-5,5.6-7.2c4.2-4.4,9.8-8.5,15.8-9.8c0.9-0.2,1.4-1.1,1.4-1.9
			c0-2,0-4.1,0-6.1C249,100.5,247.7,99.3,246.4,99.8z"/>
	</g>
	<g>
		<path fill="#4E2F1B" d="M288.7,305.1c-12.8-42.3-57.5-66.2-99.8-53.3c-42.3,12.8-66.2,57.5-53.3,99.8
			c12.3,40.6,53.9,64.2,94.6,54.7c0,1.5,0.1,3.1,0.3,4.6c0,0.3,0,0.6-0.1,0.9c-0.4,3.2-1,6.3-1.4,9.5c-0.3,2.5,2.3,3.9,4.2,2.2
			c4-3.6,8.8-6.5,13.8-8.6c2.2-0.9,2.5-4.3-0.1-5c-3.8-0.9-7.1-2.9-9.8-5.5C278.2,391,301.3,346.9,288.7,305.1z"/>
		<path fill="#6A9AD1" d="M177.6,271.6c-12.6,4.5-23.9,17.4-26.6,30.6c-0.2,0.9,0.5,1.6,1.2,1.8c0,0,0,0.1,0.1,0.1
			c0.7,1.1,2.2,1.1,2.9,0c1-1.7,1.1-3.8,2-5.6c1.4-2.7,3.5-5,5.6-7.2c4.2-4.4,9.8-8.5,15.8-9.8c0.9-0.2,1.4-1.1,1.4-1.9
			c0-2,0-4.1,0-6.1C180.1,272.3,178.8,271.1,177.6,271.6z"/>
	</g>
	<g>
		<g>
			<path fill="none" stroke="#FAA41A" stroke-miterlimit="10" d="M714,304.3"/>
		</g>
	</g>
	<g>
		<path fill="#EC3B24" d="M570.7,439.2c18.7-40,1.4-87.6-38.6-106.3c-40-18.7-87.6-1.4-106.3,38.6c-17.9,38.4-2.8,83.8,33.8,103.9
			c-1,1.1-2,2.3-2.9,3.6c-0.2,0.2-0.4,0.4-0.7,0.6c-2.4,2.1-5,4-7.4,6.1c-1.9,1.6-0.9,4.5,1.6,4.4c5.4,0,10.9,1,16,2.8
			c2.3,0.8,4.8-1.5,3.2-3.8c-2.2-3.2-3.3-6.8-3.6-10.7C505.5,496.1,552.2,478.8,570.7,439.2z"/>
		<path fill="#E1817E" d="M488.5,338.6c-13.4-1.3-29,5.7-37,16.5c-0.5,0.7-0.2,1.7,0.3,2.2c0,0,0,0.1,0,0.1c0.2,1.3,1.5,2,2.7,1.2
			c1.7-1.1,2.6-3,4.2-4.2c2.4-1.9,5.3-3.1,8.1-4.1c5.7-2.2,12.4-3.5,18.5-2.2c0.9,0.2,1.7-0.3,2.1-1.1c0.9-1.8,1.7-3.7,2.6-5.5
			C490.5,340.3,489.8,338.7,488.5,338.6z"/>
	</g>
	<g>
		<path opacity="0.5" fill="#395B88" d="M453.6,334.2l-3.7-9.3c-1.4,6.7-2.7,13.4-4.2,20l6.6-5.2C452.8,337.9,453.2,336,453.6,334.2
			z"/>
		<path opacity="0.5" fill="#395B88" d="M347.5,575.7c3.6,4.7,6.8,8.9,8.7,14.6c0.8,2.4,1.6,4.9,2.5,7.2c-1.3,4.8-2.3,9.6-2.7,14.5
			h14.2c0.2-4.8,0.7-9.6,1.1-14.3c6.1-8.8,14-16.5,21.6-24.2c11.3-11.4,22.4-23,32-35.9c7.8-10.5,15-21.6,22.2-32.5
			c3.4-5.1,6.6-10.2,9.4-15.7c1.6-3.2,3.1-6.6,3.2-10.2c0.9,0.7,1.9,1.4,2.5,1.8c1.9,1.6,4.2,4.1,6.7,4.4c2.1,0.2,3.1-2.4,2.3-3.9
			c-0.7-1.4-2.9-2.4-4.1-3.3c-1.6-1.1-3.3-2.1-4.9-3.1c-0.7-0.4-1.5-1-2.4-1c-0.6,0-1,0.2-1.4,0.5c-0.2,0.1-0.3,0.1-0.4,0.3
			c-0.5,0.5-0.5,0.9-0.3,1.3c0,0,0,0,0,0.1c-0.4,0.2-0.7,0.6-0.8,1.3c-0.3,4.2-3.7,9-5.7,12.6c-3.1,5.4-6.7,10.5-10.2,15.7
			c-7.8,11.3-15.3,22.9-23.8,33.7c-9.7,12.4-20.8,23.5-32,34.6c-4.2,4.1-8.7,8.6-12.9,13.4c0.3-3.9,0.5-7.8,0.6-11.6
			c12.9-26.7,37.3-49.2,54.4-72.4c8.1-11,15.4-22.7,22.1-34.7l-4.4-3.7c-7.9,14-16.6,27.6-26.4,40.3c-10.9,14.1-23.3,26.9-34.1,41.1
			c0.6-1.7,1.3-3.3,1.9-5c10.5-28.5,18.3-57.9,27.9-86.7c2.6-8,5.4-15.9,8.2-23.8l-2.2-8c-3.7,10.1-7.4,20.2-10.9,30.4
			c-8.7,24.9-15.9,50.3-24.6,75.2c1.6-12.3,2.2-24.8,3-36.8c1.3-19.5,2-39.1,4.1-58.6c0.9-8.7,1.9-17.5,2.6-26.2
			c0.5-5.9,1.5-12.9,0-18.8c2.5-0.1,5.1-0.2,7.5-0.9c1.6-0.5,1.6-2.8,0-3.3c-5-1.5-11-0.4-15.8,1.2c-1.2,0.4-1.6,1.6-1.1,2.7
			c0.2,0.6,0.3,1.2,0.3,1.8c0,1.6,2,1.7,2.6,0.3c0.2-0.6,0.4-1,0.5-1.5c0.9-0.1,1.8-0.2,2.7-0.2c-0.6,6.2-0.5,12.4-1.1,18.6
			c-0.7,8.8-1.8,17.5-2.8,26.2c-2.3,20.1-3.2,40.2-4.5,60.4c-1.4,21.6-2.5,45.1-9.8,65.7c0-4.7-0.1-9.4-0.1-14.1
			c0-15.6,0.4-31.2,0.2-46.8c-0.3-15.9-1.8-31.7-2.3-47.6c-0.9-30.4,4.9-60.8,10.9-90.5c3-14.9,5.6-29.9,8.5-44.8
			c3.1-15.9,6.8-31.8,9.3-47.7c0,0,0-0.1,0-0.1c1.8-0.3,3.5-0.5,5.3-0.5c1.4,0,2.7,0.4,4-0.2c1.3-0.6,1.9-2,0.8-3.2
			c-2.2-2.5-7-1.2-9.8-0.7c-5.2,1-9.4,2.9-13.7,5.8c-0.9,0.7-0.4,2.4,0.8,2c2.5-1,5.3-1.7,8-2.3c-7.6,29.7-12.2,60.3-18.4,90.3
			c-6.1,29.7-12,59.7-11.9,90.1c0,15.8,1.7,31.6,2.1,47.4c0.2,8.2,0.2,16.4,0.1,24.6c-1.1-6.1-2.5-12.1-3.9-17.9
			c-7.1-29.9-18.5-58.7-29.3-87.4c-5.2-13.7-10.1-27.5-14-41.7c-1.9-12.1-2.5-24.4-1-37c2.2-0.3,4.5-0.6,6-1.9c1-0.9,0.8-3-0.5-3.6
			c-2.5-1.2-5.9,0-8.5,0.7c-1.7,0.5-3.5,1.1-5.1,2c-0.5-2.8-1.1-5.5-1.6-8.3c-4.5-24-9.8-47.6-15.3-71.3c-0.7-3.2-1.4-6.5-1.8-9.8
			c-0.2-1.4-0.9-5.3,0.3-6.4c0.2-0.2,0.3-0.4,0.4-0.6c0.3-0.1,0.5-0.2,0.8-0.2c1.7-0.5,3.4-1,5-1.7c2.5-1.2,0.3-4.8-2.1-3.7
			c0.7-0.3-0.1,0-0.2,0.1c-0.3,0.1-0.6,0.2-0.9,0.3c-0.9,0.3-1.9,0.6-2.8,0.9c-1.8,0.6-3.7,0.9-5.4,1.8c-0.6,0.3-1,1.1-1,1.7
			c0,0.2,0,0.3,0.1,0.5l0,0c0.1,0.4,0.4,0.8,0.8,1.1c-1.3,4.7,0.6,11.6,1.2,15.3c1.5,8.1,3.8,16.1,5.7,24.1
			c7.1,30.2,11,61.1,18.5,91.3c2.3,9.3,5.1,18.5,8.2,27.7c5.4,21.1,13.5,41.8,20.6,62.2c7.7,21.9,12.3,43.9,15.5,66.9
			c1.8,13.2,3.3,26.5,4.3,39.8c0.3,3.2,0.4,6.5,0.5,9.7c-0.3,2.4-0.5,4.8-0.8,7.2c-1.8-3.5-4.3-6.5-6.8-9.6
			c-7.5-9.5-14.9-19.2-21.4-29.4c-10.8-16.8-18.7-35.3-27.3-53.2c-15.2-31.4-33.2-66.5-64.2-85.1c1.2-0.4,2.4-0.9,3.5-1.6
			c1.7-1,1.5-3.9-0.6-4.3c-6.1-1.3-12.1,0.4-16.9,4.3c-1.1,0.9-0.6,2.5,0.5,3.1c-0.1,0.1-0.1,0.2-0.2,0.3c-0.4,0.6-0.3,1.4,0,1.9
			c0.3,0.5,0.6,0.9,1.1,1.3c0.8,0.6,1.6,0,1.8-0.7c2-0.8,4-2,6-2.7c0.3-0.1,0.6-0.2,0.9-0.3c31.5,21.6,49.2,55,64.9,89
			c8.2,17.8,15.9,35.9,26.3,52.6C334,557.8,340.7,566.8,347.5,575.7z M314.4,353.1c-1-4.6-1.9-9.2-2.8-13.7c0.2-0.1,0.4-0.2,0.6-0.4
			c1-0.6,2.2-1,3.3-1.3C314.8,342.8,314.4,347.9,314.4,353.1z M360.6,519.6c0.6,3.5,1.2,7.1,1.6,10.6
			C361.7,526.7,361.2,523.2,360.6,519.6z"/>
	</g>
</g>
</svg>
