<?xml version="1.0" encoding="utf-8"?>
<!-- Generator: Adobe Illustrator 18.0.0, SVG Export Plug-In . SVG Version: 6.00 Build 0)  -->
<!DOCTYPE svg PUBLIC "-//W3C//DTD SVG 1.1//EN" "http://www.w3.org/Graphics/SVG/1.1/DTD/svg11.dtd">
<svg version="1.1" xmlns="http://www.w3.org/2000/svg" xmlns:xlink="http://www.w3.org/1999/xlink" x="0px" y="0px" width="792px"
	 height="612px" viewBox="0 0 792 612" enable-background="new 0 0 792 612" xml:space="preserve">
<g id="Layer_2" display="none">
	<circle display="inline" fill="#FAA41A" cx="396" cy="306" r="80"/>
</g>
<g id="Layer_1">
	<path fill="#FAA41A" d="M486.5,317.8l6.1-7.5l-5.4-7.9l4.7-8.4l-6.7-6.9l3.3-9.1l-7.8-5.7l1.7-9.5l-8.6-4.3l0.1-9.6l-9.2-2.8
		l-1.6-9.5l-9.6-1.2l-3.2-9.1l-9.6,0.5l-4.6-8.4l-9.4,2.1l-6-7.5l-8.9,3.6l-7.2-6.4l-8.2,5.1l-8.2-5.1l-7.2,6.4l-8.9-3.6l-6,7.5
		l-9.4-2.1l-4.6,8.4l-9.6-0.5l-3.2,9.1l-9.6,1.2l-1.6,9.5l-9.2,2.8l0.1,9.6l-8.6,4.3l1.7,9.5l-7.8,5.7l3.3,9.1l-6.7,6.9l4.7,8.4
		l-5.4,7.9l6.1,7.5l-4,8.8l7.3,6.3l-2.5,9.3l8.2,5l-0.9,9.6l9,3.5l0.8,9.6l9.4,2l2.4,9.3l9.6,0.3l3.9,8.8l9.5-1.3l5.3,8l9.2-2.9
		l6.6,7l8.6-4.4l7.7,5.8l7.7-5.8l8.6,4.4l6.6-7l9.2,2.9l5.3-8l9.5,1.3l3.9-8.8l9.6-0.3l2.4-9.3l9.4-2l0.8-9.6l9-3.5l-0.9-9.6l8.2-5
		l-2.5-9.3l7.3-6.3L486.5,317.8z M396,380c-40.9,0-74-33.1-74-74s33.1-74,74-74s74,33.1,74,74S436.9,380,396,380z"/>
	<circle fill="none" stroke="#BC7D2B" stroke-miterlimit="10" cx="396" cy="306" r="85.2"/>
	
		<text transform="matrix(0.9271 -0.3749 0.3749 0.9271 336.7393 321.5169)" fill="#395B88" font-family="'WisdomScriptAI'" font-size="24">Satisfaction</text>
	
		<text transform="matrix(0.9271 -0.3749 0.3749 0.9271 352.2349 347.591)" fill="#395B88" font-family="'WisdomScriptAI'" font-size="24">Guaranteed</text>
	<text transform="matrix(1 0 0 1 478.4556 407.4722)" fill="#4E2F1B" font-family="'SourceSansPro-Bold'" font-size="18">probably</text>
</g>
</svg>
