<?xml version="1.0" encoding="utf-8"?>
<!-- Generator: Adobe Illustrator 18.0.0, SVG Export Plug-In . SVG Version: 6.00 Build 0)  -->
<!DOCTYPE svg PUBLIC "-//W3C//DTD SVG 1.1//EN" "http://www.w3.org/Graphics/SVG/1.1/DTD/svg11.dtd">
<svg version="1.1" xmlns="http://www.w3.org/2000/svg" xmlns:xlink="http://www.w3.org/1999/xlink" x="0px" y="0px" width="792px"
	 height="612px" viewBox="0 0 792 612" enable-background="new 0 0 792 612" xml:space="preserve">
<g id="Layer_2" display="none">
	<circle display="inline" fill="#FAA41A" cx="396" cy="306" r="80"/>
</g>
<g id="Layer_1">
	<text transform="matrix(1 0 0 1 63.2451 550.6663)" fill="#395B88" font-family="'SourceSansPro-Bold'" font-size="60">2. Share your source files</text>
	<g>
		<polygon fill="#6A9AD1" points="399.5,108.7 372.7,108.7 372.7,168.6 419.3,168.6 419.3,128.5 		"/>
		<polygon fill="#395B88" points="399.5,128.5 399.5,108.7 419.3,128.5 		"/>
	</g>
	
		<line fill="none" stroke="#D1D3D4" stroke-width="3" stroke-linecap="round" stroke-miterlimit="10" x1="396" y1="212.7" x2="396" y2="177.3"/>
	<g>
		<polygon fill="#6A9AD1" points="258.9,164 240,183 282.3,225.4 315.4,192.3 287,164 		"/>
		<polygon fill="#395B88" points="273,178 258.9,164 287,164 		"/>
	</g>
	
		<line fill="none" stroke="#D1D3D4" stroke-width="3" stroke-linecap="round" stroke-miterlimit="10" x1="330" y1="240" x2="305" y2="215"/>
	<g>
		<polygon fill="#6A9AD1" points="198.7,302.5 198.7,329.3 258.6,329.3 258.6,282.7 218.5,282.7 		"/>
		<polygon fill="#395B88" points="218.5,302.5 198.7,302.5 218.5,282.7 		"/>
	</g>
	
		<line fill="none" stroke="#D1D3D4" stroke-width="3" stroke-linecap="round" stroke-miterlimit="10" x1="302.7" y1="306" x2="267.3" y2="306"/>
	<g>
		<polygon fill="#6A9AD1" points="254,443.1 273,462 315.4,419.7 282.3,386.6 254,415 		"/>
		<polygon fill="#395B88" points="268,429 254,443.1 254,415 		"/>
	</g>
	
		<line fill="none" stroke="#D1D3D4" stroke-width="3" stroke-linecap="round" stroke-miterlimit="10" x1="330" y1="372" x2="305" y2="397"/>
	<g>
		<polygon fill="#6A9AD1" points="392.5,503.3 419.3,503.3 419.3,443.4 372.7,443.4 372.7,483.5 		"/>
		<polygon fill="#395B88" points="392.5,483.5 392.5,503.3 372.7,483.5 		"/>
	</g>
	
		<line fill="none" stroke="#D1D3D4" stroke-width="3" stroke-linecap="round" stroke-miterlimit="10" x1="396" y1="399.3" x2="396" y2="434.7"/>
	<g>
		<polygon fill="#6A9AD1" points="533.1,448 552,429 509.7,386.6 476.6,419.7 505,448 		"/>
		<polygon fill="#395B88" points="519,434 533.1,448 505,448 		"/>
	</g>
	
		<line fill="none" stroke="#D1D3D4" stroke-width="3" stroke-linecap="round" stroke-miterlimit="10" x1="462" y1="372" x2="487" y2="397"/>
	<g>
		<polygon fill="#6A9AD1" points="593.3,309.5 593.3,282.7 533.4,282.7 533.4,329.3 573.5,329.3 		"/>
		<polygon fill="#395B88" points="573.5,309.5 593.3,309.5 573.5,329.3 		"/>
	</g>
	
		<line fill="none" stroke="#D1D3D4" stroke-width="3" stroke-linecap="round" stroke-miterlimit="10" x1="489.3" y1="306" x2="524.7" y2="306"/>
	<g>
		<polygon fill="#6A9AD1" points="538,168.9 519,150 476.6,192.3 509.7,225.4 538,197 		"/>
		<polygon fill="#395B88" points="524,183 538,168.9 538,197 		"/>
	</g>
	
		<line fill="none" stroke="#D1D3D4" stroke-width="3" stroke-linecap="round" stroke-miterlimit="10" x1="462" y1="240" x2="487" y2="215"/>
</g>
</svg>
