<?xml version="1.0" encoding="utf-8"?>
<!-- Generator: Adobe Illustrator 18.0.0, SVG Export Plug-In . SVG Version: 6.00 Build 0)  -->
<!DOCTYPE svg PUBLIC "-//W3C//DTD SVG 1.1//EN" "http://www.w3.org/Graphics/SVG/1.1/DTD/svg11.dtd">
<svg version="1.1" xmlns="http://www.w3.org/2000/svg" xmlns:xlink="http://www.w3.org/1999/xlink" x="0px" y="0px" width="792px"
	 height="612px" viewBox="0 0 792 612" enable-background="new 0 0 792 612" xml:space="preserve">
<g id="Layer_2" display="none">
	<circle display="inline" fill="#FAA41A" cx="396" cy="306" r="80"/>
</g>
<g id="Layer_1">
	<text transform="matrix(1 0 0 1 35.3755 550.6663)" fill="#395B88" font-family="'SourceSansPro-Bold'" font-size="60">3. Use code as a design tool</text>
	<g>
		<path fill="#4E2F1B" d="M301.6,301.3l65.5-25.2v17.2l-25,8.3l-19.2,6.7v0.6l19.2,6.7l25,8.3V341l-65.5-25.2V301.3z"/>
		<path fill="#4E2F1B" d="M490.4,315.8L425,341v-17.2l25-8.3l19.2-6.7v-0.6l-19.2-6.7l-25-8.3v-17.2l65.5,25.2V315.8z"/>
		<path fill="#4E2F1B" d="M385.8,335.8c-2.8,11.8-5.4,25-0.9,26c4.5,1.1,6.8-10.8,9.9-23.9c0.5-2,9.5-39.5,10.3-43.1l1.7,0.4l1.8-15
			c3.3-0.5,5.8-2.9,6.9-5.7c3.4-8.4-1.6-10.9-1-14.8c0.3-2,1.7-4,3.7-5.5c2.1-1.6,4.7-3.1,4.7-3.1s-5.8-1.6-9.4-1.3
			c-6.3,0.5-13.2,4.7-16,10.5c-3.5,7.1-3.4,13.5,2.1,17.4l-5.3,14.5l1.7,0.4C395.2,296.3,386.2,333.9,385.8,335.8z"/>
	</g>
</g>
</svg>
