<?xml version="1.0" encoding="utf-8"?>
<!-- Generator: Adobe Illustrator 18.0.0, SVG Export Plug-In . SVG Version: 6.00 Build 0)  -->
<!DOCTYPE svg PUBLIC "-//W3C//DTD SVG 1.1//EN" "http://www.w3.org/Graphics/SVG/1.1/DTD/svg11.dtd">
<svg version="1.1" xmlns="http://www.w3.org/2000/svg" xmlns:xlink="http://www.w3.org/1999/xlink" x="0px" y="0px" width="792px"
	 height="612px" viewBox="0 0 792 612" enable-background="new 0 0 792 612" xml:space="preserve">
<g id="Layer_2" display="none">
	<circle display="inline" fill="#FAA41A" cx="396" cy="306" r="80"/>
</g>
<g id="Layer_1">
	<text transform="matrix(1 0 0 1 269.0117 550.6663)" fill="#395B88" font-family="'SourceSansPro-Bold'" font-size="60">5. Donate</text>
	<path fill="#EC3B24" d="M394.9,386.6c8,0.5,15.7-2.3,23.6-3.4c3.3-3.3,6.3-7,8.3-10.6c5.1-9,10-19.5,12.8-29.4
		c0.1-0.3,0.1-0.7,0.1-1c7.9-2.8,15.2-7.6,21-13.6c6-6.3,11.4-12.6,16.2-19.4c0.1-0.5,0.1-1,0.1-1.4c0.2-3.6,0.1-7.3-0.5-10.8
		c-1-5.9-2.8-11.8-4.8-17.4c-1.3,1.9-2.3,3.9-3.5,5.9c-0.9,1.7-2,3.3-3.2,4.9c-3.8,2.3-7.5,5-11,7.7c-2.6,2-5.5,3.3-8.4,4.6
		c0.1-5-2.1-10.8-3.1-14.5c-3.3-12-8.1-23.6-14-34.6c-5.2-9.9-13.1-17.4-21.2-25c-0.7-0.6-1.4-1.3-2.1-2c-4-0.3-8-0.9-12.1-0.7
		c-9.6,0.3-18.9,2.8-28,5.8c3.3,1.6,6.6,3.2,9.7,5.4c6,4.3,11.5,10.9,15.8,17.5c4.6,9.7,7.5,20.8,10.6,31c-0.4,4.9,1.8,9.7,2.5,14.6
		c0.8,6.3,0.6,12.9,1.6,19.2c-16.6,4.6-34.7,6.2-51.7,4.9c-8.9-0.7-17.7-2.2-26.2-4.6c-1.8-0.5-3.6-1.1-5.2-1.7
		c-2.4-1.6-4.1-4.3-5.9-6.6c0.3,3.7,1.4,7.2,1.9,10.9c0.4,3.4,0.7,6.5,2.1,9.7c1.7,3.8,4.4,7.9,5.7,12.2c1.3,1.2,2.6,2.4,4.1,3.4
		c8.6,6,20.3,8.5,31.1,9.7c2.5,0.5,5,0.8,7.6,0.6c0,0,0,0,0,0c0.1,0,0.2,0,0.4-0.1c0.4,0.1,0.9,0.2,1.5,0.1c0.5-0.1,1-0.1,1.4-0.1
		c4,0.3,7.9,0.5,12,0.4c0.2,0,0.4,0,0.6-0.1c1.3,0,2.6,0,3.9-0.1c0.3,0,0.5-0.1,0.7-0.1c1.4,0,2.8-0.4,4.2-0.9
		c0.1,0,0.2-0.1,0.4-0.2c2.4-0.2,4.7-0.5,7.1-1.1c-0.1,6.9-3.2,13.1-6.8,18.9c-2.2,3.5-4.7,6.7-7.7,9.6c-0.4,0.4-0.8,0.8-1.2,1.1
		C388.5,385.7,391.9,386.4,394.9,386.6z"/>
	<path fill="#EC3B24" d="M351.1,224.6c0.1,6.6,2.8,14.9,10.2,14.6c4.8-0.2,7-1.2,11.1-3.4c3.3-1.8,7.1-4,9.7-6.9
		c3.3,2.6,8.2,3.8,11.7,1.3c1.2-0.8,2.5-2.2,3.5-3.8c1.7,0.9,3.8,1.4,5.6,1.9c0.1,0.3,0.2,0.5,0.4,0.7c3.6,3.4,10.3,4.6,14.9,2.4
		c6.2-2.9,6.2-12.3,4.8-18c-0.1-0.5-0.3-0.8-0.6-1.1c-0.7-5.6-4.3-11-10.3-10.8c-3.7,0.1-7.4,2.7-10.5,4.4c-3.2,1.8-6.9,2.5-9.9,4.5
		c-2.6-0.9-5.6-0.9-7.7,0.1c-1,0.5-2.1,1.3-3.1,2.3c-3.9-1.9-8.4-3.1-12.6-4.3c-3.6-1-7.2-2.2-11-1.3c-3.1,0.7-4.3,3.3-4.9,6.2
		c-0.1,0.1-0.2,0.3-0.2,0.5l0,0C351.6,217.2,349.9,221.2,351.1,224.6z"/>
	<path fill="#313C50" d="M354.2,235c1.8,2,4.2,2.6,6.7,2.4c0.1-0.2,0.2-0.4,0.5-0.6c6.9-2.3,14-2.9,19.2-8c0-0.1,0.1-0.1,0.1-0.2
		c0.3-0.3,0.6-0.7,0.9-1c-0.4-0.4-0.8-0.8-1-1.3c-0.2-0.3,0-0.6,0.3-0.7c-0.2-0.4-0.3-0.8-0.5-1.3c0-0.1-0.1-0.1-0.1-0.2
		c0-0.1,0-0.2,0-0.2c0-0.2-0.1-0.4-0.1-0.6c0,0,0,0,0,0c-4.2,2-8.6,4.1-13.3,4.2c-1.2,0-1.2-1.8,0-1.8c4.3,0,7.9-1.8,11.8-3.4
		c0.1-0.1,0.1-0.2,0.2-0.3c0.3-0.2,0.5-0.3,0.8-0.5c0-0.2-0.1-0.4-0.1-0.6c0-0.2,0.1-0.3,0.2-0.4c0.1-0.3,0.5-0.5,0.7-0.1
		c0.1,0.2,0.1,0.4,0.2,0.6c0.1,0,0.3,0,0.4,0.1c0.2,0.1,0.4,0.4,0.4,0.7c0.1,0,0.3,0.1,0.3,0.3c0.3,0.8,0.6,1.7,1,2.6
		c1.1,0.9,2.4,1.8,3,3.1c1,0.6,2.5,1,4.1,1.1c1.2,0,2.4-0.2,3.4-0.6c0,0,0,0,0,0c2.1-1.6,4-5.7,4.3-9.4c0-0.2-0.1-0.4-0.1-0.6
		c0-0.2,0-0.4,0.1-0.5c0-0.2,0-0.4,0-0.6c-0.9-2-2.3-3.7-3.9-4.8c-0.6-0.4-0.2-1.5,0.5-1.2c0.1,0,0.1,0,0.2,0.1l0,0
		c0,0,0.1,0,0.1,0.1c0.2,0.1,0.4,0.2,0.6,0.3c3.4,1.8,5,6,4.7,9.9c3.9-1.3,8.1-1.7,11.4-4.3c0.7-0.6,1.8,0.4,1,1
		c-0.2,0.1-0.3,0.3-0.5,0.4c-0.1,0.1-0.1,0.3-0.3,0.3c-0.2,0.1-0.4,0.2-0.5,0.3c-3.3,2.1-7.3,2.6-10.9,4c-0.2,0.1-0.3,0.1-0.5,0
		c-0.1,0.5-0.3,0.9-0.4,1.3c-0.1,0.4-0.2,0.9-0.3,1.3c0.2,0.1,0.3,0.2,0.5,0.3c0.1-0.1,0.3-0.1,0.4-0.2c0.4-0.1,0.8,0,1,0.3
		c0.2,0,0.4,0.1,0.5,0.2l0,0c0.1,0,0.2-0.1,0.3-0.1c0.1,0,0.1,0,0.2-0.1c0.5-0.2,1,0.1,1.1,0.5c0,0,0.1,0,0.1,0.1
		c4.6,5.9,12.7,5.4,18.2,1.1c0.4-0.3,0.8,0.1,0.5,0.5c-0.1,0.2-0.3,0.3-0.4,0.5c-0.1,0.2-0.4,0.1-0.5,0c0,0.2-0.1,0.4-0.3,0.5
		c-0.9,0.6-1.8,1.3-2.8,1.7c-2,0.8-4.1,1.5-6.3,1.2c-2-0.3-3.8-1-5.7-1.8c-0.9-0.4-2.3-1.9-3.4-2c0,0,0,0,0,0
		c-0.5,0.2-0.9,0.5-1.4,0.7c-0.3,0.2-0.7,0.1-0.9-0.2c-0.7,0.3-1.4,0.5-2.1,0.6c-0.4,0.3-0.7,0.6-1.1,0.9c-0.1,0.1-0.3,0.1-0.4,0.1
		c0,0-0.1,0.1-0.1,0.1c-0.2,0.2-0.5,0.3-0.7,0.5c-0.3,0.1-0.5,0.2-0.7,0.1c-1.5,0.9-3.1,1.5-4.9,1.6c-2.5,0.2-5.7-2-7.1-4.2
		c-2.7,3.3-6.2,5.4-10,6.9c0,0.2-0.2,0.4-0.4,0.5c-1.1,0.6-2.3,1-3.5,1.2c-5.3,1.8-12.4,3.8-15.5-1.6
		C352.8,235.2,353.7,234.4,354.2,235z"/>
</g>
</svg>
