<?xml version="1.0" encoding="utf-8"?>
<!-- Generator: Adobe Illustrator 18.1.1, SVG Export Plug-In . SVG Version: 6.00 Build 0)  -->
<!DOCTYPE svg PUBLIC "-//W3C//DTD SVG 1.1//EN" "http://www.w3.org/Graphics/SVG/1.1/DTD/svg11.dtd">
<svg version="1.1" id="Layer_1" xmlns="http://www.w3.org/2000/svg" xmlns:xlink="http://www.w3.org/1999/xlink" x="0px" y="0px"
	 viewBox="-3 -6 792 612" enable-background="new -3 -6 792 612" xml:space="preserve">
<g id="Layer_2" display="none">
	<circle display="inline" fill="#FAA41A" cx="393" cy="300" r="80"/>
</g>
<g id="Layer_1_1_">
	<g>
		<path d="M393,321.2c-6,0-10.8,4.8-10.8,10.8v10.8h21.6V332C403.8,326,399,321.2,393,321.2z"/>
		<rect x="416" y="268" width="7.6" height="28.8"/>
		<rect x="362.4" y="265.3" width="8.8" height="35"/>
	</g>
	<g>
		<path d="M393,380c18.8,0,36.1-6.5,49.8-17.4h-99.6C356.9,373.5,374.2,380,393,380z"/>
		<path d="M393,220c-22.3,0-42.4,9.1-56.9,23.8h113.8C435.4,229.1,415.3,220,393,220z"/>
	</g>
</g>
<g>
	<path d="M213,290.7c-4.6,0-8.3,3.7-8.3,8.3c0,4,2.8,7.3,6.6,8.1v44.2c0.6,0,1.1,0,1.7,0c0.6,0,1.1,0,1.7,0v-44.2
		c3.8-0.8,6.6-4.1,6.6-8.1C221.3,294.4,217.6,290.7,213,290.7"/>
	<path d="M265.4,299c0-28.9-23.4-52.4-52.3-52.4c-28.9,0-52.4,23.4-52.4,52.4c0,27.2,20.7,49.5,47.2,52.1v0
		c-0.1-21.3-13-37.7-18.3-43.6v0c0,0-2.2-2.6-0.9-5.8l9.7-24.6c0,0,1.8-4.5,5.8-4.5h8.9h8.9c4,0,5.8,4.5,5.8,4.5l9.7,24.6
		c1.2,3.1-0.9,5.8-0.9,5.8v0c-5.3,5.9-18.1,22.3-18.3,43.6l0,0C244.6,348.5,265.4,326.2,265.4,299"/>
</g>
<g>
	<g>
		<path d="M554.6,314.3l-3.5,0.3c0,0.7,0,1.2,0,1.7c0.1,4.3,2.5,5.2,4.6,5.2c0.3,0,0.5,0,0.5,0c0,0,0,0,0.1,0l5.8-0.6
			c0.2-0.7,0.2-1.2,0.2-1.2s-0.8-36.4-1-41c0-1-0.3-1.8-0.7-2.5c-2.1-0.2-4-0.3-5.5-0.4c-0.2,0-0.4,0-0.6,0c-1.4,0-2.5,0.4-3.1,1.1
			c-1,1.1-0.9,2.8-0.9,2.8c0,0,0,0.1,0,0.1c0,0.1,0,1,0.1,2.6c2.8,0.2,4.9,0.3,4.9,0.3s3.2,0.7,3.4,4c0.2,3.6,0.1,23.8,0.1,23.8
			S559.2,313.5,554.6,314.3z"/>
		<path d="M543.5,315.1l-5.8,0.4c0,0-4.8,0.7-4.9-4.6c-0.1-3.9-0.6-25.7-0.6-25.7s-0.3-4.1,4.6-3.7c1.5,0.1,3.7,0.2,6,0.4
			c-0.1-3.6-0.1-6.8-0.2-9.2c-3.1-0.2-6.1-0.5-8.1-0.7c-6.5-0.7-6.1,4.7-6.1,4.7s0.8,40.2,0.9,45.1c0.2,5.9,6.5,4.9,6.5,4.9l7.8-0.8
			C543.7,322.9,543.6,319.2,543.5,315.1z"/>
	</g>
	<path d="M613,265.2c-0.3-7.5-6.9-9.1-6.9-9.1s-22.9-3.4-32.9-4.7c-10-1.2-9.4,8.5-9.4,8.5s2.3,70.9,2.5,79.7
		c0.3,10.5,10,8.8,10,8.8l34.5-6c6.3-1.3,6.6-9.1,6.6-9.1S613.3,273.4,613,265.2z M605.3,325.5l-25.7,2.7c0,0-7.5,1.1-7.6-7.9
		c-0.1-6.7-1.6-45-1.6-45s-0.5-7,7.2-6.4c7.8,0.6,26.7,2,26.7,2s5,1.2,5.3,6.9c0.2,6.2,2.4,40.9,2.4,40.9S612.4,324.2,605.3,325.5z"
		/>
	<g>
		<path d="M579.5,326.8l9.9-1c-0.5-10.1-2.2-49.2-2.5-54.9c0,0,0-0.1,0-0.1c-3.6-0.3-7-0.5-9.4-0.7c-0.3,0-0.5,0-0.8,0
			c-1.6,0-2.9,0.4-3.7,1.3c-1.4,1.4-1.2,3.7-1.2,3.7c0,0,0,0,0,0c0,0,0,0.2,0,0.6c4,0.3,7.1,0.6,7.1,0.6s4.3,1,4.5,5.7
			c0.2,5.1,1.4,32.8,1.4,32.8s0.5,4.7-5.7,5.7l-5.7,0.5c0.4,4.7,3.1,5.7,5.5,5.7C579.2,326.8,579.4,326.8,579.5,326.8L579.5,326.8
			C579.4,326.8,579.5,326.8,579.5,326.8z"/>
		<path d="M564.4,321.9l-8,0.8c0,0-6.4,0.9-6.6-6.5c-0.1-5.5-0.7-36.5-0.7-36.5s-0.4-5.7,6.2-5.3c1.9,0.1,4.7,0.4,7.7,0.6
			c-0.2-5.9-0.3-10.6-0.4-13.1c-3.9-0.4-7.6-0.8-10.3-1.1c-8.7-1-8.2,6.7-8.2,6.7s1,57,1.2,64c0.2,8.3,8.7,7,8.7,7l10.9-1.4
			C564.7,333.9,564.6,328.4,564.4,321.9z"/>
	</g>
</g>
</svg>
