<?xml version="1.0" encoding="utf-8"?>
<!-- Generator: Adobe Illustrator 18.1.1, SVG Export Plug-In . SVG Version: 6.00 Build 0)  -->
<!DOCTYPE svg PUBLIC "-//W3C//DTD SVG 1.1//EN" "http://www.w3.org/Graphics/SVG/1.1/DTD/svg11.dtd">
<svg version="1.1" id="Layer_1" xmlns="http://www.w3.org/2000/svg" xmlns:xlink="http://www.w3.org/1999/xlink" x="0px" y="0px"
	 viewBox="-3 -6 792 612" enable-background="new -3 -6 792 612" xml:space="preserve">
<g id="Layer_2" display="none">
	<circle display="inline" fill="#FAA41A" cx="393" cy="300" r="80"/>
</g>
<g id="Layer_1_1_">
	<text transform="matrix(1 0 0 1 268.6038 450.1107)" fill="#395B88" font-family="'SourceSansPro-Bold'" font-size="36">designopen.org</text>
	<text transform="matrix(1 0 0 1 312.5586 505.7279)" fill="#395B88" font-family="'SourceSansPro-Bold'" font-size="36">@garthdb</text>
	<g>
		<path d="M395.4,370.7v-59.9c5.2-1.1,9-5.7,9-11.2c0-6.3-5.1-11.4-11.4-11.4s-11.4,5.1-11.4,11.4c0,5.5,3.9,10.1,9,11.2v59.9
			c0.8,0,1.6,0.1,2.4,0.1S394.6,370.7,395.4,370.7z"/>
		<path d="M463.8,300c0-39.1-31.7-70.8-70.8-70.8s-70.8,31.7-70.8,70.8c0,36.7,27.9,66.9,63.7,70.4c-0.5-28.9-17.9-51.1-25.1-59.1
			l0,0c0,0-3-3.6-1.3-7.9l13.3-33.8c0,0,2.5-6.2,7.9-6.2H393h12.2c5.5,0,7.9,6.2,7.9,6.2l13.3,33.8c1.7,4.3-1.3,7.9-1.3,7.9l0,0
			c-7.2,8-24.6,30.3-25.1,59.1C435.9,366.9,463.8,336.7,463.8,300z"/>
	</g>
</g>
</svg>
