<?xml version="1.0" encoding="utf-8"?>
<!-- Generator: Adobe Illustrator 18.0.0, SVG Export Plug-In . SVG Version: 6.00 Build 0)  -->
<!DOCTYPE svg PUBLIC "-//W3C//DTD SVG 1.1//EN" "http://www.w3.org/Graphics/SVG/1.1/DTD/svg11.dtd">
<svg version="1.1" xmlns="http://www.w3.org/2000/svg" xmlns:xlink="http://www.w3.org/1999/xlink" x="0px" y="0px" width="792px"
	 height="612px" viewBox="0 0 792 612" enable-background="new 0 0 792 612" xml:space="preserve">
<g id="Layer_2" display="none">
	<circle display="inline" fill="#FAA41A" cx="396" cy="306" r="80"/>
</g>
<g id="Layer_1">
	<path fill="#EC3B24" d="M459.3,355.9c5.3-6,7.8-13.9,11.6-20.8c-0.6-4.6-1.8-9.2-3.4-13.1c-4-9.5-9.4-19.8-15.6-28.1
		c-0.2-0.3-0.5-0.5-0.7-0.7c2.6-8,3.2-16.7,1.9-24.9c-1.4-8.5-3-16.7-5.6-24.7c-0.3-0.3-0.7-0.7-1.1-1c-2.7-2.3-5.7-4.5-8.9-6.2
		c-5.3-2.8-11-4.9-16.8-6.7c0.7,2.2,1.7,4.2,2.6,6.3c0.8,1.8,1.4,3.6,2,5.5c-0.5,4.4-0.5,9-0.5,13.4c0,3.2-0.7,6.3-1.4,9.4
		c-3.9-3.1-9.8-4.9-13.4-6.3c-11.5-4.7-23.7-7.8-36-9.9c-11.1-1.9-21.8-0.2-32.7,1.7c-0.9,0.2-1.9,0.3-2.8,0.5
		c-2.7,3-5.6,5.8-7.9,9.2c-5.6,7.8-9.3,16.7-12.4,25.7c3.3-1.7,6.5-3.3,10.2-4.4c7.1-2.1,15.6-2.5,23.5-2c10.5,2.2,21,6.7,31.1,10.4
		c3.7,3.3,8.9,4.5,13.1,6.9c5.5,3.2,10.6,7.4,16.3,10.4c-6.5,15.9-16.2,31.3-27.5,44.1c-5.9,6.6-12.5,12.7-19.6,18.1
		c-1.5,1.2-3,2.2-4.5,3.1c-2.8,0.9-5.9,0.7-8.8,0.7c3.1,2,6.6,3.2,9.8,5.1c2.9,1.7,5.6,3.4,9,4.2c4,1,8.9,1.3,13.1,2.9
		c1.7-0.3,3.5-0.6,5.2-1.2c9.9-3.2,19.1-10.9,26.6-18.8c1.9-1.7,3.6-3.5,5.1-5.6c0,0,0,0,0,0c0.1-0.1,0.1-0.2,0.2-0.3
		c0.4-0.2,0.7-0.6,1-1.1c0.2-0.4,0.5-0.8,0.8-1.2c2.7-2.9,5.2-6,7.6-9.2c0.1-0.2,0.2-0.4,0.3-0.6c0.8-1,1.6-2.1,2.2-3.2
		c0.1-0.2,0.2-0.4,0.3-0.7c0.8-1.2,1.4-2.5,1.9-3.9c0-0.1,0.1-0.2,0.1-0.4c1.3-2,2.4-4.1,3.4-6.3c5.4,4.3,8.4,10.5,10.9,16.9
		c1.5,3.9,2.5,7.8,3,12c0.1,0.6,0.1,1.1,0.2,1.7C454.8,360.4,457.3,358.1,459.3,355.9z"/>
	<path fill="#EC3B24" d="M407.9,213.8c-3.8,5.4-6.5,13.6-0.4,17.8c4,2.7,6.4,3.2,11,3.8c3.7,0.5,8.1,1,11.9,0.2
		c1.1,4.1,4.4,7.8,8.6,7.9c1.5,0,3.3-0.4,5-1c0.9,1.8,2.3,3.4,3.5,4.8c-0.1,0.3-0.1,0.5-0.1,0.8c0.9,4.8,5.7,9.8,10.6,10.8
		c6.8,1.3,12.3-6.3,14.5-11.7c0.2-0.4,0.3-0.8,0.2-1.2c2.8-4.9,3-11.4-1.9-14.8c-3-2.1-7.5-2.2-11-2.6c-3.7-0.4-7-2.1-10.6-2.2
		c-1.6-2.3-3.9-4-6.3-4.5c-1.1-0.2-2.5-0.2-3.9,0.1c-2-3.8-4.9-7.5-7.6-10.9c-2.3-2.9-4.6-6-8.1-7.5c-3-1.3-5.5,0.1-7.6,2.1
		c-0.2,0.1-0.3,0.2-0.5,0.3l0,0C412.6,208.1,408.8,210.4,407.9,213.8z"/>
	<path fill="#313C50" d="M404.2,224c0.3,2.7,1.9,4.5,4,5.9c0.2-0.2,0.4-0.2,0.8-0.1c6.9,2.2,13,5.9,20.3,4.9c0.1,0,0.1-0.1,0.2-0.1
		c0.4-0.1,0.9-0.2,1.3-0.2c-0.1-0.5-0.1-1.1-0.1-1.7c0-0.3,0.4-0.4,0.6-0.4c0.1-0.4,0.2-0.9,0.4-1.3c0-0.1,0-0.1,0-0.2
		c0-0.1,0.1-0.2,0.1-0.2c0.1-0.2,0.1-0.4,0.2-0.6c0,0,0,0,0,0c-4.6-0.9-9.4-1.8-13.2-4.5c-1-0.7,0.1-2.2,1.1-1.5
		c3.4,2.5,7.5,3.2,11.5,4.2c0.1-0.1,0.2-0.1,0.4-0.1c0.3,0,0.6,0.1,0.9,0.1c0.1-0.2,0.2-0.4,0.3-0.6c0.1-0.2,0.2-0.2,0.4-0.2
		c0.2-0.2,0.7-0.1,0.6,0.3c0,0.2-0.1,0.4-0.2,0.6c0.1,0.1,0.2,0.2,0.2,0.3c0.1,0.2,0.1,0.6-0.1,0.8c0.1,0.1,0.1,0.3,0.1,0.4
		c-0.3,0.9-0.5,1.8-0.7,2.7c0.4,1.4,0.8,2.8,0.5,4.3c0.4,1.1,1.4,2.2,2.7,3.3c1,0.7,2.1,1.2,3.1,1.5c0,0,0,0,0,0
		c2.6,0,6.6-2.3,9-5.1c0.1-0.2,0.2-0.3,0.3-0.5c0.1-0.2,0.2-0.3,0.4-0.3c0.1-0.2,0.2-0.3,0.3-0.5c0.5-2.1,0.4-4.3-0.3-6.2
		c-0.2-0.6,0.7-1.3,1.1-0.7c0,0,0.1,0.1,0.1,0.1l0,0c0,0,0,0.1,0.1,0.1c0.1,0.2,0.2,0.4,0.3,0.6c1.6,3.5,0.5,7.8-2.1,10.7
		c3.9,1.2,7.5,3.4,11.7,3.3c0.9,0,1.2,1.4,0.2,1.4c-0.2,0-0.4,0-0.6,0c-0.1,0.1-0.3,0.1-0.4,0.1c-0.2,0-0.4-0.1-0.6-0.1
		c-3.9-0.2-7.4-2.2-11.2-3.2c-0.2-0.1-0.3-0.1-0.4-0.3c-0.4,0.3-0.7,0.6-1.1,0.8c-0.3,0.3-0.7,0.6-1,0.8c0.1,0.2,0.2,0.3,0.2,0.5
		c0.1,0,0.3,0.1,0.4,0.1c0.3,0.1,0.6,0.5,0.6,0.9c0.1,0.1,0.2,0.3,0.3,0.5l0,0c0.1,0,0.2,0.1,0.3,0.1c0.1,0,0.1,0,0.2,0.1
		c0.6,0.1,0.8,0.7,0.6,1.1c0,0,0,0.1,0,0.1c0.3,7.5,7.1,11.9,14,11.6c0.5,0,0.6,0.6,0.1,0.7c-0.2,0.1-0.4,0.1-0.6,0.2
		c-0.2,0.1-0.4-0.1-0.4-0.3c-0.2,0.2-0.3,0.2-0.6,0.2c-1.1,0-2.2,0-3.3-0.3c-2.1-0.5-4.2-1.2-5.8-2.7c-1.5-1.4-2.5-3.1-3.5-4.8
		c-0.5-0.9-0.8-2.9-1.5-3.7c0,0,0,0,0,0c-0.5-0.1-1-0.2-1.5-0.2c-0.4-0.1-0.6-0.3-0.6-0.6c-0.7-0.2-1.4-0.4-2.1-0.7
		c-0.5,0-0.9,0-1.4,0c-0.2,0-0.3-0.1-0.4-0.2c-0.1,0-0.1,0-0.2,0c-0.3,0-0.6,0-0.8,0c-0.3,0-0.5-0.2-0.7-0.3
		c-1.7-0.2-3.4-0.7-4.9-1.6c-2.2-1.3-3.4-4.9-3.3-7.6c-4.1,1-8.2,0.7-12.1-0.4c-0.2,0.1-0.4,0.2-0.6,0.2c-1.3-0.2-2.4-0.6-3.5-1
		c-5.4-1.6-12.3-4.3-11.5-10.4C403,223.3,404.1,223.2,404.2,224z"/>
</g>
</svg>
