<svg xmlns="http://www.w3.org/2000/svg" width="792" height="612" viewBox="0 0 792 612"><g id="Layer_1"><path fill="#EC3B24" d="M459.3 355.9c5.3-6 7.8-13.9 11.6-20.8-.6-4.6-1.8-9.2-3.4-13.1-4-9.5-9.4-19.8-15.6-28.1-.2-.3-.5-.5-.7-.7 2.6-8 3.2-16.7 1.9-24.9-1.4-8.5-3-16.7-5.6-24.7-.3-.3-.7-.7-1.1-1-2.7-2.3-5.7-4.5-8.9-6.2-5.3-2.8-11-4.9-16.8-6.7.7 2.2 1.7 4.2 2.6 6.3.8 1.8 1.4 3.6 2 5.5-.5 4.4-.5 9-.5 13.4 0 3.2-.7 6.3-1.4 9.4-3.9-3.1-9.8-4.9-13.4-6.3-11.5-4.7-23.7-7.8-36-9.9-11.1-1.9-21.8-.2-32.7 1.7-.9.2-1.9.3-2.8.5-2.7 3-5.6 5.8-7.9 9.2-5.6 7.8-9.3 16.7-12.4 25.7 3.3-1.7 6.5-3.3 10.2-4.4 7.1-2.1 15.6-2.5 23.5-2 10.5 2.2 21 6.7 31.1 10.4 3.7 3.3 8.9 4.5 13.1 6.9 5.5 3.2 10.6 7.4 16.3 10.4-6.5 15.9-16.2 31.3-27.5 44.1-5.9 6.6-12.5 12.7-19.6 18.1-1.5 1.2-3 2.2-4.5 3.1-2.8.9-5.9.7-8.8.7 3.1 2 6.6 3.2 9.8 5.1 2.9 1.7 5.6 3.4 9 4.2 4 1 8.9 1.3 13.1 2.9 1.7-.3 3.5-.6 5.2-1.2 9.9-3.2 19.1-10.9 26.6-18.8 1.9-1.7 3.6-3.5 5.1-5.6.1-.1.1-.2.2-.3.4-.2.7-.6 1-1.1.2-.4.5-.8.8-1.2 2.7-2.9 5.2-6 7.6-9.2l.3-.6c.8-1 1.6-2.1 2.2-3.2.1-.2.2-.4.3-.7.8-1.2 1.4-2.5 1.9-3.9 0-.1.1-.2.1-.4 1.3-2 2.4-4.1 3.4-6.3 5.4 4.3 8.4 10.5 10.9 16.9 1.5 3.9 2.5 7.8 3 12 .1.6.1 1.1.2 1.7 2.1-2.4 4.6-4.7 6.6-6.9zM407.9 213.8c-3.8 5.4-6.5 13.6-.4 17.8 4 2.7 6.4 3.2 11 3.8 3.7.5 8.1 1 11.9.2 1.1 4.1 4.4 7.8 8.6 7.9 1.5 0 3.3-.4 5-1 .9 1.8 2.3 3.4 3.5 4.8-.1.3-.1.5-.1.8.9 4.8 5.7 9.8 10.6 10.8 6.8 1.3 12.3-6.3 14.5-11.7.2-.4.3-.8.2-1.2 2.8-4.9 3-11.4-1.9-14.8-3-2.1-7.5-2.2-11-2.6-3.7-.4-7-2.1-10.6-2.2-1.6-2.3-3.9-4-6.3-4.5-1.1-.2-2.5-.2-3.9.1-2-3.8-4.9-7.5-7.6-10.9-2.3-2.9-4.6-6-8.1-7.5-3-1.3-5.5.1-7.6 2.1-.2.1-.3.2-.5.3-2.6 2.1-6.4 4.4-7.3 7.8z"/><path fill="#313C50" d="M404.2 224c.3 2.7 1.9 4.5 4 5.9.2-.2.4-.2.8-.1 6.9 2.2 13 5.9 20.3 4.9.1 0 .1-.1.2-.1.4-.1.9-.2 1.3-.2-.1-.5-.1-1.1-.1-1.7 0-.3.4-.4.6-.4.1-.4.2-.9.4-1.3v-.2c0-.1.1-.2.1-.2.1-.2.1-.4.2-.6-4.6-.9-9.4-1.8-13.2-4.5-1-.7.1-2.2 1.1-1.5 3.4 2.5 7.5 3.2 11.5 4.2.1-.1.2-.1.4-.1.3 0 .6.1.9.1l.3-.6c.1-.2.2-.2.4-.2.2-.2.7-.1.6.3 0 .2-.1.4-.2.6.1.1.2.2.2.3.1.2.1.6-.1.8.1.1.1.3.1.4-.3.9-.5 1.8-.7 2.7.4 1.4.8 2.8.5 4.3.4 1.1 1.4 2.2 2.7 3.3 1 .7 2.1 1.2 3.1 1.5 2.6 0 6.6-2.3 9-5.1.1-.2.2-.3.3-.5.1-.2.2-.3.4-.3.1-.2.2-.3.3-.5.5-2.1.4-4.3-.3-6.2-.2-.6.7-1.3 1.1-.7l.1.1s0 .1.1.1l.3.6c1.6 3.5.5 7.8-2.1 10.7 3.9 1.2 7.5 3.4 11.7 3.3.9 0 1.2 1.4.2 1.4h-.6c-.1.1-.3.1-.4.1-.2 0-.4-.1-.6-.1-3.9-.2-7.4-2.2-11.2-3.2-.2-.1-.3-.1-.4-.3-.4.3-.7.6-1.1.8-.3.3-.7.6-1 .8.1.2.2.3.2.5.1 0 .3.1.4.1.3.1.6.5.6.9.1.1.2.3.3.5.1 0 .2.1.3.1.1 0 .1 0 .2.1.6.1.8.7.6 1.1v.1c.3 7.5 7.1 11.9 14 11.6.5 0 .6.6.1.7-.2.1-.4.1-.6.2-.2.1-.4-.1-.4-.3-.2.2-.3.2-.6.2-1.1 0-2.2 0-3.3-.3-2.1-.5-4.2-1.2-5.8-2.7-1.5-1.4-2.5-3.1-3.5-4.8-.5-.9-.8-2.9-1.5-3.7-.5-.1-1-.2-1.5-.2-.4-.1-.6-.3-.6-.6-.7-.2-1.4-.4-2.1-.7h-1.4c-.2 0-.3-.1-.4-.2h-1c-.3 0-.5-.2-.7-.3-1.7-.2-3.4-.7-4.9-1.6-2.2-1.3-3.4-4.9-3.3-7.6-4.1 1-8.2.7-12.1-.4-.2.1-.4.2-.6.2-1.3-.2-2.4-.6-3.5-1-5.4-1.6-12.3-4.3-11.5-10.4.2-.8 1.3-.9 1.4-.1z"/></g></svg>