<?xml version="1.0" encoding="utf-8"?>
<!-- Generator: Adobe Illustrator 18.0.0, SVG Export Plug-In . SVG Version: 6.00 Build 0)  -->
<!DOCTYPE svg PUBLIC "-//W3C//DTD SVG 1.1//EN" "http://www.w3.org/Graphics/SVG/1.1/DTD/svg11.dtd">
<svg version="1.1" xmlns="http://www.w3.org/2000/svg" xmlns:xlink="http://www.w3.org/1999/xlink" x="0px" y="0px" width="792px"
	 height="612px" viewBox="0 0 792 612" enable-background="new 0 0 792 612" xml:space="preserve">
<g id="Layer_2" display="none">
	<circle display="inline" fill="#FAA41A" cx="396" cy="306" r="80"/>
</g>
<g id="Layer_1">
	<path fill="#85522D" d="M479.1,315.6c0-0.3,0-0.5-0.1-0.7c4.9-18.9,4.1-38.9-4.1-57c-4-8.8-9.9-16.5-16.3-23.8
		c-3-3.4-8.1-8.7-12.9-8.1c-3.1-1-7.7,3.4-9.4,5.6c-4.7,5.6-8.7,13-7.3,20.4c1.1,6,4.9,11.1,8.9,16c2.2,7.6,4.7,15.1,8,22.1
		c0.2,0.5,0.6,0.9,1,1.2c0.6,4.8,1.2,9.5,1.5,14.3c-0.9,10.6-3,22.7-8.4,31.7c-1.2,1.4-2.2,2.7-3,4.2c-0.9,1-1.8,2-2.8,2.9
		c-6.6,5.9-12.5-0.2-18.2-4.1c-1.3-0.9-2.7-1.7-4.1-2.3c-1.7-1.3-3.4-2.5-5.2-3.6c-13.1-7.6-26.8-5.1-40.8-1.9
		c-5.6,1.3-12.4,3.6-18,1.2c-6.9-2.9-9.8-12.8-11.3-19.4c-1.5-6.8-1.1-13.9-0.8-20.8c0.3-6,0.4-12.1,2.3-17.9
		c1.9-5.9,7.5-7.6,13.1-8.3c6.5-0.8,12.6-3.2,18.3-6.2c10-5.4,20.5-16.7,32.5-15.9c6.2,0.4,12.9,2.7,18.5,0.7
		c0.6,0.1,1.3-0.1,1.8-0.6c0.2-0.2,0.4-0.4,0.6-0.6c1.1-0.7,2.1-1.6,3.1-2.9c7-8.9,3.5-23.2-1.9-31.9c-1.3-2.2-3.2-3.9-5.3-5.3
		c-0.6-0.4-1.3-0.5-1.9-0.3c-0.1,0-0.2,0-0.3,0c-0.9-0.7-1.8-1.1-2.8-1.2c-4.1-1.6-9.1-2-12.9-1.9c-10.9,0.4-21.6,4.4-31.4,8.8
		c-18.6,8.3-35.8,25.8-43.4,45.6c-1.4,1.9-2.5,4.2-3.5,6.1c-3,5.7-5.3,11.8-7.4,18c-4.8,14.5-4.2,28.9-1.5,43.8
		c1.5,8.1,3.7,16.1,7.1,23.6c3.5,7.6,9,14.2,14.4,20.5c5.9,6.8,12.1,12.9,16.2,21.1c3.7,7.4,5.4,16,9.9,23.1c0.3,0.4,0.6,0.7,1,0.9
		c0.3,0.8,1,1.3,1.6,1.4c1.1,1.4,3.1,2.1,4.5,0.3c6.9-8.6,19.4-11.1,29.2-14.6c6.9-2.4,13.5-6.6,20-9.9c6.7-3.4,13.5-6.7,19.9-10.7
		c10.7-6.7,19.4-16.1,26.6-26.4c3.9-5.5,7.1-11.4,9.8-17.6c1.2-2.7,2.3-5.6,3.2-8.4C478.5,323,478.5,319.6,479.1,315.6z"/>
	<g>
		<path fill="#20201F" d="M320.8,312.5c-2.3,4.5-4.5,9-6.5,13.6c0.2,0.8,0.3,1.5,0.5,2.3c2.1-5.2,4.7-10.2,7.2-15.2
			C322.3,312.4,321.2,311.7,320.8,312.5z"/>
		<path fill="#20201F" d="M320.7,325.3c-1.5,3.2-2.8,6.5-4.1,9.8c0.2,0.5,0.3,1.1,0.5,1.6c1.5-3.6,3-7.3,4.6-10.9
			C321.9,325.2,321,324.7,320.7,325.3z"/>
		<path fill="#20201F" d="M323.1,331.1c-1.8,2.7-3.6,5.4-5.2,8.2c0.2,0.7,0.5,1.4,0.7,2.1c1.9-3.2,3.9-6.3,5.9-9.5
			C325,331,323.6,330.3,323.1,331.1z"/>
		<path fill="#20201F" d="M327.7,338.5c-2.4,2.9-4.6,5.9-6.6,9c0.3,0.6,0.6,1.2,0.9,1.8c2.2-3.3,4.5-6.5,6.9-9.6
			C329.6,338.8,328.4,337.6,327.7,338.5z"/>
		<path fill="#20201F" d="M332.7,344.4c-2.6,3.4-5,7-7.3,10.6c0.3,0.5,0.7,1,1,1.5c2.5-3.7,5-7.5,7.5-11.2
			C334.4,344.6,333.3,343.7,332.7,344.4z"/>
		<path fill="#20201F" d="M336.4,342.9c-3.5,4.3-6.8,9-9.7,14c0.5,0.6,0.9,1.3,1.4,1.9c3.1-5,6.5-10,9.8-14.8
			C338.6,343.2,337.1,342.1,336.4,342.9z"/>
		<path fill="#20201F" d="M343.7,355.5c-2.9,4-5.5,8.3-8,12.6c0.5,0.6,1,1.2,1.5,1.7c2.6-4.5,5.3-9,8.2-13.4
			C346.1,355.4,344.4,354.5,343.7,355.5z"/>
		<path fill="#20201F" d="M352.6,350c-4.6,7.1-9.5,14-14.1,21.1c0.6,0.7,1.2,1.3,1.8,2c4.7-7.3,9.6-14.5,14.2-22.1
			C355.2,349.9,353.3,348.9,352.6,350z"/>
		<path fill="#20201F" d="M355.4,369.4c-2.7,4.1-5.4,8.2-8,12.4c0.5,0.7,1,1.4,1.4,2.1c2.8-4.5,5.6-9,8.5-13.4
			C358,369.3,356.1,368.3,355.4,369.4z"/>
		<path fill="#20201F" d="M357.2,381c-1.9,2.7-3.7,5.4-5.5,8.2c0.4,0.8,0.7,1.6,1.1,2.4c2-3.2,4-6.4,6.1-9.6
			C359.7,380.9,358,379.9,357.2,381z"/>
		<path fill="#20201F" d="M372.9,372.7c-6.3,8.5-11.8,17.5-17.1,26.6c0.2,0.6,0.5,1.2,0.7,1.9c5.6-9.4,11.3-18.9,17.8-27.7
			C374.9,372.6,373.5,371.9,372.9,372.7z"/>
		<path fill="#20201F" d="M386.5,366.1c0.7-1.4-1.4-2.6-2.2-1.2c-7.3,13.2-14.4,26.4-21.5,39.7c-0.9,1.7-1.8,3.4-2.7,5.1
			c0.4,0.7,0.8,1.4,1.2,2.1c0.1,0.2,0.2,0.3,0.4,0.4c1.5-2.8,3-5.6,4.6-8.4C373.1,391.3,380.3,378.9,386.5,366.1z"/>
		<path fill="#20201F" d="M390.4,385.7c-3.3,6.7-6.7,13.4-10,20.2c1.1-0.5,2.3-1,3.5-1.4c2.9-5.8,5.8-11.7,8.5-17.7
			C393,385.5,391.1,384.3,390.4,385.7z"/>
		<path fill="#20201F" d="M403,380.7c-3.3,6.5-5.8,13.4-8.6,20.3c0.7-0.2,1.4-0.5,2.1-0.7c2.6-6.3,5-12.7,8-18.7
			C405.1,380.5,403.5,379.6,403,380.7z"/>
		<path fill="#20201F" d="M419,369.4c-4.5,8.8-8.7,17.7-12.8,26.7c1.1-0.6,2.3-1.2,3.4-1.8c3.7-8,7.4-15.9,11.4-23.8
			C421.6,369.2,419.6,368.1,419,369.4z"/>
		<path fill="#20201F" d="M428.2,379.3c-1.2,2.3-2.3,4.7-3.4,7c1.1-0.6,2.3-1.2,3.4-1.8c0.6-1.4,1.3-2.8,1.9-4.2
			C430.8,379.1,428.9,378,428.2,379.3z"/>
		<path fill="#20201F" d="M444,362.7c-2.4,5.6-4.6,11.2-6.9,16.8c0.2-0.1,0.4-0.2,0.6-0.3c1-0.6,2-1.3,3-2c1.8-4.5,3.6-8.9,5.4-13.4
			C446.5,362.5,444.6,361.3,444,362.7z"/>
		<path fill="#20201F" d="M462.7,348.4c-0.6,3.1-1.3,6.3-2,9.4c1.2-1.6,2.4-3.2,3.6-4.9c0,0,0,0,0,0c0.2-1.3,0.5-2.6,0.7-3.9
			C465.2,347.4,462.9,346.9,462.7,348.4z"/>
		<path fill="#20201F" d="M455.1,334.8c-3.5,13.4-7.2,26.8-11.3,40.1c1.1-0.9,2.2-1.8,3.3-2.7c3.8-12.2,7.1-24.5,10-36.9
			C457.3,334,455.4,333.6,455.1,334.8z"/>
		<path fill="#20201F" d="M313.1,311c-0.3,0.5-0.6,1-0.9,1.6c0.1,1.3,0.3,2.6,0.5,4c0.8-1.5,1.6-2.9,2.4-4.4
			C315.7,310.9,313.8,309.8,313.1,311z"/>
	</g>
	<path fill="#20201F" d="M386.4,317.1c-2.1,1.2-3.7,1.7-6.2,1.3c-5.2-0.8-5.8-4.1-4.9-8.6c1-4.6,3.9-8.5,4.9-13.1
		c0-0.1,0.1-0.1,0.1-0.2c0.4-1.3,0.3-2.3,0.2-3.7c-0.3-2.9,0.6-4.8,1.9-7.2c1.6-2.8,1.1-6.3,0.4-9.2c-0.2-0.8-1.3-0.9-1.7-0.3
		c-0.2,0.1-0.3,0.3-0.3,0.6c0,0.4,0.1,0.7,0.1,1.1c0,0.2,0.1,0.4,0.3,0.6c0.3,1.8,0.4,3.5-0.1,5.4c-0.4,1.6-1.7,2.7-2.1,4.3
		c-0.7,2.6-0.4,4.9-0.3,7.5c-0.2,0.6-0.3,1.1-0.4,1.7c-1.2,3.5-2.5,7-3.7,10.6c-0.9,2.7-2.1,6.3-0.8,9.1c0.8,1.7,4.7,2.3,6.2,2.8
		c3,1,4.7,0,7.1-1.5C387.6,317.7,387.1,316.7,386.4,317.1z"/>
	<path fill="#20201F" d="M401.7,283.7c1.4-0.4,2.8-0.7,4.2-0.9c0.3,0,0.5-0.2,0.7-0.4c0.8,0,1.5,0,2.3,0c1.2,0,1.5-1.9,0.3-2.1
		c-2-0.4-4-0.3-5.9,0.1c-0.9,0.1-1.8,0.2-2.6,0.4c0,0,0.1-0.1,0.1-0.1c0.4-0.5,0.1-1-0.4-1.2c0.4-0.5,0.7-1,1.1-1.6
		c0.5-0.7-0.6-1.5-1.2-0.9c-1.1,1.4-2.3,2.7-3.3,4.2c-0.2,0.3-0.4,0.5-0.6,0.8c-0.5,0.5-1.1,0.9-1.6,1.4c-0.3,0.2-0.3,0.6-0.2,0.9
		c-0.3,0.7,0,1.6,0.9,1.5c0.9-0.1,1.8-0.2,2.6-0.2c3.2,1.8,6.9,3.6,10.5,3.5c0.9,0,1.4-1.1,0.7-1.8
		C407.1,285.2,404.5,284.1,401.7,283.7z"/>
	<path fill="#20201F" d="M373,282C373,282,373,282,373,282c-3.5-3.5-8.2-5.5-12.2-8.3c-0.2-0.2-0.5-0.2-0.7-0.2
		c-0.4-0.2-0.7-0.5-1.1-0.7c-1.2-0.8-2.3,0.9-1.4,1.8c2.9,3.3,6.8,5.4,9.7,8.6c-1.6-0.4-3.3-0.4-5-0.2c-1.9-0.2-3.8-0.3-5.7-0.4
		c-1.7,0-1.5,2.3,0,2.5c3.4,0.4,6.9,0.6,10.3,0.9c-0.2,0.2-0.5,0.3-0.7,0.5c-0.9,0.6-1.8,1.2-2.6,1.8c-0.6,0.3-0.6,1-0.4,1.4
		c-0.1,0.2-0.3,0.5-0.4,0.7c-0.5,1,0.5,2,1.4,1.8c0,0.7,0.9,1.2,1.5,0.6c2.2-2.1,4-4.4,6.1-6.5c0.3,0,0.7,0.1,1,0.1
		c0.8,0.1,1.2-0.9,0.9-1.5c0.3-0.2,0.5-0.3,0.8-0.5c0.4-0.2,0.5-0.7,0.4-1.1C375.1,282.5,374,281.4,373,282z"/>
	<path fill="#20201F" d="M402.6,345c-2.3-4-8.3-5.9-13.7-6.8c-1.7-0.4-3.4-0.6-5.1-0.7c-5.2-0.5-10.3-1.2-15,1.6
		c-0.6,0.3-1,0.7-1.5,1.1c-1.4,1-2.5,2.3-3.1,3.9c-1.6,4.3-0.3,7.6,2.3,9.9c0.2,0.3,0.5,0.6,0.8,0.9c0.7,0.6,1.4,1,2.2,1.4
		c0.1,0.1,0.1,0.1,0.2,0.2c0.4,0.3,0.9,0.4,1.2,0.3c0.8,0.2,1.6,0.3,2.4,0.3c0.4,0.1,0.7,0.1,1.1,0.2c7.4,1.2,16.8,0.3,23.4-3.5
		c0.3-0.2,0.6-0.3,0.8-0.5C402.4,351.9,405.2,349.4,402.6,345z"/>
</g>
</svg>
