<?xml version="1.0" encoding="utf-8"?>
<!-- Generator: Adobe Illustrator 18.0.0, SVG Export Plug-In . SVG Version: 6.00 Build 0)  -->
<!DOCTYPE svg PUBLIC "-//W3C//DTD SVG 1.1//EN" "http://www.w3.org/Graphics/SVG/1.1/DTD/svg11.dtd">
<svg version="1.1" xmlns="http://www.w3.org/2000/svg" xmlns:xlink="http://www.w3.org/1999/xlink" x="0px" y="0px" width="792px"
	 height="612px" viewBox="0 0 792 612" enable-background="new 0 0 792 612" xml:space="preserve">
<g id="Layer_2" display="none">
	<circle display="inline" fill="#FAA41A" cx="396" cy="306" r="80"/>
</g>
<g id="Layer_1">
	<g>
		<text transform="matrix(1 0 0 1 100.2617 328.1921)" fill="#4E2F1B" font-family="'SourceSansPro-Black'" font-size="72">FREED</text>
	</g>
	<g>
		<text transform="matrix(1 0 0 1 481.5 328.1921)" fill="#4E2F1B" font-family="'SourceSansPro-Black'" font-size="72">M</text>
	</g>
	<path fill="#395B88" d="M598.5,417.5c0.2-3.1-0.6-6.5-2.9-10.4c-0.8-1.4-3-1.1-3.4,0.4c-1.5,5.7-1.8,12.7-4.2,18.2
		c-8.1,3.9-21.5,2.8-27.7-3.1c-2.3-2.2-3.9-4.7-4.9-7.5c0.8-1.5,1.9-2.9,3-4.1c4.5-4.9,11.9-7.4,17.4-2.8c1.1,0.9,3,0.4,3-1.2
		c0-4.2,0-8.3,0.2-12.5c0.7-2.1,2-4,2.9-6c0.6-1.2-1-2.1-1.7-1c-0.3,0.4-0.5,0.8-0.8,1.2c0.1-0.8,0.2-1.6,0.2-2.3
		c0.2,0.1,0.3,0.1,0.5,0.2c2.2,0.9,4.1-2.2,1.9-3.2c-10.1-4.6-20.3-3.2-26.9,6.2c-3.5,4.9-5.1,11.1-5.3,17.2
		c-1.2,3.3-1.4,6.5-0.8,9.6c-0.6,2.6-0.5,5.1,0,7.3c-2.8-1-6.1-1-8.9-0.1c-2.7,0.9-4.8,2.8-6.1,5.2c-2.3,0.9-4.1,2.7-3.7,5.5
		c0,0.1,0,0.2,0,0.2c-3.7,0.4-7.1,1.6-9.9,3.9c-0.4-0.2-0.8-0.4-1.2-0.6c-4.8-4.1-12-5.1-16.1,1.2c-0.5,0.8-1,1.8-1.4,2.8
		c-4-1.1-8.2-1.4-12-0.4c-0.2-0.7-0.6-1.4-1.1-2.2c-1-1.4-2.5-2.9-4.1-4.1c-1-0.9-2.2-1.6-3.4-2.1c-0.4-0.2-0.9-0.3-1.4-0.3
		c-2.5-0.7-5-0.3-6.9,1.9c-0.6,0.7-1.1,1.5-1.5,2.3c-0.1,0.1-0.1,0.2-0.2,0.3c-3.1-2.5-6.9-4.4-10.8-5.8c1.2-2.2,1.8-4.5,0.9-6.7
		c-1.3-3.1-4.9-3.3-8.7-2.5c-1.7-1.4-3.8-1.9-6.1-0.7c-0.3,0.2-0.7,0.4-1,0.6c-0.8-1.3-1.7-2.6-2.7-3.8c-0.8-1.2-1.7-2.4-2.7-3.4
		c0.5-1,0.8-2.1,0.9-3.4c0.1-1-0.1-1.9-0.4-2.8c0.5-2.6-0.3-5.2-1.5-7.6c-2-3.8-5.2-5.7-8.4-4.9c-0.7-1.7-1.7-3.3-2.9-4.8
		c-0.2-2.6-0.9-5.1-2.3-7.3c-0.6-1.8-1.6-3.5-3-4.9c0-0.1-0.1-0.2-0.1-0.2c-2.5-6.3-9.4-7.2-14.4-3.3c-1.2,0.9-2,2-2.6,3.1
		c-0.3,0.5-0.6,1.1-0.9,1.8c-0.1,0.3-0.2,0.5-0.2,0.8c-0.1,0.5-0.1,0.9,0.1,1.2c-0.1,2,0.4,4,1.3,5.9c2,4.2,6.5,7.4,11.2,7.6
		c1.6,2,3.7,3.5,6.1,4.8c0.1,0.2,0.2,0.4,0.4,0.6c-1.4,0.9-2.5,2.4-3.1,4.5c-1.2,4.4,0.2,10,1.5,14.2c0.9,2.7,2.3,5.4,5.1,6.4
		c2.2,0.8,4.2,0.1,5.9-1.4c1.6,2.7,3.6,5.1,5.8,7.3c0.1,1.2,0.6,2.5,1.6,3.6c0,1.8,0.2,3.5,1.2,4.9c1.4,1.9,3.2,2.3,5.2,1.8
		c2.2,0.3,4.6-0.1,6.5-1c1.4,0.1,2.8-0.1,4.1-0.5c0.4-0.1,0.7-0.2,1-0.4c0.6,0.3,1.2,0.5,1.8,0.7c3.1,1.7,6.3,3.2,9.6,4.3
		c0.5,0.9,1.1,1.6,1.9,2.2c0.3,0.6,0.6,1.1,0.9,1.6c3.6,5.6,10.4,4.6,14.9,1c4.3,2.9,9.8,3.3,15.2,3.2c0.3,0.3,0.6,0.7,0.9,0.9
		c2.5,2.1,5.8,2.3,9,1.8c2.9,0.5,6.1-0.3,8.4-2.1c3-0.7,5.8-1.9,8.1-3.2c1.4-0.8,1-2.3,0-2.9c2.9-0.9,5.5-2.6,7.7-4.8
		c1,0.4,2,0.6,3.1,0.7c1.5,0.5,3.1,0.6,4.6,0.5c0.8,0,1.7,0,2.5-0.3c4.1-1.1,7.5-5.4,8.7-9.8c2.2,3.5,5.8,5.9,10,7.4
		c6.5,4.7,14.4,6.5,22.1,2.5c0.5-0.2,0.9-0.5,1.3-0.8c3.9-1.4,7.1-4.7,8.9-10.5c0-0.2,0.1-0.3,0.1-0.4c0.2-0.3,0.3-0.7,0.5-1
		C600,427.4,599.5,422.4,598.5,417.5z M411.9,389.7c-1.9-1.6-3.2-3.9-3.4-6.4c0-0.3,0-0.6,0.1-0.9c0.7,3.4,2.7,6.6,5.6,8.2
		c0,0.2,0.1,0.5,0.1,0.7C413.5,390.8,412.6,390.3,411.9,389.7z M417.5,386c-0.1,0.2-0.2,0.4-0.3,0.6c-0.1-0.1-0.2-0.1-0.3-0.2
		c-0.8-0.5-1.7-0.3-2.2,0.3c-1.8-1.4-2.8-4.5-3.1-6.9c1.4,0.2,2.8,0.2,4.3,0.6c0.1,0,0.3,0,0.4-0.1c0.7,0.4,1.3,0.9,1.9,1.4
		C417.7,383.2,417.5,384.6,417.5,386z M425.2,417.7c1.3,0.5,2.7,0.6,4.1,0.4c0.1,0.4,0.2,0.8,0.3,1.1
		C427.7,419.8,426,419.5,425.2,417.7z M428.9,423.1c-0.6,0.2-1.1,0.1-1.5-0.2c0.8,0,1.7-0.1,2.5-0.3
		C429.5,422.8,429.2,423,428.9,423.1z M435.6,411.8c-1.1-0.6-2.3-1-3.4-1.3c-0.2-0.1-0.4-0.2-0.6-0.3c-1.1-0.4-2.3,0.6-2.3,1.7
		c0,0.4,0,0.8,0,1.2c-0.1,0.8-0.1,1.5-0.1,2.2c-0.6,0.1-1.2,0.2-1.8,0.1c-1.2,0-2.1-0.5-2.6-1.1c-0.1-2.6,0.5-5.5,1.5-8.1
		c0.1,0.2,0.2,0.4,0.3,0.5c0.9,1.6,2.9,0.9,3.3-0.6c1,0.3,1.9-1,1.4-1.9c2.2,1,4.2,2.8,5.3,4.8c0,0.1,0,0.2,0,0.3
		c-0.1,0.6-0.2,1.2-0.4,1.9C435.9,411.5,435.7,411.6,435.6,411.8z M441.4,427c-0.6-0.3-1.1-0.6-1.6-1c-1.3-1.6-2.4-3.4-3.4-5.3
		c0.2-0.3,0.3-0.6,0.5-1c1.9,2.2,3.5,4.6,4.5,7.1C441.3,426.9,441.4,426.9,441.4,427C441.4,427,441.4,427,441.4,427z M451.5,429.1
		c-0.9,0.3-1.5,1.3-1.3,2.4c0.3,1.6,0.8,3,1.5,4.2c-0.6,0.6-1.3,1.1-2,1.6c-0.1,0-0.1,0.1-0.2,0.1c-1.3-0.4-2.7-0.9-4-1.5
		c0-0.1,0.1-0.1,0.1-0.2c0.9,0.2,1.9-0.3,2.1-1.3c0.4-2.3,0.3-4.5-0.2-6.7c0.9-0.3,1.7-0.6,2.3-0.8c0.5-0.2,1-0.3,1.6-0.5
		c0.3,0.3,0.6,0.7,0.8,1.2C451.8,428,451.4,428.6,451.5,429.1z M457.5,428c-0.1,0.5-0.4,0.9-0.6,1.4c-0.4-1.2-0.9-2.4-1.5-3.5
		c0.1,0,0.2,0,0.2,0c0.9,0,1.9,0.2,2.1,0.5C457.8,426.6,457.7,427.2,457.5,428z M462.3,438.3c-0.7-0.4-1.4-0.9-2-1.4
		c0-0.1,0-0.2-0.1-0.3c1.5,0.6,3,1.3,4.4,2.1C463.9,438.5,463.1,438.4,462.3,438.3z M482.5,443.2c-1.4,0.4-1.6,2-1,2.9
		c-0.3,0-0.5,0.1-0.7,0.1c-1.4,0.1-2.8,0.1-4.2-0.2c0.4-0.5,0.5-1.2,0.1-2c-0.6-1.2-1.4-2.2-2.2-3.2c0.2-0.9,0.6-1.8,1.1-2.6
		c0.8-0.7,1.6-1.2,2.6-1.4c1.2,0.2,2.4,1,3.4,1.7c0.7,0.5,1.4,1,2,1.6c0.5,0.8,0.8,1.7,0.8,2.6C483.7,442.8,483.1,443,482.5,443.2z
		 M500.5,447.8c-2.6,0-5.2,0-7.7-0.4c-1-0.4-1.9-1-2.7-1.6c1.7-0.1,3.4-0.1,5.1,0.1c1.8,0.3,3.5,0.7,5.2,1.2
		C500.5,447.3,500.5,447.6,500.5,447.8z M516.5,451.4c-1.3,0-2.6-0.2-3.7-0.6c1.4-0.8,1.6-2.5,0.2-3.5c-1.4-0.9-2.9-1.8-4.5-2.7
		c0.2-1.9,1.4-3.7,3.7-4c1.3-0.2,3.4,0.1,5.2,0.9c-0.1,0.2-0.3,0.4-0.4,0.7c-0.4,0-0.7,0.2-0.8,0.6c-0.4,1.4-1.1,2.5-1.4,3.9
		c-0.2,0.8,0.4,1.7,1.2,1.6c0.8,0,1.7-0.1,2.5-0.2c0.2,0.3,0.6,0.6,1,0.7c0.2,0.1,0.4,0.1,0.7,0.1
		C519.2,450,517.9,450.8,516.5,451.4z M547.1,438.5c-0.9,0.8-2.1,1.5-3.3,1.9c0,0-0.1,0-0.1,0c-0.9,0-2-0.2-3.1-0.6
		c0.8-0.4,1.5-0.8,2.3-1.2c1.4-0.8,1.1-3-0.4-3.4c-1.5-0.4-3.1-0.6-4.7-0.8c0-0.2,0-0.5,0.1-0.7c0.3-1.4,1-2.6,2.1-3.3
		c1.1-0.2,2.2-0.2,3.2,0.1C546.4,431.4,547.5,435.5,547.1,438.5z M554.7,401.2c2.4-10.1,10.7-18.5,21.9-15.8c0,0.1,0,0.1,0,0.2
		c0,0.1,0,0.3-0.1,0.4h0c0,0,0,0,0,0c-0.8,5.9-1.1,11.8-1.1,17.7c-6.3-3.2-13.4-1-18.9,3.9c-0.7,0.7-1.5,1.6-2.2,2.6
		c-0.1-0.5-0.1-1-0.2-1.4c0.4-1.6,0.9-3.2,1.7-4.9C556.3,402.7,555.6,401.6,554.7,401.2z"/>
	<path fill="#395B88" d="M563.4,351.6c-0.3-1.8-3.2-1-2.7,0.8c1.2,3.9,1.1,8.3,0.3,12.3c-0.3,1.4,1.9,2.1,2.2,0.6
		C564.2,360.7,564.1,356.2,563.4,351.6z"/>
	<path fill="#395B88" d="M540.9,387.5c-3.7-5.3-7.9-10.3-13-14.4c-1.2-1-2.9,0.7-1.7,1.7c4.9,4.1,8.8,9.1,13.2,13.8
		C540.1,389.5,541.5,388.4,540.9,387.5z"/>
	<path fill="#395B88" d="M534.3,415.4c-5.9-4-13.2-5.9-20.3-5.5c-1.4,0.1-1.4,2.1,0,2.2c7,0.5,13.5,0.9,19.7,4.5
		C534.4,417,535,415.9,534.3,415.4z"/>
	<path fill="#395B88" d="M557.8,460c0-1-1.5-1-1.5,0c0,4.2-0.2,8.6-1.1,12.8c-0.3,1.2,1.5,1.7,1.8,0.5
		C558,468.8,557.8,464.5,557.8,460z"/>
	<path fill="#395B88" d="M589.9,461c-0.1-1.1-1.6-1.1-1.8,0c-0.5,5.6,0.7,11.4,0.9,17c0,1.2,1.9,1.2,1.9,0
		C591,472.3,590.6,466.6,589.9,461z"/>
	<path fill="#395B88" d="M630.7,441.9c-2.9-1.4-5.9-2.6-8.9-3.8c-1.8-0.7-3.6-1.4-5.4-2c-0.5-0.2-2.5-0.7-2.7-0.8
		c-0.2-0.2-0.4-0.3-0.7-0.3c0,0,0,0-0.1,0c-0.8,0.1-1.2,0.8-0.8,1.5c0.9,1.7,4.5,2.5,6.1,3.2c3.7,1.5,7.5,2.7,11.1,4.4
		C630.8,444.8,632.2,442.6,630.7,441.9z"/>
</g>
</svg>
