<?xml version="1.0" encoding="utf-8"?>
<!-- Generator: Adobe Illustrator 18.0.0, SVG Export Plug-In . SVG Version: 6.00 Build 0)  -->
<!DOCTYPE svg PUBLIC "-//W3C//DTD SVG 1.1//EN" "http://www.w3.org/Graphics/SVG/1.1/DTD/svg11.dtd">
<svg version="1.1" xmlns="http://www.w3.org/2000/svg" xmlns:xlink="http://www.w3.org/1999/xlink" x="0px" y="0px" width="792px"
	 height="612px" viewBox="0 0 792 612" enable-background="new 0 0 792 612" xml:space="preserve">
<g id="Layer_2" display="none">
	<circle display="inline" fill="#FAA41A" cx="396" cy="306" r="80"/>
</g>
<g id="Layer_1">
	<path d="M377.3,315.7c3.9-10-0.6-20.8-3.4-30.5c-0.2-0.8-1.6-0.7-1.5,0.2c0.3,5.4,2.4,10.5,3.6,15.7c2,8.7-1.8,15.8-5.3,23.5
		c-1.3,2.9-4.5,7.7-4.3,11c0.2,3.6,4.2,4.5,6.6,6.5c1.1,0.9,2.7-0.6,1.6-1.6c-1.1-1-2.4-1.7-3.7-2.4c-3.3-1.9-1.4-4.8-0.2-7.3
		C373,325.9,375.3,320.8,377.3,315.7z"/>
	<path fill="#85522D" d="M430.6,275.1c2.1-1.2,5.7-1.3,7.7-1.4c2.9-0.2,5.4,1.6,7.6,3.4c2.2,1.8,2.6,4.6,4.2,6.8
		c0.5,0.7,1.3,0.6,1.7,0.1c4.2,0.9,7.8-1.3,11.6,2.3c1.5,1.5,2.3,3.8,2.7,6.2c1-3.8,1.7-7.7,2.1-11.9c0.3-4.1,0.5-8.2,0.6-12.3
		c-0.2-1-0.5-2-0.7-2.9c-3-12.6-8-26.7-16.9-36.3c-8.2-9-19.8-15.9-31.1-20.2c-13-4.9-26.6-4.5-40.1-6.5
		c-11.3-1.7-17.9,5.4-25.6,12.5c-4,3.7-10,9.8-7.8,15.2c-1.6-1.1-3.7-1.9-6.6-2.1c-8.6-0.5-16.9,6.5-21.5,13.1
		c-9.8,14.1-6.6,34.4-2.2,49.8c0.2,0.6,0.7,0.8,1.1,0.7c0,0.1,0.1,0.1,0.1,0.2c0.1,0.2,0.3,0.3,0.5,0.4c0.5,0.6,1.6,0.6,1.9-0.3
		c4-15.1,7-32.4,23.4-38.8c4.9-1.9,9.5-4.5,10-10.1c0,0,0.1,0.1,0.1,0.1c0.6,0.4,1.1,0.2,1.5-0.1c2.6,0.6,5.7,0.1,8-1
		c3.7-1.8,6.5-5,9.3-8c4.9-5.1,9.9-6.1,16.8-6.5c11.7-0.6,27.7,1,35,11.3c7,9.8,5.8,24.5,3.9,35.6c-0.1,0.5,0.1,0.9,0.3,1.2
		c0.1,0.3,0.2,0.5,0.5,0.5c0.1,0,0.1,0,0.2,0c0.1,0,0.3,0,0.4,0c0.6,0.1,1.2-0.2,1.3-1C430.6,275.2,430.6,275.2,430.6,275.1z"/>
	<path fill="#A97C50" d="M424,231c-0.2-18-23.8-33.9-39.4-23c-7.9,5.5-10.5,15.6-15.1,23.4c-2.7,4.6-9.4,13.1-15.3,8.4
		c-3.1-2.4-8.3-8.6-6.2-12.8c0.4-0.7-0.6-1.6-1.2-0.9c-4.3,4.8,2.6,12.8,6.2,16c7.3,6.3,15.7-3.4,19.3-9.1
		c6.1-9.6,8.9-24.5,22.6-25.6c6.9-0.6,14,3.6,19.1,7.9c5.4,4.4,6.6,10.9,8.2,17.2c0.1,0.2,0.2,0.4,0.3,0.5c0,1,0,2.1-0.2,3.1
		c-0.2,1.2,1.3,1.5,1.7,0.5C424.7,234.7,424.5,232.9,424,231z"/>
	<path fill="#A97C50" d="M348.7,241.6c-5.5,9.1-14.2,14.8-20.7,23c-5.5,6.9-8.7,14.7-9.7,23.2c-1.2-3-2.2-6.1-2.7-9.3
		c-0.1-0.8-1.4-0.6-1.3,0.2c0.1,4.7,2,9.1,3.8,13.4c0.4,1,1.8,0.9,1.9-0.3c0.7-11.3,5.4-21,12.7-29.5c5.9-6.9,14-11.2,17.8-19.8
		C350.8,241.4,349.4,240.5,348.7,241.6z"/>
	<path d="M399.9,292.1c-2,1.7-2,5.5-2.1,7.9c-0.2,2.7-0.1,6.3,1.6,8.6c0.6,0.8,1.7,0.1,1.3-0.7c-2.4-5-0.8-10.3,0.1-15.3
		C400.8,292.1,400.3,291.8,399.9,292.1z"/>
	<path fill="#4E2F1B" d="M372.5,279.5c-1.1-4.1-9.3-3.9-12.5-3.5c-3.7,0.5-7.2,2.2-10.8,3.1c-2.1,0.6-4.4,0.7-6.6,1.1
		c-3.2,0.6-9.1,1.6-10.4,5.3c-1.2,3.3,0.8,5.2,3.5,5.8c0.1,0,0.2,0.1,0.4,0.1c0.1,0,0.2,0,0.3,0.1c0,0,0.1,0,0.1,0
		c0.9,0.1,1.7,0.2,2.6,0.1c0.2,0,0.4-0.1,0.5-0.2c1.6-0.2,3.3-0.6,5-1.1c3-5.7,7.9-9.4,14.9-6.4c1.4,0.6,2.6,1.3,3.7,2
		C368.5,284.9,373.5,283.1,372.5,279.5z"/>
	<path fill="#4E2F1B" d="M432,284.6c-0.5-3.7-6.3-5.4-9.1-6.6c-5.9-2.5-11-3.2-17.5-2.6c-3.1,0.3-6.4-0.1-9.2,1.4
		c-1.6,0.8-1.8,2.1-1.4,3.4c0.4,2.8,4.1,4.3,8.3,5.2c2.3-1.5,5.1-2.3,8.4-1.7c3,0.5,5.4,1.9,7.3,3.9
		C424.3,288.5,432.6,289.2,432,284.6z"/>
	<path d="M465.7,288.8c-1.9-4.4-6.7-5.7-11.3-5.5c-7.2-6.8-20.4,4.9-28.3,7c-0.4-0.3-0.9-0.4-1.4-0.1c-2.9-5-7.3-8.9-13.4-9.9
		c-6-1-11,1.7-14.3,6.4c-0.1,0-0.1,0-0.2,0c-2.8,1.4-4,4.3-4.5,7.4c-1.6-2-4.6-2.6-7.4-2.6c-5.1-0.2-8.7,2.1-11.5,5.9
		c-1.6-7.9-6.7-14.6-15.6-17.5c-8.7-2.8-15,4.6-17.9,13.1c-4.5,10.8-1,26,9.1,32.7c11.2,7.5,20.4-2.9,23.5-13.1
		c1.1-3.7,1.6-7.5,1.4-11.1c0,0,0,0,0,0c0.1-0.2,0.2-0.3,0.3-0.5c0,0,0.1,0,0.1-0.1c0,0,0,0,0.1,0c0,0,0.1,0,0.1-0.1
		c0.1-0.1,0.3-0.2,0.4-0.4c0.4-0.6,0.8-1.2,1.2-1.7c4.1-4.1,11.5-6.5,15.2-1c0.2,0.2,0.4,0.4,0.6,0.5c0,0.6-0.1,1.2-0.1,1.7
		c0,0.6-0.1,1.3-0.1,1.9c-0.2,2.5,0.1,4.8,0.9,6.8c1.3,4.9,4,9.4,7.8,13.1c11,10.6,26.3-0.3,27.9-13.1c0.6-5-0.1-10.6-2.2-15.5
		c3.9-0.3,7.4-2.6,10.8-4.4c3.3-1.7,8.7-4.2,13.1-4c0,0.3,0.3,0.6,0.7,0.6c0.7,0,1.5,0,2.3,0c0.4,0.2,0.7,0.3,1.1,0.6
		c0.5,0.3,1.2,0,1.4-0.5c3,0.2,5.9,1.1,7.4,3.6c1.9,3.2,1.4,8.7,1.5,12.3c0.1,4.7-0.4,9.3-2.4,13.6c-0.7,1.5-7.6,10.3-9.4,4.8
		c-0.5-1.6-3-1-2.6,0.7c1.1,4.5,5.2,4.3,8.5,2.2c4.8-3.1,7.1-8.7,8.1-14C467.8,303,468.1,294.3,465.7,288.8z M369.9,311.9
		c-2.6,9.8-11.8,19.2-21.5,10.5c-3.8-3.4-6.5-8.2-7.8-13.4c0.2-0.2,0.4-0.4,0.3-0.8c-1-9.9,4.7-30.2,18.5-24.3
		C370.8,288.8,372.7,301.2,369.9,311.9z M401.3,318.9c-4.2-4-6.3-9.5-6.9-15.1c1-9.8,6.2-21.8,17.1-20c9.7,1.6,13.5,13,13.7,21.5
		C425.7,318,412.1,329.1,401.3,318.9z"/>
	<path d="M349.7,316.9c-2.9-5.3-4.2-9.3-3.2-15.4c0.4-2.2,0.4-7,2.4-8.4c0.6-0.4,0.3-1.2-0.3-1.3c-3.1-0.4-3.7,6.7-4,8.6
		c-1.2,6.3-0.7,12.7,3.9,17.5C349,318.6,350.1,317.7,349.7,316.9z"/>
	<path d="M410.3,352.9c-7.1,7.7-16,6.4-25.5,7.7c-3.3,0.5-6.6,0.9-10,1.3c-1.6,0.2-8.2,1.4-9.4-0.2c-0.3-0.4-1-0.4-1.1,0.1
		c-1,3.9,16.9,1.7,19,1.5c9.6-1,23.5,1.1,29.3-8.8C413.4,353.3,411.4,351.7,410.3,352.9z"/>
	<path d="M423.9,347.2c-2.5-3.3-7.6-5.3-11.7-4.8c-0.5,0.1-1,0.6-0.6,1.1c0.3,0.5,0.7,0.6,1.2,0.7c1.2,0.1,2.4,0.4,3.6,0.7
		c2.5,0.6,4.3,1.9,6.2,3.6C423.6,349.3,424.6,348.2,423.9,347.2z"/>
</g>
</svg>
