<svg xmlns="http://www.w3.org/2000/svg" width="792" height="612" viewBox="0 0 792 612"><g id="Layer_1"><path d="M377.3 315.7c3.9-10-.6-20.8-3.4-30.5-.2-.8-1.6-.7-1.5.2.3 5.4 2.4 10.5 3.6 15.7 2 8.7-1.8 15.8-5.3 23.5-1.3 2.9-4.5 7.7-4.3 11 .2 3.6 4.2 4.5 6.6 6.5 1.1.9 2.7-.6 1.6-1.6s-2.4-1.7-3.7-2.4c-3.3-1.9-1.4-4.8-.2-7.3 2.3-4.9 4.6-10 6.6-15.1z"/><path fill="#85522D" d="M430.6 275.1c2.1-1.2 5.7-1.3 7.7-1.4 2.9-.2 5.4 1.6 7.6 3.4 2.2 1.8 2.6 4.6 4.2 6.8.5.7 1.3.6 1.7.1 4.2.9 7.8-1.3 11.6 2.3 1.5 1.5 2.3 3.8 2.7 6.2 1-3.8 1.7-7.7 2.1-11.9.3-4.1.5-8.2.6-12.3-.2-1-.5-2-.7-2.9-3-12.6-8-26.7-16.9-36.3-8.2-9-19.8-15.9-31.1-20.2-13-4.9-26.6-4.5-40.1-6.5-11.3-1.7-17.9 5.4-25.6 12.5-4 3.7-10 9.8-7.8 15.2-1.6-1.1-3.7-1.9-6.6-2.1-8.6-.5-16.9 6.5-21.5 13.1-9.8 14.1-6.6 34.4-2.2 49.8.2.6.7.8 1.1.7 0 .1.1.1.1.2.1.2.3.3.5.4.5.6 1.6.6 1.9-.3 4-15.1 7-32.4 23.4-38.8 4.9-1.9 9.5-4.5 10-10.1l.1.1c.6.4 1.1.2 1.5-.1 2.6.6 5.7.1 8-1 3.7-1.8 6.5-5 9.3-8 4.9-5.1 9.9-6.1 16.8-6.5 11.7-.6 27.7 1 35 11.3 7 9.8 5.8 24.5 3.9 35.6-.1.5.1.9.3 1.2.1.3.2.5.5.5H429.3c.6.1 1.2-.2 1.3-1 0 .1 0 .1 0 0z"/><path fill="#A97C50" d="M424 231c-.2-18-23.8-33.9-39.4-23-7.9 5.5-10.5 15.6-15.1 23.4-2.7 4.6-9.4 13.1-15.3 8.4-3.1-2.4-8.3-8.6-6.2-12.8.4-.7-.6-1.6-1.2-.9-4.3 4.8 2.6 12.8 6.2 16 7.3 6.3 15.7-3.4 19.3-9.1 6.1-9.6 8.9-24.5 22.6-25.6 6.9-.6 14 3.6 19.1 7.9 5.4 4.4 6.6 10.9 8.2 17.2.1.2.2.4.3.5 0 1 0 2.1-.2 3.1-.2 1.2 1.3 1.5 1.7.5.7-1.9.5-3.7 0-5.6zM348.7 241.6c-5.5 9.1-14.2 14.8-20.7 23-5.5 6.9-8.7 14.7-9.7 23.2-1.2-3-2.2-6.1-2.7-9.3-.1-.8-1.4-.6-1.3.2.1 4.7 2 9.1 3.8 13.4.4 1 1.8.9 1.9-.3.7-11.3 5.4-21 12.7-29.5 5.9-6.9 14-11.2 17.8-19.8.3-1.1-1.1-2-1.8-.9z"/><path d="M399.9 292.1c-2 1.7-2 5.5-2.1 7.9-.2 2.7-.1 6.3 1.6 8.6.6.8 1.7.1 1.3-.7-2.4-5-.8-10.3.1-15.3 0-.5-.5-.8-.9-.5z"/><path fill="#4E2F1B" d="M372.5 279.5c-1.1-4.1-9.3-3.9-12.5-3.5-3.7.5-7.2 2.2-10.8 3.1-2.1.6-4.4.7-6.6 1.1-3.2.6-9.1 1.6-10.4 5.3-1.2 3.3.8 5.2 3.5 5.8.1 0 .2.1.4.1.1 0 .2 0 .3.1h.1c.9.1 1.7.2 2.6.1.2 0 .4-.1.5-.2 1.6-.2 3.3-.6 5-1.1 3-5.7 7.9-9.4 14.9-6.4 1.4.6 2.6 1.3 3.7 2 5.3-1 10.3-2.8 9.3-6.4zM432 284.6c-.5-3.7-6.3-5.4-9.1-6.6-5.9-2.5-11-3.2-17.5-2.6-3.1.3-6.4-.1-9.2 1.4-1.6.8-1.8 2.1-1.4 3.4.4 2.8 4.1 4.3 8.3 5.2 2.3-1.5 5.1-2.3 8.4-1.7 3 .5 5.4 1.9 7.3 3.9 5.5.9 13.8 1.6 13.2-3z"/><path d="M465.7 288.8c-1.9-4.4-6.7-5.7-11.3-5.5-7.2-6.8-20.4 4.9-28.3 7-.4-.3-.9-.4-1.4-.1-2.9-5-7.3-8.9-13.4-9.9-6-1-11 1.7-14.3 6.4h-.2c-2.8 1.4-4 4.3-4.5 7.4-1.6-2-4.6-2.6-7.4-2.6-5.1-.2-8.7 2.1-11.5 5.9-1.6-7.9-6.7-14.6-15.6-17.5-8.7-2.8-15 4.6-17.9 13.1-4.5 10.8-1 26 9.1 32.7 11.2 7.5 20.4-2.9 23.5-13.1 1.1-3.7 1.6-7.5 1.4-11.1.1-.2.2-.3.3-.5 0 0 .1 0 .1-.1h.1s.1 0 .1-.1c.1-.1.3-.2.4-.4.4-.6.8-1.2 1.2-1.7 4.1-4.1 11.5-6.5 15.2-1 .2.2.4.4.6.5 0 .6-.1 1.2-.1 1.7 0 .6-.1 1.3-.1 1.9-.2 2.5.1 4.8.9 6.8 1.3 4.9 4 9.4 7.8 13.1 11 10.6 26.3-.3 27.9-13.1.6-5-.1-10.6-2.2-15.5 3.9-.3 7.4-2.6 10.8-4.4 3.3-1.7 8.7-4.2 13.1-4 0 .3.3.6.7.6h2.3c.4.2.7.3 1.1.6.5.3 1.2 0 1.4-.5 3 .2 5.9 1.1 7.4 3.6 1.9 3.2 1.4 8.7 1.5 12.3.1 4.7-.4 9.3-2.4 13.6-.7 1.5-7.6 10.3-9.4 4.8-.5-1.6-3-1-2.6.7 1.1 4.5 5.2 4.3 8.5 2.2 4.8-3.1 7.1-8.7 8.1-14 1.2-5.6 1.5-14.3-.9-19.8zm-95.8 23.1c-2.6 9.8-11.8 19.2-21.5 10.5-3.8-3.4-6.5-8.2-7.8-13.4.2-.2.4-.4.3-.8-1-9.9 4.7-30.2 18.5-24.3 11.4 4.9 13.3 17.3 10.5 28zm31.4 7c-4.2-4-6.3-9.5-6.9-15.1 1-9.8 6.2-21.8 17.1-20 9.7 1.6 13.5 13 13.7 21.5.5 12.7-13.1 23.8-23.9 13.6z"/><path d="M349.7 316.9c-2.9-5.3-4.2-9.3-3.2-15.4.4-2.2.4-7 2.4-8.4.6-.4.3-1.2-.3-1.3-3.1-.4-3.7 6.7-4 8.6-1.2 6.3-.7 12.7 3.9 17.5.5.7 1.6-.2 1.2-1zM410.3 352.9c-7.1 7.7-16 6.4-25.5 7.7-3.3.5-6.6.9-10 1.3-1.6.2-8.2 1.4-9.4-.2-.3-.4-1-.4-1.1.1-1 3.9 16.9 1.7 19 1.5 9.6-1 23.5 1.1 29.3-8.8.8-1.2-1.2-2.8-2.3-1.6zM423.9 347.2c-2.5-3.3-7.6-5.3-11.7-4.8-.5.1-1 .6-.6 1.1.3.5.7.6 1.2.7 1.2.1 2.4.4 3.6.7 2.5.6 4.3 1.9 6.2 3.6 1 .8 2-.3 1.3-1.3z"/></g></svg>