<svg xmlns="http://www.w3.org/2000/svg" width="792" height="612" viewBox="0 0 792 612"><g id="Layer_1"><path fill="#395B88" d="M412.3 416.8c-8.7 1.8-13.7 8.5-15.6 16.5-5.3-7.2-14.1-11.2-23.2-10.4-11.4.9-19.7 9.9-21.4 20.9-1.9 12 5.1 22.9 17.1 24.9 8.6 1.4 18.4-2.1 24.5-8.6 1 10.2 13.3 17.1 23.1 18.8 15.3 2.5 29.4-3.5 36.4-17.6 11.9-23.9-18-49.2-40.9-44.5zm35 47.6c-4.7 6.7-11.2 10.1-19.2 11.1-7.6 1-16.1-.4-22.7-4.4-7.3-4.5-8-10.8-6.7-18.5.3-2-2.5-2.4-3.3-.8-.2.3-.3.7-.5 1-.2.1-.4.3-.6.5-5.6 7.1-13.6 11.9-22.9 11.5-11.2-.4-16.3-10.3-15.3-20.5 1-9.6 8.6-16.4 17.9-17.8 9.3-1.4 16.8 3.2 22 10.3 0 .1 0 .3-.1.4-.1 1 .6 1.6 1.5 1.6.1.1.1.2.2.3.6 1 2.1 0 1.7-1 1.2-.7 2.7-1.4 3.6-1.7.5-.2.2-1-.3-.9-1.2.3-2.2.2-3.2.2 5.6-29.1 47-12.7 52.4 9.5 1.6 6.7-.6 13.5-4.5 19.2z"/><path fill="#395B88" d="M383.7 435.5v-.7c-.1-2.5-1.8-4.6-3.2-6.5-1-1.4-3-1.4-4.3-.4-1.9 1.4-3.8 3.1-4.9 5.3-.3.6-.5 1.2-.7 1.9-.5.6-.6 1.6-.4 2.4-.1.7-.2 1.3-.2 2-.2 1.7 1.1 3.3 2.8 3.4 1.6.2 3.3.6 4.9.5h.1c.6 0 1-.1 1.4-.2.9-.1 1.8-.7 2.3-1.5.7-.5 1.3-1 1.9-1.5 1.6-1.4 1.5-3.4.3-4.7zM425 430.6c-.9-1.6-1.9-3.1-3.2-4.4-.5-1.8-2.2-2.9-4.1-2.9-.7-.3-1.4-.5-2.1-.7-3.4-.7-6.8.8-8.1 4.1-.4 1-.5 2.2-.4 3.5 0 .7 0 1.3.1 2 .3 2 1.3 3.9 2.9 5.2 1.6 1.8 3.7 2.7 5.9 1.6 3.1-.4 6-2.5 8.2-4.8.8-1 1.5-2.4.8-3.6zM556 300.8c-4.6-10.1-20.7-19.9-31.9-15.1-.2-.2-.5-.3-.9-.3-12.6.2-18.6 11.5-16.1 22.9 1.4 6.5 5.3 12.5 10.6 16.4-6.4-.6-11.5 4.1-13.6 10.2-1 1.6-1.4 3.4-1.1 5.4v.1c-.2 5.3 1.8 10.7 6.9 14.2 10.4 7.1 27.1 3.8 35.1-5.2 3.3-3.8 5.2-9.6 3.5-14.5-1.2-3.4-3.6-5.7-6.6-7.2 10.9-4.1 19.6-14.7 14.1-26.9zm-12.2 37.3c.7 4.2-2.7 8.2-5.6 10.7-6.7 5.6-19.8 6.3-27 1.2-1.3-1-2.3-2.2-3.1-3.5 1.2.4 2.4.5 3.7.3.7-.1 1.3-.2 2-.3 4.2-.6 7.1-4.9 6.4-9.1-.7-4.2-4.9-7.2-9.1-6.4-.4.1-.8.2-1.2.2 3.4-3.7 8.8-3.8 13.6-1.4.8.4 1.5-.3 1.6-1 1.9.6 3.9.9 5.9 1 .4.5.9.8 1.7.9 4.8.6 10.2 1.9 11.1 7.4zm-11.1-13.4c-8.1.7-15.2-4.7-19-11.5.8.1 1.7.1 2.5 0 .3-.1.7-.1 1-.2 1.9-.4 3.6-1.4 4.8-3 1.1-1.6 1.6-3.6 1.2-5.5-.3-1.9-1.4-3.7-3-4.8-1.6-1.2-3.5-1.5-5.5-1.2-.3 0-.7.1-1 .1-.9.1-1.8.5-2.6.9 1-4.4 4.2-7.7 9-9.6.3 1.1 1.2 1.9 2.5 1.7 5.4-1.1 9.9-1.6 15.2.2 5 1.8 9.6 5.4 12.4 9.9 7.7 12-6.3 22-17.5 23zM396 185c-1.9 1.4-3.2 3-5.4 3.8-.1 0-.2.1-.3.1l-.1-.1c-1-.7-2.2-.2-2.8.6-1.9.1-3.8-.3-5.6-.8-5.2-1.5-9.6-5.2-11.3-10.3-2.4-6.9-2.1-14.7-6-21-8.3-13.6-24.6 7.6-21.5 17.7.4 1.4 2.4.8 2.1-.6-1.4-6.5 6-21.5 14.3-17.6 5.5 2.6 5.6 14.4 6.7 19.5 1.6 7.4 5.8 12.3 12.9 15.4 2.7 1.2 6.2 1.9 9.7 1.7 6.7 6.9-5.2 13.6-12 16 .7-1.3.9-2.4 1-3.9.2-2.7-1.6-5.3-3.8-6.6-.1 0-.1-.1-.2-.1-2.2-1.3-5.2-1.3-7.4 0-.1 0-.1.1-.2.1-2.2 1.3-4 4-3.8 6.6.1 1.6.3 2.8 1.2 4.2.3.4.6.8.9 1.1-1.7-.2-3.3-.7-4.9-1.5-6.1-3-7.1-10.5-6.6-16.6.1-.9-1.5-1.2-1.7-.2-1.1 7.1-.5 14.3 5.8 18.7 5.5 3.9 13.4 3.2 19.6 1.6 8.1-2.1 23.2-11.9 17.2-20.6 2.1-.9 3.9-2.3 5-4.5.7-1.6-1-4-2.8-2.7zM433.4 176.5c-5.8 2.2-11.2 5.3-16.7 8.2-3.2 1.7-6.5 3.3-9.9 4.3-2 .6-4.4-.1-6.2.9-.3.2-.5.6-.4.9 1.8 4.2 10.3.5 13-.6 7.2-2.9 13.9-7.4 21.4-9.4 2.8-.7 1.5-5.3-1.2-4.3zM300.5 288.2c-8-10.2-27.8-9.5-31.6 2.8-1.3 2.4-2.2 5.1-2.5 7-.6 4.6 1.4 8.8 4.8 11.9 6.9 6.3 19.1 8.8 27.9 5.3 12.4-4.8 7.7-18.9 1.4-27zm-3 22.9c-5.9 2.4-13.2 1.3-18.9-1.5 0 0-1.3-.2-2.6-1.5-.1 0-.1-.1-.2-.1-1.4-1.4-2.8-4.1-2.9-9 0-2.2.3-4 .8-5.5.1-.6.3-1.2.6-1.8v.2c.6-1.3 1.4-2.3 2.1-3l.1-.1c1.4-1.3 2.6-1.8 2.6-1.8 5.4-2.7 12-1 16.4 2.9 1.6 1.4 3.2 3.4 4.5 5.7-.1 0-.2 0-.3-.1-.4-.9-1.1-1.8-1.9-2.4-1-.8-2.4-1.4-3.8-1.4s-2.8.5-3.8 1.4c-1.4 1.1-2.4 2.9-2.4 4.8v.3l-.6 1.2c-.2.6-.3 1.3-.2 2-.5 2.2-.2 4.3 2.2 5.7 3.5 1.9 8.4.5 11.7-1.1.4-.2.8-.4 1.3-.7-.4 2.6-1.8 4.6-4.7 5.8z"/><path fill="#395B88" d="M287.5 260.5c-6.9 3.5-13.1 10.1-18.9 15.1-6.9 6.1-13.6 12.3-20.2 18.8-.3.2-.6.5-.8.8l-3.9 3.9c-2.5 2.5-5 5.1-7.5 7.7-.3.1-.6.2-.8.5-.8.9-1.5 1.8-2.2 2.7-3.4 3.8-6.7 7.6-9.8 11.6-2 2.6-9.2 11.1-5.6 14.5.5.5 1.3.4 1.6-.2 1-1.6 1.4-3.6 2.4-5.3 1.5-2.7 3.4-5.1 5.3-7.5-.1.1-.1.3-.2.4-.5 1.2.1 2.3 1 2.7.8 3.2 2.7 5.9 6.1 7.1.2.1.4.1.6.2.1.2.3.3.4.5 1 1 2.2.7 2.9-.1.4 0 .9-.1 1.3-.2h.8c6.7-1 11.3-4.8 14.3-10 6.3-8.5 6.9-19.6-1.6-27.4 6.2-5.9 12.5-11.6 19-17.2 5.9-5.1 12.5-9.6 18.3-14.9 2-2-.4-4.7-2.5-3.7zM432 182.9c-1.5-.9-3.6.6-3 2.3 1.3 4.1 4.5 6.2 3.1 10.9-1.1 3.5-5 5.8-8.2 7-.4.2-.9.3-1.3.4.4-.8.6-1.7.7-2.5v-.2c.1-1.3-.3-2.4-1-3.2-.3-.6-.8-1-1.5-1.2-3.1-1.6-8.1-.1-7.9 4.4v.2c0 1.1.4 2.2 1 3.1-4.6-.9-8.7-3.7-10.3-8.9-.6-1.9-3.3-1.1-2.9.8 2.5 11.6 15.2 14.4 25.1 10.8 4.7-1.7 8.7-4.9 10.6-9.6 1.7-4.3-.2-11.9-4.4-14.3z"/><path fill="#4E2F1B" d="M433.3 295.8c-7.5 2.9-15.3 4.5-23.3 5.4-.1-.4-.3-.8-.4-1.2.5-.5 1-.9 1.5-1.3 2-1.7 3.9-3.3 5.7-5.2 3.4-3.6 5.3-7.8 5.7-12.7.3-3-4.5-3.6-5.2-.7-1.1 4.7-4 7.6-7.8 10.3-.2.2-.5.3-.7.5.4-1.9.7-3.7.8-5 .4-3.4.8-10.6-3.1-12.4-1.5-.7-2.8-.5-4.1.5l.1-.1c-1.2.8-1.4 2-1 3.1.1 3.4.1 6.7-.4 10.3-.1 1-.7 2.6-1.1 4.3-1.7-.5-3.3-.7-4.9-.5.3-1 .4-1.9.5-2.9v-1.3c0-2.9-.8-5.7-2.7-8-1.4-1.7-3.2-2.5-5.1-2.7.1-1.9.2-3.8.8-5.7 1.3-4.4 5.7-3.7 7.9-7.1 1.2-1.8.2-4.1-1.4-5.2-5.2-3.7-11.7 3.1-13.4 7.7-1.4 3.6-1.8 7.9-1.2 11.9-.5.3-.9.5-1.4.8-.3.1-.6.2-.9.4-2.1-2.4-4.8-4.3-7.7-5.5-6.2-2.4-14.4-2.5-20 1.6-3.7 2.7-3.1 10.3 2.6 9.7 4.5-.5 8.8-2.3 13.3-1.4 1.8.4 4.2 1.3 6.4 2.5-.9 3.5-.3 7.5 1.6 10.5 1.6 2.6 3.9 3.9 6.4 4.3-.2 1.8 0 3.7.4 5.4-1.9.4-3.8.6-5.6.7-6.5.5-13.1-1.2-19.2-3.2-2.1-.7-3.4 2.5-1.5 3.5 6.4 3.5 13.4 4.9 20.7 4.9h1.8c-.8.7-1.7 1.3-2.6 2-4.2 2.8-10.7 5.8-15.8 3.8-2-.8-3.2 2.3-1.4 3.4 6 3.7 12 2.6 18.2-.3 3-1.4 6.3-3.5 9.2-6.1.2.3.5.5.8.8-3.5 5-6 11.6-6.1 16.6-.1 2.7 3.5 2.7 4.3.6 1.4-3.4 2.6-6.7 4.6-9.9 1-1.6 2.3-3 3.5-4.4.9.3 1.8.5 2.7.6-1.1 2.7-1 6.2 0 9.5 2.3 7.6 7.5 14.7 14.2 18.9 5.8 3.7 14.5 5.4 19.4-.7 4.4-5.5 3.8-13.3 1-19.3-2.9-6.2-7.8-10.4-14-12.3-2.2-1.8-4.5-3.2-6.8-4.3.4-.8.8-1.6 1.1-2.5.2-.5.3-.9.4-1.4 3.2 0 6.4-.3 9.6-.7 5.4-.7 12.9-2.1 16-7 1.2-1.7-.5-4.2-2.4-3.5z"/><text transform="translate(42.216 568.782)" fill="#4E2F1B" font-family="'SourceSansPro-Semibold'" font-size="36">&amp;quot;Given enough eyeballs, all bugs are shallow&amp;quot;</text></g></svg>