<svg xmlns="http://www.w3.org/2000/svg" width="792" height="612" viewBox="0 0 792 612"><g id="Layer_1"><path fill="#6B3C1E" d="M456.4 297.5c1.7 4.6 6.4 7.6 7.8 12.4.1.4.2.8.3 1.1.8.3 1.7.5 2.6.4 3.8-.5 6.2-6 7.7-8.9 1.6-3 3.6-5.7 5.3-8.6.1-.4.2-.8.4-1.2.7-1.4 1.2-2.8 1.7-4.2v-.9c-.5-14.1-8.9-26.6-17.4-37.3-3.7-4.7-7-10.2-12.4-13.1-2.6-1.4-5.5-1.9-8.1-3.3-3.4-1.7-6.4-4.1-9.8-5.8-2.7-1.3-5.8-2-8.6-3-3.7-1.2-7.2-2.9-10.9-4.3-7-2.7-13.3-3.3-20.7-3.9-.3 0-.5 0-.7.1-6.7-2-13.7-1.6-20.6.2-3.2 0-6.4.5-9.3 1.3-6.2.1-13.6 3.8-17.9 8.4-6 2.1-11.2 7-15.1 11.6-6.3 7.4-10.2 16.8-13.6 25.8-1.2 3.1-2.2 6.2-3.1 9.4-.2 5.4-.1 10.7 1.5 15.7 2 6.3 9 8.8 14 4.7.2-1 .4-1.9.7-2.9h.5c.3-2.9.9-5.8 2.1-8.7l-.3-.3c1.4-5.1 3.9-10.1 6.3-14.6 4-7.5 9.1-14.1 15.2-20 6.7-6.5 14.8-10.5 23.1-14.2 5-2.2 10.1-4.1 15.2-5.9 1.3-.4 2.5-.8 3.7-1 .1.1.3.1.4.1 3.7-.3 6.4 1.2 9.9 1.9 3.8.8 7.7.2 11.5.8 2.8 1 5.8 1.5 8.5 2.9 3.4 1.7 6.4 4.5 8.9 7.4 5 5.7 9.4 13.3 12.6 20.2 3.7 7.9 5.4 17.3 7.3 25.8.7 4.2 1.1 8.1 1.3 11.9z"/><path fill="#20201F" d="M367.7 290.2c-.1-.5-.6-.9-1.1-.9-6.5.7-12.4-2-18.8.3-3.4 1.3-7.6 4.2-6 8.3.4 1 2.1.9 2-.3.2 0 .5-.1.6-.3 5-6.6 12.1-2.7 18.6-1.9 3.7.6 5.6-1.6 4.7-5.2zM447.1 293.8c1.3-1.7 1.4-3 .1-4.2-3.8-1.1-15-2.6-20-3.1-7.9-.8-17.1-.9-23.1 5.3-1 1.1-4.1 7.4-5.7 7.7 9.6-2 27-14.6 36.3-7.8 2.9 2.2 12.3 9.8 12.4 2.1.7-.8 0 .4 0 0z"/><path fill="#BA723F" d="M358.4 314.2c-.1 0-.2 0-.3-.1l-.2-.2h-.1c0-.6-.4-1.1-1.1-1.1-.4 0-.8 0-1.2-.1 0-.1-.1-.1-.1-.1-.7-.6-1.6-1.3-2.4-2-.3-.3-.7-.6-1-1l-.1-.1c-.5-.5-.9-1-1.2-1.6-.1-.2-.2-.3-.4-.3v-.7c.2-1.4-1.8-1.6-2.4-.7-.1.2-.2.3-.3.5-.4.2-.7.6-.6 1.2v.6c-.3 2.5 1.7 4.9 4.2 6.1.1.2.3.4.6.6 1.3.7 2.6 1.1 4 1.2.1.2.4.4.7.4.5.1 1 .1 1.6.1.8 0 1.1-.7.9-1.3.3-.5.2-1.3-.6-1.4zM439.5 309.2c-.1-.2-.1-.3-.2-.5v-.3c0-.3-.2-.6-.5-.7-.8-1-1.9-1.5-3.2-.5-.7.6-.4 1.5.3 1.6-1.4 3.7-4.1 6.3-7.6 7.3h-.4c-.2 0-.4.1-.5.2-.8.2-1.7.3-2.6.3-1.2 0-1.3 1.6-.3 2 5.3 1.8 9.1 1 12.7-3.5 1.2-1.4 2.9-3.8 2.3-5.9z"/><path fill="#20201F" d="M377.9 306.1c-2.8-5.1-10.3-5.8-15.5-5.5-4.8.2-14.2 2.1-16.4 7-.2.4.3.8.6.5 2.1-2.3 5.7-4.2 9.8-5.3-1.8 3.3 4.2 6.9 6.7 8 4.9 2.2 11.4-.4 11.5-6 .8.6 1.5 1.3 2 2.1.6.7 1.8 0 1.3-.8zM439.6 308.3c-2.2-5.8-11-6.5-16.2-7.3-6.8-1.1-15 .4-20 5.4-.6.6.3 1.5.9.9 2-1.6 4.3-2.8 6.9-3.7v.1c-.1 1 .3 2 1 2.7 1.3 3.7 6 5.7 9.9 5.6 5-.1 7.5-3.4 7.4-8.2 3.3 1.1 6.4 2.9 8.7 5.2.6.6 1.7.1 1.4-.7zM407.4 364.1c-4.7 1.7-8.7 4.2-13.7 5.2-5.8 1.2-13.2 1.2-18.7-1.3-.8-.4-1.5.7-.7 1.2 4.6 3.3 11.2 3.2 16.6 3 6.4-.3 12-2.5 17.6-5.4 1.6-.7.5-3.2-1.1-2.7z"/><path fill="#6B3C1E" d="M400.9 348c-5.8-.5-11.8.7-17.6 1.2-5.9.5-11.8.2-17.7 1.2-6.1 1-10.2 4.7-12.3 9.8-.4-.2-.8-.1-1.1.2-3.2 3.8-4.7 8-3.9 12.9.2 1 1.4 1.2 2.2.9 4.7-2.1 6.6-7 9.4-11.1 5.6-8.2 17.7-4 25.7-3 8.8 1.1 17.3-1.1 26.1-.6 9.3.5 20.6 10.1 20.7 19.9 0 2.5 3.8 2.5 3.9 0 .2-18.9-18.5-29.9-35.4-31.4z"/><path fill="#20201F" d="M399 336.7c-7.2 1.2-27.3 4.2-25-8.1.9-5 3.8-9.6 6.1-14.1 2.8-5.4 4.6-11.6 5.3-17.6.1-1-1.5-1.2-1.7-.2-1.8 8.3-5.2 15.4-8.9 22.9-2.2 4.3-4.9 10-2.9 14.8 3.6 9.2 20.8 6.6 28.1 5.5 1.9-.4 1-3.6-1-3.2z"/></g></svg>