<?xml version="1.0" encoding="utf-8"?>
<!-- Generator: Adobe Illustrator 18.0.0, SVG Export Plug-In . SVG Version: 6.00 Build 0)  -->
<!DOCTYPE svg PUBLIC "-//W3C//DTD SVG 1.1//EN" "http://www.w3.org/Graphics/SVG/1.1/DTD/svg11.dtd">
<svg version="1.1" xmlns="http://www.w3.org/2000/svg" xmlns:xlink="http://www.w3.org/1999/xlink" x="0px" y="0px" width="792px"
	 height="612px" viewBox="0 0 792 612" enable-background="new 0 0 792 612" xml:space="preserve">
<g id="Layer_2" display="none">
	<circle display="inline" fill="#FAA41A" cx="396" cy="306" r="80"/>
</g>
<g id="Layer_1">
	<path fill="#6B3C1E" d="M456.4,297.5c1.7,4.6,6.4,7.6,7.8,12.4c0.1,0.4,0.2,0.8,0.3,1.1c0.8,0.3,1.7,0.5,2.6,0.4
		c3.8-0.5,6.2-6,7.7-8.9c1.6-3,3.6-5.7,5.3-8.6c0.1-0.4,0.2-0.8,0.4-1.2c0.7-1.4,1.2-2.8,1.7-4.2c0-0.3,0-0.6,0-0.9
		c-0.5-14.1-8.9-26.6-17.4-37.3c-3.7-4.7-7-10.2-12.4-13.1c-2.6-1.4-5.5-1.9-8.1-3.3c-3.4-1.7-6.4-4.1-9.8-5.8c-2.7-1.3-5.8-2-8.6-3
		c-3.7-1.2-7.2-2.9-10.9-4.3c-7-2.7-13.3-3.3-20.7-3.9c-0.3,0-0.5,0-0.7,0.1c-6.7-2-13.7-1.6-20.6,0.2c-3.2,0-6.4,0.5-9.3,1.3
		c-6.2,0.1-13.6,3.8-17.9,8.4c-6,2.1-11.2,7-15.1,11.6c-6.3,7.4-10.2,16.8-13.6,25.8c-1.2,3.1-2.2,6.2-3.1,9.4
		c-0.2,5.4-0.1,10.7,1.5,15.7c2,6.3,9,8.8,14,4.7c0.2-1,0.4-1.9,0.7-2.9c0.2,0,0.3,0,0.5,0c0.3-2.9,0.9-5.8,2.1-8.7
		c-0.1-0.1-0.2-0.2-0.3-0.3c1.4-5.1,3.9-10.1,6.3-14.6c4-7.5,9.1-14.1,15.2-20c6.7-6.5,14.8-10.5,23.1-14.2c5-2.2,10.1-4.1,15.2-5.9
		c1.3-0.4,2.5-0.8,3.7-1c0.1,0.1,0.3,0.1,0.4,0.1c3.7-0.3,6.4,1.2,9.9,1.9c3.8,0.8,7.7,0.2,11.5,0.8c2.8,1,5.8,1.5,8.5,2.9
		c3.4,1.7,6.4,4.5,8.9,7.4c5,5.7,9.4,13.3,12.6,20.2c3.7,7.9,5.4,17.3,7.3,25.8C455.8,289.8,456.2,293.7,456.4,297.5z"/>
	<path fill="#20201F" d="M367.7,290.2c-0.1-0.5-0.6-0.9-1.1-0.9c-6.5,0.7-12.4-2-18.8,0.3c-3.4,1.3-7.6,4.2-6,8.3
		c0.4,1,2.1,0.9,2-0.3c0,0,0,0,0,0c0.2,0,0.5-0.1,0.6-0.3c5-6.6,12.1-2.7,18.6-1.9C366.7,296,368.6,293.8,367.7,290.2z"/>
	<path fill="#20201F" d="M447.1,293.8c1.3-1.7,1.4-3,0.1-4.2c-3.8-1.1-15-2.6-20-3.1c-7.9-0.8-17.1-0.9-23.1,5.3
		c-1,1.1-4.1,7.4-5.7,7.7c9.6-2,27-14.6,36.3-7.8C437.6,293.9,447,301.5,447.1,293.8C447.8,293,447.1,294.2,447.1,293.8z"/>
	<path fill="#BA723F" d="M358.4,314.2c-0.1,0-0.2,0-0.3-0.1c-0.1-0.1-0.1-0.1-0.2-0.2c0,0,0,0-0.1,0c0-0.6-0.4-1.1-1.1-1.1
		c-0.4,0-0.8,0-1.2-0.1c0-0.1-0.1-0.1-0.1-0.1l0,0c-0.7-0.6-1.6-1.3-2.4-2c-0.3-0.3-0.7-0.6-1-1c0,0-0.1-0.1-0.1-0.1
		c-0.5-0.5-0.9-1-1.2-1.6c-0.1-0.2-0.2-0.3-0.4-0.3c0-0.2,0-0.5,0-0.7c0.2-1.4-1.8-1.6-2.4-0.7c-0.1,0.2-0.2,0.3-0.3,0.5
		c-0.4,0.2-0.7,0.6-0.6,1.2c0,0,0,0,0,0c0,0.2,0,0.4,0,0.6c-0.3,2.5,1.7,4.9,4.2,6.1c0.1,0.2,0.3,0.4,0.6,0.6c1.3,0.7,2.6,1.1,4,1.2
		c0.1,0.2,0.4,0.4,0.7,0.4c0.5,0.1,1,0.1,1.6,0.1c0.8,0,1.1-0.7,0.9-1.3C359.3,315.1,359.2,314.3,358.4,314.2z"/>
	<path fill="#BA723F" d="M439.5,309.2c-0.1-0.2-0.1-0.3-0.2-0.5c0-0.1,0-0.2,0-0.3c0-0.3-0.2-0.6-0.5-0.7c-0.8-1-1.9-1.5-3.2-0.5
		c-0.7,0.6-0.4,1.5,0.3,1.6c-1.4,3.7-4.1,6.3-7.6,7.3c-0.1,0-0.2,0-0.4,0c-0.2,0-0.4,0.1-0.5,0.2c-0.8,0.2-1.7,0.3-2.6,0.3
		c-1.2,0-1.3,1.6-0.3,2c5.3,1.8,9.1,1,12.7-3.5C438.4,313.7,440.1,311.3,439.5,309.2z"/>
	<path fill="#20201F" d="M377.9,306.1c-2.8-5.1-10.3-5.8-15.5-5.5c-4.8,0.2-14.2,2.1-16.4,7c-0.2,0.4,0.3,0.8,0.6,0.5
		c2.1-2.3,5.7-4.2,9.8-5.3c-1.8,3.3,4.2,6.9,6.7,8c4.9,2.2,11.4-0.4,11.5-6c0.8,0.6,1.5,1.3,2,2.1
		C377.2,307.6,378.4,306.9,377.9,306.1z"/>
	<path fill="#20201F" d="M439.6,308.3c-2.2-5.8-11-6.5-16.2-7.3c-6.8-1.1-15,0.4-20,5.4c-0.6,0.6,0.3,1.5,0.9,0.9
		c2-1.6,4.3-2.8,6.9-3.7c0,0,0,0,0,0.1c-0.1,1,0.3,2,1,2.7c1.3,3.7,6,5.7,9.9,5.6c5-0.1,7.5-3.4,7.4-8.2c3.3,1.1,6.4,2.9,8.7,5.2
		C438.8,309.6,439.9,309.1,439.6,308.3z"/>
	<path fill="#20201F" d="M407.4,364.1c-4.7,1.7-8.7,4.2-13.7,5.2c-5.8,1.2-13.2,1.2-18.7-1.3c-0.8-0.4-1.5,0.7-0.7,1.2
		c4.6,3.3,11.2,3.2,16.6,3c6.4-0.3,12-2.5,17.6-5.4C410.1,366.1,409,363.6,407.4,364.1z"/>
	<path fill="#6B3C1E" d="M400.9,348c-5.8-0.5-11.8,0.7-17.6,1.2c-5.9,0.5-11.8,0.2-17.7,1.2c-6.1,1-10.2,4.7-12.3,9.8
		c-0.4-0.2-0.8-0.1-1.1,0.2c-3.2,3.8-4.7,8-3.9,12.9c0.2,1,1.4,1.2,2.2,0.9c4.7-2.1,6.6-7,9.4-11.1c5.6-8.2,17.7-4,25.7-3
		c8.8,1.1,17.3-1.1,26.1-0.6c9.3,0.5,20.6,10.1,20.7,19.9c0,2.5,3.8,2.5,3.9,0C436.5,360.5,417.8,349.5,400.9,348z"/>
	<path fill="#20201F" d="M399,336.7c-7.2,1.2-27.3,4.2-25-8.1c0.9-5,3.8-9.6,6.1-14.1c2.8-5.4,4.6-11.6,5.3-17.6
		c0.1-1-1.5-1.2-1.7-0.2c-1.8,8.3-5.2,15.4-8.9,22.9c-2.2,4.3-4.9,10-2.9,14.8c3.6,9.2,20.8,6.6,28.1,5.5
		C401.9,339.5,401,336.3,399,336.7z"/>
	<g>
		<g>
			<path fill="none" stroke="#20201F" stroke-miterlimit="10" d="M506.8,362.9"/>
		</g>
	</g>
</g>
</svg>
