<svg xmlns="http://www.w3.org/2000/svg" width="792" height="612" viewBox="0 0 792 612"><g id="Layer_1"><circle fill="#6A9AD1" cx="169.6" cy="178.7" r="25.4"/><g fill="#6A9AD1"><circle cx="278.1" cy="380.2" r="25.4"/><circle cx="61.1" cy="380.2" r="25.4"/><circle cx="133.4" cy="380.2" r="25.4"/><circle cx="205.8" cy="380.2" r="25.4"/></g><g fill="#6A9AD1"><circle cx="90.2" cy="274.2" r="25.4"/><circle cx="249" cy="274.2" r="25.4"/><circle cx="169.6" cy="274.2" r="25.4"/></g><g fill="#6A9AD1"><circle cx="278.1" cy="473.2" r="25.4"/><circle cx="61.1" cy="473.2" r="25.4"/><circle cx="133.4" cy="473.2" r="25.4"/><circle cx="205.8" cy="473.2" r="25.4"/></g><text transform="matrix(.96 -.281 .281 .96 383.021 322.645)" fill="#395B88" font-family="'WisdomScriptAI'" font-size="48">vs</text><path fill="none" stroke="#D1D3D4" stroke-width="3" stroke-linecap="round" stroke-miterlimit="10" d="M170.5 210.5v30.6M148.9 202.9l-38.3 47.4M190.3 202.9l38.3 47.4M169.6 306v116.8M61.7 422.8h216.4M278.1 422.8v16M61.7 422.8v16M133.8 422.8v16M206 422.8v16M81.3 306l-11.9 42.1M102.7 304.8l18.4 45M257.9 306l11.9 42.1M236.5 304.8l-18.4 45"/><circle fill="#6A9AD1" cx="525.8" cy="152.5" r="25.4"/><path d="M517.4 137.9c-2.4-1.3-5.8.4-6.8 2.8-.1.3-.2.6-.3 1-1.2 3.2.3 7.9 4.1 8.2.5.1 1 .1 1.6-.1 2.1-.5 3.2-2 3.6-3.6 1.2-3 .6-6.8-2.2-8.3zM538.3 139.2c-1.1-3.9-5.2-5.7-8.9-4.9-.9.2-1.7.6-2.4 1.2-.1.1-.3.1-.4.2-.3.2-.6.5-.8.8-.8.8-1.5 1.8-1.8 2.9-.7 2.3-.1 4.8 1.4 6.6.7 1.9 1.9 3.6 3.7 4.3 2.1.8 4.2-.4 5.8-1.7 2.7-2.3 4.5-5.7 3.4-9.4zM541.1 154.7c-9-.3-18.5.7-27.2 3.1-4.4 1.2-5 4.1-1.3 6.1 3.6 5.1 10.4 7.6 16.5 6.9 6.8-.7 11.2-9.5 12.6-15.3 0-.4-.2-.8-.6-.8z"/><circle fill="#6A9AD1" cx="638.8" cy="152.5" r="25.4"/><circle fill="#6A9AD1" cx="600.8" cy="216.6" r="25.4"/><circle fill="#6A9AD1" cx="532.8" cy="226.4" r="25.4"/><path d="M535.7 211.3c-5.1-.2-10.6.6-14.5 4.3-.5.5.2 1.4.7.9 4.2-3.2 8.6-3.5 13.7-3.8 1 0 1-1.3.1-1.4zM551.1 227c-1-3.1-4.3-15.8-9.6-11.7-.5.4-.1 1.2.5.9 3.9-2.3 6.7 9 7.7 11.3.4.7 1.7.4 1.4-.5zM537.9 232.5c-6.2-.7-13.3-2.9-14.5-9.8-.1-.3-.3-.4-.6-.4.1-.2.2-.4.3-.5.4-.8-.7-1.4-1.1-.7-2.2 4.2-2.2 8.6 1.9 11.5 3.8 2.7 10.1 2.9 14.4 1.4.6-.3.4-1.4-.4-1.5z"/><circle fill="#6A9AD1" cx="541.8" cy="285.4" r="25.4"/><path d="M538 280.9c-3.3 1-5.6 4-6.7 7.4-.9 1.6-.9 3.3-.5 5.1.3 2.7 1.6 5.1 4.1 6.4 4.2 3.7 10.4 4.5 15 1 10.5-7.8-.8-23.2-11.9-19.9zM538.5 270.8c-1.6-4.6-8.3-3.6-9.2.9-.4 2.2 1.1 4.8 3.3 5.5 2 .7 4.1-.5 5-2.3.1-.2.2-.6.3-.9.8-.8 1.1-1.9.6-3.2zM554.3 272.9c-.1-2.2-1.5-4.9-3.9-5.1-1.4-.1-2.5.8-3.3 1.9-.9.4-1.7 1.1-2.1 2-.5 1.2-.2 2.3.5 3.2.3.8 1.2 1.4 2.1 1.6.7.4 1.5.6 2.2.7.2 0 .4.1.6.1.1 0 .2.1.3.1 1 .4 1.7-.1 2.2-.8.9-.9 1.5-2.2 1.4-3.7z"/><circle fill="#6A9AD1" cx="532.8" cy="343.6" r="25.4"/><path d="M543 349.9c-1.3-1-2.8-2.1-4.3-2.9v-.1c-.3-.7-1.1-1-1.7-.8-6.7-3.2-14.8-4-19.3 2.9-.6.9.8 1.7 1.5.9 1.2-1.5 2.5-2.6 4.1-3.2-.9 5 1.7 9.8 7.1 10.5 4.1.5 8.3-3.1 8.8-7.2.8.6 1.5 1.2 2.2 1.8 1 1 2.9-.9 1.6-1.9zm-8.1 2.8c-1 1.3-2.6 1.8-4.2 1.8-4.6-.1-5.7-4.8-5.2-8.5 1.2-.2 2.4-.2 3.7-.1 0 2.1 0 4.3-.1 6.4-.1 1.6 2.5 1.6 2.5 0-.1-2.1-.1-4.1-.6-6.1 1.8.4 3.5 1.1 5.2 1.9-.2 1.6-.2 3.1-1.3 4.6zM530.8 326c-1.1-1-2.4-1.4-3.9-1.2-1.4 0-2.6.8-3.2 2-.8 1.1-1.2 2.4-1 3.7.3 2 2.1 3.4 4.1 3.7 2.1.3 4.7-.7 5.5-2.8.8-1.9 0-4-1.5-5.4zM541.5 326.3c-1.6-1.2-4.2-1.1-5.8 0-1.3.9-1.9 2.4-1.8 3.9-.2 2.2 1.7 4.2 3.9 4.5 2.1.3 4.4-.7 5.4-2.6 1.2-2.1.1-4.6-1.7-5.8z"/><circle fill="#6A9AD1" cx="592.6" cy="351.3" r="25.4"/><circle fill="#6A9AD1" cx="651.6" cy="260" r="25.4"/><circle fill="#6A9AD1" cx="716.6" cy="191.2" r="25.4"/><circle fill="#6A9AD1" cx="677" cy="318.2" r="25.4"/><circle fill="#6A9AD1" cx="722" cy="360.4" r="25.4"/><circle fill="#6A9AD1" cx="716.6" cy="434.8" r="25.4"/><path d="M730.9 433.4c-2.9 2.1-4.3 4.4-4.8 7.1-.3-.4-.8-.6-1.3-.3-2.2 1.2-4.9 1.6-7.3 1.8-1.3.1-2.7 0-4-.2-.9-.2-1.3-.8-1.9-1.3-.6-1-1.4-1.9-2-2.6-2-2.2-5-3.7-8-3.3-.9.1-.9 1.5 0 1.4 2.7-.2 4.9 1.2 6.8 3.1.9 1 1.6 2.2 2.2 3.4.4.9.4 1.8.8 2.6.3.7 1.4.5 1.6-.2.1-.5.1-.9 0-1.4.8.3 1.6.4 2.1.5 3.6.3 7.7-.3 10.9-2-.2 1.5-.1 3.1 0 4.9.1.6.9.6 1 0 .4-4.9.9-8.6 5-11.8.9-.8-.1-2.5-1.1-1.7zM713.8 425.1c-2 0-2 3.1 0 3.1s2-3.1 0-3.1zM724.9 423.8c-.6-.5-1.2-.8-2-1.2-.6-.3-1.2-.3-1.8 0-.2.1-.3.1-.4.2-.4.2-.8.5-1.1.8-.5.5-1 1.3-.9 2.1.1 1.7 1.6 2.4 3 2.5 1 .1 2.1 0 3-.5 1.6-.9 1.5-2.9.2-3.9z"/><circle fill="#6A9AD1" cx="651.6" cy="422.8" r="25.4"/><path d="M651.8 417.7c-4.7-5.1-8.8 2-13.2 3.3-4.8 1.4-6.8-6.7-2.3-6.7 1 0 1.2-1.5.2-1.8-5.1-1.2-5.7 5.5-3.5 8.6 1.6 2.2 4.2 2.5 6.7 1.8 1.9-.5 3.4-1.8 4.9-3 .8-.7 1.6-1.4 2.6-1.7 1.3-.4 2.9.4 4.2.5.5-.1.7-.7.4-1zM667.9 416.8c-1.2-.2-1.7 1.5-.5 1.8 2.5.7 3 2.5 1.3 4.5-2 2.4-5.2 1.8-7.5.3-2.6-1.7-4.4-7.8-8.5-5-.3.2-.2.6.2.6 2.3.3 3.3.6 4.6 2.6.8 1.2 1.7 2.3 2.8 3.2 2.3 1.8 5.2 2.1 7.8.8 3.9-1.8 4.8-8-.2-8.8zM652.2 408.6c-.1-.2-.1-.4-.3-.5-.2-.2-.4-.3-.6-.3v-.2c-.1-.4-.3-.6-.6-.6-.5-.5-1.3-.6-1.8.2-.2.3-.1.8.2 1.1-.2 0-.5.1-.6.3-.5.5-.2 1.1.3 1.5.1.2.3.3.5.3v.1c-.1.4.1.6.5.6l1.1.1c.2 0 .4-.1.5-.3.1-.1.1-.2.2-.3.1 0 .1 0 .2-.1.2-.1.3-.4.4-.6l.3-.3c0-.4-.1-.7-.3-1zM658.7 411.7c0-.4-.1-1.3-.5-1.8 0-.2-.1-.4-.3-.5-.4-.5-1.1-.3-1.5 0-.6.1-.9.6-1.1 1.1-.1.3-.1.7.2 1 .3.3.7.5 1 .7.3.2.7.4 1.1.5.8.4 1.3-.4 1.1-1z"/><circle fill="#6A9AD1" cx="643.4" cy="499.2" r="25.4"/><circle fill="#6A9AD1" cx="567.2" cy="506.2" r="25.4"/><circle fill="#6A9AD1" cx="567.2" cy="427.2" r="25.4"/><path fill="none" stroke="#D1D3D4" stroke-width="3" stroke-linecap="round" stroke-miterlimit="10" d="M547.4 170.9l32 27.1M624.3 176.9L615 192M689 198l-60.4 12.7M630 241.6l-7.6-6.6M560.3 263.8l22.2-25.5M594.3 322.9l4.8-77.9M644.8 395.3l-37.2-151.1M658.4 395.3l11.9-49.5M672.8 404l28-24.8M679.5 428l8.7 1.6M648.5 451.2l-2.1 19.6M631.4 442.8l-44 43.5M622.4 424.4l-26.9 1.4M560.9 222.3l11.5-1.6M560.9 347.6l3.5.5"/><path d="M556.6 485.7c-.7.7.2 1.9 1 1.3 4.2-2.6 8.3-2.6 12.5.2 3.8 2.5 6.4 7.6 3.8 11.8-3.2 5.2-10.3 4.9-14.5 1.4-3.6-3-6.1-9.1-.6-11.6.5-.2.2-1.1-.4-.9-6.5 1.6-5 8.4-1.7 12.4 4.6 5.6 12.1 5.9 17.4 1.2 9.9-8.8-8.4-24.8-17.5-15.8z"/><path d="M567.4 491.6l-.3-.6c-.5-.6-1.2-.8-1.9-.8-.4-.3-.9-.4-1.4-.2-.4.1-.7.3-.9.6-.3.2-.6.4-.8.8-.7.6-1.2 1.4-1.3 2.2-.3 1.7.8 2.8 2.2 3.4.9.4 1.8.5 2.6.2 1.4.1 2.5-.6 3-1.9.5-1.3-.1-2.8-1.2-3.7zM573.3 508.8c-.6-.7-1.8.4-1 1 1.7 1.5-3.2 2.8-3.9 2.8-1.7 0-3.4-.7-5-1.2-.8-.3-1.7-.5-2.6-.7-.9-.3-5.2-2.3-1.4-2.8.6-.1.4-.9 0-1-1.9-.7-4.1.4-3.5 2.8.6 2.3 4.1 2.9 6 3.3 3.1.7 6 1.7 9.1.4 2.1-1 3.9-2.6 2.3-4.6zM560.5 514.3c-3-.3-7-.7-9.6 1.1-2 1.4-1 3.4.3 4.7 3.2 10.3 22.6 13.1 27.4 2.8 3.3-7-14.6-8.3-18.1-8.6zM561 417.5c-2.1-1-4.4-1.3-6.5-.3-2.5 1.1-2.8 4.1-2.3 6.4.3 1.2.8 2.1 1.6 2.7 1.5 2.4 4.3 3.8 7.3 2.1 2.1-1.1 4.1-3.5 3.9-5.9-.3-2.4-2.1-4.1-4-5zM567.8 419.8c-.2.8-.3 1.6-.2 2.4-.1 1.2.1 2.4.5 3.5.7 2.2 2.2 4.1 4.3 5 2.5 1.1 5.1-.5 7-2.2 9-8.1-8.9-18.1-11.6-8.7zM549.6 430.3c-1.2-2.2-1.4-4.3-1.3-6.8 0-.8-1-1-1.4-.4-1.5 2.5-.1 5.9 1.5 7.9.5.8 1.6.1 1.2-.7zM585.6 420.6c-.3 5.7-1.6 9.9-5.7 14.1-.3.4.2.8.5.5 4.6-4 6.7-8.6 6.6-14.7 0-.8-1.3-.8-1.4.1zM572.7 436.9c-1.8-2.4-4.2-3.5-7-4.3-2.4-.7-6.3-1.5-8.7-.3-2.1 1.1-3.9 3-3.7 5.5.1 2 2 3 3.9 3 1 .7 2.2 1.3 3.2 1.7 2.6 1.3 5.4 2.4 8.3 3 1.8.4 3.9.4 5.2-1.3 1.6-2.4.3-5.3-1.2-7.3zM652.5 509.5c-.4-1-2-.6-1.7.5.6 1.9 1 3.8-.4 5.5-1.6 2-4.5.8-6.2-.2-.5-.3-1.2-.1-1.4.4-1.4 2.9-4 2-6.5 1.3-.7-.2-1.2.9-.5 1.2 2.9 1.6 6.3 2.1 8.3-.7 5.7 2.7 11-1.6 8.4-8zM647.4 499.7c-2.6 3.1-5.8 5.3-9.5 7-2.1 1-5.7 1.4-7.4 3.1-.3.3-.1.6.2.8 2.3.9 6.1-1.3 8.1-2.2 3.8-1.6 7.5-4 10-7.2.9-1.1-.6-2.6-1.4-1.5zM630.4 489.7c0-.2-.1-.4-.3-.5v-.1c0-.1-.1-.2-.1-.3-.2-.4-.5-.5-.9-.5-1-.2-2.2.8-2 1.8v.2c0 .1-.1.3-.1.4 0 .4.3.8.6.8.1.2.3.3.4.4.1.1.2.1.3.2.3.2.7.2 1 .1.2-.1.3-.2.4-.4.2-.1.4-.3.6-.6.5-.5.4-1 .1-1.5zM639.5 486.2c0-.6-.1-1.1-.3-1.5-.3-.6-.8-.8-1.3-.9-.7-.5-1.6-.7-2.6-.8-1.1-.1-2.3.5-2.2 1.7-.1 0-.1.1-.2.1-1.1 1-1.1 2.9-.5 4.2.1.8.6 1.6 1.7 1.9 1.1.4 2.2.3 3.1-.1.4-.1.9-.3 1.3-.5s.5-.6.4-.9c.6-.8.9-2 .6-3.2zM658.5 486.8c-1-1.3-2.7-2.4-4.4-2.4-1.4 0-2 1.1-1.4 2.3.3.6 1.2.2 1.1-.4 0-.3 1 0 1.2.1 1 .3 1.8 1.1 2.3 1.9.4.7.8 1.8.4 2.7-.4.8-1.6.2-2.3.2-1.1 0-1.4 1.4-.5 1.9 1.5 1 3.6.3 4.5-1.2.7-1.6.1-3.8-.9-5.1zM587.4 343c-.8-1.7-.5-3.9-.8-5.7-.1-.8-1.4-.6-1.3.2.1 1.6.2 3.1.3 4.7-.1 0-.1-.1-.2-.1-.6-.8-1.1-1.5-1.8-2.2-.5-.4-1.2-.1-1.2.5 0 .8.6 1.5 1.4 2.1.1.1.2.3.3.4-2.2-.1-4.4.4-6.1 2-.6.6.2 1.6.9 1.1 2.2-1.4 4.4-1.9 7-1.3.5.1.9-.2 1-.6.1-.1.2-.3.3-.4.1 0 .4-.3.2-.7zM604.3 343.1c-2-.1-4 0-5.9.7.6-1.4 1.2-2.7 2.1-3.9.4-.5-.4-1-.8-.6s-.8.8-1.1 1.3c.1-1 .1-2 .1-3 0-.9-1.2-1-1.5-.2-.5 1.4-.7 3.2-.1 4.5 0 .5-.1 1.1-.2 1.6-.1.4.1.6.3.8-.1.1-.1.2-.2.4-.2.5.4.7.7.6 2.1-1 4.3-.9 6.6-1 .6-.2.6-1.2 0-1.2zM607.3 350c0-.2-.1-.3-.1-.4-.1-.8-1.3-.8-1.4 0-.1.1-.1.3-.1.4v1.4c-5.3.2-10.6.1-15.9.4-4.4.3-8.3 1.8-10.3 5.8-.3.6.5 1 .9.5 6.2-8.4 17.1-2.3 25.3-4.9 0 .4.2.6.5.7v.1c.1.9 1.3.5 1.4-.2 0-1.1-.3-2.4-.3-3.8zM595.8 207.8c-.4-.3-.7-.7-1.1-1-.3-1.6-2.3-3.2-3.4-4-1.2-.8-2.5.8-1.9 1.9.1.2.3.5.4.7-1.4-.6-2 1.7-.6 2.3.1 0 .2.1.3.1-1.4.2-2.7.8-3.9 1.9-1 .9.5 2.4 1.5 1.5 1.8-1.7 4.5-2.1 6.9-1.5h.5c1.1.5 2.4-1 1.3-1.9zM610.3 209.6c-2.5-.8-5.2-.6-7.9-.3.9-1.5 1.9-3 2.7-4.6.4-.8-.3-1.5-1-1.3.1-.2.2-.5.3-.7.4-.9-1.1-1.5-1.6-.7-1.2 2-2 4.1-2.7 6.3-.1.4 0 .7.2.9-.1.2-.3.4-.4.7-.3.5.1 1.4.8 1.3 3.2-.4 6.1-.4 9.4-.1.9.2 1-1.2.2-1.5zM587.2 222.6c-.3-.2-.6-.2-1 0-7.8 4.7 4.5 8.4 8.1 8.7 8.4.9 19.4 0 20.1-10.7.8-11.8-19.8-3.2-27.2 2zM638.2 165.2c0-.8-.6-1.5-1.4-1.6-.2 0-.4 0-.6.1-.2 0-.4.1-.5.2-.4.3-.6.6-.6 1-.3.6-.4 1.2-.1 1.8.4.8 1.4 1 2.1.8 1.2-.2 1.4-1.3 1.1-2.3zM647.9 160.9c-.7-.7-1.9-1.1-2.8-.4-.2.2-.4.5-.5.8 0 0 0 .1-.1.1-.5 1 .2 2.4 1.2 2.8.2.1.5.1.7.1.6 0 1.2-.3 1.4-.7l.2-.2c.8-.8.6-1.9-.1-2.5z"/><path d="M652.6 152.9c-1.2-.6-2.2 1.1-1 1.8 3.8 2.2 1.9 8.5.3 11.6-2.8 5-9.5 9-15.1 6.4-.4-.2-.8.4-.4.6 5.6 3.4 13-.5 16.4-5.4 2.7-3.9 5-12.1-.2-15zM732.3 202.4c-.9-1-1.6-2-2-3.3-.1-.4-.5-.6-.9-.5-1.4.3-2.5.9-3.7 1.6-.4-.5-.7-1.2-.8-1.9-.1-.5-.7-.5-1-.3l-3.3 3h-.1c-.2-.2-.5-.2-.7-.1-.9-1.4-1.7-2.8-2.2-4.4-.1-.4-.6-.5-.9-.2-.7.8-1.5 1.5-2.4 2.1-.2.2-.3.3-.5.3-.1-.2-.4-.3-.6-.2-.1-.2-.2-.5-.4-.9-.4-.7-.8-2.1-1.6-2.6-2.8-1.7-3.2 4.5-5.5-1.1-.1-.2-.3-.4-.6-.2-1.2.7-2.3 1.2-3.2 1.1-.1-.2-.4-.3-.6-.2-.5-.3-.9-.8-1.3-1.7 0-.2-.1-.4-.2-.5v-.1c-.1-.2-.4-.2-.5 0v.1c-.5.2-.9.9-1.1 1.4-.1 0-.1.1-.2.2-.1.2-.2.3-.3.4-2.4 4.1-1.8 12.6 2.3 15.5.1.2.3.3.4.5 0 1.3.1 2.6.3 4-.2 1-.2 2.1 0 3.1-.3.8-.6 1.5-.8 2.3-.2.9.3 3.3 1.7 3 1.2-.2 1.4-2.1 1.5-3 .1-1.3-.1-2.6-.3-3.9.2-.8.4-1.7.4-2.5.2-.5.5-1.1.7-1.7.2.9.8 1.8 1.1 2.7-.2.3-.3.5-.4.8-.2.7.1 2.1 1 2.1s1.1-1.2 1.3-1.8c.1-.5.2-1 .3-1.4.3-.5.4-1 .6-1.5.9-1.4 2.1-.8 3.3-1.3.7-.3 2.1 1.6 2.8 1.9.4.2.6.2 1 .2.6.1.5 1.6.6 2.1.1.4.2.7.4 1 .1.4.3.7.5 1 .8 1.5-1.2 4.7.7 5.8 1.2.7 1.7-.8 1.7-1.7.8-2.1-.7-4.5.2-6.7.1 0 .1-.1.2-.1.3-.2.5-.5.7-.7.7-.3 1.5-.2 2.3-.2.5.5 1.1.8 1.8.3.1 0 .2-.1.2-.2.6-1 1.5-1.7 2.4-2.5.1-.1.2-.3.1-.5 2.4-1.4 4-4.5 5.1-7 .7-.6 1-1.1.5-1.6zm-33.3-1.5c-.1-1.9 0-3.9-.3-5.8v-.1c.1-.3.3-.5.5-.7.1-.2.3-.4.5-.6.3.1.5.8 1.2 1.5-.5 1.9-1 3.9-1.9 5.7zm3.8 6.1c-.5.7-1.2 1.3-1.8 1.9-.6-.7-.9-1.7-1.2-2.6.5-.7 1.3-1.2 2-1.7.4.5.8 1 1 1.5 0 .1 0 .2.1.3 0 .2 0 .4-.1.6zm.3-6.2c-.4-1.7-.7-3.3-1.1-5 .3 0 .6-.1.6-.1 2.5-.4 2.7-.5 3.4 1.8-.7 1.2-1.8 2.2-2.9 3.3zm1.7 7.9v-.2c0-.1-.1-.2-.2-.3-.1-.3-.3-.5-.4-.8 0-.1.1-.2.1-.3.1-.4.1-.8-.1-1.2.4-.5.8-1.1 1.2-1.5.4.7.7 1.4 1.1 2.1 0 .9-1 1.6-1.7 2.2zm6.7-1c-.1.1-.1.1-.1.2s-.1.1-.2.2-.3.2-.4.3c-.2.1-.5.2-.6.4-.4.3-.9.5-1.3.8-.3-.7-.7-1.4-1.1-2.1.1 0 .1-.1.2-.2.8-1.3 2.5-1.1 3.8-1.6-.1.6 0 1.5-.3 2zm-2.6-5.6c-.5-1.3-.9-2.6-1.2-4 .6-.2 1.1-.5 1.8-1 1.6-1.3 2.5.3 3.1 1.7-1.4.8-2.7 2-3.7 3.3zm6.4 9.5c-.9-.8-1.5-1.7-2.2-2.6.8 0 1.6-.1 2.4-.1.6 0 1.3-.1 1.8.4.2.2.3.8.3 1.2-.9.2-1.6.6-2.3 1.1zm.4-5.5c-.5-2.1-1.2-4.1-1.6-6.3.7-.6 2.6-2.4 2.9-1.9.7 1.5 1.5 2.8 2.3 4.2-1.2 1.4-2.4 2.7-3.6 4zm4.3 6.3c-.2-.2-.3-.5-.5-.7-.1-.5-.3-.9-.8-1.1.5-.4.9-.9 1.3-1.6.5.7 1.1 1.4 1.7 2.1-.5.5-1.1.9-1.7 1.3zm2.2-6c-.5-1.4-.7-3-1.2-4.4v-.1l3-2.4c.2.6.5 1.2 1 1.9l.2.2c-.7 1.7-2 3.2-3 4.8zm1.7 6.1c-.3-.4-.6-.9-.8-1.4v-.1c.7-.5 1.4-1 2.2-1.5.2.4.3.7.5 1.1-.7.6-1.4 1.2-1.9 1.9zm4.2-6.6c-.6-1.4-1.2-2.8-1.7-4.2 0-.1.1-.2.1-.3.9-.5 1.7-.9 2.7-1.1.3.9.8 1.7 1.3 2.4-1 .8-1.7 2-2.4 3.2zM716.6 188.3c.4-1.6-1.9-3-3.3-2.1-1.1.8-.8 2.3 0 3.2 1 1.2 2.9.7 3.3-.7.1-.2.1-.3 0-.4zM721.4 187c-.3-.2-.7-.3-1.1-.3-.3-.2-.7-.2-1-.1-1 .3-1.1 1.4-1.1 2.3v.1c.1.7.7 1.3 1.4 1.6 2 .6 3.6-2.4 1.8-3.6zM652.8 276c-.3.3-.5.2-.7-.3 0-.2-.1-.4-.1-.5.4-1.4.2-3.2-.1-4.4.2 0 .4-.2.5-.4.7-.8.8-1.8 1-2.8.4-1.7.8-3.3.9-5.1 0-.3-.3-.6-.6-.6-1.2.2-2.3-.1-3.5-.3-.8-.2-1.8-.6-2.6-.4-.1 0-.2-.1-.4 0-2.7.4 1.6 7.3 2.3 8.2.3.4.8 1 1.4 1.3v.5c-.3.7-.3 1.5-.3 2.3v1.6c-.1.4-.3.8-.9.9-.6.2-.8-.3-1.2-.6-.3-.3-.9-.2-1 .3-.4 1.9 2.4 2 3.5 1.2l.1-.1c.8 1.3 2.8 1.1 2.9-.6.1-1-1.2-1-1.2-.2zM673 234.5c-.1-.6-1-.8-1.3-.4-1.7 2.2-3.7 4.2-5.8 6-.6.6.2 1.5.9 1.1l.1-.1h.1c1.7-1.4 3.3-2.9 4.8-4.5.3 4-.6 8.1-.3 12.1.1 1 1.6 1 1.5 0-.6-4.6.8-9.5 0-14.2zM643.7 237.7c-.9-.9-1.4-2.2-1.9-3.4-.7-1.6-1.8-3.1-2.9-4.4-.4-.5-1.2-.2-1.4.4-1.3 4.7-1.4 8.9-1.2 13.7 0 1.1 1.7 1.1 1.7 0-.2-4.1-.1-7.8.7-11.7.9 1.2 1.7 2.5 2.4 3.9.5 1 1.1 2 2.1 2.4.5.1.8-.6.5-.9zM647.1 252.4l-.1-.1c-.2-.2-.6-.2-.9 0-.3 0-.6.3-.6.6s.1.6.3.8l.3.3c.3.3.9.3 1.1-.1.3-.6.4-1-.1-1.5zM657.5 253.4c-.1-.6-.7-1.1-1.2-1.1h-.3-.1c-.3 0-.7.2-.8.5-.3.6-.4 1.1.1 1.6.3.4 1 .5 1.4.4.2 0 .4-.1.5-.3.3-.2.5-.7.4-1.1zM640.6 262.8c-3.7-1.8-7.5-3.2-11.2-5.1-2.5-1.3-5.3-4-8.3-4-.8 0-1 1.2-.2 1.4 3.5.8 6.9 3.5 10.1 5 3 1.4 6.1 2.4 9.2 3.6.5.2.8-.7.4-.9zM639.7 265.8c-2.6-.8-5.4-.7-8-1.2-2.7-.5-5.5-1.2-8.2-.7-.6.1-.6 1.1 0 1.2 2.5.5 5.2.6 7.8 1 2.7.4 5.5.1 8.1.8.8.3 1.1-.9.3-1.1zM640.6 269.1c-2.1.6-4.1 1-6 2-2 1-3.8 2.3-5.7 3.3-.5.3-.2 1.2.4 1 1.7-.5 3.2-1.5 4.7-2.4 2.2-1.4 4.5-2.1 6.9-3 .6-.2.3-1.1-.3-.9zM683.1 261.2c-3.2-.8-6.5-.6-9.7-.2-3.4.4-7.2 2.1-10.6 1.7-.7-.1-.8 1-.2 1.2 2.2.5 4.8-.3 7-.7 4.5-.9 8.7-.9 13.3-.4.9 0 1-1.4.2-1.6zM682.3 272.1c-1.1-2.4-5.1-3.2-7.4-4.2-3.9-1.6-8-2.3-12.1-2.9-.9-.1-1.3 1.2-.4 1.4 2.9.5 5.7 1.1 8.5 1.9 3 .9 7.6 2.7 9.9 5 .8.8 1.9-.2 1.5-1.2zM671.7 279.5c-1.3-2.2-2.6-4.4-4.2-6.5-1.6-2.1-3.5-3.9-5.2-5.9-.4-.5-1.1.2-.7.7 1.6 1.9 3.4 3.7 4.8 5.8 1.5 2.1 2.8 4.3 4.3 6.4.5.7 1.4.2 1-.5zM696 297c-3.6-3.1-8.1-4.9-12.7-5.5-8.8-4.9-20.3 2.9-26.1 9.4-3.8 4.3-5.6 10-6.1 15.6-.2 2.4.2 4.8.8 7.1.2 4.5 2 11.9 6.2 13.8.4.2.7.1.9-.2 4.7 3.8 9.6 7.7 15.6 8.6 6.2 1 12.8-2.4 17.5-6.2 3-1.3 7.4-6.1 8.1-7 8.5-11 5.9-26.8-4.2-35.6zm-33.8 14.7c3.8 3.7 10.1 3.7 15 4.6 4.5.8 9.2 1.5 13.3-.8 0 1.4-.1 2.7-.2 4.1-9.7 5.7-25.9 2.1-33-6 1.7-.9 3.1-1.9 4.9-1.9zm9.8 32c-4.6-1.1-8.8-4.4-12.6-7.2.1-.2.1-.3-.1-.5-.3-.4-.5-.7-.8-1.1-.5-1.5-1.2-2.9-2-4.3-1.8-5.2-1.8-11.4.4-16.3 6.8 8.8 23.8 11.9 33.6 6.6.1 0 .2.1.2.1-.8 3.9-1.2 7.8-1.5 11.8-.1 2-.9 4.8.3 6.7-5.1 3.3-11 5.8-17.5 4.2z"/><path d="M667.9 326.4c-.8-1-2.1-1.3-3.2-.7-1 .6-1.4 1.9-1.1 3 .1.6.4 1.1.8 1.4l.3.3c.3.2.6.3 1 .2 1 .1 1.8-.5 2.4-1.2.7-.9.5-2.2-.2-3zM677.9 328.7c-.1-.3-.2-.6-.4-.8-.5-1.1-1.7-1.9-2.9-1.6-1.6.4-2.4 3.1-1.2 4.3.7.7 1.9.8 2.9.4.3-.1.5-.2.7-.3l.3-.3c.4-.4.7-1 .6-1.7zM680 333.4c-3.9 3.2-9.2 4.2-13.9 2.3-.3-.1-.5.4-.2.6 4.9 2.6 10.6 1.5 15.2-1.5.9-.8-.1-2.2-1.1-1.4zM675.1 320.3c-2.2-1-4.4-2-6.6-2.9-1.3-.5-5.5-1.5-5.7-2.9 0-.2-.2-.3-.4-.2-.5 0-.5-.3-.1-.7.1-.2-.2-.4-.4-.4-.6.1-1 .3-1.5.5-.2.1-.2.4 0 .5 0 .2.1.3.1.5 0 .3.3.4.4.1.2-.9.8-1.5.3-.1-.1.3.2.5.4.4 1.1-.2.4.2.8.6.6.6 2.3.9 3 1.2 3.2 1.2 6.2 2.8 9.3 4.2.4.1.8-.6.4-.8zM730.8 329.7c-.5.7-1.1 1.3-1.7 1.8-.4-.8-1.2-1.3-2.3-1.1-2.3.5-1.7 4 .6 3.7.4 0 .8-.2 1.2-.4 0 .7-.1 1.4-.3 1.9-.5 1.8-3.3 1.8-4.7 1.9-.3 0-.4.5-.1.5 2.5.5 5.5-.1 6.1-2.9.1-.6.1-1.3 0-2.1 1-.8 1.9-2 2.2-3 .2-.5-.7-.8-1-.3zm-2.9 2.3c.1.1.2.2.3.4-.2.1-.4.2-.5.4-1.5.7-.8-1.7.2-.8zM722.8 353.2c0-.1-.1-.2-.1-.4-.4-1-1.4-1.7-2.5-1.5-1.8.3-2 2.5-1 3.6.6.8 1.7 1 2.6.5.2-.1.3-.2.5-.3.6-.4.7-1.2.5-1.9zM731.1 352.8c-.8-1-2.1-2.2-3.4-1.5-.3.2-.5.4-.7.8-.1.1-.1.2-.2.3-.5.9-.3 2.1.2 2.9.5.9 1.7 1.3 2.6 1.5.7.1 1.5.1 2-.5 1-1 .2-2.6-.5-3.5zM728.6 361.6c-.5-.5-1.3.3-.8.8.6.6.8 1-.1 1.4-1.1.4-2.4.3-3.5.2-.9-.1-2-.2-2.8-.7-.1-.1-.1.1 0-.2.3-.5 1.1-.7 1.5-1.1.3-.3.1-.9-.3-.8-1.1.2-3.3 1.3-2.5 2.7.6 1.2 2.6 1.3 3.8 1.4 1.5.1 3.2 0 4.6-.7 1.5-.7 1-2.1.1-3zM728.8 373.4c-.1-.2-.1-.3-.2-.5l-.3-.9c-.9-1.8-3.2-2.9-5.1-2-1.1.5-2.1 1.4-2.5 2.5-.2.3-.3.6-.4.9-.1.2 0 .4.1.5 0 .2 0 .5.1.7.2.8.6 1.4 1.2 2 0 .4 0 .8.1 1.2-.1 1.4.3 2.9 1.3 4 .2.4.5.7.9 1.1 1.7 1.6 4.5 1.6 6-.2 2.1-2.4 1.4-7.2-1.2-9.3zm-1.2 1.8c-.4.7-1.3 1.1-2 1.3-.3.1-.6.1-.9.1-.1 0-.2-.1-.3-.1-.1 0-.2-.1-.4-.2.2-.2.4-.4.6-.5h.3c1 0 1.7-.6 2-1.4.1.2.2.4.4.4.1.2.2.3.3.4zm-3.5-1.5c.1.1.2.1.3.1.4 0 .9.1 1.3.1-.1.3-.3.5-.5.6-.1-.2-.3-.3-.6-.4h-.4c-.1-.1-.1-.2-.1-.4zm-1.3.9c0-.1 0-.1-.1-.2-.2-.7-.3-3.1 1-2.5.3.1.6-.2.3-.5l-.1-.1c.9-.2 1.8-.1 2.7.7.2.1.3.3.4.5-.1 0-.1 0-.2-.1h-.4c-.8-.2-1.6-.4-2.4 0-.2.1-.3.2-.3.3-.2 0-.3.1-.4.3-.1.4-.2.8-.1 1.2-.1.2-.2.3-.4.4zm5.2 6c-2.1 1.3-4-.5-4.6-2.3 0-.2.1-.4.1-.6 1.6.6 3.4.6 4.5-.3.2-.2.4-.3.5-.5.3.7.5 1.3.5 2-.1.6-.4 1.3-1 1.7zM196.3 173.9c-9.3.6-18.5 0-27.8-.6-.3-.2-.7-.3-.9-.1-.8-.1-1.5-.1-2.3-.2-4.1-.3-8.3-.4-12.4-.3-.1-.4-.7-.4-.8 0h-2.4c-1.4 0-5.5-.5-6.4.9-.2.4.2.7.6.6.2-.1.5-.2.7-.2.2 0 .2-.3.1-.4.4.2.8.3 1.1.5 1.3-.1 2.6-.2 3.9-.2.8 0 1.5 0 2.3-.1-.2 2.6-.4 5.2-.4 7.9 0 .4.4.7.7.6 5.1-1.6 10.2-1.3 15.4-1.2.4 0 .7-.3.7-.7 0-2-.1-3.9.2-5.9h.5c2.2.2 4.4.4 6.7.5-.8 1.7-1.3 3.4-1.6 5.2-.1.3.1.6.4.7 5 1.8 10.2 2.8 15.4 3.3.3 0 .6-.2.7-.5 1-2.7 1.9-5.4 2.6-8.1 1 0 2.1-.1 3.1-.1.9 0 .9-1.6-.1-1.6zM175.5 185.9c-2.4-.5-4.9-.2-7.3-.3.5-.8 1.1-1.7 1.4-1.7.4.1.5-.4.2-.5-1.3-1-2.8 1.7-3.3 2.5-.3.5.1.9.6 1 2.7.3 5.6.3 8.3.3.6-.1.8-1.2.1-1.3zM181.7 195.6c-7.5-.3-15.1-.6-22.5-1.3-.6-.1-.5.8 0 .9 7.4 1 15 .4 22.4 1.8.9.2 1.1-1.3.1-1.4zM55.5 478.2c-1.1-.5-2.4-.3-3.2.6-.7.8-1.3 2.2-1.2 3.3 0 .7.3 1.1.6 1.4.3.5.7.8 1.2 1 1.2.5 2.7-.1 3.6-.9 1.9-1.4 1.1-4.5-1-5.4zM69.2 479.5c-.5-1-1.8-1.6-2.9-1.8-.4-.1-.8-.1-1.2 0h-.7c-.7.1-1.4.7-1.7 1.3-.3.8-.2 1.7.3 2.4.3.7 1 1.3 1.7 1.7h.1c2.4 1.4 5.8-.9 4.4-3.6zM70.4 489c-6.9.8-14.7 1.2-21.5-.5-.4-.1-.6.6-.2.7 7.2 1.9 14.4.6 21.7 1.4 1 0 1-1.7 0-1.6zM129.1 478.2c-1.1-.5-2.4-.3-3.2.6-.7.8-1.3 2.2-1.2 3.3 0 .7.3 1.1.6 1.4.3.5.7.8 1.2 1 1.2.5 2.7-.1 3.6-.9 1.9-1.4 1.1-4.5-1-5.4zM142.8 479.5c-.5-1-1.8-1.6-2.9-1.8-.4-.1-.8-.1-1.2 0h-.7c-.7.1-1.4.7-1.7 1.3-.3.8-.2 1.7.3 2.4.3.7 1 1.3 1.7 1.7h.1c2.4 1.4 5.8-.9 4.4-3.6zM144 489c-6.9.8-14.7 1.2-21.5-.5-.4-.1-.6.6-.2.7 7.2 1.9 14.4.6 21.7 1.4 1 0 1-1.7 0-1.6zM202.7 478.2c-1.1-.5-2.4-.3-3.2.6-.7.8-1.3 2.2-1.2 3.3 0 .7.3 1.1.6 1.4.3.5.7.8 1.2 1 1.2.5 2.7-.1 3.6-.9 1.9-1.4 1.1-4.5-1-5.4zM216.4 479.5c-.5-1-1.8-1.6-2.9-1.8-.4-.1-.8-.1-1.2 0h-.7c-.7.1-1.4.7-1.7 1.3-.3.8-.2 1.7.3 2.4.3.7 1 1.3 1.7 1.7h.1c2.4 1.4 5.8-.9 4.4-3.6zM217.6 489c-6.9.8-14.7 1.2-21.5-.5-.4-.1-.6.6-.2.7 7.2 1.9 14.4.6 21.7 1.4 1 0 1-1.7 0-1.6zM274.1 478.2c-1.1-.5-2.4-.3-3.2.6-.7.8-1.3 2.2-1.2 3.3 0 .7.3 1.1.6 1.4.3.5.7.8 1.2 1 1.2.5 2.7-.1 3.6-.9 1.9-1.4 1-4.5-1-5.4zM287.8 479.5c-.5-1-1.8-1.6-2.9-1.8-.4-.1-.8-.1-1.2 0h-.7c-.7.1-1.4.7-1.7 1.3-.3.8-.2 1.7.3 2.4.3.7 1 1.3 1.7 1.7h.1c2.3 1.4 5.8-.9 4.4-3.6zM289 489c-6.9.8-14.7 1.2-21.5-.5-.4-.1-.6.6-.2.7 7.2 1.9 14.4.6 21.7 1.4 1 0 1-1.7 0-1.6zM55.9 377.1c-.4-.4-.9-.7-1.4-.9-1.1-.4-2.3.2-2.8 1.2-.4.3-.7.7-.9 1.2-.3.7 0 1.3.4 1.9.1.3.2.5.3.7.8 1.4 2.1 2.2 3.6 1.5 1.1-.5 1.7-1.9 1.7-3.1.2-1.1-.2-2-.9-2.5zM66.6 378.3c-.8-2-3.3-2.6-5-1.6-.9 0-1.7.5-2.2 1.6-.7 1.7-.1 4.2 1.5 5.2.6.4 1.2.3 1.7.1.3 0 .5-.1.8-.1.6-.1 1.1-.2 1.6-.5 1.5-1 2.2-3.1 1.6-4.7zM73.1 390.2c-3.1-.7-7-.1-10.2-.3-4.2-.2-8.7-.3-12.8-.8-.3 0-.5.3-.2.5 2.6 1.9 8 1.4 11.1 1.7 4 .4 8 .6 11.9 1 1.1.1 1.3-1.8.2-2.1zM129.8 375.3c.1-.5 0-1-.1-1.4-.7-2.7-4.7-2.6-5.8-.4l-.1.1c-.4.3-.6.7-.7 1.1-.4.3-.6.8-.6 1.4.1 1.6 2.3 2.6 3.7 2.8h.6c.1 0 .2 0 .4.1 1.4.1 2.7-1.2 2.9-2.6-.1-.4-.2-.8-.3-1.1zM141.7 376.2c-1.3-1.2-3.2-1-4.4.2-.2.2-.4.4-.5.6-.2.2-.3.4-.5.6-.8 1.3-.5 3.3.5 4.3 1.9 1.9 5.4.6 6.3-1.6.6-1.4-.4-3.1-1.4-4.1zM140.2 393.4c-7.5-4.2-15-8.4-22.8-12.3-.4-.2-.7.3-.3.6 7.2 4.5 15.4 7.8 22.1 13 1 .8 2-.7 1-1.3zM203 375.3c-.7-1.3-2.3-1.7-3.7-1.4h-.2c-.3 0-.7.1-.9.3-.6-.1-1.2.1-1.7.5-1.4 1.2.1 3.8 1.1 4.8.8.8 1.8.9 2.6.6.9.2 1.9.1 2.6-.6 1.1-1 .8-3 .2-4.2zM215.9 376.8c-.4-2.3-2.9-3.3-5-3.2-.3-.1-.6 0-.9.2-.6.2-1.2.5-1.6.9-.2.1-.4.2-.6.4-1.4 1.3-.4 4.2.9 5.2 2.6 2 8 .4 7.2-3.5zM219.5 393.4c-1.5-2.7-6.7-2.9-9.3-3.3-5.5-.7-11.9-.5-16.9-3.1-.6-.3-1.1.6-.5.9 3.1 1.9 6.9 2.2 10.4 2.6 3.9.5 12.4 0 14.9 3.7.6.8 1.9.1 1.4-.8zM275.3 383.8c0-.7-.2-1.4-.6-2v-.4c-.3-2.1-2.1-3.2-3.9-2.5-.3-.1-.6-.1-.9-.2-3.1-.3-5 3.6-4.4 6.2.5 1.8 2.2 2.9 4 3.1.6.4 1.3.6 2 .7 2.6.3 3.7-1.9 3.6-4.2.1-.2.2-.4.2-.7zM286.2 383.1c0-.3-.1-.7-.3-1-.1-.9-.5-1.6-1.2-2-.3-.3-.6-.5-1-.8-.2-.1-.5-.2-.7-.1-.8-.2-1.7-.1-2.2.7-.1.1-.2.3-.2.5-.6.2-.8.8-.8 1.5 0 .3.2.6.3.9-.3 2.2 1.9 4.5 4.2 3.7 1.5-.5 2.1-2 1.9-3.4zM85.5 270c-1.1-1.3-2.8-1.6-4.2-.4-1.6 1.3-2.1 3.7-1 5.5l.1.1c.7 1.2 2.2 1.8 3.4 1.9 3.8.1 3.4-5.1 1.7-7.1zM91.2 269.1c-.5.3-.8.8-.9 1.4h-.1c-1.2 1-.9 2.8 0 3.9 1.9 2.3 6.5 2.5 6.4-1.2-.1-2.4-2.8-5.9-5.4-4.1zM104.9 278.9c-.1-.9-1.4-.9-1.4 0 0 5.4-8.9 4.1-12.7 4.1-4.2 0-8.4.2-12.4 1.6-.5.2-.3.9.2.8 6.6-2.2 13.6-1.2 20.3-1.6 3.9-.4 6.4-.4 6-4.9zM166.1 267.8c-.7-.8-1.9-1.3-2.9-1.6-.3-.1-.6 0-.8.2-1 1.1-2.5 3.1-1.4 4.6l.3.3c0 .1.1.2.1.3 0 .1.1.1.1.2.2.5.5.9.8 1.1 0 .1.1.2.1.2 1.7 2.6 5.5-.2 5.6-2.6 0-1-.8-2-1.9-2.7zM177.5 269.6c-.7-1.7-2.1-3.3-3.9-3.4-2.4-.2-3.8 2-3.4 4.1.1.7.5 1.4.9 2 .2.4.5.9.8 1.2.8 1.1 2.2 1.8 3.6 1.5.5-.1 1-.4 1.4-.8.7-.2 1.3-.4 1.8-.9.9-1.1.2-2.6-1.2-3.7zM180.8 280.2c-8.8.7-17.9-.8-26.7-1.8-.5 0-.6.7-.1.8 8.9 1.5 17.8 1.8 26.8 2.7 1 .1 1-1.7 0-1.7zM243.9 262.1c-2.6-.5-5.5.7-6.6 3.1-.2.4-.3.9-.4 1.4-.4 1-.6 2.2-.5 3.3.5 3.2 3.4 5.3 6.5 4.7 3.1-.5 5.4-2.9 5.8-6 .4-3-1.9-5.9-4.8-6.5zM256.3 264c-.1-.1-.3-.1-.4-.1-.3-.1-.8 0-1 .3-.2.2-.4.4-.5.7-.7.5-1.3 1.2-1.6 2.1-.2.8-.1 1.6.2 2.3.1.5.3.9.9 1.2.1.2.3.3.4.4.3.4.7.7 1.2 1 1 .7 2.5 1 3.7.6 1.5-.5 2.1-2 2.2-3.4.3-3.2-2.1-5.6-5.1-5.1zM257.3 278.8c-3.6.4-7.5-.1-11.1-.3-2.9-.2-8.7.1-10.9-2.2-.3-.3-.8 0-.7.4 1 2.4 5 2.6 7.2 2.9 4.9.7 10.3.1 15.1 1.2 1.7.4 1.7-2.2.4-2z"/></g></svg>