<?xml version="1.0" encoding="utf-8"?>
<!-- Generator: Adobe Illustrator 18.0.0, SVG Export Plug-In . SVG Version: 6.00 Build 0)  -->
<!DOCTYPE svg PUBLIC "-//W3C//DTD SVG 1.1//EN" "http://www.w3.org/Graphics/SVG/1.1/DTD/svg11.dtd">
<svg version="1.1" xmlns="http://www.w3.org/2000/svg" xmlns:xlink="http://www.w3.org/1999/xlink" x="0px" y="0px" width="792px"
	 height="612px" viewBox="0 0 792 612" enable-background="new 0 0 792 612" xml:space="preserve">
<g id="Layer_2" display="none">
	<circle display="inline" fill="#FAA41A" cx="396" cy="306" r="80"/>
</g>
<g id="Layer_1">
	<g>
		<path fill="#395B88" d="M367.1,356.9c-0.9-0.4-1.8-0.2-2.6,0.3c-0.3,0.2-0.4,0.4-0.4,0.8c0,0.4,0.1,0.7,0.3,1
			c0.2,0.3,0.5,0.4,0.7,0.7c0,0,1.2,0.5,2.9-0.1c0.4-0.1,0.6-0.5,0.5-0.9C368.2,357.9,367.8,357.2,367.1,356.9z"/>
		<path fill="#395B88" d="M477.2,301.6c0-0.2-0.1-0.4-0.2-0.5c-0.2-3.5-1-6.8-1.9-10.4c-1.5-6-2.4-11.9-5-17.5
			c-2.7-6-6.8-11.4-10.7-16.6c-1.4-1.9-2.4-4.2-4.1-5.9l-6.1-6.1c-0.2-0.2-0.5-0.5-0.7-0.7l-0.2-0.2l0,0c-1.6-1.6-3.3-3-4.7-4.1
			c-5.7-4.8-13.1-6.7-19.7-9.6c-6.8-2.9-13-5.3-20.5-5c-6.6,0.2-13.3-0.2-19.8,0.6c-1.4,0.2-2.8,0.4-4,0.6
			c-5.8,0.8-11.3,2.7-16.6,5.1c-11.2,4.9-20.8,13.1-28.9,22.1c-4.4,4.9-11.1,11.7-13.5,18.7l0,0l-3,7.2l0,0c-1,2-1.8,4.1-2.5,6.4
			c-2.4,8.3-2.6,17.3-2.1,25.9c0.3,5.2,1.4,10.4,2.7,15.5c1.1,4.1,3.3,7.7,4.6,11.6c0.2,0.7,0.4,1.4,0.7,2.2c0,0.1,0.1,0.2,0.2,0.3
			l2.6,4.2l0,0c5.6,10,13.9,19.6,23.1,26.5c1.4,1.3,3,2.2,4.7,3.2l0,0c0.5,0.3,1,0.6,1.5,0.9c0.1,0.1,0.2,0.1,0.3,0.1l7.1,4.1
			c6.3,3.9,12.5,6.1,14.1,1.4c3.8-3.2,1.1-11.9,1-15.9c0-0.2-0.1-0.4-0.2-0.5c0.3-0.8-0.5-1.8-1.3-1.2c-6.1,4.7-18.6,0.7-23.3-3.9
			c-3.4-3.4-4.9-9.1-7.7-13c-1.7-2.4-7-4.5-7.4-7.8c0,0,0.1-0.5,0.6-0.9c3.5-2.3,8.7,0.4,12.3,3.5c0,0,0.8,0.9,3.2,4.3l0,0
			c3.1,4,5.6,7.7,11,9.5c4.1,1.3,9.1,0.8,12.1-2.3c0,0,0.9-1.4,1.3-2.6c0.2-0.5,0.3-1.2,0.4-1.9c0,0,0,0,0,0c0.5-1.5,1-2.9,1.8-4.2
			c0.2-0.3,0.4-0.5,0.6-0.8c0,0,1.1-1.6-1-1.8c0,0,0,0-0.1,0c-6.8-0.2-12.8-2.8-18.7-6.2c-1.1-0.6-2.2-1.5-2.9-2.3
			c-4.6-4.7-9.1-9.3-10.9-16c0,0,0,0,0-0.1c-0.1-0.6-0.3-1.1-0.4-1.7c-1.9-12.2-0.7-18.4-0.7-18.4l0,0c0.1-0.4,0.2-0.8,0.2-1.2
			c0.8-5,2.9-9.4,5.4-13.6c0.4-0.4,0.8-0.8,1.2-1.2c0,0,0,0,0.1-0.1c0,0,1.3-0.8,0.6-2.2c0,0,0-0.1,0-0.1c-3-6.1-2.6-14.3,1-20
			c0.1-0.1,0.1-0.3,0.1-0.5c5.2,0.6,9.9,2.2,14.7,4.4c2.6,1.2,5.3,3.7,8.2,3.9c3.6,0.3,7-1.2,10.6-1.6c0.7-0.1,6.1-0.4,15.9,0.8
			c0.9,0.2,1.8,0.3,2.7,0.3c3,0.4,6.3,0.9,9.9,1.6l0,0c0.4,0.2,0.8,0.3,1.2,0.4c0.4,0.1,0.8-0.1,1-0.4c0.6-0.9,1.6-1.4,2.5-2
			c1.5-0.8,3-1.8,4.4-2.7c3.1-1.9,6.7-2.6,10.2-3.5c4.9-1.3,5.7,3.8,6.5,7.4c1,4.6-0.6,8.2-1.2,12.7c0,0.2,0,0.4,0.1,0.5l0,0
			l1.2,2.5c0.1,0.3,0.2,0.5,0.4,0.8l0,0v0c1.2,2.2,3.1,4.5,4,5.9c2.4,4.2,2.5,11.1,2.6,15.7c0.1,5.4-1.3,10.6-3.4,15.5
			c-0.8,1.9-1.8,3.8-2.9,5.6c-2.3,3.6-4.8,5.8-5.9,6.8c-0.2,0.1-0.4,0.3-0.6,0.4c0,0,0,0,0,0l0,0c-1.8,1.4-3.5,3-5.9,3.6
			c-5.4,1.4-10.9,4.2-16.5,4.4c-0.2,0-0.3,0.1-0.5,0.2c-0.2,0-0.4,0-0.7,0c-1.7,0.2,0,1.8,0,1.8c0.4,0.9,0.9,1.7,1.4,2.5
			c0.1,0.3,0.3,0.6,0.5,0.9c0,0,0,0,0,0.1c0.2,0.5,0.5,1,0.7,1.5c0.5,1.2,0.7,2.6,0.9,3.9c-0.2,1.4,0,3,0.2,4.6l0,0l0,0
			c0.1,1.1,0.3,2.1,0.3,3c0.2,4.4-0.5,8.7-0.7,13.1c-0.4,6.7,2.4,11.9,9.6,9.7c3.9-1.1,7.6-3.7,11.3-5.4c4.1-1.9,7.8-4.4,11-7.6
			c8.4-4.8,14.9-16.4,19.3-23.4C474.4,333.1,478.1,317.3,477.2,301.6z"/>
		<path fill="#395B88" d="M343.5,340.3c-0.3-0.1-0.6,0.1-0.7,0.3l0,0c0,0-0.6,0.7,0,1.6c0,0.1,0.1,0.2,0.2,0.3c0,0,0.9,0.4,1.6,0.2
			c0.1,0,0.3-0.1,0.4-0.2c0,0,0,0,0,0c0,0,0,0,0,0c0,0,0.1-0.1,0.1-0.1c0.1-0.1,0.1-0.1,0.1-0.2c0,0,0,0,0,0c0,0,0-0.1,0-0.1
			c0.1-0.2,0-0.4-0.2-0.6C344.6,341,344.2,340.6,343.5,340.3z"/>
		<path fill="#395B88" d="M345.7,343.9L345.7,343.9c0,0-0.1,0.7,0.5,1.6l0,0c0.2,0.4,0.7,0.6,1,0.8c0.6,0.2,1.4-0.2,1.1-0.9
			c-0.2-0.8-0.7-1.5-1.2-2.1C346.6,342.8,345.7,343.2,345.7,343.9z"/>
		<path fill="#395B88" d="M350.6,347.9L350.6,347.9c-0.1-0.1-0.1-0.2-0.2-0.2c-0.5-0.5-1.6,0-1.3,0.8c0.1,0.4,0.4,0.8,0.6,1.1
			c0.2,0.3,0.3,0.7,0.5,1c0.2,0.4,0.7,0.4,1.1,0.3c0.4,0,0.8-0.4,0.7-0.9C351.6,348.8,350.6,347.9,350.6,347.9z"/>
		<path fill="#395B88" d="M354,352.2c-0.7-0.5-1.5,0.4-1.1,1.1c0.1,0.2,0.2,0.3,0.3,0.4c0,0,0.4,0.4,0.3,0.4l0.4,0.4
			c0.1,0.1,0.2,0.2,0.3,0.3l0.1,0.1l0,0c0.1,0.1,0.3,0.2,0.4,0.3c0.6,0.3,1.2-0.2,1.1-0.8C355.6,353.3,354.9,352.7,354,352.2z"/>
		<path fill="#395B88" d="M359.5,355.9l-0.6,0c-0.1,0-0.2,0-0.4,0c-0.7,0-1.2,0.9-0.6,1.5c0.4,0.4,0.8,0.6,1.3,0.8
			c0.4,0.2,1,0.3,1.4,0.2c0.2-0.1,0.3-0.2,0.4-0.3c0.3-0.2,0.4-0.8,0.1-1.1c-0.4-0.3-0.7-0.8-1.2-0.9
			C359.8,355.9,359.6,355.9,359.5,355.9z"/>
		<path fill="#395B88" d="M372.6,358.4C372.6,358.4,372.6,358.4,372.6,358.4c0.3,0,1.1-0.2,1.5-0.4c0.1,0,0.1-0.1,0.2-0.1
			c0,0,0,0,0,0c0,0,0,0,0,0c0.3-0.2,0.5-0.6,0.3-1c-0.3-0.5-0.8-1.2-1.5-1.2c-0.7,0.1-1.1,0.7-1.3,1.3
			C371.5,357.7,371.9,358.5,372.6,358.4L372.6,358.4C372.5,358.4,372.5,358.4,372.6,358.4z"/>
	</g>
</g>
</svg>
