<svg xmlns="http://www.w3.org/2000/svg" width="792" height="612" viewBox="0 0 792 612"><g id="Layer_1"><path fill="#4E2F1B" d="M436.8 231.9c-2.5-4.7-9.8-9-14.8-10.3-.3-.1-.6-.1-.8-.2-2.8-3.1-6.3-4.5-10.9-4.1-1.3.1-2.4.5-3.5 1-3.7-4.5-14.7.3-13.8 6.1-.2-.1-.3-.1-.5-.2-.6-6-8.9-7.1-14.1-6.9-10 .4-18.5 7.5-23.3 15.7-.7 1.2.9 2.6 1.9 1.6.3.1.5 0 .8-.2 3.1-2.8 6.1-4.2 9.3-4.9-2.5 3.1-4 7.2-4.5 11.2 0 .1-.1.3-.1.4-.1.3-.1.6 0 .9 0 .6-.1 1.2-.1 1.8 0 .5-.1.9-.1 1.4-.3 1.3 1.7 1.8 2 .5.1-.3.1-.5.2-.7.1-.2.2-.4.2-.6v-.5c.2-.3.3-.5.5-.7.2-.1.4-.3.6-.5 0-.1.1-.1.1-.2.1 0 .1-.1.2-.1.1-.1.2-.2.2-.3.2-.3.4-.7.7-1 1.8-2.4 4.3-4.4 7.2-5.2-1.4 2.9-1.9 6.2-1 9.3.1.5.5.7.9.7h.1c.1 0 .1 0 .2-.1.3-.1.6-.3.7-.7.4-1.1.7-2.1 1-3.2.9-1.6 2.1-3 3.4-4.2l.3-.3c6.7-5.7 17.5-6.5 24.4-.3.7.6 1.6.4 2-.2.5.2 1.1.2 1.6-.4.3 0 .6-.2.9-.5 2.9-3.3 8-5.1 13.1-5.3 2.3 1.7 4.4 3.7 6.2 5.9.7.8 2.1-.1 1.7-1-.4-1.2-.7-2.5-1-3.7 0 0 0-.1.1-.1v-.2c1.8.6 3.4 1.4 4.7 2.6 1.8 1.9 4.4-.2 3.3-2.3zM339.5 290.4c-3.3.9-5.3 4.6-5.7 7.8-.3 3.1 1.1 6.7 3.5 8.7 2.9 2.5 5.6-.1 5.7-3.3.1-1.6-2.3-1.8-2.7-.4-.1.4-.2.9-.4 1.3-.1.3-.2.3-.2.4-.6-.2-1-1-1.3-1.4-1-1.5-1.7-3.5-1.4-5.3.3-1.7 1.3-3.6 2.8-4.6 2.1-1.5 3.4.4 4 2.3.3.9 1.5.5 1.3-.4-.3-3-2.1-6.1-5.6-5.1z"/><path fill="#385C89" d="M416.5 287.5c.9 5.3 4.5 10.2 11.5 10 .1 0 .2 0 .3-.1.9.1 1.8.2 2.7 0 18.2-2.7 7-30.3-5.7-22.6-5.1-1-8.2 3-8.9 7.9-2.8-.7-7.3-1-9.6 1.1-.9-2.2-2.3-4.2-4.1-5.9-2.4-2.3-7.1-4.2-10.9-3.5-1.5-.1-3.1.6-4.3 1.3-.1 0-.1.1-.2.1-8.7.7-10.9 11.6-8.2 18.7 2.9 7.7 12.9 6.7 19.3 4.9 2.8-.5 5.5-2.1 7.3-4.6 2.1-2.9 2.5-6 1.7-9 1.5-1.7 5.4-1.4 7.9-.9m9.8-7.2c.3.1.7.1 1-.1 11.4-6.2 18 16.4 4 17.3-4.5.3-6.9-4.6-7.7-8.3-.7-3.7.2-6.8 2.7-8.9zm-20.9 14.5c-3 5.7-10 6.1-14.5 2.2-4.5-3.9-4.6-9.6-1.9-14.3.4.2.8.2 1.3-.1 1.8-1 2.9-2.3 5.2-2.4 2.2-.1 4.3 1 6.1 2.2 3.9 2.7 6.1 8 3.8 12.4z"/><path fill="#4E2F1B" d="M438.6 322.6c-.6-1.2-2.4-.6-2.4.7-.2 3.9 3.7 5.7 5.7 8.6 2.8 4.1-3.5 6.9-6.3 7.6-3 .7-6.2.7-9.2.9-7.7.5-15.1 2.6-22.9 2.5-5.6-.1-15-1.4-18.8-5.9-.6-.7-1.7.2-1.2.9 3.5 5.3 12.2 6 17.9 6.9 1.7.3 3.4.4 5 .4-1.3 2.7 2.1 6 4.3 7.2 3.3 1.8 6.6.8 8.9-1.6 1.7 2.4 5.2 3 8.2 2.5 4.3-.8 5-6.2 4.8-10.1 5.1-.5 11-1.9 12.5-7.2 1.6-6.1-4-8.7-6.5-13.4zm-9 25.8c-1.1 4.1-7.8 3.7-8.6-.2-.2-1-1.6-1.1-2.1-.3-1.8 3.1-4.7 3.7-7.7 2-2.1-1.2-2.1-2.9-2.8-4.7 7.2-.1 14.4-1.5 21.5-1.9h.1c.2 1.7 0 3.4-.4 5.1z"/><path fill="#4E2F1B" d="M385.7 333.6c-2.1-.5-3.7.3-4.7 2.2-.9 1.6-1.3 4.2-.3 5.9.5.9 2 .5 2-.5 0-2-.1-6 2.9-6.1.7-.1.9-1.3.1-1.5z"/><path fill="#6A9AD1" d="M417.9 384.1c1-3.4 4.2-10.9-1.5-12.3-6.2-1.5-12.9 3-13.9 9.2-1.4-.4-3.5-.7-5-.5l-.1-.1c-.4-.3-.7-.4-1.1-.4-2-3.8-6.5-8.3-10.5-9.4-.1 0-.3-.1-.4 0 0 0-.1 0-.1-.1-.5-.2-1-.4-1.5-.4-.1 0-.2-.1-.3-.1-5.3-.8-5.5 6.1-4.6 10.3 1 4.6.4 8.3 0 12.9-.3 3.4.7 6.3 3.8 8 2.8 1.5 5.5.9 7.9-.8.4.3 1 .4 1.4-.1 1.3-1.3 2.4-2.8 3.4-4.5 2.1 1.8 5.3.7 7.5-1.1 2.4 4.8 9 6.3 14 4.5 7.3-2.5-.3-10.4 1-15.1z"/><path fill="#395B88" d="M420 392.7c-.4-1.3-2.5-.8-2.1.6.5 1.6.1 2.6-.8 3.2-.2.1-.5.3-.8.4-1.7.6-4.2.4-5.8.3-2.7-.2-4.8-2.7-7.4-3.1.2-.2.4-.5.5-.7 1.8-2.8.5-6.8-.3-10-.1-.5-.2-1-.4-1.6-.3-.9-1.8-.8-1.7.2.2 2.1 1.1 4.1 1.5 6.1.3 1.5.3 3-.4 4.4-.2.4-.5.8-.8 1.1h-.4c-1.1.3-2.1.6-3 .5-.8-.2-1.5-.5-1.7-1.4-.1-.4-.1-.9-.1-1.3.1-.9.2-1.8.3-2.6 0-.9-1.3-.9-1.4 0-.1 1.4-.5 2.9-.3 4.2 0 .1-.1.3-.1.4-.2.1-.3.2-.4.4-.2 0-.3.1-.5.3-1.8 2.2-3.8 4.4-6.5 5.5-2.7 1.1-7.2-.5-7.4-3.7-.1-.8-1.2-.8-1.2 0-.2 3.6 2.9 5.4 6.1 5.9 1.9.3 3.6-.3 5.2-1.3.2.1.4.1.7 0 1.3-.6 2.3-1.6 3.2-2.7.4-.5.9-1.1 1.2-1.7 1.5.9 3.1 1.1 4.6.6.8-.2 1.5-.5 2.1-1.1.2-.1.3-.3.5-.4.6 1.4 2.4 2.1 3.7 2.8 1.2.6 2.4 1.1 3.6 1.4.1.4.4.8 1 .8 1.6.2 4.1-.2 6.1-1.1 2.5-1.1 4.3-3 3.2-6.4z"/><path fill="#4E2F1B" d="M415.4 284.8c-2.3 6.1.9 11.3 5.1 16.2 3.2 3.8 6.7 7.2 8 12.1 1.6 5.9-2.8 10.3-7.4 12.9-1.6.3-3.2.3-4.8-.2-1.6-.5-2.9-1.5-4.6-1.8-1-.2-2 1-1.1 1.9 3.1 2.8 8.1 3.3 11.7 1.5l.3-.3c6.9-3 10.3-9.9 7.5-17.3-3-7.9-14.1-13.7-13.7-22.4"/></g></svg>