<?xml version="1.0" encoding="utf-8"?>
<!-- Generator: Adobe Illustrator 18.0.0, SVG Export Plug-In . SVG Version: 6.00 Build 0)  -->
<!DOCTYPE svg PUBLIC "-//W3C//DTD SVG 1.1//EN" "http://www.w3.org/Graphics/SVG/1.1/DTD/svg11.dtd">
<svg version="1.1" xmlns="http://www.w3.org/2000/svg" xmlns:xlink="http://www.w3.org/1999/xlink" x="0px" y="0px" width="792px"
	 height="612px" viewBox="0 0 792 612" enable-background="new 0 0 792 612" xml:space="preserve">
<g id="Layer_2" display="none">
	<circle display="inline" fill="#FAA41A" cx="396" cy="306" r="80"/>
</g>
<g id="Layer_1">
	<rect x="335.1" y="312.2" fill="none" width="443.6" height="284.6"/>
	<text transform="matrix(1 0 0 1 481.6379 329.1785)"><tspan x="0" y="0" fill="#4E2F1B" font-family="'SourceSansPro-Semibold'" font-size="24">We find that </tspan><tspan x="-7.9" y="28.8" fill="#4E2F1B" font-family="'SourceSansPro-Semibold'" font-size="24">enjoyment-based intrinsic </tspan><tspan x="-30" y="57.6" fill="#4E2F1B" font-family="'SourceSansPro-Semibold'" font-size="24">motivation, namely how </tspan><tspan x="-146.5" y="86.4" fill="#4E2F1B" font-family="'SourceSansPro-Semibold'" font-size="24">creative a person feels when working on </tspan><tspan x="-146.5" y="115.2" fill="#4E2F1B" font-family="'SourceSansPro-Semibold'" font-size="24">the project, is the strongest and most </tspan><tspan x="-146.5" y="144" fill="#4E2F1B" font-family="'SourceSansPro-Semibold'" font-size="24">pervasive driver. We also find that user </tspan><tspan x="-146.5" y="172.8" fill="#4E2F1B" font-family="'SourceSansPro-Semibold'" font-size="24">need, intellectual stimulation derived from </tspan><tspan x="-146.5" y="201.6" fill="#4E2F1B" font-family="'SourceSansPro-Semibold'" font-size="24">writing code, and improving programming </tspan><tspan x="-146.5" y="230.4" fill="#4E2F1B" font-family="'SourceSansPro-Semibold'" font-size="24">skills are top motivators for project </tspan><tspan x="-146.5" y="259.2" fill="#4E2F1B" font-family="'SourceSansPro-Semibold'" font-size="24">participation.</tspan></text>
	<circle fill="none" cx="396" cy="306" r="80"/>
	<circle fill="none" cx="396" cy="306" r="80"/>
	<path fill="#4E301B" d="M351,260c3.5-2.8,7.2-3.9,11.6-3.1c2.9,0.5,5.6,1.3,8.6,1.5c3.9,0.3,7.9-0.6,11.6-1.3
		c5.6-1.1,11-1.6,16.7-0.4c6.4,1.3,11.9,6.1,18.7,5.4c1.5-0.2,1.9,2.1,0.4,2.4c-4.7,0.8-8.6-1.1-13-2.8c-5.8-2.3-11-3.4-17.3-2.8
		c-5.3,0.4-10.4,2.4-15.8,2.3c-7.3,0-13.3-3.5-20.1,0.8C351.2,262.9,349.7,261.1,351,260z"/>
	<path fill="#4E301B" d="M353.5,267.3c3.8-2.1,8.8-1.2,13-0.8c7.3,0.7,14.8-0.6,22.2-0.7c7-0.1,12.8,2.1,19.2,4.7
		c3.6,1.4,7.3,3,11,3.9c2.7,0.6,5.1-0.1,7.5,1.6c0.8,0.6,0.1,1.8-0.8,1.5c-2.7-1-5.6-0.4-8.3-1c-2.5-0.6-4.9-1.7-7.4-2.5
		c-7.1-2.4-13.3-5.5-21-5.4c-6.3,0.1-12.6,1.1-18.9,1.1c-4.6-0.1-11.1-2.2-15.2,0.2C353.1,270.7,352,268.1,353.5,267.3z"/>
	<path fill="#4E301B" d="M395.3,276.7c7.9,2.1,15.4,4.4,22.6,8.4c1.4,0.8,0,2.3-0.9,1.8c-5.8-2.2-11.4-4.9-17.5-6.2
		c-3.2-0.7-7.6-3.4-10.3-0.3c-0.7,0.8-2.3,0.4-2-0.8C388,275.8,392.1,275.9,395.3,276.7z"/>
	<path fill="#4E301B" d="M383.5,285.4c0.6-0.7,1.3-1,2.1-1.3c0.4-0.1,0.9-0.5,1.4-0.7c0.2-0.2,0.4-0.3,0.7-0.3
		c0.3,0,0.5,0.1,0.8,0.3c0.6,0.4,0.6,1.2,0.2,1.7c-0.6,0.9-2,1.2-3,1.7c-0.7,0.3-1.3,1.7-1.7,2.3c-0.4,0.8-0.4,1.8-0.8,2.6
		c-0.4,0.9-1.6,0.9-2.1,0C380.3,289.7,382.2,286.8,383.5,285.4z"/>
	<path fill="#4E301B" d="M361.9,282.7c0.9,2,0.4,4.3,0.5,6.4c0,1.5-2.6,1.3-2.4-0.3c0.2-1.7,0.9-3.7,0.3-5.4
		C359.9,282.3,361.4,281.6,361.9,282.7z"/>
	<path fill="#4E301B" d="M340.1,279.8c2.3-3.3,5.7-5.5,9.6-6.6c2.1-0.6,4.3-0.1,6.2,0.6c2.9,1,6,2.2,8.7,3.4
		c0.7,0.3,0.5,1.7-0.4,1.5c-3.2-0.8-6.2-1.5-9.2-2.8c-5.6-2.3-9.6,2.1-13.3,5.5C340.8,282.4,339.4,280.9,340.1,279.8z"/>
	<path fill="#4E301B" d="M384.9,301.3c0.4-0.2,0.8-0.3,1.1-0.5c0.2,2.7,0.7,4.2,3.6,4.7c5.2,0.9,10.1,2.4,15.4,0.9
		c3.2-0.9,5.3-2.1,6.2-5.4c0.3-1.1,0.2-2.1-0.3-3c0.8-0.2,0.7-1.6-0.2-1.7c-8.9-0.6-19.1-2.5-26.9,3.2
		C383,300.3,383.9,301.7,384.9,301.3z M404.9,302c0.1-1.3-0.2-2.6-0.8-3.8c1.3,0,2.7,0,4,0c2.6,3.2-0.6,4.9-3.9,5.8
		C404.7,303.3,404.9,302.6,404.9,302z M387.4,300.3c1.3-0.4,2.6-0.8,3.9-1c-0.7,1.3-1,2.9-0.7,4.2
		C388.7,303.2,387.5,302.7,387.4,300.3C387.5,300.3,387.4,300.3,387.4,300.3z"/>
	<path fill="#4E301B" d="M339.8,292.3c0.5,0.4,1.1,0.7,1.8,0.9c-0.3,0.3-0.6,0.7-0.8,1c-0.4,0.2-0.7,0.5-0.7,1c0,0.2,0,0.4,0,0.6
		c-1.2,3.5-0.3,8.2,3.4,8.3c2.4,0.1,4.7-1.1,7-1.6c1.8-0.3,3.4-0.1,5.2-0.2c0.3,0,0.6-0.1,0.9-0.1c0.6,0.3,1.5,0.1,1.8-0.6
		c1.8-4.1-1.8-7.6-5.4-8.9c-3.4-1.2-9.5-3.2-13-1.8C339.4,291.2,339.4,292,339.8,292.3z M350.1,300.1c0.3-0.5,0.4-1,0.5-1.6
		c0.6-0.9,0.8-2.1,0.5-3.4c1.2,0.4,2.4,0.9,3.3,1.7c1,0.9,1.3,1.9,1.5,3c-0.9,0.2-2.3-0.1-3.1-0.1C351.9,299.8,351,300,350.1,300.1z
		 M342,299.4c0.4,0.3,0.8,0.5,1.2,0.7c0.8,0.6,1.8,1,2.8,1.2c-1.8,0.6-3.8,1-4-1C342,300.1,342,299.8,342,299.4z"/>
	<path fill="#4E301B" d="M351.9,321.4c0.9-1,2.3-1.6,3.5-2.3c3.5-2.1,4.9-5.8,5.9-9.6c0.2-1,1.5-0.8,1.5,0.2c0,4.5-1.4,8.2-5,11
		c-3.5,2.8-6.9,3.4-4.4,9.3c1.1,2.7,0.4,7.1,5.7,5.4c1.7-0.5,2.3,2.1,0.7,2.3c-2.8,0.4-4.5,0.4-6.9-1.1c-0.5-0.3-1-1.2-1.1-1.8
		c-0.5-2.7-1.2-4.9-2-7.5C348.9,325,350.4,322.9,351.9,321.4z"/>
	<path fill="#4E301B" d="M364.8,335.2c0.7-1.5,2.4-1.4,3.7-0.9c0.6,0.2,1.3,0.6,1.7,1c0.3,0.3,0.4,0.7,0.6,1l0,0
		c0.3,0.4,0.4,0.9,0,1.3l0,0c-0.3,0.4-1,0.6-1.5,0.2c-0.5-0.4-0.6-0.8-1.1-1.1c-0.3-0.2-0.7-0.4-1-0.4c-0.4-0.1-0.7,0.1-1.1,0.3
		C365.3,336.9,364.4,336.1,364.8,335.2z"/>
	<path fill="#4E301B" d="M374.4,339.4c1.6-0.6,3.3,0,4.9-1c1.5-1,2.6-3.5,2.5-5.3c0-1.1-2-1.5-2.7-1.9c-1.3-0.6-2-1.6-2.5-2.9
		c-0.3-0.7,0.7-1.3,1.2-0.7c1.2,1.7,3.5,1.5,5.1,2.5c1.7,1.1,1.9,3,1.4,4.8c-1.1,4.1-5.4,8.7-10,6.1
		C373.6,340.7,373.8,339.6,374.4,339.4z"/>
	<path fill="#4E301B" d="M347.6,353.3c2-2.2,3.8-3.2,6.8-2.8c2.1,0.3,4.2,1.2,6.1,2c3.2,1.3,6.3,0.6,9.5,0.1
		c1.7-0.3,16.2-2.7,16.3,2c0,0.6-0.6,1.1-1.2,0.7c-3.9-3.1-11.9-0.5-16.2,0.2c-2.7,0.4-5.1,0.7-7.7,0.2c-4-0.8-8-4.6-11.7-0.8
		C348.6,356.1,346.5,354.5,347.6,353.3z"/>
	<text transform="matrix(1 0 0 1 33.5881 401.8125)"><tspan x="0" y="0" fill="#395B88" font-family="'SourceSansPro-Semibold'" font-size="60">For the</tspan><tspan x="0" y="72" fill="#395B88" font-family="'SourceSansPro-Semibold'" font-size="60">good feels</tspan><tspan x="0" y="144" fill="#395B88" font-family="'SourceSansPro-Semibold'" font-size="60">bro.</tspan></text>
</g>
</svg>
