<svg id="Layer_1" xmlns="http://www.w3.org/2000/svg" viewBox="-3 -6 792 612"><g id="Layer_1_1_"><circle fill="none" cx="393" cy="300" r="80"/><circle fill="none" cx="393" cy="300" r="80"/><path fill="#4E301B" d="M348 254c3.5-2.8 7.2-3.9 11.6-3.1 2.9.5 5.6 1.3 8.6 1.5 3.9.3 7.9-.6 11.6-1.3 5.6-1.1 11-1.6 16.7-.4 6.4 1.3 11.9 6.1 18.7 5.4 1.5-.2 1.9 2.1.4 2.4-4.7.8-8.6-1.1-13-2.8-5.8-2.3-11-3.4-17.3-2.8-5.3.4-10.4 2.4-15.8 2.3-7.3 0-13.3-3.5-20.1.8-1.2.9-2.7-.9-1.4-2zM350.5 261.3c3.8-2.1 8.8-1.2 13-.8 7.3.7 14.8-.6 22.2-.7 7-.1 12.8 2.1 19.2 4.7 3.6 1.4 7.3 3 11 3.9 2.7.6 5.1-.1 7.5 1.6.8.6.1 1.8-.8 1.5-2.7-1-5.6-.4-8.3-1-2.5-.6-4.9-1.7-7.4-2.5-7.1-2.4-13.3-5.5-21-5.4-6.3.1-12.6 1.1-18.9 1.1-4.6-.1-11.1-2.2-15.2.2-1.7.8-2.8-1.8-1.3-2.6zM392.3 270.7c7.9 2.1 15.4 4.4 22.6 8.4 1.4.8 0 2.3-.9 1.8-5.8-2.2-11.4-4.9-17.5-6.2-3.2-.7-7.6-3.4-10.3-.3-.7.8-2.3.4-2-.8.8-3.8 4.9-3.7 8.1-2.9zM380.5 279.4c.6-.7 1.3-1 2.1-1.3.4-.1.9-.5 1.4-.7.2-.2.4-.3.7-.3.3 0 .5.1.8.3.6.4.6 1.2.2 1.7-.6.9-2 1.2-3 1.7-.7.3-1.3 1.7-1.7 2.3-.4.8-.4 1.8-.8 2.6-.4.9-1.6.9-2.1 0-.8-2 1.1-4.9 2.4-6.3zM358.9 276.7c.9 2 .4 4.3.5 6.4 0 1.5-2.6 1.3-2.4-.3.2-1.7.9-3.7.3-5.4-.4-1.1 1.1-1.8 1.6-.7zM337.1 273.8c2.3-3.3 5.7-5.5 9.6-6.6 2.1-.6 4.3-.1 6.2.6 2.9 1 6 2.2 8.7 3.4.7.3.5 1.7-.4 1.5-3.2-.8-6.2-1.5-9.2-2.8-5.6-2.3-9.6 2.1-13.3 5.5-.9 1-2.3-.5-1.6-1.6zM381.9 295.3c.4-.2.8-.3 1.1-.5.2 2.7.7 4.2 3.6 4.7 5.2.9 10.1 2.4 15.4.9 3.2-.9 5.3-2.1 6.2-5.4.3-1.1.2-2.1-.3-3 .8-.2.7-1.6-.2-1.7-8.9-.6-19.1-2.5-26.9 3.2-.8.8.1 2.2 1.1 1.8zm20 .7c.1-1.3-.2-2.6-.8-3.8h4c2.6 3.2-.6 4.9-3.9 5.8.5-.7.7-1.4.7-2zm-17.5-1.7c1.3-.4 2.6-.8 3.9-1-.7 1.3-1 2.9-.7 4.2-1.9-.3-3.1-.8-3.2-3.2.1 0 0 0 0 0zM336.8 286.3c.5.4 1.1.7 1.8.9-.3.3-.6.7-.8 1-.4.2-.7.5-.7 1v.6c-1.2 3.5-.3 8.2 3.4 8.3 2.4.1 4.7-1.1 7-1.6 1.8-.3 3.4-.1 5.2-.2.3 0 .6-.1.9-.1.6.3 1.5.1 1.8-.6 1.8-4.1-1.8-7.6-5.4-8.9-3.4-1.2-9.5-3.2-13-1.8-.6.3-.6 1.1-.2 1.4zm10.3 7.8c.3-.5.4-1 .5-1.6.6-.9.8-2.1.5-3.4 1.2.4 2.4.9 3.3 1.7 1 .9 1.3 1.9 1.5 3-.9.2-2.3-.1-3.1-.1-.9.1-1.8.3-2.7.4zm-8.1-.7c.4.3.8.5 1.2.7.8.6 1.8 1 2.8 1.2-1.8.6-3.8 1-4-1v-.9zM348.9 315.4c.9-1 2.3-1.6 3.5-2.3 3.5-2.1 4.9-5.8 5.9-9.6.2-1 1.5-.8 1.5.2 0 4.5-1.4 8.2-5 11-3.5 2.8-6.9 3.4-4.4 9.3 1.1 2.7.4 7.1 5.7 5.4 1.7-.5 2.3 2.1.7 2.3-2.8.4-4.5.4-6.9-1.1-.5-.3-1-1.2-1.1-1.8-.5-2.7-1.2-4.9-2-7.5-.9-2.3.6-4.4 2.1-5.9zM361.8 329.2c.7-1.5 2.4-1.4 3.7-.9.6.2 1.3.6 1.7 1 .3.3.4.7.6 1 .3.4.4.9 0 1.3-.3.4-1 .6-1.5.2s-.6-.8-1.1-1.1c-.3-.2-.7-.4-1-.4-.4-.1-.7.1-1.1.3-.8.3-1.7-.5-1.3-1.4zM371.4 333.4c1.6-.6 3.3 0 4.9-1 1.5-1 2.6-3.5 2.5-5.3 0-1.1-2-1.5-2.7-1.9-1.3-.6-2-1.6-2.5-2.9-.3-.7.7-1.3 1.2-.7 1.2 1.7 3.5 1.5 5.1 2.5 1.7 1.1 1.9 3 1.4 4.8-1.1 4.1-5.4 8.7-10 6.1-.7-.3-.5-1.4.1-1.6zM344.6 347.3c2-2.2 3.8-3.2 6.8-2.8 2.1.3 4.2 1.2 6.1 2 3.2 1.3 6.3.6 9.5.1 1.7-.3 16.2-2.7 16.3 2 0 .6-.6 1.1-1.2.7-3.9-3.1-11.9-.5-16.2.2-2.7.4-5.1.7-7.7.2-4-.8-8-4.6-11.7-.8-.9 1.2-3-.4-1.9-1.6z"/><text transform="translate(30.588 395.813)" fill="#395B88" font-family="'SourceSansPro-Semibold'" font-size="60">For the</text><text transform="translate(30.588 467.813)" fill="#395B88" font-family="'SourceSansPro-Semibold'" font-size="60">good feels</text><text transform="translate(30.588 539.813)" fill="#395B88" font-family="'SourceSansPro-Semibold'" font-size="60">bro.</text></g></svg>