<?xml version="1.0" encoding="utf-8"?>
<!-- Generator: Adobe Illustrator 18.0.0, SVG Export Plug-In . SVG Version: 6.00 Build 0)  -->
<!DOCTYPE svg PUBLIC "-//W3C//DTD SVG 1.1//EN" "http://www.w3.org/Graphics/SVG/1.1/DTD/svg11.dtd">
<svg version="1.1" xmlns="http://www.w3.org/2000/svg" xmlns:xlink="http://www.w3.org/1999/xlink" x="0px" y="0px" width="792px"
	 height="612px" viewBox="0 0 792 612" enable-background="new 0 0 792 612" xml:space="preserve">
<g id="Layer_2" display="none">
	<circle display="inline" fill="#FAA41A" cx="396" cy="306" r="80"/>
</g>
<g id="Layer_1">
	<path fill="#FAA41A" d="M502,226c-44.2,0-80,35.8-80,80c0,9.2,1.6,18.1,4.4,26.3l-87,30.3L449,472.1l109.6-109.6
		C573,348.1,582,328.1,582,306C582,261.8,546.2,226,502,226z"/>
	<rect x="23" y="255" fill="none" width="484" height="333"/>
	<text transform="matrix(1 0 0 1 23 280.416)"><tspan x="0" y="0" fill="#4E2F1B" font-family="'SourceSansPro-Semibold'" font-size="36">“Software built on </tspan><tspan x="0" y="43.2" fill="#4E2F1B" font-family="'SourceSansPro-Semibold'" font-size="36">pride and love of </tspan><tspan x="0" y="86.4" fill="#4E2F1B" font-family="'SourceSansPro-Semibold'" font-size="36">subject is superior </tspan><tspan x="0" y="129.6" fill="#4E2F1B" font-family="'SourceSansPro-Semibold'" font-size="36">to software built for </tspan><tspan x="0" y="172.8" fill="#4E2F1B" font-family="'SourceSansPro-Semibold'" font-size="36">profit.” </tspan><tspan x="0" y="259.2" fill="#4E2F1B" font-family="'SourceSansPro-Semibold'" font-size="36">Ravi  Simhambhatla, CIO, </tspan><tspan x="0" y="302.4" fill="#4E2F1B" font-family="'SourceSansPro-Semibold'" font-size="36">Virgin America</tspan></text>
	<g>
		<g>
			<path fill="none" stroke="#FAA51C" stroke-miterlimit="10" d="M705,228"/>
		</g>
	</g>
	<path fill="none" d="M502,226c-20.3,0-38.9,7.6-53,20.1c-14.1-12.5-32.7-20.1-53-20.1c-44.2,0-80,35.8-80,80
		c0,22.1,9,42.1,23.4,56.6l0,0L449,472.1l109.6-109.6C573,348.1,582,328.1,582,306C582,261.8,546.2,226,502,226z"/>
</g>
</svg>
