<svg xmlns="http://www.w3.org/2000/svg" xmlns:xlink="http://www.w3.org/1999/xlink" width="792" height="612" viewBox="0 0 792 612"><g id="Layer_1"><defs><path id="SVGID_1_" d="M416.8 381.9s-17.1-10.5-3.5-22.4c0 0-15.9-6.6-17.5-19-1.7-12.4 9.7-15.2 9.7-15.2s-11.2-11.5-5.9-21.9 18.2-6.2 18.2-6.2-4.2-12.5 10.3-17.4c14.5-4.9 20.1 6.6 20.1 6.6s1.6-12.5 9.2-14.2c7.6-1.7 12.2 1.7 12.2 1.7l9-2.9-25.6-78.2-177.7 57.8 55 169.2 88.8-28.9-2.3-9z"/></defs><clipPath id="SVGID_2_"><use xlink:href="#SVGID_1_" overflow="visible"/></clipPath><path clip-path="url(#SVGID_2_)" fill="#4E2F1B" d="M468.6 348.5l-8.3 3-.2 8.7-8.6 1.5-1.7 8.6-8.8.1-3.1 8.2-8.7-1.5-4.5 7.6-8.2-2.9-5.7 6.6-7.7-4.2-6.7 5.6-6.8-5.5-7.6 4.4-5.8-6.5-8.3 3-4.6-7.4-8.6 1.6-3.3-8.1-8.7.1-1.9-8.5-8.7-1.4-.4-8.7-8.3-2.8 1.1-8.7-7.7-4.2 2.5-8.3-6.9-5.4 3.9-7.9-5.9-6.5 5.2-7-4.7-7.4 6.3-6.1-3.4-8.1 7.2-4.9-2-8.6 8-3.6-.5-8.7 8.5-2.3.9-8.7 8.8-.8 2.4-8.4 8.7.7 3.8-7.9 8.5 2.2 5.1-7.1 8 3.6 6.3-6.2 7.2 4.9 7.2-5.1 6.4 6.1 7.9-3.8 5.2 7.1 8.5-2.4 3.9 7.8 8.8-.9 2.6 8.4 8.7.6 1.2 8.7 8.5 2.1-.4 8.7 8.1 3.5-1.8 8.6 7.3 4.8-3.2 8.1 6.4 6-4.6 7.5 5.3 6.9-5.7 6.6 4.1 7.8-6.8 5.5 2.7 8.3-7.7 4.4z"/></g></svg>