<?xml version="1.0" encoding="utf-8"?>
<!-- Generator: Adobe Illustrator 18.0.0, SVG Export Plug-In . SVG Version: 6.00 Build 0)  -->
<!DOCTYPE svg PUBLIC "-//W3C//DTD SVG 1.1//EN" "http://www.w3.org/Graphics/SVG/1.1/DTD/svg11.dtd">
<svg version="1.1" xmlns="http://www.w3.org/2000/svg" xmlns:xlink="http://www.w3.org/1999/xlink" x="0px" y="0px" width="792px"
	 height="612px" viewBox="0 0 792 612" enable-background="new 0 0 792 612" xml:space="preserve">
<g id="Layer_2" display="none">
	<circle display="inline" fill="#FAA41A" cx="395.7" cy="304.7" r="80"/>
</g>
<g id="Layer_1">
	<g>
		<g>
			<path fill="none" stroke="#FAA51C" stroke-miterlimit="10" d="M705,228"/>
		</g>
	</g>
	<g>
		<defs>
			<path id="SVGID_1_" d="M416.8,381.9c0,0-17.1-10.5-3.5-22.4c0,0-15.9-6.6-17.5-19c-1.7-12.4,9.7-15.2,9.7-15.2
				s-11.2-11.5-5.9-21.9s18.2-6.2,18.2-6.2s-4.2-12.5,10.3-17.4c14.5-4.9,20.1,6.6,20.1,6.6s1.6-12.5,9.2-14.2
				c7.6-1.7,12.2,1.7,12.2,1.7l9-2.9L453,192.8l-177.7,57.8l55,169.2l88.8-28.9L416.8,381.9z"/>
		</defs>
		<clipPath id="SVGID_2_">
			<use xlink:href="#SVGID_1_"  overflow="visible"/>
		</clipPath>
		<polygon clip-path="url(#SVGID_2_)" fill="#4E2F1B" points="468.6,348.5 460.3,351.5 460.1,360.2 451.5,361.7 449.8,370.3 
			441,370.4 437.9,378.6 429.2,377.1 424.7,384.7 416.5,381.8 410.8,388.4 403.1,384.2 396.4,389.8 389.6,384.3 382,388.7 
			376.2,382.2 367.9,385.2 363.3,377.8 354.7,379.4 351.4,371.3 342.7,371.4 340.8,362.9 332.1,361.5 331.7,352.8 323.4,350 
			324.5,341.3 316.8,337.1 319.3,328.8 312.4,323.4 316.3,315.5 310.4,309 315.6,302 310.9,294.6 317.2,288.5 313.8,280.4 
			321,275.5 319,266.9 327,263.3 326.5,254.6 335,252.3 335.9,243.6 344.7,242.8 347.1,234.4 355.8,235.1 359.6,227.2 368.1,229.4 
			373.2,222.3 381.2,225.9 387.5,219.7 394.7,224.6 401.9,219.5 408.3,225.6 416.2,221.8 421.4,228.9 429.9,226.5 433.8,234.3 
			442.6,233.4 445.2,241.8 453.9,242.4 455.1,251.1 463.6,253.2 463.2,261.9 471.3,265.4 469.5,274 476.8,278.8 473.6,286.9 
			480,292.9 475.4,300.4 480.7,307.3 475,313.9 479.1,321.7 472.3,327.2 475,335.5 467.3,339.9 		"/>
	</g>
</g>
</svg>
