<?xml version="1.0" encoding="utf-8"?>
<!-- Generator: Adobe Illustrator 18.0.0, SVG Export Plug-In . SVG Version: 6.00 Build 0)  -->
<!DOCTYPE svg PUBLIC "-//W3C//DTD SVG 1.1//EN" "http://www.w3.org/Graphics/SVG/1.1/DTD/svg11.dtd">
<svg version="1.1" xmlns="http://www.w3.org/2000/svg" xmlns:xlink="http://www.w3.org/1999/xlink" x="0px" y="0px" width="792px"
	 height="612px" viewBox="0 0 792 612" enable-background="new 0 0 792 612" xml:space="preserve">
<g id="Layer_2" display="none">
	<circle display="inline" fill="#FAA41A" cx="396" cy="306" r="80"/>
</g>
<g id="Layer_1">
	<path fill="#6A9AD1" d="M393.1,265.9c0-1-0.6-2-0.6-2l0-0.1c0,0-0.8-1.5-2.1-2c-1.3-0.4-2.4,0.5-2.4,0.5s-0.2,0.2-0.7,0.8
		c-0.5,0.6-0.8,1.1-1.9,1.5c-1.1,0.4-2.2,0.3-2.8,0.1c-0.6-0.3-0.7-0.9-0.7-0.9s-0.4-1.2-0.5-1.7c-0.1-0.5-0.5-2.7-0.5-2.7
		s-0.8-4.4-0.9-5.3c0,0,2.4-0.2,5.9-1.2c3.7-1.1,4.9-1.9,4.9-1.9s-0.7-0.3-0.8-1.1c-0.1-0.8-0.1-1.9-0.1-1.9s-0.1-0.8,0.8-1.8
		c0.9-1,2.2-1.4,2.8-1.5c0.7-0.1,2.1-0.3,3.4-0.2c1.3,0.1,2,0.2,2.6,0.5c0.5,0.3,0.6,1,0.6,1l0,1.8c0,0-0.1,0.6,0.4,0.8
		c0,0,0.8,0.5,3.5,0.2c0,0,1.2-0.2,3-0.7c1.8-0.5,6.6-2,7.3-2.1c0.7-0.2,1.5-0.5,2.6-0.8c1.1-0.3,3.3-1,3.7-1.2
		c0.4-0.2,2.9-1,4.7-1.3c1.8-0.3,3.6-0.3,4.5,0.2c0,0,0.6,0.5,0.8,1.1c0.3,0.6,0.8,1.4,1.5,1.7c0.7,0.4,1.2,0.6,3,0.4
		c0,0,0-0.2-0.6-0.6c-0.7-0.4-1.6-1.1-1.6-1.1s-0.5-0.4-0.7-0.7c-0.1-0.3-0.1-0.5-0.1-0.5l1.4-2.3c0,0,0-0.3,0.8-0.4
		c0.8-0.1,1.7-0.2,2.8-0.5c1.1-0.3,1.3-0.5,1.3-0.5l0.9,0.3c0,0,5.7,4.6,7.5,5.7l0.3-0.4c0,0,0.7,0,1.3,0.3c0.6,0.2,1.6,0.9,1.6,0.9
		s2.6,2.1,3.3,3.5l0.4,1.1l-0.2,0.3c0,0,1.5,2.1,3.4,4.2c0,0,2,2.7,2.7,3.4c0,0-0.2-0.6-0.3-1.4l0.5-0.4l0.3-0.2l1,0.4
		c5.7,7.7,10.3,16.7,13.1,26.2l-0.2,0.8l0.6,0.8c1.8,6.8,2.8,13.9,2.8,21.2c0,1.8-0.1,3.6-0.2,5.4l-0.5,0.8l0.4,0.9
		c-3.6,41.8-38.7,74.7-81.4,74.7c-29.7,0-55.6-15.8-70-39.4l-0.2-0.6l-0.3-0.2c-5.4-9.2-9.1-19.6-10.6-30.6l0.3-0.8l-0.5-0.8
		c-0.3-3-0.5-6.1-0.5-9.2c0-4.8,0.4-9.5,1.2-14l0.4-0.9l-0.1-0.5c1.9-9.7,5.4-18.8,10.4-26.9l1.1-0.6l0.1,0.1c0,0,0.4-0.3,0.6-0.3
		l0.1,0c0,0,1.9-3.2,2.6-4.2c0,0,0.9-0.6,1.2-0.7c0,0,0.2,0,0.3,0.1c0,0,0.8-0.7,2.7-3.3c0,0,0,0,0,0c0,0-0.2-0.1-0.2-0.3
		c0-0.2,0.2-0.9,0.3-1.1c0.1-0.2,0.2-0.3,0.2-0.3s2.8-3.3,5.1-5.2c0,0,0.4-0.3,1.1-0.4c0,0,2.4-1,5.2-3.5c0,0,0.1-0.5,0.8-1.4
		c0.7-0.9,2.3-1.9,3.6-2.1c1.2-0.3,1.4-0.1,1.4-0.1l0.1,0.1l0.8,1.2c0,0,0.9-0.5,2.3-1c1.4-0.5,1.6-0.4,1.6-0.4l1.3,2.1l-1.6,3.2
		c0,0-1,2.3-2.7,3.5c0,0-0.8,0.5-1.8,0.2c-1-0.3-1.7,0.5-1.7,0.5l-0.3,0.2c0,0,0.2,0,0.6-0.2c0,0,0.3,0.1,0.4,0.4
		c0.2,0.3,1.5,1.9,1.5,1.9s0,1.3-0.7,3.1c-0.7,1.8-2.4,4.6-2.4,4.6s-1.2,2.3-1.7,3.6c-0.5,1.3-0.8,2.8-0.8,3.6c0,0,0.3,0.1,1.1-0.3
		c1.1-0.5,1.7,0,1.7,0s1.2,0.8,1.7,1.4c0.4,0.5,1.3,2.8,0.3,5.2c0,0-0.6,1.6-2.2,2.8c0,0-0.3,0.5-2.5,0.3c-0.6-0.1-0.9-0.4-2.2-0.3
		c-1.3,0.1-2,1.3-2,1.3l0,0c-1.1,1.6-1.9,3.9-1.9,3.9l-0.1,0.3c0,0-0.4,0.8-0.5,2.8c-0.1,2.1,0.5,5,0.5,5s12.6-2.2,15.8-0.1l0.9,0.9
		c0,0,0.1,0.3,0,0.6c-0.1,0.3-0.6,1.1-1.6,1.8c-1,0.7-2,2.5-0.5,3.7c1.7,1.3,2.7,1.2,5.5,0.8c2.8-0.5,4.6-2,4.6-2s1.6-1.2,1.3-2.6
		c-0.3-1.5-1.6-1.9-1.6-1.9s-1.1-0.7-0.2-2c0,0,0.2-1.1,4.1-2.1c3.9-1,10.9-2.4,16.9-3.2c0,0-4.1-13.2-1.2-14.9c0,0,0.7-0.5,2-0.7
		l1.2-0.1c0.2,0,0.5,0,1.3,0.1c0.7,0.1,1.6,0.1,2.7-0.7C393.1,266.2,393.1,265.8,393.1,265.9"/>
	<g>
		<path fill="#395B88" d="M346.4,243.2c-0.3,0.5-0.4,0.8-0.4,0.8s0.2-0.2,0.3-0.4C346.5,243.5,346.4,243.2,346.4,243.2z"/>
		<path fill="#395B88" d="M339.7,247.9c0,0,0.6-0.1,1.1-0.4C340.1,247.6,339.7,247.9,339.7,247.9z"/>
		<path fill="#395B88" d="M447,245.3c0,0.1-0.1,0.3,0,0.5c0,0,0.8,0.6,0.9,0.7c0,0,0.4,0,0.6,0c0.2,0.1,0.1-0.3,0.1-0.3
			s-0.5-0.7-0.5-0.9c-0.3-0.1-0.7-0.1-0.8-0.1l0.1,0c0,0-0.1,0-0.1,0c0,0,0,0,0,0C447.1,245.2,447.1,245.2,447,245.3
			C447.1,245.2,447.1,245.2,447,245.3L447,245.3L447,245.3L447,245.3L447,245.3z"/>
		<path fill="#395B88" d="M453.5,251.2l0.2-0.2l-0.4-1.1c0,0,0,0,0-0.1c0,0.1-0.1,0.2-0.3,0.2c0,0-0.2,0,0,0.3
			C453,250.6,453.3,250.9,453.5,251.2z"/>
		<path fill="#395B88" d="M351.4,365.3c0.1,0.1,0.2,0.2,0.3,0.3c0,0,0,0,0,0L351.4,365.3z"/>
		<path fill="#395B88" d="M348.6,243.8c0.1,0,0.2-0.1,0.4-0.1c0.1,0,0.2-0.1,0.3-0.1c0,0,0,0,0,0c0.7-0.3,1.9-0.9,3.5-1.7l0,0
			l-0.8-1.2l-0.1-0.1c0,0,0,0,0,0l0,0c0,0-0.2-0.2-1.4,0.1l-0.1,0l0,0c0,0,0,0,0,0c0,0,0,0,0,0c0,0,0,0,0,0c0,0,0,0,0,0
			c0,0,0.1,0,0.1,0c0,0,0,0,0,0c0,0,0,0,0.1,0c0,0,0,0,0,0c0,0,0,0,0,0c0,0,0,0,0,0c0,0,0,0,0,0.1c0,0,0,0,0,0c0,0,0,0.1-0.1,0.1
			c0,0.1-0.1,0.1-0.1,0.2c-0.3,0.4-0.9,0.8-1.7,1.7c-0.5,0.5-0.7,0.8-0.6,1C348,243.9,348.2,243.9,348.6,243.8z"/>
		<path fill="#395B88" d="M447.1,245.8c-0.1-0.1-0.1-0.1-0.1-0.1c0-0.2,0-0.4,0-0.5l0-0.1l-0.3,0.4
			C446.7,245.6,446.9,245.7,447.1,245.8C447.1,245.8,447.1,245.8,447.1,245.8z"/>
		<path fill="#395B88" d="M389.9,248.1c0-0.1,0-0.2,0-0.2S389.9,248,389.9,248.1z"/>
		<polygon fill="#395B88" points="413.1,376.7 413.1,376.7 413.1,376.7 		"/>
		<path fill="#395B88" d="M412.3,376.9c0,0-1.9,0.5-5.2,1.7c-3.2,1.3-9.6,2.3-9.6,2.3s-2.1,0.2-3.4,0.6c0.1,0,0.3-0.1,0.3-0.1
			s1.5-0.3,3.1-0.5c0,0-4.1,0.5-4.5,1c-0.1,0.2-0.1,0.4,0,0.5c0.1,0.2,0.4,0.3,0.4,0.3s0.6,0.4,2.7,0.5c0,0,0.7,0,0.8,0.1
			c0,0,0,0,0,0c0,0,0,0,0,0c0,0,0,0,0,0c0,0,0,0,0,0c0,0-0.1,0.1-0.4,0.1c-0.5,0.1-1.4,0.5-4.5,0.9c-2.1,0.3-2.7,0.1-2.9,0l0,0h0
			c-0.1-0.1-0.1-0.1-0.1-0.1s0,0,0-0.1c0-0.1,0-0.1,0.1-0.3c0-0.1,0.1-0.1,0.1-0.2c0-0.2-0.2-0.5-0.5-0.7c0,0-0.1-0.1-0.4-0.2
			c0,0,0,0,0.1,0c-0.4-0.1-1.2-0.3-2.6-0.3c-2.3,0-6.8,0-11-0.2c-0.1,0-0.2,0-0.3,0l0,0l0.2,0c-0.1-0.1-0.3-0.2-0.4-0.3
			c-0.1,0-0.1-0.1-0.2-0.1c-0.1,0-0.1-0.1-0.2-0.1c0,0,0.1,0,0.1,0.1c-0.1-0.1-0.2-0.1-0.3-0.2c-1.1-0.6-6-3.8-7.5-4.8
			c-1-0.7-2.5-1.7-3.7-2.1c-0.1,0-0.2-0.1-0.2-0.1c-0.5-0.2-1-0.2-1.3-0.1c-0.9,0.3-0.8,0.6-1.3,0.9c-0.4,0.2-0.8,0.1-1.5-0.2
			c0,0-0.1,0-0.1-0.1c-0.2-0.1-0.5-0.2-0.8-0.4c-0.1-0.1-0.2-0.1-0.3-0.2c-0.2-0.1-0.3-0.2-0.5-0.2c-0.8-0.4-1.6-1-2.9-2.1
			c-0.1-0.1-0.2-0.2-0.4-0.3c-0.3-0.2-0.5-0.5-0.8-0.8c-2-1.9,2.6-0.2,2.6-0.2s1,0.4,0.6-0.6c-0.1-0.1-0.1-0.3-0.2-0.4
			c0-0.1-0.1-0.2-0.2-0.3c-0.1-0.1-0.1-0.2-0.2-0.3c-0.1-0.1-0.2-0.2-0.3-0.4c-0.1-0.1-0.1-0.2-0.2-0.3c-0.1-0.1-0.2-0.3-0.3-0.4
			c-0.1-0.1-0.2-0.2-0.2-0.3c-0.1-0.1-0.2-0.3-0.3-0.4c-0.1-0.1-0.2-0.3-0.3-0.4c-0.1-0.1-0.2-0.2-0.3-0.4c-0.2-0.2-0.4-0.4-0.5-0.6
			c0,0-0.1-0.1-0.1-0.1c-0.2-0.2-0.4-0.4-0.6-0.6c0,0,0,0,0,0c-0.3-0.4-0.7-0.7-1-1.1c-0.7-0.7-1.2-1.3-1.8-1.9
			c0.1,0.1,0.1,0.1,0.2,0.2c-0.8-1-1.5-1.9-2.3-3l-0.9-1c0,0,0,0,0,0l0,0l-0.3,0.9c0.8,1.2,1.7,2.4,2.7,3.4c0,0,4,4.4,6.2,7.1
			c0,0,0.1,0.3-0.3,0c-0.4-0.2-2-1-2.9-0.9c-0.9,0.1-0.7,0.6-0.7,0.6s0.4,2,6.4,5.4c0,0,2.2,1.2,3.6,1.2c0,0,0.4,0.1,1-0.6
			c0.6-0.6,0.7-0.5,1.1-0.4c0.4,0.1,0.9,0.4,2.8,1.8c1.9,1.4,5.6,3.5,6.9,4.4c0.4,0.3,0.7,0.5,0.9,0.7c-3.5-0.3-7.6-0.8-8.3-1
			c0,0-0.2,0-0.3-0.2c-0.1-0.1-1-0.7-1.9-1.2c-0.8-0.5-3.3-1.5-3.3-1.5s-1.5-0.6-2.4-0.8l0,0c-0.3-0.1-0.6-0.1-0.7-0.1
			c0,0,0,0,0,0.1c0,0.1,0.2,0.2,0.4,0.4c0.6,0.3,1.1,0.6,1.7,0.9l0,0c0,0-0.7-0.4-0.9-0.5v0c0,0,0,0,0-0.1c0,0,0,0,0,0
			c0,0,0,0,0.1,0c0.3,0,0.7,0.2,0.7,0.2s1.9,0.5,3.2,1.1c1.2,0.6,2.3,1.3,2.3,1.3s1.5,0.9,3.7,1.2c2.2,0.3,5.1,0.6,6.1,0.7l0,0
			c0,0.1-0.1,0.3-0.2,0.5c-0.3,0.6,1,1,1,1s3,1.4,4.7,1.4c1.6,0,2.3-0.2,3.4,0c1,0.2,2.1,0.5,2.2,0.6c0.1,0.1-0.5,0.1-0.5,0.1
			c-0.1,0-0.1,0-0.2,0c-0.8-0.1-3.6-0.4-3.8-0.3c-0.2,0.1,0,0.3,1.6,0.7v0c1.8,0.3,3.6,0.5,5.4,0.7c0,0,0,0,0,0c0.1,0,0.2,0,0.2,0
			c0.1,0,0.3,0,0.4,0c-0.1,0-0.1,0-0.2,0c0.1,0,0.1,0,0.2,0c-0.2,0-0.5-0.1-0.9-0.1c0,0,0,0,0.1,0c-1.3-0.2-3.6-0.5-5.3-1
			c0,0-0.2-0.1,0.3,0c0.5,0.1,3.2,0.4,4,0.3c0.5-0.1,0.2-0.3,0-0.4c-0.1,0-0.1-0.1-0.1-0.1s-0.1-0.1-0.4-0.2c0,0,0,0,0,0
			c0,0-0.1,0-0.1,0c0,0,0,0,0,0c-0.2-0.1-0.4-0.1-0.6-0.2c0,0,0,0,0,0c-0.2,0-0.4-0.1-0.6-0.1c0,0,0,0,0,0c-0.5-0.1-1.1-0.2-1.7-0.3
			c0,0,0.1,0,0.1,0c-0.4,0-0.8-0.1-1.2-0.1c0,0-1.3-0.1-2.4,0c0,0-0.1,0-0.1,0c0,0,0,0,0,0c-0.8,0-1.6-0.2-2-0.3
			c-0.1,0-0.2-0.1-0.2-0.1l0,0c0,0,0,0,0,0s-0.1,0-0.3-0.1c0,0,0,0,0.1,0c-0.4-0.2-1.3-0.6-1-1c0.2-0.3,0.2-0.5,0.1-0.8
			c1.8,0.1,4.1,0.2,4.1,0.2s4.8,0.2,7.4,0c1.2-0.1,0.8,0.5,0.8,0.5s-0.3,0.6,0.3,0.8c0,0,1.2,0.7,5.4,0.3c4.1-0.5,5-1.4,5-1.4
			s0.5-0.4-0.6-0.6c-0.1,0-0.1,0-0.2,0c0,0-0.1,0-0.1,0c0,0,0,0,0,0c0,0,0,0,0,0c0,0,0,0,0,0c0,0,0,0,0,0c0,0,0,0,0,0c0,0,0,0,0,0
			c0,0,0,0,0,0c0,0,0,0,0,0c0,0,0,0,0,0c0,0,0,0,0,0c0,0,0,0,0,0c0,0,0,0,0,0c0,0,0,0,0,0l0,0c0,0,0,0,0,0c0,0,0,0,0,0c0,0,0,0,0,0
			c0,0,0,0,0,0c0,0,0,0,0,0h0c0,0,0,0,0,0h0c0,0,0,0,0,0c0,0,0,0,0,0c0,0,0,0,0,0c0,0,0,0,0,0c-0.1,0-0.1,0-0.2,0h0c0,0,0,0,0,0
			c0,0,0,0,0,0c0,0,0,0,0,0c0,0,0,0,0,0c0,0,0,0,0,0c0,0,0,0,0,0c0,0,0,0,0,0c0,0,0,0,0,0c0,0,0,0,0,0c0,0,0,0,0,0c0,0,0,0,0,0
			c0,0,0,0,0,0c0,0,0,0,0,0c0,0,0,0,0,0c0,0,0,0,0,0c0,0,0,0,0,0c0,0,0,0,0,0c0,0,0,0,0,0c0,0,0,0,0,0c0,0,0,0-0.1,0c0,0,0,0,0,0
			c0,0-0.1,0-0.1,0c-0.2,0-0.4-0.1-0.6-0.1l-0.3,0c-0.4-0.1-0.5-0.2,0-0.4c0.7-0.2,1.9-0.3,1.9-0.3s3.6-0.5,6.5-1.3
			c0,0,3.1-0.7,6.2-1.8c1.2-0.4,2.2-0.7,3-1l0.7-1c-0.2,0-0.3,0.1-0.4,0.1C412.5,376.9,412.3,376.9,412.3,376.9z"/>
		<path fill="#395B88" d="M334.3,254.6c0,0.1,0.2,0.2,0.2,0.2s0.5-0.8,0.3-0.7c0.1-0.2,0.3-0.6,0.3-0.8c0-0.4-0.5,0-0.5,0
			c-0.2,0.4-0.3,0.8-0.3,1.1c0,0,0,0,0,0c0,0,0,0,0,0C334.2,254.5,334.2,254.6,334.3,254.6L334.3,254.6z"/>
		<path fill="#395B88" d="M357,377.7L357,377.7C357,377.7,357.1,377.7,357,377.7C357.1,377.7,357,377.7,357,377.7z"/>
		<path fill="#395B88" d="M325.2,347.6C325.2,347.6,325.1,347.6,325.2,347.6C325.1,347.6,325.1,347.6,325.2,347.6
			C325.1,347.6,325.1,347.6,325.2,347.6l0.2,0.2C325.3,347.7,325.2,347.7,325.2,347.6L325.2,347.6z"/>
		<polygon fill="#395B88" points="401.5,355.1 401.5,355.1 401.5,355.1 		"/>
		<path fill="#395B88" d="M476.8,312.8C476.8,312.8,476.8,312.8,476.8,312.8l-0.2-0.4c0,0,0,0,0,0l0,0l0,0l0-0.1l0.5-0.8
			c0,0-0.2,0.3-1.1,1.6c0,0,0,0,0,0c-0.1,0.1-0.1,0.2-0.2,0.3c-0.3,0.4-0.6,1-1,1.6c-2,3.3-2.4,6-2.4,6s-0.2,1-0.1,1.7
			c0,0.1,0,0.2,0.1,0.3c0,0,0,0,0,0c0,0.1,0.1,0.2,0.1,0.2c0,0,0,0,0,0c0,0,0,0,0,0c0,0.1,0.1,0.2,0.1,0.2c0,0,0,0,0,0
			c0,0,0,0.1,0,0.1c0,0.1,0,0.7-0.2,1.4c0,0,0,0,0,0c0,0.1-0.1,0.3-0.1,0.4c0,0,0,0,0,0.1c0,0.1,0,0.1-0.1,0.2
			c-0.1,0.2-0.2,0.5-0.3,0.7c0,0,0,0,0,0.1c-0.7,1.3-1.3,1.7-1.3,1.7s-1.2,0.9-1.4,0.3c-0.2-0.6-0.1-1.2-0.1-1.5
			c0.1-0.4,0.5-2.5,0.4-3.3c-0.1-0.8-0.8-0.2-0.8-0.2s-0.2,0.2-0.5,0.6s-2.1,2.6-2.7,3.4c-1.6,1.9-3,3.2-6.9,6.3c0,0,0,0,0,0l0,0
			c-0.3-0.6-0.7-0.9-0.9-1.2c-0.5-0.6-1.3-0.3-2.3-2.8c-0.9-2.1-1.2-3.9-1.2-5.3c0-0.5,0-0.9,0-1.2c0.1-1.4,0.4-2,1.1-2.6
			c0.7-0.6,3.6-0.3,3.6-0.3s1.4,0.3,2.7-1.8c1-1.6,1.1-3.9,1-5.7c0-0.6-0.1-1.1-0.2-1.6c-0.4-1.7-1-3.2-3.4-3.5
			c-2.4-0.2-3.4,2.7-3.4,2.7s-0.5,1.1-1,1.8c-0.5,0.6-1.9,0.5-1.9,0.5c-0.6-0.1-1.3,0.2-2-1.3c-0.7-1.5-2.3-5.3-2.3-5.3
			c-0.5-1.3-0.9-2.4-1.1-3.3l-1.2-0.5l0,0l1.2,0.5c1.6-0.9,4.4-2.5,6.4-4.2c3-2.5,5.9-5.2,6.7-5.8c0.7-0.7,1.4-1.2,2.1-1.2
			c0.7,0,1.2,0.5,1.6,2.3c0.4,1.8,0.5,3.3,0.7,4.1c0.2,0.9,0.5,1.9,1.5,2.1c1,0.2,2.4-0.7,2.9-1.1c0.2-0.2,0.5-0.5,0.7-0.9
			c0.4-0.7,0.8-1.7,0.7-2.9c0,0,0.1-2.6-1.2-5c0,0-0.6-1-0.8-1.3c-0.1-0.2-0.2-0.4,0-0.8c0.1-0.1,0.2-0.3,0.3-0.5
			c0.3-0.4,0.7-0.9,1.4-1.3c0.7-0.4,1.4-0.5,1.8-0.6c0,0,0.4-0.1,1-0.4l0,0c0,0,0,0,0,0l-0.2-0.5l0-0.1l0.5,0.5
			c0.8,2.4,1.6,6.2,1.8,6.8c0-0.2-0.1-0.5-0.1-0.7c-0.5-2.3-1.1-4.6-1.6-6.1l-0.5-0.5l0,0l0.4,0.5c0.7-0.4,1,0.1,1,0.1l0,0
			c0,0,0,0,0,0l-0.6-0.8l0.2-0.8c0,0-0.5-0.3-1.1-0.1c0,0,0,0-0.1,0c0,0,0,0,0,0s-0.5-1.5-1.7-4.4c-1.2-2.9-1.4-3.9-1.4-3.9
			s-0.1-0.3,0.1-0.4c0.2-0.1,0.1-0.3,0.1-0.3s0-0.4-0.4-1.6c-0.3-0.8-0.5-1.5-1.1-2.6c0.5,0.9,0.7,1.7,0.8,2l0,0.1
			c0,0,0.2,0.2,0.1,0.9c0,0.6-0.2,0.7-0.2,0.7l0,0.2c0.2,0.9,0.7,1.9,0.7,1.9s1.7,4.3,2.8,7.3l0,0c-0.5,0.1-0.6,0.6-1.6,0.7
			c-1,0.2-2,0.5-3.1,2.1c-0.3,0.5-0.4,1-0.5,1.5c0,0,0,0,0,0c0,0,0,0.1,0,0.1c0,0.2,0,0.4,0,0.5c0,0.1,0,0.1,0,0.2
			c0,0.1,0.1,0.3,0.1,0.4c0,0.1,0,0.1,0,0.2c0,0,0,0,0,0c0.1,0.4,0.3,0.7,0.3,0.7s0.6,0.9,0.9,1.4c0.3,0.5,1.7,3.6,0.1,5.8
			c0,0-0.9,1-2.4,1.4c-1.4,0.3-1-1.3-1.2-2.2c0,0-0.2-3.7-2-5.8c-1.6-1.8-4.4,1.4-5.8,2.5c-1.3,1-5.2,5-10.7,7.9l-0.2-2.7
			c0,0-0.1-1.4-0.9-3.7c-1.6-4.5-3.1-6.6-3.1-6.6s-0.7-1.6-2.4-2c-0.2-0.1-0.5-0.1-0.8-0.1c-2.1,0-2.3,2-2.3,2s-0.5,1.5-1.3,2
			c-0.8,0.4-2.9,1.7-4.2,0.7c0,0-0.1-0.1-0.1-0.1c-0.1,0-0.1-0.1-0.2-0.1c0,0-0.1-0.1-0.1-0.1c-0.5-0.6-1-1.2-1.3-1.9
			c-0.6-1.1-1-2.3-1.1-3.4c-0.2-1.8,0.6-2.6,0.6-2.6s0.2-0.5,2.6-0.5c2.7,0,3.2-0.8,3.2-0.8s0.5-0.5,0.5-1.5c0-1.1-0.5-3.4-1.2-4.8
			c-0.1-0.1-0.1-0.2-0.2-0.4c-0.6-0.9-1.6-2.2-2.5-3.2l-1.5-0.3l0,0l0,0l0,0c0,0,0,0,0,0l0,0v0l0,0l0,0l0,0l0,0v0l0,0l0,0l0,0v0
			l0.1-0.3l0.2-0.8c0,0,0,0,0,0v0c-0.2-0.1-0.4-0.4-0.8-0.8c-0.9-1-2.4-2.7-3.6-4.2c-0.9-1.1-1.7-2.1-2.1-2.6
			c-0.6-0.8-0.8-1.2-1-1.5c-0.1-0.2-0.1-0.3-0.2-0.4c0,0,0,0,0-0.1c-0.2-0.4,0.3-1.4,0.7-1.9c0.4-0.5,0.8-0.5,1.8-0.3
			c0.9,0.2,1.5,0.6,3,0.1c1.5-0.5,1.6-1.6,1.7-2.7c0.1-0.9-0.7-2.4-1.5-3.6c-0.3-0.4-0.6-0.8-0.8-1.1c-1.1-1.2-2.6-1.3-3.7-1.3
			c-1.1,0.1-1.7,0.8-2.3,1.2c-0.6,0.3-1.8,0.7-2.3,0.5c-0.3-0.1-0.6-0.2-1-0.5c-0.4-0.3-0.8-0.7-1.2-1.5c-0.7-1.2-1.3-2.3-1.6-2.9
			l0,0c0,0,0,0,0,0l-1.1-0.1c0,0,0,0,0,0l1.1,0.1c0.4-0.1,0.7-0.2,1.1-0.3c1.8-0.5,3.2-0.9,3.2-0.9s2-0.7,3-1c0,0,0,0,0,0
			c0.7-0.3,1.3-0.4,2-0.5c0.1,0,0.1,0,0.2,0c0.2,0,0.3-0.1,0.5-0.1c0.9-0.2,2.1-0.2,2.7-0.2c0.6,0,0.8,0.2,0.8,0.2s0.3,0.2,0.4,0.4
			c0.1,0.2,1.2,3,4.8,3.2c0.2,0,0.4,0,0.6,0c3-0.1,3-1.8,2.7-2.4c-0.4-0.7-1.4-1.4-1.4-1.4s-1.4-0.9-1.8-1.4
			c-0.3-0.4,0.1-0.6,0.2-0.6c0.1,0,2.4-0.5,3.7-0.8c0.3-0.1,0.6-0.1,0.7-0.2l0,0l0,0l0,0l-0.8-0.2l-0.1,0c0,0-0.2,0.2-1.3,0.5
			c-1.1,0.3-2,0.4-2.8,0.5c-0.8,0.1-0.8,0.4-0.8,0.4l-1.4,2.3c0,0,0,0.2,0.1,0.5c0.1,0.3,0.7,0.7,0.7,0.7s0.9,0.7,1.6,1.1
			c0.7,0.4,0.6,0.6,0.6,0.6c-0.6,0.1-1.1,0.1-1.5,0c-0.1,0-0.2,0-0.2,0c-0.1,0-0.2,0-0.2,0c-0.1,0-0.2,0-0.3-0.1
			c-0.1,0-0.1,0-0.2-0.1c0,0-0.1,0-0.1,0c-0.2-0.1-0.3-0.1-0.5-0.2c-0.2-0.1-0.4-0.2-0.5-0.4c-0.4-0.4-0.7-0.9-0.9-1.3
			c-0.2-0.4-0.6-0.8-0.7-1c-0.1-0.1-0.1-0.1-0.1-0.1c-0.9-0.5-2.7-0.5-4.5-0.2c-1.8,0.3-4.3,1.1-4.7,1.3c-0.4,0.2-2.6,0.9-3.7,1.2
			c-0.8,0.2-1.5,0.4-2.1,0.6l0,0l0,0l0,0l0,0h0l0,0c0,0,0,0,0,0l0,0l0,0c-0.2,0.1-0.4,0.1-0.5,0.2c-0.7,0.2-5.5,1.6-7.3,2.1
			c-1.8,0.5-3,0.7-3,0.7c-2.7,0.3-3.5-0.2-3.5-0.2c-0.1,0-0.1-0.1-0.2-0.1c-0.3-0.3-0.3-0.7-0.3-0.7l0-1.8c0,0,0-0.5-0.4-0.9
			c-0.1,0-0.1-0.1-0.2-0.1c-0.5-0.3-1.2-0.4-2.6-0.5c-1.3-0.1-2.7,0.1-3.4,0.2c-0.7,0.1-1.9,0.5-2.8,1.5c-0.9,1-0.8,1.8-0.8,1.8
			s0,0.1,0,0.2c0,0,0,0,0-0.1c0,0.3,0.1,1.1,0.1,1.7c0,0.1,0,0.2,0.1,0.3c0.2,0.6,0.7,0.8,0.7,0.8s-0.8,0.6-3,1.3
			c-0.1,0-0.1,0-0.2,0.1c-0.3,0.1-0.6,0.2-0.9,0.3c-0.1,0-0.1,0-0.2,0.1c-0.2,0.1-0.4,0.1-0.6,0.2c-3.5,1-5.8,1.2-5.9,1.2l0,0
			c0,0,0,0,0,0l0,0c0,0,0,0,0,0l0,0l0,0c0,0,0,0,0,0l0,0l0,0c0.1,0.9,0.9,5.3,0.9,5.3s0.3,2,0.5,2.6c0,0,0,0,0,0c0,0,0,0,0,0
			c0,0,0,0.1,0,0.1c0.1,0.5,0.5,1.7,0.5,1.7s0.1,0.6,0.7,0.9c0.6,0.3,1.7,0.4,2.8-0.1c1.1-0.4,1.4-0.9,1.9-1.5
			c0.5-0.6,0.7-0.8,0.7-0.8s1.1-1,2.4-0.5c1.3,0.4,2.1,2,2.1,2l0,0.1c0,0,0.6,1,0.6,2c0,0.1-0.1,0.3-0.5,0.7c0,0,0,0,0,0
			c-0.1,0.1-0.1,0.1-0.2,0.2c-0.1,0.1-0.1,0.1-0.2,0.2c-0.1,0-0.1,0.1-0.2,0.1c-1.1,0.8-2,0.8-2.7,0.7c-0.7-0.1-1.1-0.1-1.3-0.1
			l-1.2,0.1c-1.3,0.2-2,0.7-2,0.7c-1.4,0.8-1.2,4.4-0.5,7.9c0.6,3.5,1.7,6.9,1.7,7c0,0,0,0,0,0c-6,0.8-13.1,2.2-16.9,3.2
			c-3.9,1-4.1,2.1-4.1,2.1c-0.1,0.2-0.2,0.3-0.2,0.5c-0.4,1,0.5,1.5,0.5,1.5s1.3,0.5,1.6,1.9c0.1,0.4,0,0.7-0.1,1
			c-0.3,0.9-1.2,1.6-1.2,1.6s-1.9,1.5-4.6,2c-0.4,0.1-1.8,0.3-1.8,0.3c-0.3,0-0.6,0-0.9,0.1c-1.1,0-1.8-0.3-2.8-1.1
			c-1.5-1.2-0.5-3,0.5-3.7c1-0.7,1.5-1.5,1.6-1.8c0.1-0.3,0.1-0.6,0.1-0.6l-0.9-0.9c-0.3-0.2-0.8-0.4-1.4-0.5c-0.1,0-0.1,0-0.1,0
			l0,0c0,0-0.1,0-0.1,0c0,0-0.1,0-0.1,0c-0.1,0-0.2,0-0.4-0.1c0,0-0.1,0-0.1,0c-0.1,0-0.3,0-0.4-0.1c0,0-0.1,0-0.1,0
			c-0.1,0-0.3,0-0.4,0c0,0-0.1,0-0.1,0c-0.2,0-0.4,0-0.6,0l0,0c-0.8,0-1.7,0-2.6,0c0,0,0,0,0,0c-0.2,0-0.4,0-0.6,0c0,0,0,0,0,0
			c-0.2,0-0.4,0-0.6,0c0,0,0,0,0,0c-1.3,0.1-2.7,0.2-3.9,0.3c0,0,0,0,0,0c-0.2,0-0.4,0-0.5,0.1c0,0,0,0,0,0c-0.2,0-0.4,0-0.5,0.1
			c0,0,0,0,0,0c-0.2,0-0.3,0-0.5,0.1c0,0,0,0,0,0c-0.7,0.1-1.2,0.2-1.7,0.2c0,0,0,0,0,0c-0.1,0-0.2,0-0.2,0c0,0,0,0-0.1,0
			c-0.1,0-0.1,0-0.2,0c0,0-0.1,0-0.1,0c0,0-0.1,0-0.1,0c0,0,0,0-0.1,0c0,0,0,0-0.1,0c0,0-0.1,0-0.1,0c0,0,0-0.2-0.1-0.3c0,0,0,0,0,0
			c0,0,0-0.1,0-0.1c0,0,0,0,0,0c0,0,0-0.1,0-0.1c0,0,0,0,0,0c0,0,0-0.1,0-0.1c0,0,0,0,0,0c0,0,0-0.1,0-0.1c0,0,0,0,0,0
			c0,0,0-0.1,0-0.1c0,0,0,0,0,0c0,0,0-0.1,0-0.1c0,0,0,0,0,0c0,0,0-0.1,0-0.1c0,0,0,0,0,0c0,0,0-0.1,0-0.1c0,0,0,0,0,0
			c0,0,0-0.1,0-0.1c0,0,0,0,0,0c0,0,0-0.1,0-0.1c0,0,0,0,0,0c0,0,0-0.1,0-0.1c0,0,0,0,0,0c0,0,0-0.1,0-0.1c0,0,0,0,0,0
			c0,0,0-0.1,0-0.1c0,0,0,0,0,0c0,0,0-0.1,0-0.1c0,0,0,0,0,0c0,0,0-0.1,0-0.2c0,0,0,0,0,0c0-0.1,0-0.1,0-0.2c0,0,0,0,0,0
			c0-0.1,0-0.1,0-0.2c0,0,0,0,0,0c0-0.1,0-0.1,0-0.2c0,0,0,0,0,0c0-0.1,0-0.1,0-0.2c0,0,0,0,0,0c0-0.1,0-0.1,0-0.2c0,0,0,0,0,0
			c0-0.1,0-0.1,0-0.2c0,0,0,0,0,0c0-0.1,0-0.1,0-0.2c0,0,0,0,0,0c0-0.1,0-0.1,0-0.2c0,0,0,0,0,0c0-0.1,0-0.1,0-0.2c0,0,0,0,0,0
			c0-0.1,0-0.1,0-0.2c0,0,0,0,0,0c0-0.1,0-0.1,0-0.2c0,0,0,0,0,0c0-0.1,0-0.1,0-0.2c0,0,0,0,0,0c0-0.1,0-0.1,0-0.2c0,0,0,0,0,0
			c0-0.1,0-0.1,0-0.2c0.1-2,0.5-2.8,0.5-2.8l0.1-0.3c0,0,0.7-2.3,1.8-3.9l0,0c0,0,0,0,0,0l0,0c0,0,0.4-0.7,1.1-1
			c0.2-0.1,0.5-0.2,0.8-0.3c1.3-0.1,1.6,0.3,2.2,0.3c0.1,0,0.1,0,0.2,0c0,0,0,0,0.1,0c0,0,0.1,0,0.1,0c0,0,0,0,0.1,0
			c0,0,0.1,0,0.1,0c0,0,0,0,0.1,0c0,0,0.1,0,0.1,0c0,0,0,0,0.1,0c0,0,0.1,0,0.1,0c0,0,0,0,0.1,0c0,0,0.1,0,0.1,0c0,0,0,0,0.1,0
			c0,0,0.1,0,0.1,0c0,0,0,0,0.1,0c0,0,0,0,0.1,0c0,0,0,0,0,0c0,0,0,0,0.1,0c0,0,0,0,0,0c0,0,0,0,0.1,0c0,0,0,0,0,0c0,0,0,0,0.1,0
			c0,0,0,0,0,0c0,0,0,0,0.1,0c0,0,0,0,0,0c0,0,0.1,0,0.1,0c0.1,0,0.1,0,0.2,0l0,0h0c0,0,0,0,0,0c0,0,0,0,0.1,0c0,0,0,0,0,0
			c0,0,0,0,0,0c0,0,0,0,0,0c0,0,0,0,0,0c0,0,0,0,0,0c0,0,0,0,0,0c0,0,0,0,0,0c0,0,0,0,0,0c0,0,0,0,0,0c0,0,0,0,0,0c0,0,0,0,0,0
			c0,0,0,0,0,0c0,0,0,0,0,0l0,0l0,0c0,0,0,0,0,0c0,0,0,0,0,0c0,0,0,0,0,0l0,0c0,0,0,0,0,0c0,0,0,0,0,0c0,0,0,0,0,0c0,0,0,0,0,0
			c0,0,0,0,0,0c0,0,0,0,0,0c0,0,0,0,0,0c0,0,0,0,0,0c0,0,0,0,0,0c0,0,0,0,0,0h0c0,0,0,0,0,0c0,0,0,0,0,0c0,0,0,0,0,0c0,0,0,0,0,0
			c0,0,0,0,0,0c0.5-0.4,0.9-0.8,1.3-1.2c0,0,0-0.1,0.1-0.1c0,0,0,0,0,0c0,0,0-0.1,0.1-0.1c0,0,0,0,0,0c0,0,0-0.1,0.1-0.1h0
			c0.1-0.1,0.1-0.2,0.2-0.3c0,0,0,0,0,0c0,0,0,0,0-0.1c0,0,0,0,0,0c0,0,0,0,0-0.1c0,0,0,0,0,0c0,0,0,0,0-0.1c0,0,0,0,0,0
			c0,0,0.1-0.1,0.1-0.1c0,0,0,0,0,0c0,0,0,0,0,0c0,0,0,0,0,0c0,0,0,0,0,0c0,0,0,0,0,0c0,0,0,0,0,0c0,0,0,0,0,0c0,0,0,0,0,0
			c0.1-0.2,0.2-0.3,0.2-0.3c1-2.3,0.1-4.7-0.3-5.2c-0.5-0.6-1.7-1.4-1.7-1.4s-0.2-0.1-0.4-0.2c0,0-0.1,0-0.1,0c-0.1,0-0.1,0-0.2,0
			c-0.1,0-0.2,0-0.3,0c0,0-0.1,0-0.1,0c0,0,0,0,0.1,0c-0.2,0-0.4,0.1-0.6,0.2c-0.6,0.3-0.9,0.3-1,0.3c0,0,0,0,0,0
			c-0.1,0-0.1,0-0.1,0c0-0.8,0.2-2.3,0.8-3.6c0.5-1.3,1.7-3.6,1.7-3.6s1.7-2.9,2.4-4.6c0.7-1.8,0.7-3.1,0.7-3.1l0,0l0,0
			c0,0-0.5-0.6-0.9-1.2c-0.2-0.3-0.5-0.6-0.5-0.7c-0.1-0.1-0.2-0.2-0.3-0.3c-0.1-0.1-0.2-0.1-0.2-0.1c-0.1,0-0.2,0.1-0.2,0.1
			c0,0,0,0,0,0c-0.2,0.1-0.3,0.1-0.3,0.1l0.3-0.2c0,0,0.7-0.8,1.7-0.5c1,0.3,1.8-0.2,1.8-0.2c1.6-1.2,2.7-3.5,2.7-3.5l1.6-3.2
			l-1.3-2.1c0,0,0,0,0,0l0,0l0,0c-0.1,0-0.4,0-1.6,0.4c0,0-1.2,3.1-2.8,4.9c0,0-0.6,0.9-1.1,0.7c-0.5-0.2-1-0.2-1.5-0.1
			c-0.5,0.1-1.9,0.6-3.1,2.3c-1.3,1.7-1.4,3-0.7,3.4c0.7,0.4,1.7-0.1,2.3-0.7c0.6-0.5,1-0.8,1.2-0.8c0.2,0,0.1,0.5,0.1,0.7
			c0,0.2-0.2,2.2-2.6,6.3c-0.6,1-1.4,2.5-1.7,3.3l1,0.7l-1.6,0.8c-0.4,1.2-1,3.1-0.8,4.2c0.3,1.6,1.9,1.6,1.9,1.6s1,0,2.2-0.6
			c1.2-0.6,1.4,2,1.4,2.4c0,0.4,0,2.8-1.6,3.9c0,0-0.7,0.5-1.6,0.5c-0.9,0-1.5-0.3-1.5-0.3s-1.6-0.4-2.5,0.1c-1,0.6-2.1,1.8-3,3.5
			c-0.9,1.7-1.7,4.8-1.6,7c0,1.8,0.3,3.5,0.5,4.6l1.1,0.7c0,0,0,0,0,0l0,0l0,0l0,0l0,0l0,0l0,0l-1.1-0.7c0,0-3.7,1-7.8,0.9
			c-2.9,0-2.8-1.5-2.5-2.6c0.1-0.1,0.1-0.3,0.2-0.4c0,0,0-0.1,0-0.1c0-0.1,0.1-0.2,0.1-0.2c0-0.1,0.1-0.1,0.1-0.1s1-1.8,1.2-2.8
			c0,0,0.4-2.8-2.3-2.6c-2.6,0.2-3.2,2.5-3.2,2.5s-0.2,1.3-0.1,2.2c0,1,0,3-1.2,4.1c-1.2,1.1-2.5,0.8-2.5,0.8s-2.1-0.9-2.6-1.2
			c-0.4-0.2-0.8-0.2-1.2-0.1c0,0-0.1,0-0.1,0c1.3-5.3,2-6.8,2-6.8s0-0.1,0.1-0.2c0,0,0,0,0,0c0,0,0,0,0-0.1c0.1-0.1,0.1-0.1,0.1,0.2
			c0,0.5,0.3,0.6,0.3,0.6c0.2,0,0.4-0.3,0.7-0.7l0,0c0,0,0,0,0,0c0.1-0.2,0.2-0.3,0.3-0.6c0-0.1,0.1-0.1,0.1-0.2
			c0.1-0.2,0.1-0.3,0.2-0.5c0-0.1,0.1-0.2,0.1-0.3c0.1-0.2,0.1-0.4,0.2-0.6c0-0.1,0.1-0.2,0.1-0.3c0.1-0.2,0.1-0.4,0.2-0.5
			c0-0.1,0.1-0.2,0.1-0.4c0.5-1.5,0.8-3,1-3.7l0,0c0.1-0.3,0.1-0.5,0.1-0.6c0-0.2-0.1-0.3-0.2-0.2c-0.2,0.1-0.2,0-0.2,0
			c0,0,0-0.1,0-0.2c0,0,0,0,0,0c0.1-0.5,0.6-1.6,0.6-1.6c1.3-3.3,2.9-6.1,4-7.7c0.1,0,0.1,0,0.4-0.1c0,0,0.6-0.1,1.8,0.2
			c1.5,0.4,3.3-0.8,3.3-0.8s0,0,0.1,0c0,0,0,0,0,0c0,0,0.1-0.1,0.2-0.1c0,0,0,0,0.1,0c0.1,0,0.1-0.1,0.2-0.2c0,0,0.1,0,0.1-0.1
			c0.1-0.1,0.2-0.1,0.2-0.2c0,0,0,0,0.1-0.1c0,0,0,0,0,0c0.4-0.4,0.8-0.9,1.1-1.5l0.4-1.1c0,0,0,0,0,0l0-0.1l0.2-0.4
			c0,0,0.5-1.6,1.8-2.1c0,0,0.5-0.3,1.3-0.3c0.5,0,0.6,0.2,0.6,0.4c0,0.1,0,0.2,0,0.2s-0.1,0.4-0.9,1.5c-0.8,1.1-1.1,1.9-1.1,1.9
			s-0.3,0.7-0.1,1.1c0.1,0.2,0.2,0.3,0.4,0.4c0,0,0.4,0.2,1.5-0.1c1.1-0.4,4.8-1.4,7.1-1.7l1.6-0.8c0,0,0,0,0,0l0,0l0,0
			c-0.5-0.4-1-0.7-1-0.7c-3.8,0.7-6.7,1.6-7.7,2c-1,0.4-1,0.1-1,0.1c-0.3-0.4,0.7-1.6,0.7-1.6s1.1-1.4,1.5-2.7
			c0.4-1.3-1.4-1.1-1.4-1.1c-1.2,0.2-2.1,0.8-3.1,2c-0.8,0.9-1.3,2.2-1.4,2.9c-0.1,0.4-0.3,0.8-0.3,0.8s-0.1,0.3-0.7,0.5
			c-0.7,0.3-2,0.6-2,0.6s-0.9,0.1-1.5-0.2c-0.4-0.2-1.4,0.1-1.4,0.1l0.1-0.8l0,0l0,0l0,0l-0.1,0l0,0c0,0,0,0,0,0l-1.1,0.6
			c-0.2,0.3-0.4,0.6-0.5,0.9c-0.1,0.2-0.2,0.5-0.1,0.7c0,0.1,0.1,0.1,0.2,0.1c0.1,0,0.2,0,0.3,0c-0.5,0.9-1,1.7-1.4,2.5
			c-2.2,4-3,6.4-3.3,7.4c-0.1,0.4-0.1,0.6-0.1,0.6c0,0.1,0,0.2,0,0.2c0,0.2,0.1,0.3,0.2,0.3c0.1,0,0.2-0.2,0.2-0.1
			c0,0.1,0,0.3-0.1,0.7c-0.1,0.7-0.8,2.7-1.1,3.5c-0.3,0.8-0.6,1.4-0.8,1.3c-0.1,0-0.2-0.1-0.2-0.2c0-0.1,0-0.2,0-0.2s0-0.1-0.1-0.2
			c-0.1-0.1-0.2-0.2-0.6,0.6c-0.6,1.3-1.1,3-2.3,7.5c0,0.2-0.1,0.4-0.1,0.6l0,0c0,0,0,0,0,0l0,1l0,0l0-1c-0.3,0.3-0.4,0.7-0.4,0.7
			l0.1,0.5l-0.4,0.9c0,0,0,0,0,0.1l0,0c0,0,0,0,0,0l0,0c0,0,0.1-0.3,0.3-0.6c-0.8,4-1,8.2-1,8.5c0,0.3-0.1,0.3-0.1,0.3
			c0,0,0-0.2,0-0.2c0,0,0,0-0.1,0c0,0-0.1,0-0.1,0.1c-0.1,0.1-0.1,0.3-0.1,0.3c0,0.2-0.1,1.2-0.1,1.4c0,0,0,0,0,0l0,0c0,0,0,0,0,0
			c0.1-0.2,0.2-0.1,0.2-0.1c0,0,0,0.1,0,0.1c0,0,0.1,0.1,0.2,0c0.2-0.1,0.3-2.2,0.3-2.2s0-3.7,1-8.3c0.1-0.1,0.2-0.1,0.3-0.1
			c0.5,0,1,0.3,1,0.3s1.8,1,2.6,1.1c0.8,0.2,1.4-0.1,1.9-0.5c0.2-0.1,0.4-0.3,0.6-0.5c0,0,0,0,0,0c0.2-0.2,0.4-0.4,0.5-0.6
			c0,0,0,0,0.1-0.1c0,0,0,0,0,0c0.3-0.4,0.6-0.8,0.8-1.2c0,0,0,0,0,0c0,0,0,0,0,0c0.1-0.2,0.2-0.4,0.2-0.5c0,0,0,0,0,0c0,0,0,0,0,0
			c0-0.1,0.1-0.2,0.1-0.3c0,0,0,0,0-0.1c0-0.1,0.1-0.3,0.1-0.4c0,0,0,0,0,0c0,0,0,0,0,0c0.1-0.5,0.1-1,0.2-1.5c0,0,0,0,0,0
			c0.1-0.8,0.1-1.4,0.1-1.5l0,0c0,0,0,0,0,0l0,0c0,0,0-0.7,0-0.8c0,0,0,0,0-0.1c0-0.2-0.1-0.9,0.3-1.2c0.4-0.4,0.7-0.6,1.8-0.6
			c1.1,0,1.4,0.6,1.4,0.6s0.4,0.5,0.4,0.9c0,0.3-0.1,0.5-0.1,0.5s-0.6,1-0.8,1.5c-0.2,0.5-1,2.1-0.8,3.5c0,0,0,0,0,0c0,0,0,0,0,0
			c0.2,1.4,2.4,2,2.4,2s1.7,0.4,4.1,0l5-0.8l0.9-1l0,0l-0.9,1c0.1,1.8,0.3,5.4,0.2,6.6c0,1.5-0.2,4.6-1.8,5.3c0,0-0.5,0.3-1.4-0.4
			c-0.9-0.7-1.8-0.7-2.2-0.7c-0.4,0-2.1,0.3-2.7,2.1c-0.7,1.8-0.6,4.3-0.5,5.8c0.1,1.5,1.4,3.9,3,3.9c0,0,0.8,0.1,1.7-0.9
			c0.9-0.9,1.4-1,1.9-1c0.4,0,1.2,0.4,1.7,4.6c0.5,3.9,0.7,7.1,0.7,10.7l0.9,0.6c0,0,0,0,0,0c0,0,0,0,0,0l-1-0.6
			c-0.5,0.1-1.1,0.1-1.8,0.2c-1.6,0.1-4-0.1-6.9-1c-2.8-0.8-4.6-2.3-5-3.3c0,0,0-0.1,0-0.1c0-0.2-0.1-0.3-0.1-0.5c0-0.1,0-0.1,0-0.2
			c0-0.5,0.1-0.9,0.1-0.9s0.5-2.1,0.2-3.8c0-0.2-0.1-0.4-0.1-0.6c0-0.1,0-0.1,0-0.2c0,0,0-0.1,0-0.1c0,0,0-0.1,0-0.1
			c-0.4-1.3-1-2.3-2.4-3.1c-1.7-1-2.6-0.8-2.6-0.8s-1.5-0.2-1.4,2.3c0.1,2.5,0.4,3.6,0.4,3.6s0.3,0.9-0.2,1
			c-0.5,0.1-1.2-0.6-1.2-0.6s-0.3-0.3-0.8-0.7c-0.1-0.1-0.1-0.1-0.2-0.2c-0.4-0.4-0.9-0.9-1.3-1.4c-0.1-0.8-0.2-1.7-0.3-2.6
			c-0.4-2.9-0.4-6-0.3-6.9c0-0.2,0-0.4,0-0.6c0,0,0,0,0,0c0-0.5-0.1-0.7-0.2-0.7c-0.1,0-0.2,0.1-0.2,0.5c-0.1,0.4,0,0.6-0.1,0.6
			c0,0,0,0,0,0c0,0,0-0.1,0-0.1c0,0,0,0,0,0l0,0c0-0.1,0-0.2,0-0.3c0-0.1,0-0.3,0-0.3h0l0,0v0h0c0,0.1,0,0.2,0,0.2
			c0,0.3,0,0.6,0,0.8l0.1,0.6c0,0.5,0.1,0.6,0.1,0.6c0,0,0.1-0.1,0.1-0.2c0-0.2,0-0.5,0-0.5s0.1-0.6,0.1-0.6c0,0,0,0.2,0,0.6
			c0,1.4,0.4,7.3,0.4,7.3c0,0.4,0.1,0.8,0.1,1.2l0.1,0.1c0,0,0,0-0.1-0.1l0.1,0.1l-0.3,0.8c0,0,0.1,0.2,0.4,0.6l0,0c0,0,0,0,0,0
			c0.4,3.5,1.1,6.9,1.1,6.9c0.8,3.9,1.8,6.2,2.1,6.8c0.1,0.2,0.2,0.3,0.3,0.3c0.1,0,0.1-0.4,0-0.7c0-0.1,0-0.1,0-0.1l0,0
			c0,0,0,0,0,0c0.1,0,0.9,1.4,1.4,2.8c0.5,1.6,0.9,2.9,0.9,2.9s0.4,1.3,0.2,1.3c0,0,0,0-0.1,0c0,0-0.1,0-0.1-0.1c0,0,0,0,0,0
			c0,0-0.1-0.1-0.1-0.1c0,0,0,0,0,0c-0.1-0.1-0.1-0.2-0.1-0.2s-0.3-0.5-0.4-0.7c-0.1-0.1-0.1-0.1,0,0.3c0.6,2,2.6,6.1,2.6,6.1l2.2,4
			c0,0,0-0.1,0-0.1l0,0.1c-0.3-0.5-0.6-1.1-0.9-1.7c-1.4-2.7-2.8-5.9-3-6.4c-0.1-0.2-0.1-0.3-0.2-0.5c-0.1-0.3-0.2-0.5-0.2-0.5
			c0,0,0,0,0,0c0.1,0.2,0.3,0.7,0.7,1.2c0,0,0.1,0.1,0.1,0.1c0,0,0,0,0,0c0,0,0,0,0.1,0c0,0,0,0,0,0c0,0,0,0,0.1,0c0,0,0,0,0,0
			c0,0,0,0,0,0c0,0,0,0,0,0c0,0,0,0,0-0.1c0,0,0,0,0-0.1c0,0,0-0.1,0-0.1c0,0,0,0,0-0.1c0,0,0-0.1,0-0.2c0,0,0-0.1,0-0.1
			c0-0.1,0-0.2,0-0.3c0,0,0,0,0,0l0,0c-0.1-0.8-0.5-2.1-1.3-4.1c-0.8-2.3-1.4-3.5-1.7-4.1c0,0,0,0,0,0c0-0.1-0.1-0.1-0.1-0.2
			c0,0,0,0,0,0c-0.3-0.5-0.4-0.6-0.4-0.7c-0.1-0.1-0.3-0.4-0.3,0.3c0,0.3,0,0.6-0.1,0.4c0,0,0,0,0,0c0,0,0,0,0,0
			c-0.1-0.2-0.3-0.9-0.7-2.2c-0.8-2.9-1.6-7.8-1.6-8.2c0-0.2-0.1-0.7-0.2-1.6c0.1,0.2,0.3,0.4,0.5,0.6c0.3,0.4,0.7,0.8,1.2,1.3
			c0,0,0,0,0,0c0,0,0,0,0,0l0,0c1.7,1.8,2.3,0.7,2.3,0.7s0-0.1,0.1-0.2c0,0,0,0,0,0c0-0.1,0-0.2,0-0.2c0,0,0-0.1,0-0.1
			c0-0.1,0-0.2,0-0.3c0,0,0,0,0,0c0,0,0,0,0,0c0-0.2,0-0.5,0-0.8c0,0,0,0,0,0c0,0,0,0,0,0c0-0.1,0-0.3,0-0.5c0-0.1,0-0.2,0-0.3
			c0-0.2-0.1-0.4-0.1-0.6c0-0.1,0-0.1,0-0.2c0,0,0,0,0,0c-0.3-1.3-0.4-2.2-0.2-2.7c0,0,0,0,0,0c0-0.1,0.1-0.2,0.1-0.2c0,0,0,0,0,0
			c0.1-0.1,0.1-0.1,0.2-0.1c0,0,0,0,0,0c0.1,0,0.2,0,0.3,0c0.9,0,3.6,0.6,4.5,2.8c0,0,0.3,1,0,2.4c-0.3,1.3-0.3,2.5,0,3.7
			c0.2,1.2,1.2,2.3,2.3,3.2c1.1,0.9,4.4,2.5,7.6,2.7c3.2,0.2,4.2,0,4.2,0l1.2-1.2c0,0,0,0,0,0l-1.2,1.2c-0.1,0.3-0.1,0.7-0.2,1
			c-0.3,1.1-0.3,2.2,0,4.1c0.3,1.9,1.3,6,2.8,7c2,1.4,3.3,1.4,4.7,1.3c1.3-0.1,2.3-1.1,2.3-1.1s0.5-0.5,1.1-0.4
			c0.6,0.2,2.2,1.1,3.3,3.3c1.1,2.3,1.4,4.8-0.5,5.2c-1.9,0.4-5.2-1.4-5.2-1.4s-1.9-1-3.4,0.1c-1.5,1.1-1.6,2.9-0.8,5.1
			c0.4,1.2,1.3,3.1,2.4,5.1l1.1,0.5c0,0,0,0,0,0l-1.1-0.5c-1.8-0.4-5.2-1.1-6.5-1.7c-0.6-0.3-1-0.4-1.3-0.6c0,0-0.1,0-0.1-0.1
			c0,0-0.1-0.1-0.1-0.1c0,0,0,0-0.1-0.1c-0.1-0.2-0.2-0.5-0.1-0.9c0.2-1.2-1.2-2.9-1.2-2.9s-1.9-2.1-3.6-3.3
			c-1.7-1.3-2.4-0.9-2.4-0.9s-0.8,0.4-0.1,2.1c0.7,1.7,1.4,2.2,1.4,2.2s0.3,0.4,0.1,0.4c-0.2,0.1-0.8-0.4-1.3-0.8
			c-0.4-0.3-3-2.8-3.9-3.6l0,0c0,0,0,0,0,0l0.2,0.6c0,0,0.1,0.1,0.1,0.1c0.3,0.5,1.4,2,3.5,3.7c1.7,1.4,2.3,1.4,2.4,1.3
			c0.1,0,0.1-0.1,0.1-0.1s0.1-0.6-0.5-1.3c-0.1-0.2-0.3-0.4-0.4-0.6c-0.1-0.2-0.2-0.3-0.3-0.5c-0.2-0.4-0.4-0.7-0.5-1.1
			c0,0,0,0,0-0.1c0-0.1,0-0.2,0-0.3c0-0.1,0-0.2,0-0.2c0,0,0,0,0,0c0.2-0.5,0.5-0.5,0.5-0.5s0.2-0.1,1,0.5c0.7,0.6,2.4,1.7,3.2,2.7
			c0.7,0.9,0.8,1.7,0.8,1.9c0,0,0,0,0,0s0,0.1,0,0.2c0,0.3,0.1,1,0.7,1.7c0.9,1,2.8,2.7,9.4,3.8c0,0,0.1,0,0.1,0l0.3-0.9l0,0l0,0
			l0,0c0,0,0,0,0,0l0.9,1c0,0,0,0,0,0c5.8,0.8,8.9,0.9,8.9,0.9s7.5,0.3,9.6,0.3c1.8,0,1.7,0.8,1.7,1c0,0,0,0,0,0s-0.1,0.6-0.4,1
			c-0.2,0.3-0.4,1.1-0.5,1.8c0,0.5,0,0.9,0.3,1.3c0,0,0.9,2.3,7,2.4c0,0,5.3,0.4,9-1.1c1.2-0.5,1.6-1,1.7-1.5
			c0.2-1.1-1.4-2.1-1.4-2.1s-1.3-0.8-1.8-1.2c-0.3-0.2-0.3-0.5-0.3-0.7c0-0.1,0.1-0.2,0.1-0.3c0.1-0.3,0.5-0.6,0.9-0.8
			c0.4-0.2,2-1,8.6-2.8c6.6-1.7,10.6-1.9,10.6-1.9s0,0,0.1,0c0.6,1.5,1.1,2.4,2.1,3.4c1,1.1,2.7,2,4.6,2.7c1.9,0.7,1.1,2.1,1.1,2.1
			c-1.1,2.4-4.4,2.5-5.4,2.6c-1,0.1-3,0.3-4.9,0.7c-1.9,0.4-3.7,0.7-4.7,1.9c-1.1,1.2-0.6,2.5,0,3.8c0.6,1.3,2.3,2.1,4.6,2
			c2.3-0.1,3.8-0.8,5.2-1.4c1.4-0.6,3.8-1.3,4.5-1.5c0.7-0.2,1.7-0.6,2.4,0.4c0.8,1.1,1.6,2.7,2,3.9l0.9-0.2c0,0,0,0,0,0l0,0l0,0
			l0,0l-0.7,1c0.2,1.1-0.2,1.4-0.4,1.8c-0.2,0.4-0.9,0.9-0.6,1.9c0.3,0.9,2.7,0.6,4.1,0.2c1.4-0.4,2.5-0.8,3.4-1.1
			c0.9-0.3,1.2,0.1,1.2,0.1s0.4,0.3-0.9,1c-0.3,0.1-0.6,0.2-0.9,0.4c-0.1,0-0.2,0.1-0.3,0.1c-0.1,0-0.2,0-0.2,0.1
			c-0.1,0-0.2,0.1-0.3,0.1c-0.1,0-0.2,0-0.3,0.1c-0.1,0-0.2,0.1-0.4,0.1c-0.1,0-0.1,0-0.2,0c-0.4,0.1-0.8,0.1-1.2,0.2
			c-0.1,0-0.1,0-0.2,0c-0.1,0-0.2,0-0.3,0c-0.2,0-0.4,0.1-0.6,0.1c-0.6,0.1-0.8,0.1-1.1,0.1c0,0,0,0,0,0c-0.1,0-0.1,0-0.2,0
			c0,0-0.1,0-0.1,0c0,0-0.1,0-0.1,0c-0.1,0-0.2,0.1-0.3,0.1c0,0,0,0,0,0c-0.2,0.1-0.4,0.1-0.7,0.2c-1.7,0.6-0.1,1.1-0.1,1.1
			c1,0.2,1.8,0.4,2.6,0.5c-0.1,0-0.2,0.1-0.2,0.1c-1.9,0.5-6,1.3-6.9,1.4c-0.9,0.2-0.7,0.1-0.7,0.1s0.8-0.3-0.7-0.4
			c-0.5,0-0.9,0-1.4,0c-0.7,0-1.6,0-2.4,0.1c-0.5,0.1-1.1,0.2-1.6,0.3c-0.2,0-0.3,0-0.5,0.1c-2,0.3-1.9,0.5-1.9,0.5
			s-0.1,0.2,1.1,0.2c0.5,0,0.8,0,0.8,0c-0.2,0.1-0.5,0.1-1,0.2c-2.4,0.2-5.8,0.3-5.8,0.3l0,0c0.7,0,1.5,0,2.2,0c1,0,2,0,2.9,0
			c0.4,0,2.4-0.2,3.1-0.4c0.4-0.1,0.3-0.1,0.2-0.1c-0.1-0.1-1.3-0.1-1.3-0.1s0,0,0,0.1l-0.2,0c0,0-1.2,0-0.1-0.3
			c1.2-0.2,2.9-0.3,3.8-0.4c0.5-0.1,0.7,0,0.8,0c0,0,0,0.1,0,0.1s0,0.1,0,0.1l0,0c0,0,0,0.2,0.8,0.1c0.7,0,5.8-1,9.6-1.9
			c1.9,0,3.1-0.3,3.1-0.3l0.4-0.1l0,0l0.1,0c0.3-0.1,0.6-0.2,0.9-0.3c0.1,0,0.3-0.1,0.4-0.1c0,0,0,0,0,0c0,0,0,0,0,0
			c-0.4,0.1-0.8,0.2-1.2,0.2c-0.8,0.1-1.4,0.2-2,0.2c0,0,0,0,0,0c3.8-1.1,6.6-2,6.6-2s0.3-0.1,0.1,0c-0.2,0.1-0.7,0.3-0.7,0.3
			s-1,0.5,1.4-0.2c0.1,0,0.2-0.1,0.3-0.1c2-0.8,3.9-1.6,5.8-2.5c0,0,0.2-0.2,0-0.2c-0.3,0.1,0-0.1,0.3-0.2c0.3-0.1,3-1.6,4.9-2.4
			c-0.2,0.1-0.3,0.2-0.3,0.2l0,0c0,0,0,0,0,0l0.6-0.3c0.1,0,0.1-0.1,0.1-0.1c0,0,0,0,0,0l0,0c0.6-0.4,1.3-0.7,1.9-1.1l0,0
			c0,0-0.3,0.1-0.8,0.4c1.5-1.1,2.7-2.3,2.7-2.3s1.1-1,0.9-1.2c0,0,0,0,0,0c0,0,0,0,0,0c-0.2-0.2-1,0.4-1,0.4s-0.1,0.1-0.3,0.2l0,0
			c-0.2,0.2-0.5,0.4-0.8,0.5c-0.1,0.1-0.2,0.1-0.3,0.1c-0.1,0-0.1,0-0.1,0.1c-0.1,0-0.2,0.1-0.3,0.1c0,0,0,0,0,0
			c-0.5-0.1,0.8-1.4,0.8-1.4s0.8-0.9,1.8-1.5c0.3-0.2,0.7-0.3,1-0.4c0.3-0.1,0.6-0.1,0.9-0.2c0.4-0.1,0.6-0.3,0.9-0.5
			c0.2-0.1,0.4-0.3,0.6-0.4c0.3-0.2,0.5-0.5,0.8-1c0.3-0.5,0.7-1.3,1.4-2.6c0.1-0.1,0.1-0.2,0.2-0.3l0,0c1.8-1,2.4-1.3,2.8-1.5
			c1.9-1.1,4.2-2.5,4.8-3c0,0,1.2-0.8,0.2,0.3c-1,1.1-1.6,1.6-1.6,1.6s-0.2,0.2-0.4,0.4l0,0c0,0,0,0,0,0l0,0
			c-0.2,0.3-0.5,0.7-0.4,0.8c0,0,0.3,0.4,1.9-1.1c1.6-1.5,3.4-3.6,3.6-3.9c0.2-0.3,0.2-0.5,0.2-0.5s0.2-0.3,0.4-0.6
			c0.2-0.2,2.2-2.4,3.2-3.4c0,0,0,0,0,0c0.4-0.6,0.9-1.2,1.3-1.8c-0.6,0.6-2.8,2.9-4,4.3c0,0-1.1,1.2-1.5,1.7
			c-0.4,0.5-0.4,0.8-0.4,0.8s-0.2,0.3-0.6,0.8s-2,1.9-2,1.9s0,0,0,0c-0.1,0.1-0.2,0.1-0.3,0.2c0.1-0.1,0.2-0.1,0.2-0.2
			c-0.2,0.1-0.6,0.4-0.9,0.6c-0.1,0.1-0.2,0.1-0.3,0.1c-0.2,0,0.4-0.6,0.6-0.8c0.1,0,0.1-0.1,0.1-0.1l0,0l0,0c0,0,0.2-0.2,0.4-0.5
			c0.3-0.4,0.8-0.9,1.1-1.3c0.1-0.1,0.1-0.1,0.1-0.2c0.4-0.6,0.1-0.5,0.1-0.5s-0.1,0-0.4,0.1c0,0-0.1,0-0.1,0.1c0,0,0,0-0.1,0
			c0,0,0,0,0,0c-0.2,0.1-0.5,0.3-1,0.5c-1.3,0.8-2.2,1.4-2.2,1.4s-2.8,1.6-4.5,2.6c0,0,0,0-0.1,0c0,0,0,0,0,0c0,0,0,0,0,0
			c0,0,0,0,0,0c1.3-2,2.8-3.7,3.9-5c1.4-1.5,3-4,3-4s1-1.8,1.1-2.6c0-0.1,0-0.2,0-0.3c-0.2-0.4-1.1,0-2.7,1.2
			c-1.1,0.8-2.1,1.4-2.8,1.8c-0.1,0-0.1,0.1-0.2,0.1c0.1,0,0.1-0.1,0.2-0.1c-0.4,0.2-0.9,0.4-1.3,0.4c-1,0.1-1.4-0.5-1.5-1.2
			c-0.1-0.4,0-0.8,0-1.1c0.1-0.8,0.5-2.5,1.7-3.2c1.2-0.7,2.9-0.7,4.1-0.8c1.2-0.2,1.7-0.5,1.7-0.5s1.9-1.2,3.2-3.3
			c1.3-2.1,2.4-5.4,2.5-8.7c0-0.4,0-0.8,0-1.2c-0.1-0.7-0.2-1.3-0.3-1.8l0,0c3-2.4,5.8-5.3,6.2-5.7c0,0,0,0,0,0s2-2,3-3.8
			c0.1-0.1,0.1-0.2,0.1-0.2c0,0,0,0,0,0c0,0,0.1-0.1,0.1-0.1c0,0,0,0,0,0c0,0,0.1-0.1,0.1-0.1c0,0,0,0,0,0c0,0,0,0,0,0c0,0,0,0,0,0
			c0,0,0,0,0,0.1c0,0,0,0,0,0c0,0,0,0.1,0,0.1c0,0,0,0,0,0s-0.8,2.3-0.5,3.4c0,0,0,0,0,0c0,0,0,0,0,0c0,0.2,0,0.4,0.1,0.6
			c0,0.1,0,0.1,0,0.2c0,0,0,0.1,0,0.1c0,0.1,0.1,0.2,0.1,0.3c0,0,0,0.1,0,0.1c0.1,0.1,0.1,0.2,0.2,0.3c0,0,0,0,0,0c0,0,0,0,0,0l0,0
			c0.6,0.7,2.5-1.3,2.5-1.3s1.1-1.3,1.5-3.3c0.4-1.9,0.4-2.8,0.4-3.3c0-0.3-0.1-0.4-0.1-0.4s-0.4-0.6-0.1-1.4
			c0.3-0.7,1.9-4.9,3.2-6.4l0.4-0.4c-0.7,8.2-1.4,11-1.4,11s0-0.1,0-0.2c0.3-1.2,0.5-2.5,0.8-3.8c0,0,0,0.1,0,0.1
			c0-0.1,0-0.2,0.1-0.3h0c0,0,0,0,0,0c0,0,0,0,0,0s0,0,0-0.1c0,0,0-0.1,0-0.1c0,0,0,0.1,0,0.1c0.1-0.6,0.6-5.2,0.7-7c0,0,0,0,0,0
			l0.2-0.3c0,0,0,0,0,0l0,0c0,0,0,0,0,0L476.8,312.8z M473.1,284.4L473.1,284.4L473.1,284.4L473.1,284.4z M326.2,264.8
			C326.2,264.8,326.2,264.8,326.2,264.8L326.2,264.8C326.2,264.8,326.2,264.8,326.2,264.8L326.2,264.8l-0.3,0.4
			C326,265,326.1,264.9,326.2,264.8C326.2,264.8,326.2,264.8,326.2,264.8z M315.7,291L315.7,291L315.7,291L315.7,291z M446.3,302.3
			l-0.1,1.1c1,3.3,2.9,7.5,3.8,9.3c0.8,1.7,2.7,1.9,4.1,1.6c1.4-0.3,1.8-1.1,2.6-2.7c0.8-1.6,1.2-1.7,1.2-1.7s0.3-0.4,1.7-0.3
			c1.4,0.2,1.7,1.1,1.7,1.1s0.8,1.9,0.6,3.9c-0.2,2-0.6,2.9-1,3.6c-0.5,0.7-2.8,0.5-2.8,0.5s-4.1-0.5-4.4,4.4
			c-0.4,4.9,1.3,8.3,1.3,8.3c0.6,1.3,1.2,2,1.7,2.3c0.5,0.4,1,0.8,1,0.8s0.1,0.1,0.2,0.2l0,0c-2.9,2.3-3.8,3.1-6.1,4.7
			c0,0-2.6,2-5.5,3.5c-2.9,1.6-6.3,1.4-6.3,1.4s-0.9-0.1-0.5-0.8c0.4-0.7,1-2.3,1.2-3.1c0.2-0.8,0.7-2.9-1-3.6s-4.8,0.3-4.8,0.3
			s-7.3,1.9-10.2,5.2c-2.9,3.2-0.5,4.6-0.5,4.6s1.1,0.8,2.2,1.2c1,0.4,0.8,0.7,0.6,0.9c0,0-3.2,2.1-7.1,3.2c0,0-5.2,1.6-10.3,1.9
			c-4.9,0.3-7.1,0.4-7.2,0.5c-0.5-1.1-1.1-2-1.1-2s-0.4-0.6-0.7-1.5c-0.4-1.2-0.6-2.8,0.3-4.5c1.7-2.9,4.4-3.8,4.4-3.8
			s2.4-0.5,4.8,0c2.3,0.5,3.4-0.4,3.4-0.4s1.4-0.6,1.8-3.4c0,0,0,0,0,0c0,0,0,0,0,0c0-0.1,0-0.2,0-0.3c0-0.1,0-0.2,0-0.3
			c0,0,0-0.1,0-0.1c0-0.4,0.1-0.7,0.1-1.1c0,0,0,0,0,0c0-0.2,0-0.4,0-0.6c0-0.2,0-0.4,0-0.6c0,0,0,0,0,0c-0.2-2.5-1.2-5.1-3.8-5.9
			c-3.7-1-5.7,0.9-5.7,0.9s-2,2.2-2.6,2.5c-0.6,0.3-1.6,0.9-1.6,0.9s-1.4,0.8-2.3,1c-0.6,0.1-2.6-2.5-3-4.7c0-0.1-0.1-0.3-0.1-0.4
			c-0.2-1.8-0.5-3.4-0.5-6.7c0-0.5,0-1,0-1.5c0,0,0,0,0,0c0.7,0,1.3-0.1,2-0.1c5.7-0.2,8.6-0.9,11.6-1.6c3-0.7,7.3-3.2,8-3.6
			c0.6-0.4,1.7-0.9,2.1-2.4c0-0.2,0.1-0.3,0.1-0.5c0-0.1,0-0.1,0-0.2l0,0c0,0,0,0,0,0c0.3-2.1-2.2-3.5-2.2-3.5s-2-1-2.4-1.5
			c-0.2-0.2-0.2-0.5-0.2-0.6c0-0.2,0.1-0.3,0.1-0.3s1.1-2.4,4.6-3.8c3.5-1.4,5.9-1.8,7.4-1.9c1.5-0.2,2,0.4,2.2,0.6
			c0.2,0.3,0.2,0.8,0,1.3c-0.2,0.5-0.7,1.7-1,2.2c-0.3,0.6-0.8,1.9-0.5,2.6c0.3,0.6,1.4,1,2.7,0.7c1.3-0.2,4.8-1.2,7.8-2.5
			c3-1.3,8.1-3.8,8.1-3.8s0,0,0,0l0,0c0,0,0,0,0,0L446.3,302.3C446.3,302.3,446.3,302.3,446.3,302.3z M430.7,271.4
			C430.7,271.4,430.7,271.4,430.7,271.4L430.7,271.4c3.2,3.1,3.8,6.9,3.8,6.9s0.4,1.5-0.5,1.6c-0.8,0.1-2.6,0.1-2.6,0.1
			s-0.7,0.1-1.8,0.3c-1.1,0.2-1.8,1.4-2,2.2c-0.2,0.8-0.6,3.1,1.3,6.6c1.9,3.5,4.3,3.4,4.3,3.4c2.1-0.2,2.7-0.5,3.9-1.4
			c1.2-0.8,1.7-2.6,1.8-2.9c0.1-0.3,0.2-0.7,0.5-0.7c0.3,0,0.2,0,0.8-0.1c0.6-0.1,1.1,0.4,1.6,1.4c0.3,0.7,2.2,3.7,2.7,5.4
			c0.5,1.8,1,3.5,1,5.1c0,0.6,0.1,1.3,0.2,2l0.5,0.7c0,0,0,0,0,0l0,0l-0.5-0.8c-2.7,1.3-8.7,4.3-12.6,5.6c0,0-3,1.2-4.2,1.3
			c0,0-0.3,0-0.1-0.3c0.2-0.3,0.4-0.5,0.8-1.2c0.4-0.7,1-2.2,1-3.7c0-1.6-1.8-3.1-4.3-2.8c-2.5,0.3-4.9,1-7.8,2.1
			c-2.9,1.1-5.4,3.5-5.7,5.4c-0.3,1.9,1.8,3.1,1.8,3.1s2.4,1.2,2.7,1.9c0.3,0.7,0.1,1.3,0.1,1.3s-0.2,0.7-1.3,1.3
			c-1,0.6-3.9,2.1-3.9,2.1s-3.5,2-8.9,2.4c0,0-4.9,0.4-7.7,0.6c0,0-0.1,0-0.1,0c0.1-3.6-0.3-6.4-1.1-8.5c-0.2-0.7-0.5-1.3-0.8-1.9
			c-1.3-2.3-3.4-3.5-4.4-4c-1-0.5-3.4-0.7-5.1-0.1c-1.6,0.6-2,1.1-2.6,2.1c-0.6,1-1.3,1-1.3,1s-2.1,0.1-2.9-3.1
			c0-0.1-0.1-0.2-0.1-0.4c-0.1-0.6-0.2-1.1-0.3-1.6c0,0,0-0.1,0-0.1c0-0.1,0-0.3,0-0.4c0-0.1,0-0.2,0-0.3c0-0.1,0-0.2,0-0.3
			c0-0.1,0-0.2,0-0.3c0-2.5,0.9-3.4,0.9-3.4s0.5-0.8,2.2-1c1.7-0.2,2.8,0.2,4.1,0.5c1.3,0.3,2.3,0.2,3.9-0.6
			c0.9-0.4,1.5-1.1,1.8-1.9c0.2-0.7,0.3-1.5,0.2-2.5c-0.3-2.2-0.4-2.8-2.4-9.6c2.3-0.3,4.2-0.6,6.3-1c1.8-0.3,3.8-0.8,6.2-1.3
			c0,0,4.9-0.9,5.9-2.7c0.6-1,1.7-2.5-0.1-3.9c0,0,0,0,0,0c0,0-0.3-0.3-1.1-0.5c0,0-0.1,0-0.1,0c-0.5-0.1-1-0.2-1.4-0.4
			c-0.5-0.2-0.9-0.4-1.4-0.7c-0.9-0.6-0.9-1.4-0.9-1.4s-0.1-0.7,1.4-1.5c0,0,0.6-0.4,1.6-0.9c0.6-0.3,1.4-0.6,2.4-0.9
			c2.7-0.9,5.8-0.5,5.8-0.5s1.3,0.1,1.1,1c-0.2,0.9-1,2.4-1,3.1c0,0.5,0,1,0.3,1.4c0.1,0.1,0.3,0.3,0.4,0.4c0.2,0.1,0.4,0.3,0.7,0.4
			c0.9,0.4,2.1,0.5,2.9,0.5c0.5,0,0.8,0,0.8,0s2.2-0.1,5.9-1.3c2.3-0.7,4.6-1.5,6-2C430,271.7,430.5,271.5,430.7,271.4z M385,271.2
			c-0.2-1.6,0.1-2.1,1-2.5c0.9-0.4,1.8-0.3,3.1-0.2c1.3,0.1,2.3-0.1,3-0.5c0.7-0.4,2.5-1.4,2.4-3.5c-0.1-2.1-1.8-4.5-3.1-5.4
			c-0.3-0.2-0.7-0.3-1.1-0.4c-1.1-0.2-2.3,0.1-3,0.6c-1,0.7-1.4,1.6-1.9,1.9c-0.6,0.3-1.3,0.9-2.1,0.8c-0.1,0-0.1,0-0.2,0
			c-0.9-0.2-0.9-2.2-1.3-4.4c-0.2-0.9-0.3-1.6-0.4-2.2c-0.1-0.4-0.1-0.7-0.2-0.9c0,0,8.8-1.6,11.5-4.2c0,0,1-0.5,0-1.4c0,0,0,0,0,0
			l0,0c-1-0.9-1.4-1.2-1.4-1.2s-0.2-0.1-0.2-0.3c-0.1-0.2-0.1-0.5,0.3-0.9c0.7-0.9,1.5-1.3,2.2-1.5c0.7-0.2,2.8-0.4,4.7-0.1
			c0,0,0.3,0,0.5,0.2c0.1,0.1,0.2,0.2,0.2,0.5c0,0,0,0,0,0c0,0,0,0,0,0c-0.1,0.6-0.1,1.4-0.1,1.6c0,0.3,0,0.8,0.6,1.4
			c0.6,0.5,1.8,0.7,1.8,0.7s0,0,0.1,0c0.4,0.1,2.2,0.3,4.5-0.4c0.3-0.1,0.5-0.1,0.8-0.2c2.4-0.7,5.3-1.7,7.9-2.4l0,0
			c0.2,0.4,0.6,1.2,1.4,2.6c1.4,2.5,4,3.5,5.1,3.3c1-0.1,2.6-0.5,3.2-1.2c0.6-0.7,1.3-0.6,1.3-0.6c1.4-0.1,1.7,1.1,2.9,2.7
			c1.1,1.6,0.4,2.9,0.4,2.9c-0.8,1-1.6,0.8-2.4,0.6c-0.6-0.1-0.6-0.2-1.3-0.3c-2.1-0.3-2.8,1.3-2.8,1.3c-1.5,2.3,0.3,4,0.3,4
			s4,5.3,7,8.6c-2.3,0.8-5.2,1.8-5.2,1.8s-4,1.5-6.7,1.8c-2.6,0.4-3.2,0-3.6-0.4c-0.4-0.4,0.1-1.6,0.1-1.6s1.1-2.2,0.6-3.4
			c-0.5-1.1-3.9-1.4-4-1.4c-0.1,0-3.7-0.4-7.1,1.5c-3,1.7-3.4,2.6-3.4,2.6s-1,1.5,0.2,3c1.3,1.7,3,1.8,3,1.8s1.6,0.1,2,0.6
			c0.4,0.5,0.1,1,0.1,1s-0.5,1.5-3.6,2.1c0,0-5.1,1.5-14.6,2.8v0C385.2,275.5,385,271.2,385,271.2z M386.1,283.3L386.1,283.3
			L386.1,283.3L386.1,283.3L386.1,283.3z M386.1,283.3L386.1,283.3l-0.3,0.6L386.1,283.3z M339.1,316.3c-0.4-2.4-1-6.1-3.2-6.2
			c0,0-1.1-0.1-2.6,1.4c-1.4,1.4-2.7-1.1-2.8-2.7c-0.1-1.8,0.2-3.6,0.7-4.5c0.1-0.2,0.3-0.4,0.4-0.5c0.5-0.4,1.3-0.4,1.4-0.4
			c0.2,0,0.9,0.3,1.7,0.8c0.7,0.4,1.6,0.5,2.2,0.1c0.1-0.1,0.2-0.1,0.3-0.2c0.6-0.6,1.5-1.4,1.9-4.2c0.4-2.8,0.4-5.7,0-9.2l0,0
			c0.6-0.1,1.4-0.3,2.4-0.4c1-0.2,2.2-0.3,3.4-0.4c3.7-0.4,7.7-0.4,9.3-0.2c0,0,0.6,0.1,0.7,0.3c0,0,0,0.1,0,0.1
			c-0.1,0.2-0.7,0.7-0.7,0.7s-0.2,0.1-1,1.1c-0.8,0.9-1.1,1.9-1.1,2.7c0,0.1,0,0.2,0,0.4c0.2,1,1.2,2.9,3.8,3.5
			c3,0.6,6.5-0.5,6.5-0.5s2.3-0.5,4.5-2.7c1-1,1.1-2.1,0.9-3c-0.2-1.2-0.9-2-0.9-2s-0.4-0.5-1-0.7c0,0-0.2,0-0.2-0.1
			c0,0,0-0.1,0.1-0.1c0.2-0.2,0.6-1,2.2-1.5c1.6-0.4,6.4-1.9,17.7-3.4l0,0c0,0,0.8,3.3,1.4,5.4c0.6,2.1,0.9,4.2,1,4.7
			c0.1,0.4,0.1,1.2-0.5,1.7c-0.6,0.5-2,0.9-2.3,0.9c-0.3,0-0.9-0.1-1.6-0.3c-0.7-0.3-1.5-0.3-1.5-0.3s-1.8-0.3-3.7,0.3
			c-1.9,0.6-3.3,2.5-3.4,4.9c-0.1,2.4-0.1,3.7,0.9,5.8c0.9,2.1,2.7,3.4,3.9,3.4c1.3,0,2.4-0.6,3.1-1.7c0.7-1,0.9-1.2,0.9-1.2
			c0.9-0.5,3.1-0.7,4.2-0.3c1.1,0.4,3.2,1.7,4.4,4.3c0.9,2.1,1.2,4.4,1.2,8.6l0.9,0.7l0,0l0,0l-0.9-0.7c-2.6,0.2-5.7,0.6-5.7,0.6
			s-6.9,1-13.2,2.9c-5.3,1.6-6.4,2.6-6.4,2.6s-1.1,1-0.2,2.3c0,0,0.5,0.9,1.7,1.7c1.1,0.9,2,1.7,1.9,2.1c-0.1,0.4-0.5,0.6-0.5,0.6
			s-1.5,1.4-7.8,2.4c0,0-4.1,0.8-5.3-0.4c-1.2-1.2-0.7-2.1-0.7-2.1s0.1-0.3,1-0.8c0,0,1.5-1,1-2.8c-0.5-1.8-3.4-4.1-6.6-4.1
			c0,0-3.7,0-13.1,1.2c0,0,0,0,0,0c0-0.4,0-0.9,0-1.3C339.6,322.8,339.5,318.7,339.1,316.3z M339.5,327.6L339.5,327.6
			C339.5,327.6,339.5,327.6,339.5,327.6L339.5,327.6z M345.9,358.7C345.9,358.7,345.9,358.7,345.9,358.7L345.9,358.7L345.9,358.7
			L345.9,358.7C345.9,358.7,345.9,358.7,345.9,358.7l0-0.2L345.9,358.7z M401.5,355.1l-1.2-0.4c-2.1,0.2-5.5,0.7-9,1.6
			c-4.2,1-8.2,1.8-11.1,3.7c0,0-2.1,1.4-0.9,2.8c1.2,1.4,2.5,2,2.5,2s0.8,0.3,0.7,0.5c0,0.3,0,0.5-0.6,0.8c0,0-2.2,1.3-6.6,1.4
			s-6.3,0-7.5-1.1c-1.1-0.9,0.3-3,0.3-3s0.5-1,0-2.3c-0.5-1.3-3.6-1.4-3.6-1.4l-4.2-0.2c-5-0.1-11.5-0.7-14.4-1c0,0,0,0-0.1,0l0,0
			l-0.1-0.1c0,0-3-5.4-2.7-7.4c0,0,0.1-0.7,0.9-1.4c0.3-0.2,0.6-0.4,1.1-0.5c1.3-0.4,1.1,0.9,5,1.6c0,0,2.5,0.7,3.8-0.8
			c0.2-0.2,0.3-0.5,0.4-0.8c0.9-2.4-0.9-5.4-0.9-5.4s-2.3-4.3-5.2-4.4c-1.5-0.1-1.1,0.9-3.4,1.5c0,0-3.1,0.3-4-1.5
			c-1.2-2.2-1.6-4.8-1.6-6.4c0-0.1,0-0.1,0-0.2c0-1.1,0.1-1.4,0.1-1.7c0-0.1,0.1-0.2,0.1-0.4c0-0.2,0.1-0.4,0.2-0.7
			c0.1-0.3,0.2-0.6,0.2-1.1l0,0c1.3-0.1,3.4-0.4,5.8-0.6c4.1-0.4,6.8-0.9,9.3-0.5c2.5,0.4,3.3,2.3,3.3,2.3s0.1,0.2,0,0.4
			c-0.1,0.1-0.2,0.3-0.4,0.4c-0.6,0.4-1.2,0.9-1.5,1.4c0,0,0,0,0,0c0,0,0,0,0,0c-0.3,0.6-0.7,1.7,0.3,3.3c0.9,1.5,3.4,2.6,5.6,2.3
			c2.1-0.2,5.3-1.1,7.2-1.6c1.6-0.4,3-1.1,3.7-2.1c0.2-0.3,0.4-0.7,0.5-1.1c0.2-1.6-2.5-3.7-2.5-3.7s-1.3-1-1.5-1.2
			c0-0.1,0-0.1,0-0.1c0-0.1,0.2-0.2,0.2-0.2s1.5-0.4,2.2-0.7c0.6-0.3,2.4-1,5.4-2c2.9-0.9,9-2,9-2s3.3-0.5,7.5-0.9l0,0c0,0,0,0,0,0
			l0.5-0.5l0.1-0.2l-0.6,0.7c0,0.4,0,0.8,0,1.2c-0.2,6.2,1.2,9.4,1.2,9.4c0.8,1.7,1.6,2.9,2.8,3.7c1.2,0.8,2.7,0.3,3.2,0
			c0.5-0.3,1.9-0.9,3.1-1.7c1.2-0.8,1.2-1.1,2.6-2.4c1.5-1.3,3.3-1,3.3-1s1.8,0,2.8,2.1c1,2.1,0.8,5,0.6,6c-0.3,1.1-0.7,1.8-1.7,1.6
			c-1-0.2-2.6-0.3-3.2-0.4c-0.6,0-2.3-0.1-3.8,0.3c-1.5,0.4-3.5,1.5-5.5,4.6c-1.5,2.4-0.8,4.8-0.4,5.8c0.3,0.7,1,1.8,1.7,3
			L401.5,355.1L401.5,355.1z M401.5,355.1L401.5,355.1L401.5,355.1L401.5,355.1L401.5,355.1L401.5,355.1L401.5,355.1L401.5,355.1
			L401.5,355.1L401.5,355.1z M445.4,365.8c-0.1,0.1-0.1,0.2-0.2,0.3c-0.8,1.4-1.2,2.2-1.2,2.2s-0.5,0.9-0.5,1.4
			c0,0.5-0.4,0.4-0.4,0.4s-0.8,0-1.9,0.4c0,0-0.1,0-0.1,0c0,0,0,0-0.1,0.1c-0.3,0.2-0.7,0.4-1.1,0.6c-0.1,0.1-0.2,0.1-0.3,0.2
			c0,0-0.1,0.1-0.1,0.1c-1.2,1-2,1.8-2.5,2.3c0,0,0,0.1-0.1,0.1c-0.2,0.3-0.4,0.4-0.4,0.4s-0.7,0.9,0,0.9c0.7,0,2.2-0.8,2.8-1.3
			c0.6-0.5,0.3-0.1,0.3-0.1c-0.2,0.2-0.4,0.4-0.6,0.6c0,0,0,0,0,0c-0.9,0.9-2,1.8-2.8,2.4c-1,0.5-2.4,1.1-3.8,1.8
			c-2.6,1.3-3.6,1.8-3.6,1.8s-0.1,0.1,0,0.1c0.1,0,0,0.1,0,0.1c-1.4,0.7-4.3,1.7-4.3,1.7s-0.3,0.1-0.3,0c0-0.1,0.3-0.2,0.3-0.2
			s0.6-0.2,0.5-0.3c-0.2-0.1-1.9,0.5-1.9,0.5s-3.1,1-4.6,1.4c-0.7,0.2-1.6,0.4-2.5,0.7c-0.8,0-1.4-0.1-1.7-0.2c0,0-0.1,0-0.1,0
			c0,0,0,0,0,0c-0.7-0.1-1.2-0.2-1.4-0.6c0,0,0-0.1,0-0.1c0.1-0.2,0.8-0.2,0.8-0.2s2.1-0.2,4.4-0.9c0.3-0.1,0.6-0.2,0.8-0.3
			c2.5-0.8,3.1-1.6,3-2.1c0-0.1-0.1-0.2-0.1-0.2c0,0,0,0-0.1-0.1c-0.1,0-0.1-0.1-0.2-0.1c0,0-0.1,0-0.1,0c-0.1,0-0.2,0-0.3,0
			c0,0,0,0-0.1,0c-0.1,0-0.3,0-0.5,0c0,0,0,0-0.1,0c0,0,0,0,0,0c-0.4,0.1-0.9,0.2-1.5,0.3c-1.5,0.5-3.7,1.2-4.3,1.3
			c-0.1,0-0.3,0-0.4,0.1c0,0,0,0,0,0c-0.1,0-0.1,0-0.2,0c0,0-0.1,0-0.1,0c-0.1,0-0.1,0-0.2,0c-0.1,0-0.1,0-0.1,0c0,0-0.1,0-0.1,0
			c-0.1,0-0.1-0.1-0.2-0.2c-0.2-0.3-0.3-0.8,0.2-1.5c0.6-0.6,0.6-1.1,0.6-1.1c0,0,0,0,0-0.1c0-0.2,0-0.3,0.1-0.5c0-0.1,0-0.1,0-0.2
			c0-0.1,0-0.3,0-0.4c0,0,0-0.1,0-0.1c0.1,0,0.2,0,0.2,0s3.7-0.9,5.2-1.1c1.5-0.3,5.1-1,6.6-1.7c1.5-0.7,2.2-1.3,2.4-1.7
			c0.2-0.4-0.6-0.7-0.6-0.7s-0.9-0.2-0.8-0.5c0.1-0.3,0.5-0.6,1.9-1.3c1.5-0.7,3.3-1.4,5.2-1.8c1.9-0.5,1.2,0.3,1.2,0.3
			s-1.1,1.1-1.3,1.6c-0.1,0.4,0,0.5,0.2,0.5c0.1,0.1,1,0,1.6-0.1c0.6-0.2,5.6-2,8.6-3.8c0.1,0,0.2-0.1,0.2-0.1L445.4,365.8
			L445.4,365.8C445.4,365.8,445.4,365.8,445.4,365.8z M458.4,340.3c-0.5,2.8-1.1,4.5-1.6,5.3c-0.1,0.2-0.2,0.3-0.3,0.5c0,0,0,0,0,0
			c-0.1,0.1-0.2,0.2-0.3,0.4c-0.1,0.1-0.2,0.3-0.4,0.5c-0.1,0.1-0.2,0.2-0.3,0.3c0,0-0.1,0.1-0.1,0.1c-0.1,0.1-0.2,0.2-0.4,0.3
			c0,0,0,0.1-0.1,0.1c-0.6,0.5-1.4,1-2.2,1.1c-1.8,0.2-3.7,0.2-5.5,1.9c0,0-0.1,0-0.1,0.1c-0.1,0.1-0.1,0.1-0.2,0.2
			c0,0-0.1,0.1-0.1,0.1c-2.1,2.3-1.7,5.4-1.7,5.4s0.2,1.8,2.2,1.3c2-0.5,4-2,5.5-3.2c1.5-1.2,0.6,0.4,0.6,0.4
			c-1.3,2.6-3.9,5.2-3.9,5.2s-0.9,0.8-2.8,3.5c-0.5,0.7-0.9,1.4-1.3,1.9c0,0,0,0,0,0c0,0,0,0,0,0c-2,1.1-4.9,2.5-6.7,3.2
			c0.1,0,0.1-0.1,0.2-0.1c-0.1,0-0.1,0.1-0.2,0.1c-0.9,0.4-1.7,0.6-2.2,0.8c0,0,0,0,0,0c-0.4,0.1-0.7,0.2-0.9,0.2l0,0
			c-0.1,0-0.1,0-0.1,0c0,0,0,0,0,0c0,0,0,0,0-0.1c0,0,0,0,0,0c0.2-0.3,0.7-0.7,0.7-0.7s0.6-0.6,0.6-1.3c0,0,0-0.2-0.1-0.3
			c-0.2-0.2-0.9-0.4-2.4,0c-0.1,0-0.2,0-0.3,0.1c-0.2,0.1-0.5,0.1-0.7,0.2c-0.2,0-0.4,0.1-0.5,0.2c-0.2,0-0.3,0.1-0.5,0.2
			c-0.8,0.3-1.6,0.6-2.2,0.8c0,0,0,0,0,0c0,0,0,0,0.1,0c-0.8,0.3-1.2,0.6-1.2,0.6s-1.4,0.6-2.4,1.4l0,0l0,0
			c-0.2,0.1-0.4,0.3-0.5,0.4c0,0,0,0-0.1,0.1c0,0.1-0.1,0.1-0.1,0.2c0,0-0.1,0.1-0.1,0.1c0,0,0,0.1-0.1,0.1c0,0,0,0.1-0.1,0.1
			c0,0,0,0.1,0,0.1c0,0,0,0.1,0,0.1c0,0,0,0,0,0c0,0.1,0,0.2,0.1,0.4c0,0,0.2,0.3,1,0.6c0,0,0,0,0.1,0c0,0,0.1,0,0.1,0c0,0,0,0,0,0
			c0.1,0.1-0.1,0.2-0.3,0.3l0,0c-0.5,0.3-1.4,0.5-1.4,0.5c-2.2,0.7-3.9,1-6,1.5c-2.2,0.5-4.1,0.9-5.4,1.1c0,0,0,0,0,0l0,0
			c0-0.1,0-0.1,0-0.1c0-0.1-0.1-0.2-0.1-0.3c0-0.1-0.1-0.2-0.1-0.4c0-0.1-0.1-0.3-0.1-0.4c0-0.1-0.1-0.2-0.1-0.3
			c-0.1-0.1-0.1-0.2-0.2-0.3c0-0.1-0.1-0.1-0.1-0.2c-0.1-0.2-0.2-0.3-0.2-0.5c0-0.1-0.1-0.1-0.1-0.2c-0.1-0.1-0.1-0.2-0.2-0.3
			c0,0,0-0.1-0.1-0.1c-0.3-0.5-0.5-0.8-0.7-1.1c-0.5-0.8-1.3-1.3-3.8-0.9c-2.5,0.4-5.4,1.7-5.4,1.7s-3,1.6-5.3,1.3
			c-0.6-0.1-1-0.3-1.4-0.5c-1.1-0.8-1.3-2.2-1.3-2.8c0-0.7,0.5-1.3,1.7-1.8c1.2-0.5,4-1.1,8-1.3c4-0.2,5.5-2.8,5.5-2.8
			c0.5-0.7,1.2-2.1-0.1-3.3c-0.2-0.2-0.4-0.3-0.7-0.5c-1.4-0.8-2-1-2.4-1.2c-0.2-0.1-0.4-0.2-0.6-0.3c0,0,0,0,0,0
			c0,0-0.1-0.1-0.1-0.1c-0.1-0.1-0.2-0.1-0.2-0.2c-0.3-0.2-0.5-0.4-0.8-0.7c-0.8-0.7-1.6-1.5-1.9-2.6c0-0.1-0.1-0.3-0.2-0.5l-1-0.7
			l-0.3-0.2l0,0l0,0l0,0l0,0c0,0,0,0,0,0l0,0l0,0c0,0,0,0,0,0l0,0l0,0l0.1-0.1l0,0l-0.1,0.1l0,0c0,0,0,0,0,0l1.3,0.9
			c1.2-0.1,2.7-0.2,4.1-0.3c2.7-0.1,7-0.8,9.4-1.3c2.5-0.5,6.2-1.7,9-3.1c2.8-1.4,2.9-2.4,2.9-2.4s0.2-0.3,0.1-0.7
			c-0.1-0.3-0.3-0.6-0.7-0.9c-1.2-0.8-1.7-0.6-2.7-1.6c-0.1-0.1-0.2-0.3-0.3-0.4c-0.3-1,1.1-2.2,1.1-2.2s1-1.4,6.4-3.5
			c5.5-2.1,6.4-1.4,6.7-1.2c0.1,0.1,0.1,0.1,0.2,0.3c0.1,0.3,0.1,0.8,0,1.2c-0.1,0.5-0.8,2.3-1.2,3.3c-0.2,0.6-0.4,1.3-0.1,1.9
			c0.2,0.3,0.5,0.6,1.1,0.7c1.5,0.3,3.6,0,5.5-0.7c4.6-1.7,6-3.7,13.7-9.2c0,0,0,0,0,0l0-1c0,0,0,0,0,0l0,0c0,0,0,0,0,0l0,1
			C458.5,336.7,458.7,338.1,458.4,340.3z"/>
		<path fill="#395B88" d="M430.6,270.7l1.5,0.3c1-0.4,2.3-0.9,3.7-1.5c2.9-1.3,4.3-2.4,5.6-3.1c0,0,2.9-1.8,4.6-1.7
			c0,0,0.4,0,0.4,0.5c0,0.5,0.2,1.3,0.3,1.8c0.2,0.5,1.2,2.9,4.4,3.3c0.4,0,0.8,0.1,1.1,0c0,0,0.1,0,0.1,0c0.1,0,0.3,0,0.4,0
			c0.1,0,0.2,0,0.3-0.1c0,0,0.1,0,0.1,0c1.7-0.5,2.5-1.7,2.5-1.7s1.1-1.7-0.8-3.7c0,0-1.5-1.6-1.6-1.8c0,0-0.1-0.1,0-0.3
			c0,0,0.1-0.1,0.2-0.1c0.3-0.1,2.6-0.7,4.6-1.4c0.3-0.1,0.7-0.2,1-0.3c0,0,0,0,0,0c0.1-0.1,0.3-0.1,0.4-0.2c0,0,0,0,0.1,0
			c0.1,0,0.1,0,0.2-0.1c0.1,0,0.2-0.1,0.2-0.1c0,0,0,0,0,0c0.1,0,0.2-0.1,0.3-0.1c0,0,0,0,0.1,0v0c0,0,0,0,0,0l-0.4-0.8l0.6,0.6
			c1.6,2.6,4.6,6.9,4.6,6.9s0.4,0.5,0.8,1l0,0c0-0.6-0.1-0.9-0.1-1l-0.1-0.4c0-0.6,0.7,0.2,1,0.5c-0.8-1.2-1.1-1.3-1.1-1.3
			s-0.7-0.4-0.2,0.9c0.5,1.3-0.1,0.4-0.1,0.4c-1.5-1.9-4.5-6.9-4.5-6.9l-0.4-0.2l0.3,0.2c0.2-0.1,0.4-0.2,0.6-0.4
			c0.1-0.1,0.2-0.2,0.3-0.3c0.3-0.4-0.1-1.3-0.1-1.3l0,0l0,0c-0.2-0.3-0.4-0.6-0.6-0.9l-1-0.4l0,0l0,0l-0.1,0.1l-0.8,0.6l0.3,1.4
			c0,0-0.9,0.5-2.7,1c-1.8,0.5-3.5,1.3-3.5,1.3s-1.4,0.5-0.9,1.6c0.5,1.2,1.3,1.7,1.3,1.7s0.3,0.3,0.6,0.6c0,0,0,0,0,0
			c0.1,0.1,0.1,0.2,0.2,0.2c0,0,0,0.1,0.1,0.1c0.2,0.3,0.3,0.6,0.3,0.9c0,0.8-0.3,1.2-1.2,1.7c-0.9,0.5-1.7,0.6-1.7,0.6
			s-2.1,0.4-3.2-0.6c-1.1-1-1.3-2.7-1.3-2.7s-0.1-1.4-1.8-2c-1.8-0.6-3.9,0.7-3.9,0.7s-1.7,0.9-3.5,2.1c-1.8,1.2-5.3,2.6-7.4,3.4
			L430.6,270.7L430.6,270.7L430.6,270.7z"/>
		<path fill="#395B88" d="M330.2,259.5l1.3-1.3c-0.1-0.1-0.1-0.1-0.3-0.2c0,0-0.8,0.4-1.1,0.7C330.2,258.6,329.6,259.4,330.2,259.5z
			"/>
	</g>
</g>
</svg>
