<?xml version="1.0" encoding="utf-8"?>
<!-- Generator: Adobe Illustrator 18.0.0, SVG Export Plug-In . SVG Version: 6.00 Build 0)  -->
<!DOCTYPE svg PUBLIC "-//W3C//DTD SVG 1.1//EN" "http://www.w3.org/Graphics/SVG/1.1/DTD/svg11.dtd">
<svg version="1.1" xmlns="http://www.w3.org/2000/svg" xmlns:xlink="http://www.w3.org/1999/xlink" x="0px" y="0px" width="792px"
	 height="612px" viewBox="0 0 792 612" enable-background="new 0 0 792 612" xml:space="preserve">
<g id="Layer_2" display="none">
	<circle display="inline" fill="#FAA41A" cx="396" cy="306" r="80"/>
</g>
<g id="Layer_1">
	<g>
		<g>
			<path fill="none" stroke="#FAA51C" stroke-miterlimit="10" d="M705,228"/>
		</g>
	</g>
	<path fill="#6A9AD1" d="M426.1,427.7v-9.9L396,420l-30.1-2.2v9.9c0,1.3,0.7,2.5,1.8,3.1c-1.1,0.7-1.8,1.8-1.8,3.1s0.7,2.5,1.8,3.1
		c-1.1,0.7-1.8,1.8-1.8,3.1s0.7,2.5,1.8,3.1c-1.1,0.7-1.8,1.8-1.8,3.1s0.7,2.5,1.8,3.1c-1.1,0.7-1.8,1.8-1.8,3.1s0.7,2.5,1.8,3.1
		c-1.1,0.6-1.8,1.8-1.8,3.1s0.7,2.5,1.8,3.1c-1.1,0.7-1.8,1.8-1.8,3.1c0,0.8,0.3,1.6,0.7,2.2c6.2,10.1,29.4,8.4,29.4,8.4
		s23.2,1.7,29.4-8.4c0.5-0.6,0.7-1.4,0.7-2.2c0-1.3-0.7-2.5-1.8-3.1c1.1-0.7,1.8-1.8,1.8-3.1s-0.7-2.5-1.8-3.1
		c1.1-0.7,1.8-1.8,1.8-3.1s-0.7-2.5-1.8-3.1c1.1-0.7,1.8-1.8,1.8-3.1s-0.7-2.5-1.8-3.1c1.1-0.6,1.8-1.8,1.8-3.1s-0.7-2.5-1.8-3.1
		c1.1-0.7,1.8-1.8,1.8-3.1s-0.7-2.5-1.8-3.1C425.4,430.2,426.1,429.1,426.1,427.7z"/>
	<path fill="#395B88" d="M396,476.1c0,0-9.4,0.7-17.8-1.4c2.4,4.3,9.5,7.4,17.8,7.4s15.4-3.1,17.8-7.4
		C405.4,476.7,396,476.1,396,476.1z"/>
	<path fill="#FAA41A" d="M339.4,362.6c0,0,17,17.7,17,35.5c0,17.8,5.5,21.6,23.1,21.9H396h16.5c17.5-0.3,23.1-4.1,23.1-21.9
		c0-17.8,17-35.5,17-35.5H339.4z"/>
	<path fill="#4E2F1B" d="M433.2,295.4c-2,3.7-2.9,7.9-5.8,11.1c-2.7,2.9-4.1-0.7-4.5-3.2c1-2.8,1.4-6.1,1.3-8.8
		c0-1.3-2.1-2.1-2.7-0.7c-1.2,2.5-2,6.2-1.7,9.6c-1.3,2.5-3.6,4-7.6,3c-2.8-0.6-4.8-2.8-6-5.4c1.6-4,1.5-8.7-0.9-11.8
		c-0.8-1-2.2-0.9-2.7,0.3c-1.3,3.6-1.1,7.8,0.4,11.4c-1.5,2.6-4,4.5-7,4.6c-2.6,0.1-4.5-1.4-5.8-3.5c-0.2-4.1-1.5-8.6-2.2-10.8
		c-0.4-1.2-2.6-1.6-2.8,0c-0.5,4,0.3,8.4,2.4,11.8c-0.1,2-0.6,3.7-1.9,4.7c-3.7,2.7-9-3.9-10.5-6.5c-0.5-0.8-0.8-1.7-1.1-2.5
		c1.4-3.6,1.5-7.9-0.1-10.9c-0.6-1.1-2.1-0.7-2.5,0.3c-1.2,3.1-1.3,6.9-0.3,10.5c-2.1,3.7-5.8,5.5-8.4,1c0-0.3,0-0.5-0.2-0.8
		c-0.1-0.1-0.2-0.2-0.3-0.3c-0.2-0.3-0.6-0.3-0.9-0.2c0,0,0,0-0.1,0c-0.4,0.1-0.8,0.6-0.7,1.1c-0.6,0.4-0.9,1.1-0.6,1.8
		c8.6,17.8,16.2,35.5,20.1,55c2,9.8,3.5,19.5,4.1,29.5c0.6,10.1,0.3,20.3,1.1,30.4c0,0.2,0.1,0.3,0.2,0.4c0,0.3,0,0.6,0.1,0.9
		c0.1,1.2-0.1,2.4,0.1,3.5c0.2,1,1.5,0.8,1.8,0c0.4-1.1,0.2-2.4,0.1-3.5c-0.1-1.3-0.4-2.5-0.6-3.7c0,0,0,0,0,0
		c0.4-19.5-0.9-38.9-4.6-58.1c-1.9-9.5-4.2-18.9-7.7-28c-3.1-7.9-6.7-15.7-10.2-23.5c1.9,1.1,4.1,1.1,6.5-0.6c0.6-0.4,1.2-1,1.7-1.6
		c2.4,5.3,7,9.5,12.9,9c3-0.2,4.4-2.2,4.9-4.9c1.9,1.6,4.3,2.6,7.3,2.5c3.1-0.1,5.7-1.9,7.5-4.4c1.9,2.7,4.5,4.8,7.9,5.6
		c3.8,0.9,6.5-0.3,8.3-2.4c0.7,1.3,1.7,2.4,3.2,3.1c1.1,0.5,2,0.5,2.9,0.3c-2,4.9-3.9,9.8-5.1,15c-2.8,11.4-5.4,22.9-7.7,34.5
		c-2.1,10.7-4.4,21.4-5.8,32.3c-1.2,8.9-2.7,19.7-0.6,28.5c0.4,1.6,2.9,0.9,2.5-0.7c-2.1-8.6-0.4-19.2,0.5-27.8
		c1.2-11.3,3.5-22.5,5.9-33.6c2.4-10.9,4.8-21.7,7.7-32.5c2.7-10.1,7.5-19.4,11.5-29.1c0,0,0,0,0,0c0,0,0,0,0,0
		c0-0.1,0.1-0.2,0.1-0.3C436.5,295,433.9,293.9,433.2,295.4z"/>
	<path fill="#6A9AD1" d="M129.2,343.4v-2.9l-8.8,0.6l-8.8-0.6v2.9c0,0.4,0.2,0.7,0.5,0.9c-0.3,0.2-0.5,0.5-0.5,0.9
		c0,0.4,0.2,0.7,0.5,0.9c-0.3,0.2-0.5,0.5-0.5,0.9c0,0.4,0.2,0.7,0.5,0.9c-0.3,0.2-0.5,0.5-0.5,0.9c0,0.4,0.2,0.7,0.5,0.9
		c-0.3,0.2-0.5,0.5-0.5,0.9c0,0.4,0.2,0.7,0.5,0.9c-0.3,0.2-0.5,0.5-0.5,0.9c0,0.4,0.2,0.7,0.5,0.9c-0.3,0.2-0.5,0.5-0.5,0.9
		c0,0.2,0.1,0.5,0.2,0.6c1.8,3,8.6,2.5,8.6,2.5s6.8,0.5,8.6-2.5c0.1-0.2,0.2-0.4,0.2-0.6c0-0.4-0.2-0.7-0.5-0.9
		c0.3-0.2,0.5-0.5,0.5-0.9c0-0.4-0.2-0.7-0.5-0.9c0.3-0.2,0.5-0.5,0.5-0.9c0-0.4-0.2-0.7-0.5-0.9c0.3-0.2,0.5-0.5,0.5-0.9
		c0-0.4-0.2-0.7-0.5-0.9c0.3-0.2,0.5-0.5,0.5-0.9c0-0.4-0.2-0.7-0.5-0.9c0.3-0.2,0.5-0.5,0.5-0.9c0-0.4-0.2-0.7-0.5-0.9
		C129,344.1,129.2,343.8,129.2,343.4z"/>
	<path fill="#395B88" d="M120.4,357.5c0,0-2.8,0.2-5.2-0.4c0.7,1.3,2.8,2.2,5.2,2.2s4.5-0.9,5.2-2.2
		C123.2,357.8,120.4,357.5,120.4,357.5z"/>
	<circle fill="#FAA41A" cx="120.4" cy="307.7" r="23.5"/>
	<path fill="#FAA41A" d="M103.8,324.3c0,0,5,5.2,5,10.4s1.6,6.3,6.8,6.4h4.8h4.8c5.1-0.1,6.8-1.2,6.8-6.4s5-10.4,5-10.4H103.8z"/>
	<path fill="#4E2F1B" d="M131.3,304.6c-0.6,1.1-0.8,2.3-1.7,3.3c-0.8,0.9-1.2-0.2-1.3-1c0.3-0.8,0.4-1.8,0.4-2.6
		c0-0.4-0.6-0.6-0.8-0.2c-0.3,0.7-0.6,1.8-0.5,2.8c-0.4,0.7-1.1,1.2-2.2,0.9c-0.8-0.2-1.4-0.8-1.8-1.6c0.5-1.2,0.4-2.6-0.3-3.5
		c-0.2-0.3-0.6-0.3-0.8,0.1c-0.4,1.1-0.3,2.3,0.1,3.4c-0.4,0.8-1.2,1.3-2.1,1.3c-0.8,0-1.3-0.4-1.7-1c-0.1-1.2-0.4-2.5-0.7-3.2
		c-0.1-0.4-0.8-0.5-0.8,0c-0.2,1.2,0.1,2.5,0.7,3.5c0,0.6-0.2,1.1-0.6,1.4c-1.1,0.8-2.7-1.1-3.1-1.9c-0.1-0.2-0.2-0.5-0.3-0.7
		c0.4-1,0.4-2.3,0-3.2c-0.2-0.3-0.6-0.2-0.7,0.1c-0.4,0.9-0.4,2-0.1,3.1c-0.6,1.1-1.7,1.6-2.5,0.3c0-0.1,0-0.2-0.1-0.2
		c0,0-0.1-0.1-0.1-0.1c-0.1-0.1-0.2-0.1-0.3-0.1c0,0,0,0,0,0c-0.1,0-0.2,0.2-0.2,0.3c-0.2,0.1-0.3,0.3-0.2,0.5
		c2.5,5.2,4.7,10.4,5.9,16.1c0.6,2.9,1,5.7,1.2,8.7c0.2,3,0.1,5.9,0.3,8.9c0,0,0,0.1,0,0.1c0,0.1,0,0.2,0,0.3c0,0.3,0,0.7,0,1
		c0.1,0.3,0.4,0.2,0.5,0c0.1-0.3,0.1-0.7,0-1c0-0.4-0.1-0.7-0.2-1.1c0,0,0,0,0,0c0.1-5.7-0.3-11.4-1.4-17c-0.5-2.8-1.2-5.6-2.3-8.2
		c-0.9-2.3-2-4.6-3-6.9c0.5,0.3,1.2,0.3,1.9-0.2c0.2-0.1,0.3-0.3,0.5-0.5c0.7,1.6,2,2.8,3.8,2.6c0.9-0.1,1.3-0.7,1.4-1.4
		c0.6,0.5,1.3,0.8,2.1,0.7c0.9,0,1.7-0.6,2.2-1.3c0.5,0.8,1.3,1.4,2.3,1.6c1.1,0.3,1.9-0.1,2.4-0.7c0.2,0.4,0.5,0.7,0.9,0.9
		c0.3,0.1,0.6,0.1,0.9,0.1c-0.6,1.4-1.1,2.9-1.5,4.4c-0.8,3.4-1.6,6.7-2.3,10.1c-0.6,3.1-1.3,6.3-1.7,9.5c-0.3,2.6-0.8,5.8-0.2,8.4
		c0.1,0.5,0.8,0.3,0.7-0.2c-0.6-2.5-0.1-5.6,0.2-8.2c0.4-3.3,1-6.6,1.7-9.8c0.7-3.2,1.4-6.4,2.2-9.5c0.8-3,2.2-5.7,3.4-8.5
		c0,0,0,0,0,0l0,0c0,0,0-0.1,0-0.1C132.3,304.5,131.5,304.2,131.3,304.6z"/>
	<path fill="#6A9AD1" d="M616.5,259v-4.7l-14.2,1l-14.2-1v4.7c0,0.6,0.3,1.2,0.8,1.5c-0.5,0.3-0.8,0.9-0.8,1.5
		c0,0.6,0.3,1.2,0.8,1.5c-0.5,0.3-0.8,0.9-0.8,1.5c0,0.6,0.3,1.2,0.8,1.5c-0.5,0.3-0.8,0.9-0.8,1.5c0,0.6,0.3,1.2,0.8,1.5
		c-0.5,0.3-0.8,0.9-0.8,1.5c0,0.6,0.3,1.2,0.8,1.5c-0.5,0.3-0.8,0.9-0.8,1.5c0,0.6,0.3,1.2,0.8,1.5c-0.5,0.3-0.8,0.9-0.8,1.5
		c0,0.4,0.1,0.7,0.4,1c2.9,4.8,13.9,4,13.9,4s11,0.8,13.9-4c0.2-0.3,0.4-0.6,0.4-1c0-0.6-0.3-1.2-0.8-1.5c0.5-0.3,0.8-0.9,0.8-1.5
		c0-0.6-0.3-1.2-0.8-1.5c0.5-0.3,0.8-0.9,0.8-1.5c0-0.6-0.3-1.2-0.8-1.5c0.5-0.3,0.8-0.9,0.8-1.5c0-0.6-0.3-1.2-0.8-1.5
		c0.5-0.3,0.8-0.9,0.8-1.5c0-0.6-0.3-1.2-0.8-1.5c0.5-0.3,0.8-0.9,0.8-1.5c0-0.6-0.3-1.2-0.8-1.5C616.2,260.1,616.5,259.6,616.5,259
		z"/>
	<path fill="#395B88" d="M602.3,281.8c0,0-4.4,0.3-8.4-0.7c1.1,2,4.5,3.5,8.4,3.5s7.3-1.5,8.4-3.5
		C606.8,282.1,602.3,281.8,602.3,281.8z"/>
	<circle fill="#FAA41A" cx="602.3" cy="201.5" r="37.7"/>
	<path fill="#FAA41A" d="M575.6,228.2c0,0,8,8.4,8,16.8c0,8.4,2.6,10.2,10.9,10.3h7.8h7.8c8.3-0.1,10.9-1.9,10.9-10.3
		c0-8.4,8-16.8,8-16.8H575.6z"/>
	<path fill="#4E2F1B" d="M619.9,196.5c-0.9,1.7-1.4,3.7-2.7,5.2c-1.3,1.4-1.9-0.3-2.1-1.5c0.5-1.3,0.7-2.9,0.6-4.2
		c0-0.6-1-1-1.3-0.3c-0.5,1.2-1,2.9-0.8,4.5c-0.6,1.2-1.7,1.9-3.6,1.4c-1.3-0.3-2.3-1.3-2.8-2.6c0.7-1.9,0.7-4.1-0.4-5.6
		c-0.4-0.5-1-0.4-1.3,0.2c-0.6,1.7-0.5,3.7,0.2,5.4c-0.7,1.2-1.9,2.1-3.3,2.2c-1.2,0-2.1-0.7-2.8-1.6c-0.1-2-0.7-4.1-1.1-5.1
		c-0.2-0.6-1.2-0.7-1.3,0c-0.3,1.9,0.1,4,1.1,5.6c0,0.9-0.3,1.8-0.9,2.2c-1.8,1.3-4.3-1.8-5-3.1c-0.2-0.4-0.4-0.8-0.5-1.2
		c0.7-1.7,0.7-3.7-0.1-5.1c-0.3-0.5-1-0.3-1.2,0.2c-0.6,1.5-0.6,3.2-0.2,4.9c-1,1.7-2.7,2.6-4,0.5c0-0.1,0-0.3-0.1-0.4
		c0-0.1-0.1-0.1-0.1-0.2c-0.1-0.1-0.3-0.2-0.4-0.1c0,0,0,0,0,0c-0.2,0.1-0.4,0.3-0.3,0.5c-0.3,0.2-0.4,0.5-0.3,0.9
		c4.1,8.4,7.6,16.7,9.5,25.9c0.9,4.6,1.6,9.2,1.9,13.9c0.3,4.8,0.1,9.6,0.5,14.3c0,0.1,0,0.1,0.1,0.2c0,0.1,0,0.3,0,0.4
		c0,0.6,0,1.1,0.1,1.7c0.1,0.5,0.7,0.4,0.8,0c0.2-0.5,0.1-1.1,0-1.7c-0.1-0.6-0.2-1.2-0.3-1.7c0,0,0,0,0,0
		c0.2-9.2-0.4-18.3-2.2-27.4c-0.9-4.5-2-8.9-3.7-13.2c-1.5-3.7-3.2-7.4-4.8-11.1c0.9,0.5,2,0.5,3.1-0.3c0.3-0.2,0.5-0.5,0.8-0.8
		c1.1,2.5,3.3,4.5,6.1,4.3c1.4-0.1,2.1-1.1,2.3-2.3c0.9,0.8,2,1.2,3.4,1.2c1.5,0,2.7-0.9,3.5-2.1c0.9,1.3,2.1,2.3,3.7,2.6
		c1.8,0.4,3.1-0.1,3.9-1.1c0.3,0.6,0.8,1.1,1.5,1.4c0.5,0.2,1,0.2,1.4,0.1c-1,2.3-1.8,4.6-2.4,7.1c-1.3,5.4-2.6,10.8-3.7,16.3
		c-1,5.1-2.1,10.1-2.7,15.2c-0.6,4.2-1.3,9.3-0.3,13.5c0.2,0.8,1.4,0.4,1.2-0.3c-1-4.1-0.2-9,0.3-13.1c0.6-5.3,1.7-10.6,2.8-15.8
		c1.1-5.1,2.3-10.3,3.6-15.3c1.3-4.8,3.5-9.2,5.4-13.7c0,0,0,0,0,0l0,0c0-0.1,0-0.1,0.1-0.2C621.4,196.3,620.2,195.8,619.9,196.5z"
		/>
	<path fill="#6A9AD1" d="M247.4,150.6v-3.5l-10.5,0.8l-10.5-0.8v3.5c0,0.5,0.2,0.9,0.6,1.1c-0.4,0.2-0.6,0.6-0.6,1.1
		s0.2,0.9,0.6,1.1c-0.4,0.2-0.6,0.6-0.6,1.1c0,0.5,0.2,0.9,0.6,1.1c-0.4,0.2-0.6,0.6-0.6,1.1c0,0.5,0.2,0.9,0.6,1.1
		c-0.4,0.2-0.6,0.6-0.6,1.1c0,0.5,0.2,0.9,0.6,1.1c-0.4,0.2-0.6,0.6-0.6,1.1s0.2,0.9,0.6,1.1c-0.4,0.2-0.6,0.6-0.6,1.1
		c0,0.3,0.1,0.6,0.3,0.8c2.1,3.5,10.2,2.9,10.2,2.9s8.1,0.6,10.2-2.9c0.2-0.2,0.3-0.5,0.3-0.8c0-0.5-0.2-0.9-0.6-1.1
		c0.4-0.2,0.6-0.6,0.6-1.1s-0.2-0.9-0.6-1.1c0.4-0.2,0.6-0.6,0.6-1.1c0-0.5-0.2-0.9-0.6-1.1c0.4-0.2,0.6-0.6,0.6-1.1
		c0-0.5-0.2-0.9-0.6-1.1c0.4-0.2,0.6-0.6,0.6-1.1c0-0.5-0.2-0.9-0.6-1.1c0.4-0.2,0.6-0.6,0.6-1.1s-0.2-0.9-0.6-1.1
		C247.1,151.4,247.4,151,247.4,150.6z"/>
	<path fill="#395B88" d="M236.9,167.3c0,0-3.3,0.2-6.2-0.5c0.8,1.5,3.3,2.6,6.2,2.6s5.3-1.1,6.2-2.6
		C240.2,167.6,236.9,167.3,236.9,167.3z"/>
	<circle fill="#FAA41A" cx="236.9" cy="108.3" r="27.8"/>
	<path fill="#FAA41A" d="M217.3,128c0,0,5.9,6.1,5.9,12.3c0,6.2,1.9,7.5,8,7.6h5.7h5.7c6.1-0.1,8-1.4,8-7.6c0-6.2,5.9-12.3,5.9-12.3
		H217.3z"/>
	<path fill="#4E2F1B" d="M249.8,104.6c-0.7,1.3-1,2.8-2,3.9c-0.9,1-1.4-0.2-1.6-1.1c0.4-1,0.5-2.1,0.5-3.1c0-0.5-0.7-0.7-0.9-0.3
		c-0.4,0.9-0.7,2.2-0.6,3.3c-0.5,0.9-1.3,1.4-2.6,1.1c-1-0.2-1.7-1-2.1-1.9c0.5-1.4,0.5-3-0.3-4.1c-0.3-0.4-0.8-0.3-0.9,0.1
		c-0.5,1.3-0.4,2.7,0.1,4c-0.5,0.9-1.4,1.6-2.4,1.6c-0.9,0-1.6-0.5-2-1.2c-0.1-1.4-0.5-3-0.8-3.8c-0.2-0.4-0.9-0.5-1,0
		c-0.2,1.4,0.1,2.9,0.8,4.1c0,0.7-0.2,1.3-0.7,1.6c-1.3,0.9-3.1-1.4-3.6-2.2c-0.2-0.3-0.3-0.6-0.4-0.9c0.5-1.2,0.5-2.8,0-3.8
		c-0.2-0.4-0.7-0.2-0.9,0.1c-0.4,1.1-0.4,2.4-0.1,3.6c-0.7,1.3-2,1.9-2.9,0.3c0-0.1,0-0.2-0.1-0.3c0,0-0.1-0.1-0.1-0.1
		c-0.1-0.1-0.2-0.1-0.3-0.1c0,0,0,0,0,0c-0.2,0-0.3,0.2-0.2,0.4c-0.2,0.1-0.3,0.4-0.2,0.6c3,6.2,5.6,12.3,7,19.1
		c0.7,3.4,1.2,6.8,1.4,10.2c0.2,3.5,0.1,7,0.4,10.5c0,0.1,0,0.1,0.1,0.1c0,0.1,0,0.2,0,0.3c0,0.4,0,0.8,0,1.2c0.1,0.3,0.5,0.3,0.6,0
		c0.1-0.4,0.1-0.8,0-1.2c0-0.4-0.1-0.9-0.2-1.3c0,0,0,0,0,0c0.1-6.8-0.3-13.5-1.6-20.2c-0.6-3.3-1.4-6.6-2.7-9.7
		c-1.1-2.7-2.3-5.5-3.5-8.2c0.6,0.4,1.4,0.4,2.3-0.2c0.2-0.2,0.4-0.3,0.6-0.6c0.8,1.8,2.4,3.3,4.5,3.1c1-0.1,1.5-0.8,1.7-1.7
		c0.7,0.6,1.5,0.9,2.5,0.9c1.1,0,2-0.7,2.6-1.5c0.6,0.9,1.6,1.7,2.7,1.9c1.3,0.3,2.2-0.1,2.9-0.8c0.2,0.5,0.6,0.8,1.1,1.1
		c0.4,0.2,0.7,0.2,1,0.1c-0.7,1.7-1.3,3.4-1.8,5.2c-1,4-1.9,8-2.7,12c-0.7,3.7-1.5,7.4-2,11.2c-0.4,3.1-1,6.8-0.2,9.9
		c0.1,0.6,1,0.3,0.9-0.2c-0.7-3-0.1-6.7,0.2-9.7c0.4-3.9,1.2-7.8,2.1-11.7c0.8-3.8,1.7-7.5,2.7-11.3c0.9-3.5,2.6-6.7,4-10.1
		c0,0,0,0,0,0l0,0c0,0,0-0.1,0.1-0.1C251,104.5,250.1,104.1,249.8,104.6z"/>
	<path fill="#6A9AD1" d="M247.6,473.1v-4.6l-14,1l-14-1v4.6c0,0.6,0.3,1.2,0.8,1.5c-0.5,0.3-0.8,0.8-0.8,1.5s0.3,1.2,0.8,1.5
		c-0.5,0.3-0.8,0.8-0.8,1.5s0.3,1.2,0.8,1.5c-0.5,0.3-0.8,0.8-0.8,1.5c0,0.6,0.3,1.2,0.8,1.5c-0.5,0.3-0.8,0.8-0.8,1.5
		s0.3,1.2,0.8,1.5c-0.5,0.3-0.8,0.8-0.8,1.5c0,0.6,0.3,1.2,0.8,1.5c-0.5,0.3-0.8,0.8-0.8,1.5c0,0.4,0.1,0.7,0.3,1
		c2.9,4.7,13.7,3.9,13.7,3.9s10.8,0.8,13.7-3.9c0.2-0.3,0.3-0.6,0.3-1c0-0.6-0.3-1.2-0.8-1.5c0.5-0.3,0.8-0.8,0.8-1.5
		c0-0.6-0.3-1.2-0.8-1.5c0.5-0.3,0.8-0.8,0.8-1.5s-0.3-1.2-0.8-1.5c0.5-0.3,0.8-0.8,0.8-1.5c0-0.6-0.3-1.2-0.8-1.5
		c0.5-0.3,0.8-0.8,0.8-1.5s-0.3-1.2-0.8-1.5c0.5-0.3,0.8-0.8,0.8-1.5s-0.3-1.2-0.8-1.5C247.3,474.3,247.6,473.7,247.6,473.1z"/>
	<path fill="#395B88" d="M233.6,495.6c0,0-4.4,0.3-8.3-0.7c1.1,2,4.4,3.4,8.3,3.4s7.2-1.4,8.3-3.4
		C237.9,495.9,233.6,495.6,233.6,495.6z"/>
	<circle fill="#FAA41A" cx="233.6" cy="416.4" r="37.3"/>
	<path fill="#FAA41A" d="M207.2,442.7c0,0,7.9,8.3,7.9,16.6s2.6,10.1,10.8,10.2h7.7h7.7c8.2-0.1,10.8-1.9,10.8-10.2
		s7.9-16.6,7.9-16.6H207.2z"/>
	<path fill="#4E2F1B" d="M250.9,411.4c-0.9,1.7-1.3,3.7-2.7,5.2c-1.2,1.4-1.9-0.3-2.1-1.5c0.5-1.3,0.7-2.8,0.6-4.1
		c0-0.6-1-1-1.3-0.3c-0.5,1.1-0.9,2.9-0.8,4.5c-0.6,1.1-1.7,1.8-3.5,1.4c-1.3-0.3-2.2-1.3-2.8-2.5c0.7-1.9,0.7-4.1-0.4-5.5
		c-0.4-0.5-1-0.4-1.2,0.2c-0.6,1.7-0.5,3.6,0.2,5.3c-0.7,1.2-1.8,2.1-3.3,2.1c-1.2,0-2.1-0.7-2.7-1.6c-0.1-1.9-0.7-4-1-5
		c-0.2-0.6-1.2-0.7-1.3,0c-0.3,1.9,0.1,3.9,1.1,5.5c0,0.9-0.3,1.7-0.9,2.2c-1.7,1.2-4.2-1.8-4.9-3c-0.2-0.4-0.4-0.8-0.5-1.2
		c0.7-1.7,0.7-3.7-0.1-5.1c-0.3-0.5-1-0.3-1.2,0.2c-0.6,1.4-0.6,3.2-0.2,4.9c-1,1.7-2.7,2.6-3.9,0.4c0-0.1,0-0.2-0.1-0.4
		c0-0.1-0.1-0.1-0.1-0.2c-0.1-0.1-0.3-0.2-0.4-0.1c0,0,0,0,0,0c-0.2,0.1-0.4,0.3-0.3,0.5c-0.3,0.2-0.4,0.5-0.3,0.8
		c4,8.3,7.5,16.5,9.4,25.6c0.9,4.6,1.6,9.1,1.9,13.8c0.3,4.7,0.1,9.5,0.5,14.2c0,0.1,0,0.1,0.1,0.2c0,0.1,0,0.3,0,0.4
		c0,0.5,0,1.1,0.1,1.6c0.1,0.5,0.7,0.4,0.8,0c0.2-0.5,0.1-1.1,0-1.6c-0.1-0.6-0.2-1.1-0.3-1.7c0,0,0,0,0,0
		c0.2-9.1-0.4-18.1-2.2-27.1c-0.9-4.4-1.9-8.8-3.6-13c-1.5-3.7-3.1-7.3-4.8-11c0.9,0.5,1.9,0.5,3-0.3c0.3-0.2,0.5-0.5,0.8-0.8
		c1.1,2.5,3.2,4.4,6,4.2c1.4-0.1,2.1-1,2.3-2.3c0.9,0.8,2,1.2,3.4,1.2c1.5,0,2.7-0.9,3.5-2.1c0.9,1.3,2.1,2.2,3.7,2.6
		c1.8,0.4,3-0.1,3.9-1.1c0.3,0.6,0.8,1.1,1.5,1.4c0.5,0.2,0.9,0.2,1.4,0.1c-0.9,2.3-1.8,4.6-2.4,7c-1.3,5.3-2.5,10.7-3.6,16.1
		c-1,5-2,10-2.7,15c-0.5,4.1-1.3,9.2-0.3,13.3c0.2,0.8,1.3,0.4,1.2-0.3c-1-4-0.2-8.9,0.3-13c0.6-5.3,1.6-10.5,2.8-15.7
		c1.1-5.1,2.2-10.1,3.6-15.1c1.3-4.7,3.5-9.1,5.4-13.6c0,0,0,0,0,0c0,0,0,0,0,0c0-0.1,0-0.1,0.1-0.2
		C252.4,411.2,251.2,410.7,250.9,411.4z"/>
	<path fill="#6A9AD1" d="M723.3,493.6v-6l-18.3,1.3l-18.3-1.3v6c0,0.8,0.4,1.5,1.1,1.9c-0.6,0.4-1.1,1.1-1.1,1.9
		c0,0.8,0.4,1.5,1.1,1.9c-0.6,0.4-1.1,1.1-1.1,1.9s0.4,1.5,1.1,1.9c-0.6,0.4-1.1,1.1-1.1,1.9c0,0.8,0.4,1.5,1.1,1.9
		c-0.6,0.4-1.1,1.1-1.1,1.9s0.4,1.5,1.1,1.9c-0.6,0.4-1.1,1.1-1.1,1.9s0.4,1.5,1.1,1.9c-0.6,0.4-1.1,1.1-1.1,1.9
		c0,0.5,0.2,1,0.5,1.3c3.7,6.2,17.9,5.1,17.9,5.1s14.1,1,17.9-5.1c0.3-0.4,0.5-0.8,0.5-1.3c0-0.8-0.4-1.5-1.1-1.9
		c0.6-0.4,1.1-1.1,1.1-1.9s-0.4-1.5-1.1-1.9c0.6-0.4,1.1-1.1,1.1-1.9s-0.4-1.5-1.1-1.9c0.6-0.4,1.1-1.1,1.1-1.9
		c0-0.8-0.4-1.5-1.1-1.9c0.6-0.4,1.1-1.1,1.1-1.9s-0.4-1.5-1.1-1.9c0.6-0.4,1.1-1.1,1.1-1.9c0-0.8-0.4-1.5-1.1-1.9
		C722.9,495.1,723.3,494.4,723.3,493.6z"/>
	<path fill="#395B88" d="M705,522.9c0,0-5.7,0.4-10.8-0.9c1.5,2.6,5.8,4.5,10.8,4.5s9.4-1.9,10.8-4.5
		C710.7,523.3,705,522.9,705,522.9z"/>
	<circle fill="#FAA41A" cx="705" cy="419.6" r="48.6"/>
	<path fill="#FAA41A" d="M670.6,454c0,0,10.3,10.8,10.3,21.6c0,10.8,3.4,13.1,14,13.3h10h10c10.6-0.2,14-2.5,14-13.3
		c0-10.8,10.3-21.6,10.3-21.6H670.6z"/>
	<path fill="#4E2F1B" d="M727.6,413.1c-1.2,2.2-1.8,4.8-3.5,6.8c-1.6,1.8-2.5-0.4-2.8-2c0.6-1.7,0.9-3.7,0.8-5.4
		c0-0.8-1.3-1.3-1.6-0.4c-0.7,1.5-1.2,3.8-1,5.8c-0.8,1.5-2.2,2.4-4.6,1.8c-1.7-0.4-2.9-1.7-3.7-3.3c0.9-2.4,0.9-5.3-0.5-7.2
		c-0.5-0.6-1.3-0.6-1.6,0.2c-0.8,2.2-0.7,4.7,0.2,6.9c-0.9,1.6-2.4,2.7-4.3,2.8c-1.6,0-2.8-0.8-3.6-2.1c-0.1-2.5-0.9-5.2-1.4-6.6
		c-0.3-0.7-1.6-1-1.7,0c-0.3,2.4,0.2,5.1,1.4,7.1c0,1.2-0.3,2.3-1.2,2.8c-2.3,1.6-5.5-2.4-6.4-3.9c-0.3-0.5-0.5-1-0.7-1.5
		c0.9-2.2,0.9-4.8-0.1-6.6c-0.4-0.7-1.3-0.4-1.5,0.2c-0.8,1.9-0.8,4.2-0.2,6.4c-1.2,2.2-3.5,3.4-5.1,0.6c0-0.2,0-0.3-0.1-0.5
		c-0.1-0.1-0.1-0.1-0.2-0.2c-0.1-0.2-0.4-0.2-0.6-0.2c0,0,0,0,0,0c-0.3,0.1-0.5,0.4-0.4,0.7c-0.3,0.2-0.6,0.6-0.3,1.1
		c5.3,10.8,9.8,21.6,12.2,33.4c1.2,5.9,2.1,11.9,2.5,17.9c0.4,6.1,0.2,12.3,0.7,18.5c0,0.1,0,0.2,0.1,0.2c0,0.2,0,0.4,0,0.6
		c0,0.7-0.1,1.4,0.1,2.1c0.1,0.6,0.9,0.5,1.1,0c0.3-0.7,0.1-1.5,0-2.1c-0.1-0.8-0.2-1.5-0.4-2.2c0,0,0,0,0,0
		c0.3-11.9-0.6-23.6-2.8-35.3c-1.1-5.8-2.5-11.5-4.7-17c-1.9-4.8-4.1-9.5-6.2-14.3c1.1,0.7,2.5,0.7,3.9-0.4c0.4-0.3,0.7-0.6,1-1
		c1.4,3.2,4.2,5.7,7.8,5.5c1.8-0.1,2.7-1.4,3-3c1.2,1,2.6,1.6,4.4,1.5c1.9-0.1,3.5-1.2,4.5-2.7c1.1,1.7,2.8,2.9,4.8,3.4
		c2.3,0.5,3.9-0.2,5-1.5c0.4,0.8,1,1.5,2,1.9c0.6,0.3,1.2,0.3,1.8,0.2c-1.2,3-2.3,6-3.1,9.1c-1.7,7-3.3,13.9-4.7,21
		c-1.3,6.5-2.6,13-3.5,19.6c-0.7,5.4-1.7,11.9-0.4,17.3c0.2,1,1.8,0.6,1.5-0.4c-1.3-5.2-0.2-11.6,0.3-16.9
		c0.8-6.9,2.1-13.7,3.6-20.4c1.4-6.6,2.9-13.2,4.7-19.7c1.6-6.2,4.5-11.8,7-17.7c0,0,0,0,0,0c0,0,0,0,0,0c0-0.1,0.1-0.1,0.1-0.2
		C729.6,412.9,728,412.3,727.6,413.1z"/>
	<path fill="#6A9AD1" d="M468.3,106.6v-2.9l-8.9,0.6l-8.9-0.6v2.9c0,0.4,0.2,0.7,0.5,0.9c-0.3,0.2-0.5,0.5-0.5,0.9s0.2,0.7,0.5,0.9
		c-0.3,0.2-0.5,0.5-0.5,0.9s0.2,0.7,0.5,0.9c-0.3,0.2-0.5,0.5-0.5,0.9c0,0.4,0.2,0.7,0.5,0.9c-0.3,0.2-0.5,0.5-0.5,0.9
		s0.2,0.7,0.5,0.9c-0.3,0.2-0.5,0.5-0.5,0.9c0,0.4,0.2,0.7,0.5,0.9c-0.3,0.2-0.5,0.5-0.5,0.9c0,0.2,0.1,0.5,0.2,0.6
		c1.8,3,8.6,2.5,8.6,2.5s6.8,0.5,8.6-2.5c0.1-0.2,0.2-0.4,0.2-0.6c0-0.4-0.2-0.7-0.5-0.9c0.3-0.2,0.5-0.5,0.5-0.9
		c0-0.4-0.2-0.7-0.5-0.9c0.3-0.2,0.5-0.5,0.5-0.9s-0.2-0.7-0.5-0.9c0.3-0.2,0.5-0.5,0.5-0.9c0-0.4-0.2-0.7-0.5-0.9
		c0.3-0.2,0.5-0.5,0.5-0.9s-0.2-0.7-0.5-0.9c0.3-0.2,0.5-0.5,0.5-0.9s-0.2-0.7-0.5-0.9C468.1,107.3,468.3,106.9,468.3,106.6z"/>
	<path fill="#395B88" d="M459.4,120.7c0,0-2.8,0.2-5.2-0.4c0.7,1.3,2.8,2.2,5.2,2.2c2.5,0,4.5-0.9,5.2-2.2
		C462.2,120.9,459.4,120.7,459.4,120.7z"/>
	<circle fill="#FAA41A" cx="459.4" cy="70.8" r="23.5"/>
	<path fill="#FAA41A" d="M442.8,87.4c0,0,5,5.2,5,10.4c0,5.2,1.6,6.3,6.8,6.4h4.8h4.8c5.1-0.1,6.8-1.2,6.8-6.4c0-5.2,5-10.4,5-10.4
		H442.8z"/>
	<path fill="#4E2F1B" d="M470.3,67.7c-0.6,1.1-0.8,2.3-1.7,3.3c-0.8,0.9-1.2-0.2-1.3-1c0.3-0.8,0.4-1.8,0.4-2.6
		c0-0.4-0.6-0.6-0.8-0.2c-0.3,0.7-0.6,1.8-0.5,2.8c-0.4,0.7-1.1,1.2-2.2,0.9c-0.8-0.2-1.4-0.8-1.8-1.6c0.5-1.2,0.4-2.6-0.3-3.5
		c-0.2-0.3-0.6-0.3-0.8,0.1c-0.4,1.1-0.3,2.3,0.1,3.4c-0.4,0.8-1.2,1.3-2.1,1.3c-0.8,0-1.3-0.4-1.7-1c-0.1-1.2-0.4-2.5-0.7-3.2
		c-0.1-0.4-0.8-0.5-0.8,0c-0.2,1.2,0.1,2.5,0.7,3.5c0,0.6-0.2,1.1-0.6,1.4c-1.1,0.8-2.7-1.2-3.1-1.9c-0.1-0.2-0.2-0.5-0.3-0.7
		c0.4-1,0.4-2.3,0-3.2c-0.2-0.3-0.6-0.2-0.7,0.1c-0.4,0.9-0.4,2-0.1,3.1c-0.6,1.1-1.7,1.6-2.5,0.3c0-0.1,0-0.2-0.1-0.2
		c0,0-0.1-0.1-0.1-0.1c-0.1-0.1-0.2-0.1-0.3-0.1c0,0,0,0,0,0c-0.1,0-0.2,0.2-0.2,0.3c-0.2,0.1-0.3,0.3-0.2,0.5
		c2.5,5.2,4.8,10.4,5.9,16.2c0.6,2.9,1,5.7,1.2,8.7c0.2,3,0.1,6,0.3,8.9c0,0,0,0.1,0,0.1c0,0.1,0,0.2,0,0.3c0,0.3,0,0.7,0,1
		c0.1,0.3,0.4,0.2,0.5,0c0.1-0.3,0.1-0.7,0-1c0-0.4-0.1-0.7-0.2-1.1c0,0,0,0,0,0c0.1-5.7-0.3-11.4-1.4-17.1
		c-0.5-2.8-1.2-5.6-2.3-8.2c-0.9-2.3-2-4.6-3-6.9c0.5,0.3,1.2,0.3,1.9-0.2c0.2-0.1,0.3-0.3,0.5-0.5c0.7,1.6,2,2.8,3.8,2.6
		c0.9-0.1,1.3-0.7,1.5-1.5c0.6,0.5,1.3,0.8,2.1,0.7c0.9,0,1.7-0.6,2.2-1.3c0.5,0.8,1.3,1.4,2.3,1.6c1.1,0.3,1.9-0.1,2.4-0.7
		c0.2,0.4,0.5,0.7,0.9,0.9c0.3,0.1,0.6,0.1,0.9,0.1c-0.6,1.4-1.1,2.9-1.5,4.4c-0.8,3.4-1.6,6.7-2.3,10.1c-0.6,3.1-1.3,6.3-1.7,9.5
		c-0.3,2.6-0.8,5.8-0.2,8.4c0.1,0.5,0.8,0.3,0.7-0.2c-0.6-2.5-0.1-5.6,0.2-8.2c0.4-3.3,1-6.6,1.7-9.9c0.7-3.2,1.4-6.4,2.2-9.5
		c0.8-3,2.2-5.7,3.4-8.5c0,0,0,0,0,0l0,0c0,0,0-0.1,0-0.1C471.3,67.6,470.6,67.3,470.3,67.7z"/>
</g>
</svg>
