<?xml version="1.0" encoding="utf-8"?>
<!-- Generator: Adobe Illustrator 18.0.0, SVG Export Plug-In . SVG Version: 6.00 Build 0)  -->
<!DOCTYPE svg PUBLIC "-//W3C//DTD SVG 1.1//EN" "http://www.w3.org/Graphics/SVG/1.1/DTD/svg11.dtd">
<svg version="1.1" xmlns="http://www.w3.org/2000/svg" xmlns:xlink="http://www.w3.org/1999/xlink" x="0px" y="0px" width="792px"
	 height="612px" viewBox="0 0 792 612" enable-background="new 0 0 792 612" xml:space="preserve">
<g id="Layer_2" display="none">
	<circle display="inline" fill="#FAA41A" cx="396" cy="306" r="80"/>
</g>
<g id="Layer_1">
	<g>
		<defs>
			<path id="SVGID_3_" d="M63.1,43v524.6h663.6V43H63.1z M396,386c-44.2,0-80-35.8-80-80c0-44.2,35.8-80,80-80c44.2,0,80,35.8,80,80
				C476,350.2,440.2,386,396,386z"/>
		</defs>
		<clipPath id="SVGID_2_">
			<use xlink:href="#SVGID_3_"  overflow="visible"/>
		</clipPath>
		<line clip-path="url(#SVGID_2_)" fill="none" stroke="#6A9AD1" stroke-miterlimit="10" x1="316" y1="50.5" x2="316" y2="561.5"/>
		<line clip-path="url(#SVGID_2_)" fill="none" stroke="#6A9AD1" stroke-miterlimit="10" x1="396" y1="50.5" x2="396" y2="561.5"/>
		<line clip-path="url(#SVGID_2_)" fill="none" stroke="#6A9AD1" stroke-miterlimit="10" x1="476" y1="50.5" x2="476" y2="561.5"/>
		<line clip-path="url(#SVGID_2_)" fill="none" stroke="#6A9AD1" stroke-miterlimit="10" x1="556" y1="50.5" x2="556" y2="561.5"/>
		<line clip-path="url(#SVGID_2_)" fill="none" stroke="#6A9AD1" stroke-miterlimit="10" x1="636" y1="50.5" x2="636" y2="561.5"/>
		<line clip-path="url(#SVGID_2_)" fill="none" stroke="#6A9AD1" stroke-miterlimit="10" x1="716" y1="50.5" x2="716" y2="561.5"/>
		<line clip-path="url(#SVGID_2_)" fill="none" stroke="#6A9AD1" stroke-miterlimit="10" x1="236" y1="50.5" x2="236" y2="561.5"/>
		<line clip-path="url(#SVGID_2_)" fill="none" stroke="#6A9AD1" stroke-miterlimit="10" x1="156" y1="50.5" x2="156" y2="561.5"/>
		<line clip-path="url(#SVGID_2_)" fill="none" stroke="#6A9AD1" stroke-miterlimit="10" x1="76" y1="50.5" x2="76" y2="561.5"/>
		<line clip-path="url(#SVGID_2_)" fill="none" stroke="#6A9AD1" stroke-miterlimit="10" x1="716" y1="226" x2="76" y2="226"/>
		<line clip-path="url(#SVGID_2_)" fill="none" stroke="#6A9AD1" stroke-miterlimit="10" x1="716" y1="306" x2="76" y2="306"/>
		<line clip-path="url(#SVGID_2_)" fill="none" stroke="#6A9AD1" stroke-miterlimit="10" x1="716" y1="386" x2="76" y2="386"/>
		<line clip-path="url(#SVGID_2_)" fill="none" stroke="#6A9AD1" stroke-miterlimit="10" x1="716" y1="466" x2="76" y2="466"/>
		<line clip-path="url(#SVGID_2_)" fill="none" stroke="#6A9AD1" stroke-miterlimit="10" x1="716" y1="546" x2="76" y2="546"/>
		<line clip-path="url(#SVGID_2_)" fill="none" stroke="#6A9AD1" stroke-miterlimit="10" x1="716" y1="146" x2="76" y2="146"/>
		<line clip-path="url(#SVGID_2_)" fill="none" stroke="#6A9AD1" stroke-miterlimit="10" x1="716" y1="66" x2="76" y2="66"/>
		<g clip-path="url(#SVGID_2_)">
			<circle fill="#FAA41A" cx="636" cy="306" r="80"/>
			<path fill="#4E2F1B" d="M717,302C717,302,717,301.9,717,302c0.1-0.7-0.2-1.2-0.5-1.5c0-0.1,0-0.2,0-0.3c0.1-0.9-0.4-1.5-1.1-1.8
				c-0.1-0.4-0.1-0.8-0.2-1.2c-0.4-2.4-4.6-1.9-4.3,0.6c0.2,1.5,0.3,2.9,0.4,4.4c-0.6,0.2-1.1,0.6-1.3,1.2c-1.8,6-3.4,12-4.7,18
				c-0.1,0.3-0.2,0.6-0.2,0.9c0,0,0,0.1,0,0.1c0,0,0,0,0,0c0,0.2-0.1,0.4,0,0.6c-0.2,2.6-0.4,5.3-0.9,7.9c-0.1,0.2-0.2,0.4-0.3,0.6
				c-1,2.9-1.8,6.6-2.7,10.2c-2.3,5.5-5.9,10.4-11.5,13.7c-8.8-0.2-16.6-4-24.9-6.3c-2.3-0.6-4.6-0.9-6.9-1c-4.5-2.1-9.2-3.6-14.2-4
				c-4.7-0.4-9.7,1-14.2,2.1c-8.5,2-18.9,5.2-28.8,6c-5.1-0.4-9.8-2-14.5-4.8c-5.4-3.3-10.4-7.2-16.1-10.1c-1.7-4.1-4-8-6.5-11.7
				c0.1-0.2,0.1-0.5,0.1-0.8c-0.5-5.4-1.2-10.8-2.6-16.1c0.1-6.9,0.5-13.7-0.5-20.5c-0.2-1.2-2-1.1-2.3,0c-0.4,1.9-0.8,3.7-1.1,5.6
				c-0.4,0.1-0.7,0.3-0.9,0.7c-2.7,5.7-3.6,12.2-3.4,18.6c-0.1,0.3-0.2,0.7-0.1,1.1c0,0.1,0.1,0.3,0.1,0.4c0.1,1.9,0.3,3.8,0.6,5.7
				c0.1,0.9,1.1,1.3,2,1.1c0.5,1.3,1.1,2.6,1.7,3.9c0.2,9.5,3.6,20,10.1,26.8c2,4.2,6.3,7.9,9.9,10.7c4.2,4.8,9.2,9.2,14.5,12.5
				c6.2,6.8,15.4,10.4,24.8,13.1c2.3,1.9,5.1,3.2,8.2,4c0.2,0.1,0.3,0.3,0.5,0.4c1.9,2.1,4.1,3.8,6.5,5.1c0,0,0.1,0,0.1,0
				c2,1,4.1,1.7,6.3,2c0.1,0.2,0.1,0.3,0.1,0.5c0.8,2.7,4.6,2.1,4.8-0.6c0,0,0,0,0-0.1c0,0,0.1,0,0.1,0c0.9-0.2,1.5-0.9,1.7-1.8
				c1,0,1.9-0.7,2.3-1.7c1.1-0.4,2.3-0.7,3.4-1.1c0.9,0.4,2,0.3,2.7-0.3c0.9,0.2,1.9-0.1,2.4-1.2c0.6-1.4,1.4-2.8,2.1-4.3
				c0.1,0,0.1-0.1,0.2-0.2c0.5,0,1-0.2,1.3-0.6c1-0.4,2.1-0.9,3.1-1.4c1.3-0.6,2.4-1.4,3.6-2.2c6.3-2.4,12.2-5.6,17.8-9.3
				c15.5-10.2,31.1-26.1,31.1-45.7c1.5-6.8,1.9-13.7,1.7-20.6c0-0.3,0.1-0.6,0.1-0.8c0.4-1.6,0.6-3.2,0.9-4.9
				C717.5,303,717.3,302.4,717,302z M624.4,353c0-0.1-0.1-0.1-0.1-0.2c0.4-0.1,0.8-0.2,1.2-0.3c0.8-0.2,1.7-0.4,2.5-0.7
				c0,0.1,0,0.1,0.1,0.2C626.9,352.3,625.6,352.6,624.4,353z"/>
			<path fill="#4E2F1B" d="M631.5,291.4c-0.9-4.6-6-7.7-10.1-5.9c-4.1,0.2-7.9,3.8-8.7,7.7c-0.9,4.1,1.4,7.8,4.7,10
				c1.8,2.2,4.6,3.4,7.6,2.6c0.2-0.1,0.4-0.1,0.6-0.2c4.5-0.4,6-4.4,5.8-8.6C631.9,295,631.9,293,631.5,291.4z"/>
			<path fill="#4E2F1B" d="M656,296.4c0.2-3.4-1.5-6.8-4.5-9c-0.4-0.3-0.8-0.5-1.2-0.7c-2.3-1.7-5.1-2.1-7.1,0.9
				c-0.2,0.3-0.4,0.7-0.6,1.1c-0.2,0.2-0.5,0.3-0.7,0.6c-1.5,1.4-2.1,3.5-2.2,5.6c-0.3,1.2-0.3,2.5,0.1,3.8c0,0.1,0,0.3,0.1,0.4
				c0.6,3.5,2.4,7.4,6,8.6c4.6,1.5,9.4-1.5,10.5-6.1C656.6,299.9,656.5,298.1,656,296.4z"/>
			<path fill="#4E2F1B" d="M639.3,323c-2.8,0.8-14.8,7.7-15.2,1.2c-0.1-2.3,1.1-4.9,2-6.8c0.4-1,1-1.9,1.5-2.8
				c0.2-0.4,0.5-0.7,0.8-1.1c0.9,0.4,1.8-0.7,1.4-1.7c-1.3-3.1-4.2-1.1-5.6,0.8c-2.4,3.1-3.9,7.3-4.4,11.1c-0.5,3.7,2.7,7.3,6.2,7.8
				c5,0.7,10-2.3,14.6-3.9C643.4,326.6,642.2,322.1,639.3,323z"/>
			<path fill="#4E2F1B" d="M706.5,236.1C706.5,236.1,706.5,236.1,706.5,236.1c0.3-0.8,0-1.5-0.5-2c0-0.1,0-0.2-0.1-0.3
				c0-0.5,0-0.9,0-1.4c0-0.7-0.3-1.2-0.7-1.5c-1.8-8-3.2-16.2-7-23.5c-0.4-0.8-1.1-1.1-1.8-1c-1.5-2.3-3.2-4.4-5.4-6.1
				c-13.3-10.2-32.3-8.2-48.3-5.5c0-0.7-0.4-1.4-1.2-1.6c-0.8-0.2-1.6-0.3-2.4-0.5c0.1-1-0.4-2.1-1.7-2.2c-1.4,0-2.9-0.1-4.3-0.2
				c-1.5-0.1-2.2,1.4-1.8,2.5c-1-0.1-2.1-0.3-3.1-0.4c-1.4-0.2-2.2,1-2.2,2.2c-9.7-0.3-19.7,1-28,4.8c-14.9,6.9-17.6,27.5-16.2,42
				c0.1,0.7,0.4,1.3,0.9,1.6c-0.8,0.4-1.6,0.9-2.3,1.4c-0.4-0.2-0.9-0.3-1.4,0c-10.9,4.6-25.6,11-31.4,22c-0.4,0-0.9,0.3-1.1,0.7
				c-0.6,1.4-1,2.6-1.2,3.9c-0.7,0-1.5,0.4-1.8,1.3c-1,2.6-1.4,4,0.2,6.4c0.5,0.7,1.3,1.1,2.2,0.9c0.1,0,0.2-0.1,0.3-0.1
				c0.1,0.1,0.3,0.1,0.5,0.1c-0.1,1.2,2,1.7,2.4,0.3c0.1-0.4,0.2-0.8,0.3-1.2c0,0,0.1-0.1,0.1-0.1c0.1-0.3,0.3-0.7,0.5-1
				c2.1-1.5,3.8-3.5,5.6-5.7c3.8-4.7,8.3-8.3,13.8-10.8c11.3-5.2,24.1-9.4,36.5-11.9c2-0.2,4-0.3,6-0.4c6.2-0.4,12.9-0.7,19.5-0.5
				c16.7,2.7,31.4,12.4,40.2,28.2c-0.1,0.2-0.2,0.4-0.3,0.7c-0.6,1.2,0.9,2.5,1.9,1.5c0.3-0.3,0.7-0.6,1-0.9
				c1.1,0.4,2.5-0.8,2.3-2.1c0.2-0.2,0.4-0.3,0.5-0.5c0.5-0.5,0-1.2-0.6-1.1c0.2-0.3,0.4-0.5,0.5-0.8c3.2-4.1,6.8-7.8,10.7-11.2
				c2.3-1.4,4.6-2.8,6.6-4.7c0.5-0.5,0.9-1,1.3-1.6c0.2-0.1,0.4-0.3,0.5-0.4c0.5,0.5,1.3,0.7,2,0.5c0.4-0.1,0.9-0.2,1.3-0.2
				c0,0.1,0,0.2,0,0.2c0.2,1.1,2,1.2,2.3,0.2c0.7,0.2,1.3,0.4,1.9,0.4c2,0.2,2.7-2.5,1.6-3.7c0.4-0.3,0.6-0.8,0.6-1.5
				c0-1,0-1.9,0-2.9c0-0.4-0.1-0.7-0.2-1c-0.2-1.9-0.3-3.8-0.4-5.7c0.4-1.2,0.7-2.5,1.1-3.7C706.4,237.8,706.7,237,706.5,236.1
				C706.5,236.2,706.5,236.1,706.5,236.1z M586.7,228c0-0.3,0.1-0.5,0.1-0.7c0.2-1.1,0.3-2.2,0.5-3.4c1.2-6.6,3.7-12.8,8.5-17
				c4.9-2.1,11.9-2.2,15.9-2.8c7.1-1,14.2-2.6,21.3-4c4.1,0.4,8.1,1.1,11.9,2c8,1.9,16.2,4.1,23.9,7c5.5,2.1,11.2,4.3,15.9,7.9
				c0.7,0.5,1.3,1.1,1.9,1.7c0.7,1.1,1.3,2.2,1.9,3.3c1.9,6.8,3.2,13.9,3.2,21c-5.1-4.3-12.2-6.6-18.3-8.9
				c-8.6-3.2-16.8-6.9-25.9-8.1c-11.4-1.5-22.7-0.6-33.8,2.4c-9.6,2.6-18,7.2-26.5,12.2c-0.1-0.1-0.2-0.3-0.3-0.4
				c-0.3-0.2-0.5-0.5-0.7-1C586.2,235.7,586.3,231.8,586.7,228z M561.2,257.7c-0.3,0-0.5,0.1-0.8,0.1c0.8-0.5,1.7-1,2.5-1.5
				C562.3,256.7,561.7,257.2,561.2,257.7z M692.6,253.5c-3.4,2.5-6.8,5.3-9.9,8.2c-1.1,0.7-2.2,1.4-3.2,2.2
				c-2.3,1.8-3.4,4.3-4.7,6.8c-0.4,0.6-0.8,1.2-1.2,1.8c-7.7-9.1-12.6-20.1-24.7-24.4c-3.3-1.2-6.9-1.6-10.5-1.9
				c-6.3-1.9-13-2.7-20.1-2.4c-8.1,0.4-16,2.1-23.7,4.4c-9.7,1.6-19.6,4.3-28,8.9c6.1-4.5,12.7-8.3,18.7-11.8
				c7.6-4.4,15-8.9,23.2-11.9c9.9-3.6,20.5-5.2,31.1-4.9c9.6,0.3,18.3,3,27.1,6.5c6.2,2.5,12.5,4.5,18.5,7.6c2.6,1.3,4.9,3,6.4,4.9
				c0,0.1,0,0.2,0,0.2c-0.1,1,0.5,1.6,1.2,1.8C693.1,250.8,693.1,252.1,692.6,253.5z"/>
		</g>
		<path clip-path="url(#SVGID_2_)" fill="#FAA41A" d="M235.5,294.4c-2.7-13.6-8.4-27.5-16.4-38.8c-11.9-16.9-31.4-27.3-51.9-29
			c-1.6-3.4-7.1-1.6-10.1-1.9c-0.1,0-0.3,0-0.4,0c-18.5-2.5-38.3,7.4-51.6,19.3c-9.5,8.5-19.9,19.3-24.6,31.4
			c-2.2,5.7-3.4,11.7-4.1,17.8c-0.1-1.4-2.2-1.4-2.2,0c0.2,7.9,0.7,15.8,2,23.6c0.1,0.5,0.4,0.7,0.7,0.7c2.9,19,13.6,35.8,29.2,47.8
			c5.4,4.2,11.2,7.9,16.8,11.8c3.6,2.5,7.2,5,11.1,6.9c-3.3-0.8-6.5-1.7-9.7-2.8c-1.9-0.6-3.2,2.4-1.4,3.2c29,13,60.3,3.9,83.5-16.2
			c9-7.8,17.1-17.3,21.7-28.5c0.6-1.4,1.1-2.8,1.6-4.2c0.5-0.1,1-0.3,1.2-0.9C236.3,321.8,238.3,308.3,235.5,294.4z M226.4,337.9
			c-4.4,10.3-11.8,18.9-20.1,26.3c-11.1,9.9-23.6,17.4-38.2,20.8c-2.2,0.5-4.4,0.9-6.6,1.2c5.2-1.3,10.2-3.2,14.5-4.9
			c1.5-0.6,1-3.1-0.7-2.6c-10.5,3.2-22.6,7.9-33.6,5c-6.2-1.6-11.9-5.5-17.2-9c-5.3-3.5-10.6-7.1-15.7-10.8
			c-9.3-6.9-17.1-15.6-22.5-25.8c-4.5-8.5-6.5-17.7-7.5-27.1c0.6-10.6-0.1-21.1,3.2-31.5c3.8-12.3,13.8-22.6,22.9-31.3
			c13.7-13.1,33-22.6,52.2-20.3c0.2,0.3,0.5,0.6,0.9,0.6c1.1,0.3,2.1,0.7,3.2,1c0.6,0.3,1.2-0.1,1.4-0.6c1.2,0.3,2.4,0.6,3.7,1
			c0.7,0.2,1.2-0.1,1.4-0.6c8.4,1,16.5,2.8,24.5,6.6c10,4.7,18.3,12.1,24.7,21c7.5,10.3,12,22.9,15.2,35.1c0.8,3.2,1.3,6.4,1.5,9.5
			c-0.4,0-0.9,0.3-0.9,0.9c0,1.3,0.2,2.6,0.5,3.9c0,0.1,0.1,0.2,0.1,0.4C232.3,317.5,230.7,328,226.4,337.9z"/>
	</g>
	<text transform="matrix(1 0 0 1 111.9634 550.6663)" fill="#395B88" font-family="'SourceSansPro-Bold'" font-size="60">1. Share your process</text>
</g>
</svg>
