<svg xmlns="http://www.w3.org/2000/svg" width="792" height="612" viewBox="0 0 792 612"><g id="Layer_1"><text transform="translate(35.376 550.666)" fill="#395B88" font-family="'SourceSansPro-Bold'" font-size="60">3. Use code as a design tool</text><g fill="#4E2F1B"><path d="M301.6 301.3l65.5-25.2v17.2l-25 8.3-19.2 6.7v.6l19.2 6.7 25 8.3V341l-65.5-25.2v-14.5zM490.4 315.8L425 341v-17.2l25-8.3 19.2-6.7v-.6l-19.2-6.7-25-8.3V276l65.5 25.2v14.6zM385.8 335.8c-2.8 11.8-5.4 25-.9 26 4.5 1.1 6.8-10.8 9.9-23.9.5-2 9.5-39.5 10.3-43.1l1.7.4 1.8-15c3.3-.5 5.8-2.9 6.9-5.7 3.4-8.4-1.6-10.9-1-14.8.3-2 1.7-4 3.7-5.5 2.1-1.6 4.7-3.1 4.7-3.1s-5.8-1.6-9.4-1.3c-6.3.5-13.2 4.7-16 10.5-3.5 7.1-3.4 13.5 2.1 17.4l-5.3 14.5 1.7.4c-.8 3.7-9.8 41.3-10.2 43.2z"/></g></g></svg>