<svg xmlns="http://www.w3.org/2000/svg" width="792" height="612" viewBox="0 0 792 612"><g id="Layer_1"><text transform="translate(269.012 550.666)" fill="#395B88" font-family="'SourceSansPro-Bold'" font-size="60">5. Donate</text><path fill="#EC3B24" d="M394.9 386.6c8 .5 15.7-2.3 23.6-3.4 3.3-3.3 6.3-7 8.3-10.6 5.1-9 10-19.5 12.8-29.4.1-.3.1-.7.1-1 7.9-2.8 15.2-7.6 21-13.6 6-6.3 11.4-12.6 16.2-19.4.1-.5.1-1 .1-1.4.2-3.6.1-7.3-.5-10.8-1-5.9-2.8-11.8-4.8-17.4-1.3 1.9-2.3 3.9-3.5 5.9-.9 1.7-2 3.3-3.2 4.9-3.8 2.3-7.5 5-11 7.7-2.6 2-5.5 3.3-8.4 4.6.1-5-2.1-10.8-3.1-14.5-3.3-12-8.1-23.6-14-34.6-5.2-9.9-13.1-17.4-21.2-25-.7-.6-1.4-1.3-2.1-2-4-.3-8-.9-12.1-.7-9.6.3-18.9 2.8-28 5.8 3.3 1.6 6.6 3.2 9.7 5.4 6 4.3 11.5 10.9 15.8 17.5 4.6 9.7 7.5 20.8 10.6 31-.4 4.9 1.8 9.7 2.5 14.6.8 6.3.6 12.9 1.6 19.2-16.6 4.6-34.7 6.2-51.7 4.9-8.9-.7-17.7-2.2-26.2-4.6-1.8-.5-3.6-1.1-5.2-1.7-2.4-1.6-4.1-4.3-5.9-6.6.3 3.7 1.4 7.2 1.9 10.9.4 3.4.7 6.5 2.1 9.7 1.7 3.8 4.4 7.9 5.7 12.2 1.3 1.2 2.6 2.4 4.1 3.4 8.6 6 20.3 8.5 31.1 9.7 2.5.5 5 .8 7.6.6.1 0 .2 0 .4-.1.4.1.9.2 1.5.1.5-.1 1-.1 1.4-.1 4 .3 7.9.5 12 .4.2 0 .4 0 .6-.1 1.3 0 2.6 0 3.9-.1.3 0 .5-.1.7-.1 1.4 0 2.8-.4 4.2-.9.1 0 .2-.1.4-.2 2.4-.2 4.7-.5 7.1-1.1-.1 6.9-3.2 13.1-6.8 18.9-2.2 3.5-4.7 6.7-7.7 9.6-.4.4-.8.8-1.2 1.1 3.2.4 6.6 1.1 9.6 1.3zM351.1 224.6c.1 6.6 2.8 14.9 10.2 14.6 4.8-.2 7-1.2 11.1-3.4 3.3-1.8 7.1-4 9.7-6.9 3.3 2.6 8.2 3.8 11.7 1.3 1.2-.8 2.5-2.2 3.5-3.8 1.7.9 3.8 1.4 5.6 1.9.1.3.2.5.4.7 3.6 3.4 10.3 4.6 14.9 2.4 6.2-2.9 6.2-12.3 4.8-18-.1-.5-.3-.8-.6-1.1-.7-5.6-4.3-11-10.3-10.8-3.7.1-7.4 2.7-10.5 4.4-3.2 1.8-6.9 2.5-9.9 4.5-2.6-.9-5.6-.9-7.7.1-1 .5-2.1 1.3-3.1 2.3-3.9-1.9-8.4-3.1-12.6-4.3-3.6-1-7.2-2.2-11-1.3-3.1.7-4.3 3.3-4.9 6.2-.1.1-.2.3-.2.5-.6 3.3-2.3 7.3-1.1 10.7z"/><path fill="#313C50" d="M354.2 235c1.8 2 4.2 2.6 6.7 2.4.1-.2.2-.4.5-.6 6.9-2.3 14-2.9 19.2-8 0-.1.1-.1.1-.2.3-.3.6-.7.9-1-.4-.4-.8-.8-1-1.3-.2-.3 0-.6.3-.7-.2-.4-.3-.8-.5-1.3 0-.1-.1-.1-.1-.2v-.2c0-.2-.1-.4-.1-.6-4.2 2-8.6 4.1-13.3 4.2-1.2 0-1.2-1.8 0-1.8 4.3 0 7.9-1.8 11.8-3.4.1-.1.1-.2.2-.3.3-.2.5-.3.8-.5 0-.2-.1-.4-.1-.6 0-.2.1-.3.2-.4.1-.3.5-.5.7-.1.1.2.1.4.2.6.1 0 .3 0 .4.1.2.1.4.4.4.7.1 0 .3.1.3.3.3.8.6 1.7 1 2.6 1.1.9 2.4 1.8 3 3.1 1 .6 2.5 1 4.1 1.1 1.2 0 2.4-.2 3.4-.6 2.1-1.6 4-5.7 4.3-9.4 0-.2-.1-.4-.1-.6 0-.2 0-.4.1-.5v-.6c-.9-2-2.3-3.7-3.9-4.8-.6-.4-.2-1.5.5-1.2.1 0 .1 0 .2.1 0 0 .1 0 .1.1l.6.3c3.4 1.8 5 6 4.7 9.9 3.9-1.3 8.1-1.7 11.4-4.3.7-.6 1.8.4 1 1-.2.1-.3.3-.5.4-.1.1-.1.3-.3.3-.2.1-.4.2-.5.3-3.3 2.1-7.3 2.6-10.9 4-.2.1-.3.1-.5 0-.1.5-.3.9-.4 1.3-.1.4-.2.9-.3 1.3.2.1.3.2.5.3.1-.1.3-.1.4-.2.4-.1.8 0 1 .3.2 0 .4.1.5.2.1 0 .2-.1.3-.1.1 0 .1 0 .2-.1.5-.2 1 .1 1.1.5 0 0 .1 0 .1.1 4.6 5.9 12.7 5.4 18.2 1.1.4-.3.8.1.5.5-.1.2-.3.3-.4.5-.1.2-.4.1-.5 0 0 .2-.1.4-.3.5-.9.6-1.8 1.3-2.8 1.7-2 .8-4.1 1.5-6.3 1.2-2-.3-3.8-1-5.7-1.8-.9-.4-2.3-1.9-3.4-2-.5.2-.9.5-1.4.7-.3.2-.7.1-.9-.2-.7.3-1.4.5-2.1.6-.4.3-.7.6-1.1.9-.1.1-.3.1-.4.1l-.1.1c-.2.2-.5.3-.7.5-.3.1-.5.2-.7.1-1.5.9-3.1 1.5-4.9 1.6-2.5.2-5.7-2-7.1-4.2-2.7 3.3-6.2 5.4-10 6.9 0 .2-.2.4-.4.5-1.1.6-2.3 1-3.5 1.2-5.3 1.8-12.4 3.8-15.5-1.6-.6-.6.3-1.4.8-.8z"/></g></svg>