<svg xmlns="http://www.w3.org/2000/svg" width="792" height="612" viewBox="0 0 792 612"><g id="Layer_1"><text transform="translate(220.683 550.666)" fill="#395B88" font-family="'SourceSansPro-Bold'" font-size="60">6. Contribute</text><g fill="#4E2F1B"><path d="M367.1 356.9c-.9-.4-1.8-.2-2.6.3-.3.2-.4.4-.4.8s.1.7.3 1c.2.3.5.4.7.7 0 0 1.2.5 2.9-.1.4-.1.6-.5.5-.9-.3-.8-.7-1.5-1.4-1.8zM477.2 301.6c0-.2-.1-.4-.2-.5-.2-3.5-1-6.8-1.9-10.4-1.5-6-2.4-11.9-5-17.5-2.7-6-6.8-11.4-10.7-16.6-1.4-1.9-2.4-4.2-4.1-5.9l-6.1-6.1-.7-.7-.2-.2c-1.6-1.6-3.3-3-4.7-4.1-5.7-4.8-13.1-6.7-19.7-9.6-6.8-2.9-13-5.3-20.5-5-6.6.2-13.3-.2-19.8.6-1.4.2-2.8.4-4 .6-5.8.8-11.3 2.7-16.6 5.1-11.2 4.9-20.8 13.1-28.9 22.1-4.4 4.9-11.1 11.7-13.5 18.7l-3 7.2c-1 2-1.8 4.1-2.5 6.4-2.4 8.3-2.6 17.3-2.1 25.9.3 5.2 1.4 10.4 2.7 15.5 1.1 4.1 3.3 7.7 4.6 11.6.2.7.4 1.4.7 2.2 0 .1.1.2.2.3l2.6 4.2c5.6 10 13.9 19.6 23.1 26.5 1.4 1.3 3 2.2 4.7 3.2l1.5.9c.1.1.2.1.3.1l7.1 4.1c6.3 3.9 12.5 6.1 14.1 1.4 3.8-3.2 1.1-11.9 1-15.9 0-.2-.1-.4-.2-.5.3-.8-.5-1.8-1.3-1.2-6.1 4.7-18.6.7-23.3-3.9-3.4-3.4-4.9-9.1-7.7-13-1.7-2.4-7-4.5-7.4-7.8 0 0 .1-.5.6-.9 3.5-2.3 8.7.4 12.3 3.5 0 0 .8.9 3.2 4.3 3.1 4 5.6 7.7 11 9.5 4.1 1.3 9.1.8 12.1-2.3 0 0 .9-1.4 1.3-2.6.2-.5.3-1.2.4-1.9.5-1.5 1-2.9 1.8-4.2.2-.3.4-.5.6-.8 0 0 1.1-1.6-1-1.8h-.1c-6.8-.2-12.8-2.8-18.7-6.2-1.1-.6-2.2-1.5-2.9-2.3-4.6-4.7-9.1-9.3-10.9-16v-.1c-.1-.6-.3-1.1-.4-1.7-1.9-12.2-.7-18.4-.7-18.4.1-.4.2-.8.2-1.2.8-5 2.9-9.4 5.4-13.6l1.2-1.2.1-.1s1.3-.8.6-2.2v-.1c-3-6.1-2.6-14.3 1-20 .1-.1.1-.3.1-.5 5.2.6 9.9 2.2 14.7 4.4 2.6 1.2 5.3 3.7 8.2 3.9 3.6.3 7-1.2 10.6-1.6.7-.1 6.1-.4 15.9.8.9.2 1.8.3 2.7.3 3 .4 6.3.9 9.9 1.6.4.2.8.3 1.2.4.4.1.8-.1 1-.4.6-.9 1.6-1.4 2.5-2 1.5-.8 3-1.8 4.4-2.7 3.1-1.9 6.7-2.6 10.2-3.5 4.9-1.3 5.7 3.8 6.5 7.4 1 4.6-.6 8.2-1.2 12.7 0 .2 0 .4.1.5l1.2 2.5c.1.3.2.5.4.8 1.2 2.2 3.1 4.5 4 5.9 2.4 4.2 2.5 11.1 2.6 15.7.1 5.4-1.3 10.6-3.4 15.5-.8 1.9-1.8 3.8-2.9 5.6-2.3 3.6-4.8 5.8-5.9 6.8-.2.1-.4.3-.6.4-1.8 1.4-3.5 3-5.9 3.6-5.4 1.4-10.9 4.2-16.5 4.4-.2 0-.3.1-.5.2h-.7c-1.7.2 0 1.8 0 1.8.4.9.9 1.7 1.4 2.5.1.3.3.6.5.9v.1c.2.5.5 1 .7 1.5.5 1.2.7 2.6.9 3.9-.2 1.4 0 3 .2 4.6.1 1.1.3 2.1.3 3 .2 4.4-.5 8.7-.7 13.1-.4 6.7 2.4 11.9 9.6 9.7 3.9-1.1 7.6-3.7 11.3-5.4 4.1-1.9 7.8-4.4 11-7.6 8.4-4.8 14.9-16.4 19.3-23.4 8.5-13.3 12.2-29.1 11.3-44.8z"/><path d="M343.5 340.3c-.3-.1-.6.1-.7.3 0 0-.6.7 0 1.6 0 .1.1.2.2.3 0 0 .9.4 1.6.2.1 0 .3-.1.4-.2l.1-.1c.1-.1.1-.1.1-.2v-.1c.1-.2 0-.4-.2-.6-.4-.5-.8-.9-1.5-1.2zM345.7 343.9s-.1.7.5 1.6c.2.4.7.6 1 .8.6.2 1.4-.2 1.1-.9-.2-.8-.7-1.5-1.2-2.1-.5-.5-1.4-.1-1.4.6zM350.6 347.9c-.1-.1-.1-.2-.2-.2-.5-.5-1.6 0-1.3.8.1.4.4.8.6 1.1.2.3.3.7.5 1 .2.4.7.4 1.1.3.4 0 .8-.4.7-.9-.4-1.2-1.4-2.1-1.4-2.1zM354 352.2c-.7-.5-1.5.4-1.1 1.1.1.2.2.3.3.4 0 0 .4.4.3.4l.4.4.3.3.1.1c.1.1.3.2.4.3.6.3 1.2-.2 1.1-.8-.2-1.1-.9-1.7-1.8-2.2zM359.5 355.9h-1c-.7 0-1.2.9-.6 1.5.4.4.8.6 1.3.8.4.2 1 .3 1.4.2.2-.1.3-.2.4-.3.3-.2.4-.8.1-1.1-.4-.3-.7-.8-1.2-.9-.1-.2-.3-.2-.4-.2zM372.6 358.4c.3 0 1.1-.2 1.5-.4.1 0 .1-.1.2-.1.3-.2.5-.6.3-1-.3-.5-.8-1.2-1.5-1.2-.7.1-1.1.7-1.3 1.3-.3.7.1 1.5.8 1.4-.1 0-.1 0 0 0z"/></g></g></svg>