<svg xmlns="http://www.w3.org/2000/svg" width="792" height="612" viewBox="0 0 792 612"><g id="Layer_1"><path fill="#6D6E71" d="M620.8 568.6c-20.1-22.7-39.3-46.2-56.8-71.1-8.7-12.3-16.6-25.2-25.3-37.5-8.5-11.9-17.5-23.5-26.5-35-15.6-20.1-31.1-40.3-44.1-62.1-2.2-3.7-4.4-7.4-6.5-11.1-1.2 1.8-2.5 3.5-3.9 5.1-.2.1-.4.3-.5.5-.5-.3-1.1-.4-1.8-.3-1.6.2-3.2.6-4.8 1h-.2c-3.2.8-6.3 1.7-9.5 2.6-5.8 1.5-11.6 1.5-17.6 1.6-10.8.1-21.5-.4-32.3.1-14.9.8-31.2 2.9-46.2.2-1.3-.7-2.7-1.4-4-2.2-.9-.5-1.8-.4-2.4 0l-2.1-1.2c-3.1-3.5-5.9-7.2-8.3-11.2-6.3 6.8-12.7 13.5-19.2 20.2-21.8 22.7-42 46.8-63.7 69.7-45.3 47.8-90.4 95.9-134.7 144.8-8.3 9.2-16.2 18.8-25 27.5l-1.9 1.9h576.8c-13.3-14.5-26.5-28.9-39.5-43.5z"/><path fill="#FAA41A" d="M398.7 431.1c-6.6-.5-13.2-1.2-19.7-2.2-2.5 0-4.9-.1-7.4-.1-3.1 0-6.2 0-9.3.2-.3 0-.5 0-.8.1-.5.5-1 .9-1.6 1.2-3.3 10.1-6.6 20.2-9.7 30.3-2.1 6.8-4.1 13.6-6.1 20.4 17.7 3 35.8 2.3 53.9 2.2l.3-9c.4-14.3.4-28.7.4-43.1zM335.6 511.7c-5.8 22-11.2 44.1-16 66.4 6.7-.3 13.4-.1 20.2.3 10.7.6 21.3.7 32 .4 7.1-.2 14.2-.2 21.2-.1.1-1.9.2-3.8.2-5.6.9-18.2 2-36.5 3-54.7-20.1-.9-40.5-4-60.6-6.7zM337.4 596.8c-2.1.1-4.3.2-6.4.2-.5 0-1-.1-1.5-.2-4.6 0-9.1-.1-13.6-.4-1.1 5.2-2.1 10.4-3.1 15.6H392c.1-4.7.2-9.4.4-14.1-18.4-.3-36.7-1.4-55-1.1zM385.9 408.5c4 .5 8.3.9 12.6 1.4-.1-11.1-.1-22.1 0-33.2-6.9-.8-13.8-1.1-20.8-.7-3.3 10.4-6.7 20.7-10.1 31.1 6.1.1 12.2.7 18.3 1.4zM391 362.4c-3 .2-6.1.4-9.2.6l-.9 3c6-.2 11.9.1 17.8.8 0-1.5.1-3.1.1-4.6-2.6 0-5.2 0-7.8.2z"/><path opacity=".5" d="M457.1 357.4c-.5-.3-1.1-.4-1.8-.3-1.6.2-3.2.6-4.8 1h-.2c-3.2.8-6.3 1.7-9.5 2.6-5.8 1.5-11.6 1.5-17.6 1.6-10.8.1-21.5-.4-32.3.1-14.9.8-31.2 2.9-46.2.2-1.3-.7-2.7-1.4-4-2.2-.9-.5-1.8-.4-2.4 0-.8-.5-1.6-.9-2.4-1.4-.8 0-1.6-.1-2.4 0-2.8.1-2.7 4 0 4.3.2 0 .5 0 .7.1.2.4.7.8 1.3.8h.5c.2 0 .3.1.5.1h1c0 .6.1 1.3.5 1.8.2 0 .3.1.5.1-.1.1-.1.2-.1.3.3.3.6.5 1 .6 1.4.5 2.9.6 4.4.7.4.8 1.1 1.5 2.3 1.5 14.7 1 28.3 7.3 43.1 7.2 10.4-.1 20.6-2.4 30.8-3.8 2.7-.2 5.4-.4 8.1-.8.6 0 1.3-.1 1.9-.1.5 0 1-.2 1.4-.4 1.4-.2 2.8-.5 4.1-.8 4.8-.3 9.5-1 13.3-3.2.9-.5 1.3-1.4 1.2-2.3 3.5-.6 7-1.8 10.3-3.7 2-1.2 1.5-3.7-.2-4.6-.1 0-.3-.1-.4-.1-1.1-.3-2 0-2.6.7z"/></g></svg>