<?xml version="1.0" encoding="utf-8"?>
<!-- Generator: Adobe Illustrator 18.0.0, SVG Export Plug-In . SVG Version: 6.00 Build 0)  -->
<!DOCTYPE svg PUBLIC "-//W3C//DTD SVG 1.1//EN" "http://www.w3.org/Graphics/SVG/1.1/DTD/svg11.dtd">
<svg version="1.1" xmlns="http://www.w3.org/2000/svg" xmlns:xlink="http://www.w3.org/1999/xlink" x="0px" y="0px" width="792px"
	 height="612px" viewBox="0 0 792 612" enable-background="new 0 0 792 612" xml:space="preserve">
<g id="Layer_2" display="none">
	<circle display="inline" fill="#FAA41A" cx="396" cy="306" r="80"/>
</g>
<g id="Layer_1">
	<path fill="#6D6E71" d="M620.8,568.6c-20.1-22.7-39.3-46.2-56.8-71.1c-8.7-12.3-16.6-25.2-25.3-37.5c-8.5-11.9-17.5-23.5-26.5-35
		c-15.6-20.1-31.1-40.3-44.1-62.1c-2.2-3.7-4.4-7.4-6.5-11.1c-1.2,1.8-2.5,3.5-3.9,5.1c-0.2,0.1-0.4,0.3-0.5,0.5
		c-0.5-0.3-1.1-0.4-1.8-0.3c-1.6,0.2-3.2,0.6-4.8,1c-0.1,0-0.1,0-0.2,0c-3.2,0.8-6.3,1.7-9.5,2.6c-5.8,1.5-11.6,1.5-17.6,1.6
		c-10.8,0.1-21.5-0.4-32.3,0.1c-14.9,0.8-31.2,2.9-46.2,0.2c-1.3-0.7-2.7-1.4-4-2.2c-0.9-0.5-1.8-0.4-2.4,0
		c-0.7-0.4-1.4-0.8-2.1-1.2c-3.1-3.5-5.9-7.2-8.3-11.2c-6.3,6.8-12.7,13.5-19.2,20.2c-21.8,22.7-42,46.8-63.7,69.7
		c-45.3,47.8-90.4,95.9-134.7,144.8c-8.3,9.2-16.2,18.8-25,27.5c-0.6,0.6-1.3,1.3-1.9,1.9h576.8C647,597.6,633.8,583.2,620.8,568.6z
		"/>
	<path fill="#FAA41A" d="M398.7,431.1c-6.6-0.5-13.2-1.2-19.7-2.2c-2.5,0-4.9-0.1-7.4-0.1c-3.1,0-6.2,0-9.3,0.2
		c-0.3,0-0.5,0-0.8,0.1c-0.5,0.5-1,0.9-1.6,1.2c-3.3,10.1-6.6,20.2-9.7,30.3c-2.1,6.8-4.1,13.6-6.1,20.4c17.7,3,35.8,2.3,53.9,2.2
		c0.1-3,0.2-6,0.3-9C398.7,459.9,398.7,445.5,398.7,431.1z"/>
	<path fill="#FAA41A" d="M335.6,511.7c-5.8,22-11.2,44.1-16,66.4c6.7-0.3,13.4-0.1,20.2,0.3c10.7,0.6,21.3,0.7,32,0.4
		c7.1-0.2,14.2-0.2,21.2-0.1c0.1-1.9,0.2-3.8,0.2-5.6c0.9-18.2,2-36.5,3-54.7C376.1,517.5,355.7,514.4,335.6,511.7z"/>
	<path fill="#FAA41A" d="M337.4,596.8c-2.1,0.1-4.3,0.2-6.4,0.2c-0.5,0-1-0.1-1.5-0.2c-4.6,0-9.1-0.1-13.6-0.4
		c-1.1,5.2-2.1,10.4-3.1,15.6H392c0.1-4.7,0.2-9.4,0.4-14.1C374,597.6,355.7,596.5,337.4,596.8z"/>
	<path fill="#FAA41A" d="M385.9,408.5c4,0.5,8.3,0.9,12.6,1.4c-0.1-11.1-0.1-22.1,0-33.2c0,0,0,0,0,0c-6.9-0.8-13.8-1.1-20.8-0.7
		c-3.3,10.4-6.7,20.7-10.1,31.1C373.7,407.2,379.8,407.8,385.9,408.5z"/>
	<path fill="#FAA41A" d="M391,362.4c-3,0.2-6.1,0.4-9.2,0.6c-0.3,1-0.6,2-0.9,3c6-0.2,11.9,0.1,17.8,0.8c0-1.5,0.1-3.1,0.1-4.6
		C396.2,362.2,393.6,362.2,391,362.4z"/>
	<path opacity="0.5" d="M457.1,357.4c-0.5-0.3-1.1-0.4-1.8-0.3c-1.6,0.2-3.2,0.6-4.8,1c-0.1,0-0.1,0-0.2,0c-3.2,0.8-6.3,1.7-9.5,2.6
		c-5.8,1.5-11.6,1.5-17.6,1.6c-10.8,0.1-21.5-0.4-32.3,0.1c-14.9,0.8-31.2,2.9-46.2,0.2c-1.3-0.7-2.7-1.4-4-2.2
		c-0.9-0.5-1.8-0.4-2.4,0c-0.8-0.5-1.6-0.9-2.4-1.4c-0.8,0-1.6-0.1-2.4,0c-2.8,0.1-2.7,4,0,4.3c0.2,0,0.5,0,0.7,0.1
		c0.2,0.4,0.7,0.8,1.3,0.8c0.2,0,0.3,0,0.5,0c0.2,0,0.3,0.1,0.5,0.1c0.3,0,0.7,0,1,0c0,0.6,0.1,1.3,0.5,1.8c0.2,0,0.3,0.1,0.5,0.1
		c-0.1,0.1-0.1,0.2-0.1,0.3c0.3,0.3,0.6,0.5,1,0.6c1.4,0.5,2.9,0.6,4.4,0.7c0.4,0.8,1.1,1.5,2.3,1.5c14.7,1,28.3,7.3,43.1,7.2
		c10.4-0.1,20.6-2.4,30.8-3.8c0,0,0,0,0,0c2.7-0.2,5.4-0.4,8.1-0.8c0.6,0,1.3-0.1,1.9-0.1c0.5,0,1-0.2,1.4-0.4
		c1.4-0.2,2.8-0.5,4.1-0.8c4.8-0.3,9.5-1,13.3-3.2c0.9-0.5,1.3-1.4,1.2-2.3c3.5-0.6,7-1.8,10.3-3.7c2-1.2,1.5-3.7-0.2-4.6
		c-0.1,0-0.3-0.1-0.4-0.1C458.6,356.4,457.7,356.7,457.1,357.4z"/>
</g>
</svg>
