<?xml version="1.0" encoding="utf-8"?>
<!-- Generator: Adobe Illustrator 18.0.0, SVG Export Plug-In . SVG Version: 6.00 Build 0)  -->
<!DOCTYPE svg PUBLIC "-//W3C//DTD SVG 1.1//EN" "http://www.w3.org/Graphics/SVG/1.1/DTD/svg11.dtd">
<svg version="1.1" xmlns="http://www.w3.org/2000/svg" xmlns:xlink="http://www.w3.org/1999/xlink" x="0px" y="0px" width="792px"
	 height="612px" viewBox="0 0 792 612" enable-background="new 0 0 792 612" xml:space="preserve">
<g id="Layer_2" display="none">
	<circle display="inline" fill="#FAA41A" cx="396" cy="306" r="80"/>
</g>
<g id="Layer_1">
	<text transform="matrix(1 0 0 1 232.1665 456.1107)" fill="#395B88" font-family="'SourceSansPro-Bold'" font-size="36">opensourcedesign.is</text>
	<text transform="matrix(1 0 0 1 315.5586 511.7279)" fill="#395B88" font-family="'SourceSansPro-Bold'" font-size="36">@garthdb</text>
	<g>
		<path d="M398.4,376.7v-59.9c5.2-1.1,9-5.7,9-11.2c0-6.3-5.1-11.4-11.4-11.4s-11.4,5.1-11.4,11.4c0,5.5,3.9,10.1,9,11.2v59.9
			c0.8,0,1.6,0.1,2.4,0.1S397.6,376.7,398.4,376.7z"/>
		<path d="M466.8,306c0-39.1-31.7-70.8-70.8-70.8s-70.8,31.7-70.8,70.8c0,36.7,27.9,66.9,63.7,70.4c-0.5-28.9-17.9-51.1-25.1-59.1v0
			c0,0-3-3.6-1.3-7.9l13.3-33.8c0,0,2.5-6.2,7.9-6.2H396h12.2c5.5,0,7.9,6.2,7.9,6.2l13.3,33.8c1.7,4.3-1.3,7.9-1.3,7.9v0
			c-7.2,8-24.6,30.3-25.1,59.1C438.9,372.9,466.8,342.7,466.8,306z"/>
	</g>
</g>
</svg>
